#define 00_width 16
#define 00_height 16
static unsigned char 00_bits[] = {
   0x88, 0x88, 0x22, 0x22, 0x88, 0x88, 0x22, 0x22, 0x88, 0x88, 0x22, 0x22,
   0x88, 0x88, 0x22, 0x22, 0x88, 0x88, 0x22, 0x22, 0x88, 0x88, 0x22, 0x22,
   0x88, 0x88, 0x22, 0x22, 0x88, 0x88, 0x22, 0x22 };
