#define 02_width 16
#define 02_height 16
static unsigned char 02_bits[] = {
   0x60, 0x60, 0xc0, 0xc0, 0x81, 0x81, 0x03, 0x03, 0x06, 0x06, 0x0c, 0x0c,
   0x18, 0x18, 0x30, 0x30, 0x60, 0x60, 0xc0, 0xc0, 0x81, 0x81, 0x03, 0x03,
   0x06, 0x06, 0x0c, 0x0c, 0x18, 0x18, 0x30, 0x30 };
