#define 03_width 16
#define 03_height 16
static unsigned char 03_bits[] = {
   0x10, 0x10, 0x10, 0x10, 0x10, 0x10, 0x10, 0x10, 0x10, 0x10, 0x10, 0x10,
   0x10, 0x10, 0x10, 0x10, 0x10, 0x10, 0x10, 0x10, 0x10, 0x10, 0x10, 0x10,
   0x10, 0x10, 0x10, 0x10, 0x10, 0x10, 0x10, 0x10 };
