#define 05_width 16
#define 05_height 16
static unsigned char 05_bits[] = {
   0xc3, 0xc3, 0x66, 0x66, 0x3c, 0x3c, 0x18, 0x18, 0x3c, 0x3c, 0x66, 0x66,
   0xc3, 0xc3, 0x81, 0x81, 0xc3, 0xc3, 0x66, 0x66, 0x3c, 0x3c, 0x18, 0x18,
   0x3c, 0x3c, 0x66, 0x66, 0xc3, 0xc3, 0x81, 0x81 };
