#define 06_width 16
#define 06_height 16
static unsigned char 06_bits[] = {
   0x10, 0x10, 0x10, 0x10, 0x10, 0x10, 0x10, 0x10, 0xff, 0xff, 0x10, 0x10,
   0x10, 0x10, 0x10, 0x10, 0x10, 0x10, 0x10, 0x10, 0x10, 0x10, 0x10, 0x10,
   0xff, 0xff, 0x10, 0x10, 0x10, 0x10, 0x10, 0x10 };
