#define up_width 16
#define up_height 16
static unsigned char up_bits[] = {
   0x00, 0x00, 0x00, 0x00, 0x00, 0x00, 0x00, 0x00, 0x00, 0x00, 0x80, 0x01,
   0xc0, 0x03, 0x40, 0x02, 0x60, 0x06, 0x20, 0x04, 0x30, 0x0c, 0xf0, 0x0f,
   0x00, 0x00, 0x00, 0x00, 0x00, 0x00, 0x00, 0x00 };
