<?xml version="1.0" encoding="UTF-8"?>
<svg xmlns="http://www.w3.org/2000/svg" xmlns:xlink="http://www.w3.org/1999/xlink"
     width="400.0" height="137.1305770785276" viewBox="-37.8975177934189 -116.76031623982178 400.0 137.1305770785276">
<defs>
<style type="text/css">
.l0d0 {stroke: rgb(255, 0, 0); fill: rgb(255, 0, 0); fill-opacity: 0.5;}
</style>
</defs><rect x="-37.8975177934189" y="-116.76031623982178" width="400.0" height="137.1305770785276" fill="none" stroke="none"/>
<g id="boolean_operations" transform="scale(1 -1)">
<polygon class="l0d0" points="343.9206640247629,98.57849805800359 -19.71569961160072,98.57849805800359 -19.71569961160072,26.281027582263757 0.0,26.281027582263757 0.0,70.10902781885216 8.75377062755072,70.10902781885216 8.75377062755072,78.86279844640288 43.8082845369768,78.86279844640288 43.8082845369768,70.10902781885216 8.75377062755072,70.10902781885216 0.0,70.10902781885216 8.75377062755072,70.10902781885216 8.75377062755072,26.281027582263757 35.05451390942608,26.281027582263757 35.05451390942608,43.8082845369768 17.52725695471304,43.8082845369768 17.52725695471304,52.581770864139116 43.8082845369768,52.581770864139116 43.8082845369768,17.52725695471304 70.10902781885216,17.52725695471304 70.10902781885216,78.86279844640288 96.39005540111592,78.86279844640288 96.39005540111592,70.10902781885216 78.86279844640288,70.10902781885216 78.86279844640288,61.33554149168984 96.39005540111592,61.33554149168984 96.39005540111592,70.10902781885216 105.14382602866664,70.10902781885216 105.14382602866664,61.33554149168984 96.39005540111592,61.33554149168984 78.86279844640288,61.33554149168984 78.86279844640288,26.281027582263757 96.39005540111592,26.281027582263757 96.39005540111592,35.05451390942608 105.14382602866664,35.05451390942608 105.14382602866664,61.33554149168984 113.91731235582895,61.33554149168984 113.91731235582895,52.581770864139116 140.19833993809272,52.581770864139116 140.19833993809272,70.10902781885216 148.97182626525503,70.10902781885216 148.97182626525503,78.86279844640288 184.00662447506951,78.86279844640288 184.00662447506951,70.10902781885216 148.97182626525503,70.10902781885216 140.19833993809272,70.10902781885216 148.97182626525503,70.10902781885216 148.97182626525503,52.581770864139116 140.19833993809272,52.581770864139116 113.91731235582895,52.581770864139116 113.91731235582895,43.8082845369768 148.97182626525503,43.8082845369768 148.97182626525503,52.581770864139116 175.2528538475188,52.581770864139116 175.2528538475188,43.8082845369768 148.97182626525503,43.8082845369768 113.91731235582895,43.8082845369768 113.91731235582895,35.05451390942608 105.14382602866664,35.05451390942608 96.39005540111592,35.05451390942608 105.14382602866664,35.05451390942608 105.14382602866664,26.281027582263757 96.39005540111592,26.281027582263757 78.86279844640288,26.281027582263757 96.39005540111592,26.281027582263757 96.39005540111592,17.52725695471304 140.19833993809272,17.52725695471304 140.19833993809272,26.281027582263757 175.2528538475188,26.281027582263757 175.2528538475188,43.8082845369768 184.00662447506951,43.8082845369768 184.00662447506951,26.281027582263757 175.2528538475188,26.281027582263757 140.19833993809272,26.281027582263757 175.2528538475188,26.281027582263757 175.2528538475188,17.52725695471304 210.30736775694487,17.52725695471304 210.30736775694487,78.86279844640288 245.34216596675935,78.86279844640288 245.34216596675935,70.10902781885216 219.0611383844956,70.10902781885216 219.0611383844956,52.581770864139116 245.34216596675935,52.581770864139116 245.34216596675935,70.10902781885216 254.11565229392167,70.10902781885216 254.11565229392167,61.33554149168984 280.39667987618543,61.33554149168984 280.39667987618543,78.86279844640288 289.1701662033477,78.86279844640288 289.1701662033477,61.33554149168984 280.39667987618543,61.33554149168984 254.11565229392167,61.33554149168984 254.11565229392167,52.581770864139116 245.34216596675935,52.581770864139116 219.0611383844956,52.581770864139116 245.34216596675935,52.581770864139116 245.34216596675935,43.8082845369768 289.1701662033477,43.8082845369768 289.1701662033477,61.33554149168984 297.92393683089847,61.33554149168984 297.92393683089847,43.8082845369768 306.69742315806076,43.8082845369768 306.69742315806076,61.33554149168984 315.4511937856115,61.33554149168984 315.4511937856115,78.86279844640288 324.2049644131622,78.86279844640288 324.2049644131622,61.33554149168984 315.4511937856115,61.33554149168984 306.69742315806076,61.33554149168984 315.4511937856115,61.33554149168984 315.4511937856115,43.8082845369768 306.69742315806076,43.8082845369768 297.92393683089847,43.8082845369768 289.1701662033477,43.8082845369768 245.34216596675935,43.8082845369768 219.0611383844956,43.8082845369768 219.0611383844956,17.52725695471304 297.92393683089847,17.52725695471304 297.92393683089847,43.8082845369768 306.69742315806076,43.8082845369768 306.69742315806076,17.52725695471304 297.92393683089847,17.52725695471304 219.0611383844956,17.52725695471304 210.30736775694487,17.52725695471304 175.2528538475188,17.52725695471304 140.19833993809272,17.52725695471304 96.39005540111592,17.52725695471304 70.10902781885216,17.52725695471304 43.8082845369768,17.52725695471304 8.75377062755072,17.52725695471304 8.75377062755072,26.281027582263757 0.0,26.281027582263757 -19.71569961160072,26.281027582263757 -19.71569961160072,-2.18844265688768 343.9206640247629,-2.18844265688768"/>
</g>
</svg>