<?xml version="1.0" encoding="UTF-8"?>
<svg xmlns="http://www.w3.org/2000/svg" xmlns:xlink="http://www.w3.org/1999/xlink"
     width="400.0" height="137.13" viewBox="-37.9 -116.76 400.0 137.13">
<defs>
<style type="text/css">
.l0d0 {stroke: rgb(255, 0, 0); fill: rgb(255, 0, 0); fill-opacity: 0.5;}
</style>
</defs>
<rect x="-37.9" y="-116.76" width="400.0" height="137.13" fill="none" stroke="none"/>
<g id="boolean_operations" transform="scale(1 -1)">
<polygon class="l0d0" points="343.92,98.58 -19.72,98.58 -19.72,26.28 0.0,26.28 0.0,70.11 8.75,70.11 8.75,78.86 43.81,78.86 43.81,70.11 8.75,70.11 0.0,70.11 8.75,70.11 8.75,26.28 35.05,26.28 35.05,43.81 17.53,43.81 17.53,52.58 43.81,52.58 43.81,17.53 70.11,17.53 70.11,78.86 96.39,78.86 96.39,70.11 78.86,70.11 78.86,61.34 96.39,61.34 96.39,70.11 105.14,70.11 105.14,61.34 96.39,61.34 78.86,61.34 78.86,26.28 96.39,26.28 96.39,35.05 105.14,35.05 105.14,61.34 113.92,61.34 113.92,52.58 140.2,52.58 140.2,70.11 148.97,70.11 148.97,78.86 184.01,78.86 184.01,70.11 148.97,70.11 140.2,70.11 148.97,70.11 148.97,52.58 140.2,52.58 113.92,52.58 113.92,43.81 148.97,43.81 148.97,52.58 175.25,52.58 175.25,43.81 148.97,43.81 113.92,43.81 113.92,35.05 105.14,35.05 96.39,35.05 105.14,35.05 105.14,26.28 96.39,26.28 78.86,26.28 96.39,26.28 96.39,17.53 140.2,17.53 140.2,26.28 175.25,26.28 175.25,43.81 184.01,43.81 184.01,26.28 175.25,26.28 140.2,26.28 175.25,26.28 175.25,17.53 210.31,17.53 210.31,78.86 245.34,78.86 245.34,70.11 219.06,70.11 219.06,52.58 245.34,52.58 245.34,70.11 254.12,70.11 254.12,61.34 280.4,61.34 280.4,78.86 289.17,78.86 289.17,61.34 280.4,61.34 254.12,61.34 254.12,52.58 245.34,52.58 219.06,52.58 245.34,52.58 245.34,43.81 289.17,43.81 289.17,61.34 297.92,61.34 297.92,43.81 306.7,43.81 306.7,61.34 315.45,61.34 315.45,78.86 324.2,78.86 324.2,61.34 315.45,61.34 306.7,61.34 315.45,61.34 315.45,43.81 306.7,43.81 297.92,43.81 289.17,43.81 245.34,43.81 219.06,43.81 219.06,17.53 297.92,17.53 297.92,43.81 306.7,43.81 306.7,17.53 297.92,17.53 219.06,17.53 210.31,17.53 175.25,17.53 140.2,17.53 96.39,17.53 70.11,17.53 43.81,17.53 8.75,17.53 8.75,26.28 0.0,26.28 -19.72,26.28 -19.72,-2.19 343.92,-2.19"/>
</g>
</svg>