<?xml version="1.0" encoding="UTF-8"?>
<svg xmlns="http://www.w3.org/2000/svg" xmlns:xlink="http://www.w3.org/1999/xlink" width="405.76800000000003" height="139.108" viewBox="-38.444 -118.444 405.76800000000003 139.108">
<defs>
<style type="text/css">
.l0d0 {stroke: rgb(255, 0, 0); fill: rgb(255, 0, 0); fill-opacity: 0.5;}
</style>
</defs><rect x="-38.444" y="-118.444" width="405.76800000000003" height="139.108" fill="none" stroke="none"/>
<g id="boolean_operations" transform="scale(1 -1)">
<polygon class="l0d0" points="348.88,100.0 -20.0,100.0 -20.0,26.66 0.0,26.66 0.0,71.12 8.88,71.12 8.88,80.0 44.44,80.0 44.44,71.12 8.88,71.12 0.0,71.12 8.88,71.12 8.88,26.66 35.56,26.66 35.56,44.44 17.78,44.44 17.78,53.339999999999996 44.44,53.339999999999996 44.44,17.78 71.12,17.78 71.12,80.0 97.78,80.0 97.78,71.12 80.0,71.12 80.0,62.220000000000006 97.78,62.220000000000006 97.78,71.12 106.66,71.12 106.66,62.220000000000006 97.78,62.220000000000006 80.0,62.220000000000006 80.0,26.66 97.78,26.66 97.78,35.56 106.66,35.56 106.66,62.220000000000006 115.55999999999999,62.220000000000006 115.55999999999999,53.339999999999996 142.22,53.339999999999996 142.22,71.12 151.12,71.12 151.12,80.0 186.66,80.0 186.66,71.12 151.12,71.12 142.22,71.12 151.12,71.12 151.12,53.339999999999996 142.22,53.339999999999996 115.55999999999999,53.339999999999996 115.55999999999999,44.44 151.12,44.44 151.12,53.339999999999996 177.77999999999997,53.339999999999996 177.77999999999997,44.44 151.12,44.44 115.55999999999999,44.44 115.55999999999999,35.56 106.66,35.56 97.78,35.56 106.66,35.56 106.66,26.66 97.78,26.66 80.0,26.66 97.78,26.66 97.78,17.78 142.22,17.78 142.22,26.66 177.77999999999997,26.66 177.77999999999997,44.44 186.66,44.44 186.66,26.66 177.77999999999997,26.66 142.22,26.66 177.77999999999997,26.66 177.77999999999997,17.78 213.34,17.78 213.34,80.0 248.88000000000002,80.0 248.88000000000002,71.12 222.22000000000003,71.12 222.22000000000003,53.339999999999996 248.88000000000002,53.339999999999996 248.88000000000002,71.12 257.78,71.12 257.78,62.220000000000006 284.44,62.220000000000006 284.44,80.0 293.34,80.0 293.34,62.220000000000006 284.44,62.220000000000006 257.78,62.220000000000006 257.78,53.339999999999996 248.88000000000002,53.339999999999996 222.22000000000003,53.339999999999996 248.88000000000002,53.339999999999996 248.88000000000002,44.44 293.34,44.44 293.34,62.220000000000006 302.22,62.220000000000006 302.22,44.44 311.12,44.44 311.12,62.220000000000006 320.0,62.220000000000006 320.0,80.0 328.88,80.0 328.88,62.220000000000006 320.0,62.220000000000006 311.12,62.220000000000006 320.0,62.220000000000006 320.0,44.44 311.12,44.44 302.22,44.44 293.34,44.44 248.88000000000002,44.44 222.22000000000003,44.44 222.22000000000003,17.78 302.22,17.78 302.22,44.44 311.12,44.44 311.12,17.78 302.22,17.78 222.22000000000003,17.78 213.34,17.78 177.77999999999997,17.78 142.22,17.78 97.78,17.78 71.12,17.78 44.44,17.78 8.88,17.78 8.88,26.66 0.0,26.66 -20.0,26.66 -20.0,-2.22 348.88,-2.22"/>
</g>
</svg>