<?xml version="1.0" encoding="UTF-8"?>
<svg xmlns="http://www.w3.org/2000/svg" xmlns:xlink="http://www.w3.org/1999/xlink"
     width="405.19" height="457.14" viewBox="-124.68 -332.47 405.19 457.14">
<defs>
<style type="text/css">
.l0d0 {stroke: rgb(255, 0, 0); fill: rgb(255, 0, 0); fill-opacity: 0.5;}
</style>
</defs>
<rect x="-124.68" y="-332.47" width="405.19" height="457.14" fill="none" stroke="none"/>
<g id="circles" transform="scale(1 -1)">
<polygon class="l0d0" points="103.9,0.0 101.9,20.27 95.99,39.76 86.39,57.72 73.47,73.47 57.72,86.39 39.76,95.99 20.27,101.9 0.0,103.9 -20.27,101.9 -39.76,95.99 -57.72,86.39 -73.47,73.47 -86.39,57.72 -95.99,39.76 -101.9,20.27 -103.9,0.0 -101.9,-20.27 -95.99,-39.76 -86.39,-57.72 -73.47,-73.47 -57.72,-86.39 -39.76,-95.99 -20.27,-101.9 -0.0,-103.9 20.27,-101.9 39.76,-95.99 57.72,-86.39 73.47,-73.47 86.39,-57.72 95.99,-39.76 101.9,-20.27"/>
<polygon class="l0d0" points="207.79,0.0 259.74,0.0 259.73,2.11 259.7,4.21 259.64,6.31 259.57,8.41 259.47,10.51 259.36,12.6 259.22,14.69 259.06,16.77 258.88,18.85 258.68,20.91 258.45,22.97 258.21,25.02 257.95,27.06 257.66,29.09 257.36,31.1 257.03,33.11 256.69,35.09 256.32,37.07 255.94,39.03 255.53,40.97 255.11,42.9 254.66,44.81 254.2,46.7 253.71,48.57 253.21,50.42 252.69,52.25 252.15,54.06 251.6,55.85 251.02,57.61 250.43,59.35 249.82,61.07 249.19,62.76 248.55,64.42 247.89,66.06 247.21,67.68 246.51,69.26 245.8,70.81 245.08,72.34 244.34,73.84 243.58,75.3 242.81,76.74 242.03,78.14 241.23,79.51 240.42,80.85 239.59,82.16 238.75,83.43 237.9,84.67 237.03,85.87 236.16,87.04 235.27,88.17 234.37,89.27 233.46,90.33 232.54,91.35 231.61,92.33 230.67,93.28 229.72,94.19 228.76,95.06 227.79,95.89 226.82,96.68 225.83,97.43 224.84,98.14 223.85,98.81 222.84,99.44 221.83,100.03 220.81,100.58 219.79,101.09 218.76,101.55 217.73,101.98 216.7,102.36 215.66,102.7 214.62,103.0 213.57,103.25 212.52,103.46 211.47,103.63 210.42,103.76 209.37,103.85 208.32,103.89 207.27,103.89 206.21,103.85 205.16,103.76 204.11,103.63 203.06,103.46 202.01,103.25 200.97,103.0 199.93,102.7 198.89,102.36 197.85,101.98 196.82,101.55 195.79,101.09 194.77,100.58 193.75,100.03 192.74,99.44 191.74,98.81 190.74,98.14 189.75,97.43 188.77,96.68 187.79,95.89 186.82,95.06 185.86,94.19 184.91,93.28 183.97,92.33 183.04,91.35 182.12,90.33 181.21,89.27 180.31,88.17 179.43,87.04 178.55,85.87 177.69,84.67 176.83,83.43 175.99,82.16 175.17,80.85 174.36,79.51 173.56,78.14 172.77,76.74 172.0,75.3 171.25,73.84 170.51,72.34 169.78,70.81 169.07,69.26 168.38,67.68 167.7,66.06 167.04,64.42 166.39,62.76 165.77,61.07 165.16,59.35 164.56,57.61 163.99,55.85 163.43,54.06 162.89,52.25 162.37,50.42 161.87,48.57 161.39,46.7 160.92,44.81 160.48,42.9 160.05,40.97 159.65,39.03 159.26,37.07 158.9,35.09 158.55,33.11 158.23,31.1 157.92,29.09 157.64,27.06 157.37,25.02 157.13,22.97 156.91,20.91 156.71,18.85 156.53,16.77 156.37,14.69 156.23,12.6 156.11,10.51 156.01,8.41 155.94,6.31 155.89,4.21 155.85,2.11 155.84,0.0"/>
<polygon class="l0d0" points="207.79,0.0 155.84,0.0 155.85,-2.11 155.89,-4.21 155.94,-6.31 156.01,-8.41 156.11,-10.51 156.23,-12.6 156.37,-14.69 156.53,-16.77 156.71,-18.85 156.91,-20.91 157.13,-22.97 157.37,-25.02 157.64,-27.06 157.92,-29.09 158.23,-31.1 158.55,-33.11 158.9,-35.09 159.26,-37.07 159.65,-39.03 160.05,-40.97 160.48,-42.9 160.92,-44.81 161.39,-46.7 161.87,-48.57 162.37,-50.42 162.89,-52.25 163.43,-54.06 163.99,-55.85 164.56,-57.61 165.16,-59.35 165.77,-61.07 166.39,-62.76 167.04,-64.42 167.7,-66.06 168.38,-67.68 169.07,-69.26 169.78,-70.81 170.51,-72.34 171.25,-73.84 172.0,-75.3 172.77,-76.74 173.56,-78.14 174.36,-79.51 175.17,-80.85 175.99,-82.16 176.83,-83.43 177.69,-84.67 178.55,-85.87 179.43,-87.04 180.31,-88.17 181.21,-89.27 182.12,-90.33 183.04,-91.35 183.97,-92.33 184.91,-93.28 185.86,-94.19 186.82,-95.06 187.79,-95.89 188.77,-96.68 189.75,-97.43 190.74,-98.14 191.74,-98.81 192.74,-99.44 193.75,-100.03 194.77,-100.58 195.79,-101.09 196.82,-101.55 197.85,-101.98 198.89,-102.36 199.93,-102.7 200.97,-103.0 202.01,-103.25 203.06,-103.46 204.11,-103.63 205.16,-103.76 206.21,-103.85 207.27,-103.89 208.32,-103.89 209.37,-103.85 210.42,-103.76 211.47,-103.63 212.52,-103.46 213.57,-103.25 214.62,-103.0 215.66,-102.7 216.7,-102.36 217.73,-101.98 218.76,-101.55 219.79,-101.09 220.81,-100.58 221.83,-100.03 222.84,-99.44 223.85,-98.81 224.84,-98.14 225.83,-97.43 226.82,-96.68 227.79,-95.89 228.76,-95.06 229.72,-94.19 230.67,-93.28 231.61,-92.33 232.54,-91.35 233.46,-90.33 234.37,-89.27 235.27,-88.17 236.16,-87.04 237.03,-85.87 237.9,-84.67 238.75,-83.43 239.59,-82.16 240.42,-80.85 241.23,-79.51 242.03,-78.14 242.81,-76.74 243.58,-75.3 244.34,-73.84 245.08,-72.34 245.8,-70.81 246.51,-69.26 247.21,-67.68 247.89,-66.06 248.55,-64.42 249.19,-62.76 249.82,-61.07 250.43,-59.35 251.02,-57.61 251.6,-55.85 252.15,-54.06 252.69,-52.25 253.21,-50.42 253.71,-48.57 254.2,-46.7 254.66,-44.81 255.11,-42.9 255.53,-40.97 255.94,-39.03 256.32,-37.07 256.69,-35.09 257.03,-33.11 257.36,-31.1 257.66,-29.09 257.95,-27.06 258.21,-25.02 258.45,-22.97 258.68,-20.91 258.88,-18.85 259.06,-16.77 259.22,-14.69 259.36,-12.6 259.47,-10.51 259.57,-8.41 259.64,-6.31 259.7,-4.21 259.73,-2.11 259.74,-0.0"/>
<polygon class="l0d0" points="187.95,146.72 198.4,164.63 205.09,184.26 207.75,204.83 206.27,225.51 200.71,245.49 191.3,263.96 178.4,280.2 162.54,293.56 144.34,303.49 124.53,309.62 103.9,311.69 83.26,309.62 63.45,303.49 45.25,293.56 29.39,280.2 16.49,263.96 7.08,245.49 1.52,225.51 0.04,204.83 2.7,184.26 9.39,164.63 19.84,146.72 61.87,177.26 56.64,186.21 53.3,196.03 51.97,206.31 52.71,216.65 55.49,226.64 60.19,235.88 66.64,244.0 74.57,250.67 83.67,255.64 93.58,258.71 103.9,259.74 114.21,258.71 124.12,255.64 133.22,250.67 141.15,244.0 147.6,235.88 152.3,226.64 155.08,216.65 155.82,206.31 154.49,196.03 151.15,186.21 145.92,177.26"/>
</g>
</svg>