<?xml version="1.0" encoding="UTF-8"?>
<svg xmlns="http://www.w3.org/2000/svg" xmlns:xlink="http://www.w3.org/1999/xlink"
     width="405.1948051948052" height="457.1428571428571" viewBox="-124.67532467532466 -332.4675324675324 405.1948051948052 457.1428571428571">
<defs>
<style type="text/css">
.l0d0 {stroke: rgb(255, 0, 0); fill: rgb(255, 0, 0); fill-opacity: 0.5;}
</style>
</defs><rect x="-124.67532467532466" y="-332.4675324675324" width="405.1948051948052" height="457.1428571428571" fill="none" stroke="none"/>
<g id="circles" transform="scale(1 -1)">
<polygon class="l0d0" points="103.89610389610388,0.0 101.8997693925434,20.269124365312024 95.98748389727653,39.75931764832101 86.38645322623846,57.72158265138723 73.46563960379714,73.46563960379713 57.721582651387244,86.38645322623846 39.759317648321016,95.98748389727653 20.26912436531203,101.8997693925434 6.361801554012224e-15,103.89610389610388 -20.269124365312017,101.8997693925434 -39.759317648321,95.98748389727653 -57.72158265138721,86.38645322623847 -73.46563960379713,73.46563960379714 -86.38645322623846,57.72158265138723 -95.98748389727653,39.75931764832102 -101.8997693925434,20.26912436531206 -103.89610389610388,1.2723603108024447e-14 -101.8997693925434,-20.269124365312035 -95.98748389727655,-39.759317648321 -86.38645322623847,-57.72158265138721 -73.46563960379716,-73.46563960379713 -57.72158265138723,-86.38645322623846 -39.759317648321066,-95.9874838972765 -20.269124365312067,-101.89976939254339 -1.908540466203667e-14,-103.89610389610388 20.269124365312027,-101.8997693925434 39.75931764832104,-95.98748389727652 57.721582651387195,-86.38645322623847 73.46563960379711,-73.46563960379716 86.38645322623846,-57.72158265138723 95.9874838972765,-39.75931764832107 101.89976939254339,-20.269124365312074"/>
<polygon class="l0d0" points="207.79220779220776,0.0 259.7402597402597,0.0 259.72958983036426,2.105657351119743 259.69758448378656,4.210449716032513 259.64425684805195,6.3135124638603415 259.5696288297015,8.413981674237318 259.4737310852932,10.510994492200743 259.35660300880824,12.603689482644654 259.2182927154685,14.691206984190066 259.05885702197105,16.772689462326582 258.8783614231487,18.847281861680315 258.6768800650646,20.91413195726338 258.45449571455447,22.972390704560723 258.211299725226,25.0212125883104 257.9473919999321,27.059755969834097 257.6628809497312,29.087183432775145 257.35788344935315,31.102662127102118 257.03252478918813,33.10536411123652 256.6869386238183,35.09446669216421 256.3212669171136,37.0691527633907 255.93565988391418,39.02861114060159 255.53027592832362,40.97203689489023 255.10528157863772,42.898631683415694 254.66085141893595,44.807604077355215 254.19716801736408,46.69816988701651 253.7144218511365,48.569552483976224 253.21281122828995,50.4209831201123 252.6925422062201,52.251701243399246 252.1538285070351,54.0609548103364 251.59689142976006,55.84800059488108 251.0219597594298,57.61210449375954 250.42926967310524,59.35254182803036 249.81906464285439,61.068597640776424 249.1915953357358,62.759566990803165 248.54711951082683,64.42475524222249 247.88590191333827,66.0634783498032 247.20821416585926,67.67506313997112 246.51433465677707,69.25884758734298 245.80454842591763,70.81418108668093 245.07914704745338,72.34042472015558 244.33842851012716,73.83695151980812 243.58269709484082,75.30314672510336 242.81226324965957,76.73840803546821 242.02744346228215,78.14214585771163 241.22856013003056,79.51378354822455 240.4159414274119,80.85275764986014 239.5899211713071,82.15851812339724 238.75083868384192,83.43052857349186 237.8990386529958,84.66826646902376 237.03487099100764,85.87122335774792 236.15869069063424,87.03890507516233 235.2708576793227,88.17083194750657 234.37173667135488,89.26653898880782 233.46169701802623,90.3255760918931 232.5411125559192,91.34750821328942 231.61036145333432,92.33191555193613 230.669826054942,93.27839372163548 229.7198927247185,94.18655391717108 228.76095168723086,95.05602307402587 227.79339686733599,95.88644402163374 226.8176257283596,96.67747563010228 225.8340391088218,97.42879295034601 224.84304105777588,98.14008734757267 223.8450386688284,98.81106662806789 222.84044191290863,99.44145515922575 221.82966346985603,100.03099398277644 220.81311855889453,100.57944092116406 219.79122476806458,101.08657067703115 218.76440188268086,101.55217492576887 217.7330717128886,101.97606240109506 216.69765792038717,102.35805897362478 215.65858584439354,102.69800772240117 214.6162823269167,102.99576899935725 213.57117553741418,103.25122048668223 212.5236947969042,103.4642572470685 211.47427040160377,103.63479176681913 210.42333344616685,103.76275399179768 209.37131564659438,103.84809135620581 208.31864916288885,103.89076880417699 207.26576642152668,103.89076880417699 206.21309993782114,103.84809135620581 205.16108213824867,103.76275399179768 204.11014518281178,103.63479176681915 203.06072078751134,103.4642572470685 202.01324004700135,103.25122048668223 200.96813325749886,102.99576899935727 199.92582974002195,102.69800772240117 198.88675766402835,102.35805897362478 197.85134387152692,101.97606240109508 196.82001370173467,101.55217492576888 195.793190816351,101.08657067703115 194.771297025521,100.57944092116406 193.75475211455952,100.03099398277645 192.7439736715069,99.44145515922577 191.73937691558712,98.81106662806789 190.74137452663965,98.14008734757269 189.75037647559373,97.42879295034602 188.76678985605594,96.6774756301023 187.79101871707957,95.88644402163375 186.82346389718467,95.05602307402587 185.86452285969702,94.18655391717108 184.91458952947355,93.2783937216355 183.9740541310812,92.33191555193616 183.04330302849635,91.34750821328944 182.1227185663893,90.3255760918931 181.21267891306064,89.26653898880784 180.31355790509284,88.1708319475066 179.42572489378128,87.03890507516235 178.5495445934079,85.87122335774795 177.6853769314197,84.66826646902378 176.83357690057363,83.43052857349186 175.99449441310838,82.15851812339724 175.16847415700366,80.85275764986015 174.355855454385,79.51378354822457 173.55697212213337,78.14214585771164 172.77215233475596,76.73840803546821 172.0017184895747,75.30314672510336 171.24598707428842,73.83695151980815 170.50526853696215,72.34042472015562 169.77986715849786,70.81418108668096 169.07008092763843,69.258847587343 168.3762014185563,67.67506313997113 167.69851367107728,66.06347834980323 167.0372960735887,64.42475524222252 166.39282024867973,62.75956699080319 165.76535094156114,61.06859764077643 165.15514591131029,59.35254182803036 164.56245582498576,57.61210449375957 163.98752415465546,55.84800059488111 163.43058707738047,54.06095481033642 162.8918733781954,52.25170124339926 162.37160435612557,50.42098312011231 161.86999373327902,48.56955248397626 161.38724756705145,46.69816988701654 160.92356416547958,44.807604077355236 160.47913400577784,42.8986316834157 160.0541396560919,40.97203689489024 159.64875570050137,39.028611140601626 159.26314866730198,37.06915276339073 158.8974769605972,35.09446669216424 158.55189079522737,33.10536411123654 158.22653213506237,31.10266212710213 157.92153463468438,29.08718343277519 157.63702358448342,27.05975596983413 157.3731158591895,25.02121258831043 157.12991986986108,22.97239070456074 156.90753551935092,20.91413195726339 156.70605416126685,18.84728186168036 156.52555856244444,16.77268946232662 156.36612286894703,14.691206984190098 156.22781257560726,12.603689482644677 156.1106844991223,10.510994492200755 156.014786754714,8.41398167423732 155.94015873636357,6.313512463860382 155.88683110062897,4.210449716032543 155.85482575405126,2.1056573511197647 155.8441558441558,1.2723603108024447e-14"/>
<polygon class="l0d0" points="207.79220779220776,0.0 155.8441558441558,1.2723603108024447e-14 155.85482575405126,-2.1056573511197394 155.88683110062897,-4.210449716032517 155.94015873636357,-6.31351246386031 156.014786754714,-8.413981674237295 156.1106844991223,-10.51099449220073 156.22781257560726,-12.60368948264465 156.36612286894703,-14.691206984190073 156.52555856244442,-16.77268946232655 156.70605416126685,-18.84728186168029 156.90753551935092,-20.914131957263365 157.12991986986106,-22.97239070456072 157.3731158591895,-25.021212588310405 157.63702358448342,-27.059755969834107 157.92153463468435,-29.087183432775124 158.22653213506237,-31.1026621271021 158.55189079522737,-33.10536411123651 158.8974769605972,-35.09446669216421 159.26314866730195,-37.06915276339066 159.64875570050134,-39.02861114060156 160.05413965609188,-40.972036894890216 160.4791340057778,-42.89863168341568 160.92356416547958,-44.807604077355215 161.38724756705145,-46.69816988701652 161.86999373327902,-48.569552483976196 162.37160435612557,-50.42098312011228 162.8918733781954,-52.25170124339924 163.43058707738044,-54.0609548103364 163.98752415465543,-55.84800059488105 164.56245582498573,-57.61210449375951 165.15514591131029,-59.35254182803034 165.76535094156114,-61.06859764077641 166.39282024867973,-62.759566990803165 167.0372960735887,-64.42475524222249 167.69851367107725,-66.06347834980319 168.37620141855626,-67.67506313997112 169.07008092763843,-69.25884758734298 169.77986715849786,-70.81418108668093 170.50526853696212,-72.34042472015557 171.24598707428837,-73.8369515198081 172.00171848957467,-75.30314672510335 172.77215233475596,-76.7384080354682 173.55697212213337,-78.14214585771163 174.355855454385,-79.51378354822455 175.16847415700363,-80.85275764986014 175.9944944131084,-82.15851812339724 176.83357690057366,-83.43052857349187 177.6853769314197,-84.66826646902375 178.54954459340786,-85.87122335774791 179.42572489378125,-87.03890507516232 180.31355790509284,-88.17083194750657 181.2126789130606,-89.26653898880781 182.12271856638927,-90.32557609189308 183.04330302849633,-91.34750821328943 183.9740541310812,-92.33191555193615 184.91458952947352,-93.27839372163548 185.86452285969696,-94.18655391717107 186.8234638971847,-95.05602307402589 187.79101871707954,-95.88644402163372 188.7667898560559,-96.67747563010226 189.7503764755937,-97.428792950346 190.74137452663965,-98.14008734757267 191.73937691558712,-98.81106662806789 192.74397367150686,-99.44145515922575 193.75475211455952,-100.03099398277644 194.771297025521,-100.57944092116406 195.793190816351,-101.08657067703115 196.8200137017346,-101.55217492576885 197.85134387152686,-101.97606240109505 198.88675766402832,-102.35805897362478 199.92582974002192,-102.69800772240117 200.96813325749883,-102.99576899935725 202.01324004700135,-103.25122048668223 203.06072078751131,-103.4642572470685 204.11014518281178,-103.63479176681913 205.16108213824867,-103.76275399179768 206.21309993782108,-103.84809135620581 207.26576642152668,-103.89076880417699 208.31864916288882,-103.89076880417699 209.37131564659435,-103.84809135620581 210.42333344616685,-103.76275399179768 211.47427040160375,-103.63479176681915 212.5236947969042,-103.4642572470685 213.57117553741418,-103.25122048668223 214.6162823269167,-102.99576899935727 215.65858584439354,-102.69800772240117 216.69765792038717,-102.35805897362478 217.73307171288857,-101.97606240109508 218.76440188268086,-101.55217492576887 219.79122476806452,-101.08657067703116 220.81311855889453,-100.57944092116408 221.82966346985597,-100.03099398277645 222.84044191290863,-99.44145515922577 223.8450386688284,-98.81106662806789 224.84304105777588,-98.14008734757267 225.8340391088218,-97.42879295034601 226.81762572835953,-96.67747563010231 227.79339686733599,-95.88644402163374 228.7609516872308,-95.0560230740259 229.7198927247185,-94.18655391717108 230.66982605494198,-93.27839372163551 231.6103614533343,-92.33191555193616 232.54111255591917,-91.34750821328944 233.46169701802623,-90.3255760918931 234.37173667135488,-89.26653898880784 235.27085767932266,-88.17083194750663 236.15869069063424,-87.03890507516233 237.03487099100758,-85.87122335774798 237.8990386529958,-84.66826646902375 238.75083868384186,-83.4305285734919 239.58992117130714,-82.15851812339722 240.41594142741184,-80.85275764986017 241.2285601300305,-79.51378354822458 242.02744346228212,-78.14214585771165 242.81226324965957,-76.73840803546821 243.58269709484082,-75.30314672510336 244.3384285101271,-73.8369515198082 245.07914704745338,-72.34042472015558 245.80454842591763,-70.81418108668099 246.51433465677712,-69.25884758734297 247.2082141658592,-67.67506313997117 247.88590191333822,-66.06347834980325 248.54711951082683,-64.42475524222253 249.1915953357358,-62.7595669908032 249.81906464285439,-61.068597640776446 250.42926967310524,-59.352541828030375 251.0219597594298,-57.612104493759546 251.59689142976006,-55.848000594881164 252.1538285070351,-54.06095481033638 252.69254220622005,-52.25170124339931 253.21281122828995,-50.42098312011228 253.7144218511365,-48.569552483976274 254.19716801736408,-46.698169887016554 254.66085141893595,-44.80760407735525 255.10528157863766,-42.898631683415715 255.53027592832362,-40.97203689489025 255.93565988391413,-39.02861114060168 256.3212669171136,-37.0691527633907 256.6869386238183,-35.09446669216429 257.03252478918813,-33.10536411123651 257.35788344935315,-31.10266212710218 257.6628809497312,-29.087183432775202 257.9473919999321,-27.059755969834143 258.211299725226,-25.02121258831044 258.45449571455447,-22.972390704560755 258.6768800650646,-20.914131957263404 258.8783614231487,-18.84728186168033 259.05885702197105,-16.77268946232668 259.2182927154685,-14.691206984190064 259.35660300880824,-12.603689482644734 259.4737310852932,-10.510994492200721 259.5696288297015,-8.413981674237379 259.64425684805195,-6.313512463860395 259.69758448378656,-4.210449716032556 259.72958983036426,-2.1056573511197776 259.7402597402597,-2.5447206216048895e-14"/>
<polygon class="l0d0" points="187.9498175973971,146.72361015143133 198.40332419267722,164.63220644136243 205.09214721478787,184.26007611160887 207.74983821591573,204.82534537208346 206.27052839976028,225.50879923455827 200.7131458920989,245.48651484162502 191.29906834609673,263.96268233304903 178.40330439054165,280.20130583431614 162.53955520693705,293.555521762366 144.339751305703,303.49336655738693 124.528879651506,309.61896738622266 103.89610389610388,311.6883116883116 83.26332814070179,309.61896738622266 63.45245648650477,303.49336655738693 45.25265258527075,293.5555217623661 29.388903401666134,280.2013058343162 16.49313944611105,263.9626823330491 7.079061900108864,245.48651484162505 1.521679392447482,225.50879923455832 0.042369576292028054,204.82534537208352 2.7000605774198876,184.26007611160887 9.388883599530539,164.63220644136246 19.84239019481064,146.72361015143136 61.869247045457264,177.25790897181957 56.64249374781721,186.2122071167851 53.298082236761886,196.02614195190833 51.969236736197956,206.3087765821456 52.70889164427568,216.65050351338303 55.48758289810636,226.6393613169164 60.19462167110745,235.8774450626284 66.64250364888501,243.99675681326198 74.57437824068731,250.67386477728695 83.67428019130432,255.64278717479735 93.57971601840282,258.7055875892152 103.89610389610388,259.7402597402597 114.21249177380494,258.7055875892152 124.11792760090344,255.64278717479735 133.21782955152045,250.6738647772869 141.14970414332277,243.99675681326198 147.59758612110028,235.87744506262842 152.30462489410138,226.6393613169164 155.0833161479321,216.65050351338303 155.8229710560098,206.30877658214564 154.4941255554459,196.02614195190833 151.14971404439055,186.21220711678512 145.9229607467505,177.25790897181955"/>
</g>
</svg>