<?xml version="1.0" encoding="UTF-8"?>
<svg xmlns="http://www.w3.org/2000/svg" xmlns:xlink="http://www.w3.org/1999/xlink" width="156.0" height="176.0" viewBox="-48.0 -128.0 156.0 176.0">
<defs>
<style type="text/css">
.l0d0 {stroke: rgb(255, 0, 0); fill: rgb(255, 0, 0); fill-opacity: 0.5;}
</style>
</defs><rect x="-48.0" y="-128.0" width="156.0" height="176.0" fill="none" stroke="none"/>
<g id="circles" transform="scale(1 -1)">
<polygon class="l0d0" points="40.0,0.0 39.23141121612922,7.8036128806451295 36.95518130045147,15.307337294603592 33.25878449210181,22.222809320784087 28.284271247461902,28.2842712474619 22.22280932078409,33.25878449210181 15.307337294603593,36.95518130045147 7.803612880645133,39.23141121612922 2.4492935982947065e-15,40.0 -7.803612880645128,39.23141121612922 -15.307337294603588,36.95518130045147 -22.22280932078408,33.25878449210182 -28.2842712474619,28.284271247461902 -33.25878449210181,22.222809320784087 -36.95518130045147,15.307337294603595 -39.23141121612922,7.803612880645145 -40.0,4.898587196589413e-15 -39.23141121612922,-7.803612880645135 -36.95518130045147,-15.307337294603586 -33.25878449210182,-22.22280932078408 -28.28427124746191,-28.2842712474619 -22.222809320784087,-33.25878449210181 -15.307337294603613,-36.95518130045146 -7.803612880645146,-39.23141121612921 -7.347880794884118e-15,-40.0 7.803612880645132,-39.23141121612922 15.3073372946036,-36.955181300451464 22.222809320784073,-33.25878449210182 28.284271247461895,-28.28427124746191 33.25878449210181,-22.222809320784087 36.95518130045146,-15.307337294603617 39.23141121612921,-7.803612880645149"/>
<polygon class="l0d0" points="80.0,0.0 100.0,0.0 99.99589208469025,0.8106780801811011 99.98357002625784,1.6210231406725175 99.96303888650003,2.430702298586232 99.9343070994351,3.2393829445813678 99.8973864678379,4.046732879497287 99.8522921583912,4.852420450818193 99.7990426954554,5.656114688913176 99.73765995345887,6.457485442995735 99.66816914791225,7.256203516746922 99.59059882504988,8.051940803546403 99.5049808501035,8.844370421255881 99.41135039421204,9.633166846499506 99.30974591997386,10.418006048386129 99.20020916564651,11.198565621618432 99.08278512800098,11.974524918934318 98.95752204383746,12.745565182826063 98.82447137017007,13.511369676483223 98.68368776308873,14.271623813905421 98.53522905530697,15.026015289131614 98.37915623240461,15.774234204532743 98.21553340777554,16.515973198115045 98.04442779629035,17.25092756978176 97.86590968668519,17.97879540650136 97.68005241268756,18.699277706330847 97.48693232289165,19.412078501243236 97.28662874939475,20.116904978708714 97.07922397520852,20.813467601979518 96.86480320045763,21.50148022902922 96.64345450738048,22.180660230097423 96.41526882414553,22.850728603791694 96.18033988749895,23.511410091698927 95.93876420425829,24.162433291459223 95.69064101166833,24.80353076825566 95.43607223663525,25.434439164674238 95.17516245385582,26.054899308888885 94.90801884285918,26.664656321127055 94.6347511439783,27.26345971837216 94.35547161326957,27.851063517259902 94.07029497639897,28.427226335126132 93.77933838151372,28.991711489164796 93.48272135111895,29.544287093655264 93.18056573297865,30.08472615521898 92.87299565006178,30.612806666066454 92.5601374495536,31.128311695196157 92.24211965095324,31.63102947750794 91.91907289327915,32.12075350079437 91.59112988140339,32.59728259057415 91.25842533153795,33.06042099273296 90.9210959158942,33.5099784539375 90.57928020653925,33.945770299790034 90.23311861847164,34.36761751069102 89.88275335194011,34.775346795378844 89.52832833402891,35.16879066211643 89.16998915953373,35.54778748749542 88.80788303115268,35.91218158282967 88.44215869901663,36.26182325811087 88.07296639958389,36.59656888349997 87.70045779392436,36.916280948328996 87.32478590541845,37.220828117589384 86.9461050568964,37.510085285883214 86.56457080724373,37.78393362881549 86.18033988749895,38.04226065180614 85.79357013646984,38.28496023630192 85.40442043589458,38.51193268336893 85.0130506451744,38.72308475464817 84.61962153570488,38.918329710657 84.22429472483215,39.09758734642102 83.82723260946213,39.2607840244216 83.42859829934908,39.407852704845546 83.02855555009153,39.53873297312445 82.62726869586294,39.65337106475255 82.22490258190447,39.751719887372666 81.82162249680813,39.83373904012138 81.41759410461746,39.899394830225376 81.01298337677426,39.94866028684211 80.60795652393885,39.98151517213925 80.20267992771223,39.99794598960814 79.79732007228777,39.99794598960814 79.39204347606115,39.98151517213925 78.98701662322574,39.94866028684211 78.58240589538255,39.899394830225376 78.17837750319188,39.83373904012138 77.77509741809553,39.751719887372666 77.37273130413708,39.65337106475255 76.97144444990846,39.53873297312445 76.57140170065092,39.407852704845546 76.17276739053787,39.26078402442161 75.77570527516785,39.09758734642102 75.38037846429515,38.918329710657 74.9869493548256,38.72308475464817 74.59557956410544,38.51193268336894 74.20642986353016,38.28496023630193 73.81966011250105,38.042260651806146 73.43542919275627,37.78393362881549 73.0538949431036,37.51008528588322 72.67521409458155,37.22082811758939 72.29954220607564,36.916280948328996 71.92703360041611,36.59656888349997 71.55784130098337,36.26182325811087 71.19211696884732,35.912181582829675 70.83001084046627,35.54778748749543 70.4716716659711,35.16879066211644 70.11724664805989,34.77534679537885 69.76688138152836,34.36761751069102 69.42071979346076,33.94577029979005 69.0789040841058,33.50997845393751 68.74157466846205,33.060420992732965 68.40887011859661,32.59728259057416 68.08092710672086,32.12075350079437 67.75788034904674,31.63102947750794 67.43986255044642,31.128311695196164 67.12700434993823,30.61280666606646 66.81943426702136,30.084726155218988 66.51727864888105,29.544287093655267 66.22066161848628,28.9917114891648 65.92970502360104,28.427226335126143 65.64452838673043,27.851063517259917 65.36524885602168,27.26345971837217 65.09198115714081,26.664656321127058 64.82483754614418,26.054899308888892 64.56392776336476,25.43443916467425 64.30935898833167,24.803530768255673 64.0612357957417,24.16243329145923 63.819660112501055,23.51141009169893 63.58473117585447,22.850728603791694 63.356545492619524,22.180660230097438 63.13519679954236,21.501480229029227 62.92077602479149,20.813467601979525 62.71337125060525,20.116904978708718 62.51306767710836,19.412078501243244 62.319947587312434,18.699277706330864 62.134090313314815,17.97879540650137 61.95557220370965,17.25092756978177 61.784466592224476,16.51597319811505 61.62084376759539,15.774234204532744 61.464770944693036,15.026015289131628 61.316312236911266,14.271623813905434 61.175528629829934,13.511369676483234 61.04247795616254,12.745565182826068 60.91721487199902,11.974524918934321 60.79979083435349,11.19856562161845 60.69025408002613,10.418006048386141 60.588649605787964,9.633166846499517 60.49501914989652,8.844370421255887 60.40940117495011,8.051940803546406 60.33183085208775,7.25620351674694 60.26234004654113,6.4574854429957504 60.200957304544616,5.656114688913188 60.147707841608806,4.852420450818201 60.102613532162096,4.046732879497291 60.0656929005649,3.2393829445813687 60.036961113499984,2.4307022985862474 60.016429973742156,1.6210231406725293 60.004107915309746,0.8106780801811095 60.0,4.898587196589413e-15"/>
<polygon class="l0d0" points="80.0,0.0 60.0,4.898587196589413e-15 60.004107915309746,-0.8106780801810998 60.016429973742156,-1.6210231406725195 60.036961113499984,-2.43070229858622 60.0656929005649,-3.239382944581359 60.102613532162096,-4.046732879497282 60.147707841608806,-4.852420450818191 60.200957304544616,-5.656114688913179 60.26234004654111,-6.457485442995723 60.33183085208775,-7.256203516746913 60.40940117495011,-8.051940803546398 60.495019149896514,-8.844370421255878 60.588649605787964,-9.633166846499506 60.69025408002613,-10.418006048386133 60.79979083435348,-11.198565621618425 60.91721487199902,-11.97452491893431 61.04247795616254,-12.74556518282606 61.175528629829934,-13.511369676483223 61.31631223691126,-14.271623813905407 61.46477094469303,-15.026015289131605 61.62084376759538,-15.774234204532736 61.78446659222446,-16.515973198115038 61.95557220370965,-17.25092756978176 62.134090313314815,-17.978795406501362 62.31994758731243,-18.69927770633084 62.51306767710836,-19.412078501243233 62.71337125060525,-20.11690497870871 62.92077602479148,-20.813467601979518 63.135196799542356,-21.501480229029205 63.35654549261952,-22.180660230097416 63.58473117585447,-22.850728603791683 63.819660112501055,-23.51141009169892 64.0612357957417,-24.162433291459223 64.30935898833167,-24.803530768255662 64.56392776336475,-25.43443916467423 64.82483754614418,-26.05489930888888 65.09198115714081,-26.664656321127055 65.36524885602168,-27.26345971837216 65.64452838673043,-27.851063517259895 65.92970502360103,-28.42722633512612 66.22066161848626,-28.991711489164793 66.51727864888105,-29.54428709365526 66.81943426702136,-30.08472615521898 67.12700434993823,-30.612806666066458 67.4398625504464,-31.12831169519616 67.75788034904676,-31.631029477507944 68.08092710672086,-32.12075350079437 68.4088701185966,-32.597282590574146 68.74157466846204,-33.06042099273295 69.07890408410579,-33.5099784539375 69.42071979346075,-33.945770299790034 69.76688138152835,-34.36761751069101 70.11724664805988,-34.77534679537884 70.47167166597109,-35.168790662116436 70.83001084046627,-35.54778748749542 71.19211696884732,-35.91218158282967 71.55784130098334,-36.261823258110866 71.92703360041611,-36.59656888349997 72.29954220607564,-36.91628094832899 72.67521409458153,-37.22082811758938 73.05389494310359,-37.510085285883214 73.43542919275627,-37.78393362881548 73.81966011250105,-38.04226065180614 74.20642986353015,-38.28496023630192 74.59557956410544,-38.51193268336893 74.9869493548256,-38.72308475464817 75.38037846429515,-38.918329710657 75.77570527516784,-39.097587346421015 76.17276739053786,-39.260784024421596 76.57140170065092,-39.407852704845546 76.97144444990846,-39.53873297312445 77.37273130413706,-39.65337106475255 77.77509741809553,-39.751719887372666 78.17837750319187,-39.83373904012138 78.58240589538254,-39.899394830225376 78.98701662322574,-39.94866028684211 79.39204347606113,-39.98151517213925 79.79732007228779,-39.99794598960814 80.20267992771221,-39.99794598960814 80.60795652393884,-39.98151517213925 81.01298337677426,-39.94866028684211 81.41759410461745,-39.899394830225376 81.82162249680813,-39.83373904012138 82.22490258190447,-39.751719887372666 82.62726869586294,-39.65337106475255 83.02855555009153,-39.53873297312445 83.42859829934908,-39.407852704845546 83.8272326094621,-39.26078402442161 84.22429472483215,-39.09758734642102 84.61962153570485,-38.918329710657005 85.0130506451744,-38.72308475464818 85.40442043589456,-38.51193268336894 85.79357013646984,-38.28496023630193 86.18033988749895,-38.042260651806146 86.56457080724373,-37.78393362881549 86.9461050568964,-37.510085285883214 87.32478590541844,-37.22082811758939 87.70045779392436,-36.916280948328996 88.07296639958388,-36.59656888349998 88.44215869901663,-36.26182325811087 88.80788303115267,-35.912181582829675 89.16998915953371,-35.54778748749543 89.52832833402888,-35.16879066211644 89.88275335194011,-34.77534679537885 90.23311861847164,-34.36761751069102 90.57928020653924,-33.945770299790055 90.9210959158942,-33.5099784539375 91.25842533153794,-33.06042099273298 91.59112988140339,-32.59728259057415 91.91907289327914,-32.120753500794386 92.24211965095327,-31.631029477507933 92.56013744955357,-31.128311695196167 92.87299565006177,-30.61280666606647 93.18056573297864,-30.08472615521899 93.48272135111895,-29.544287093655267 93.77933838151372,-28.9917114891648 94.07029497639896,-28.427226335126157 94.35547161326957,-27.851063517259902 94.6347511439783,-27.263459718372186 94.9080188428592,-26.664656321127048 95.1751624538558,-26.054899308888903 95.43607223663523,-25.434439164674252 95.69064101166833,-24.803530768255676 95.93876420425829,-24.162433291459237 96.18033988749895,-23.511410091698934 96.41526882414553,-22.850728603791698 96.64345450738048,-22.18066023009743 96.86480320045763,-21.50148022902925 97.07922397520852,-20.81346760197951 97.28662874939474,-20.116904978708735 97.48693232289165,-19.41207850124323 97.68005241268756,-18.699277706330868 97.86590968668519,-17.978795406501376 98.04442779629035,-17.250927569781773 98.21553340777552,-16.515973198115052 98.37915623240461,-15.77423420453275 98.53522905530696,-15.026015289131651 98.68368776308873,-14.271623813905421 98.82447137017007,-13.511369676483254 98.95752204383746,-12.745565182826057 99.08278512800096,-11.974524918934343 99.20020916564651,-11.198565621618455 99.30974591997386,-10.418006048386147 99.41135039421204,-9.63316684649952 99.5049808501035,-8.844370421255892 99.59059882504988,-8.051940803546412 99.66816914791225,-7.256203516746927 99.73765995345887,-6.457485442995773 99.7990426954554,-5.656114688913175 99.8522921583912,-4.852420450818223 99.8973864678379,-4.046732879497278 99.9343070994351,-3.2393829445813918 99.96303888650002,-2.4307022985862523 99.98357002625784,-1.6210231406725342 99.99589208469025,-0.8106780801811144 100.0,-9.797174393178826e-15"/>
<polygon class="l0d0" points="72.36067977499789,56.48858990830107 76.38527981418073,63.38339947992455 78.96047667769335,70.94012930296942 79.98368771312757,78.85775796825214 79.41415343390771,86.82088770530495 77.27456116845809,94.51230821402564 73.65014131324725,101.62563269822388 68.68527219035855,107.87750274621173 62.57772875467077,113.01887587851095 55.570804252695666,116.844946124594 47.94361866582982,119.20330244369573 40.0,120.0 32.05638133417019,119.20330244369573 24.42919574730434,116.844946124594 17.42227124532924,113.01887587851097 11.314727809641463,107.87750274621175 6.349858686752756,101.62563269822391 2.725438831541913,94.51230821402567 0.5858465660922807,86.82088770530497 0.016312286872430803,78.85775796825216 1.039523322306657,70.94012930296942 3.614720185819258,63.383399479924556 7.6393202250020975,56.48858990830108 23.81966011250105,68.24429495415055 21.807360092909633,71.69169973996227 20.51976166115333,75.47006465148472 20.008156143436217,79.42887898412607 20.29292328304614,83.41044385265248 21.362719415770954,87.25615410701282 23.17492934337637,90.81281634911194 25.65736390482073,93.93875137310587 28.71113562266462,96.50943793925549 32.21459787365217,98.422473062297 36.02819066708509,99.60165122184787 40.0,100.0 43.97180933291491,99.60165122184787 47.78540212634783,98.422473062297 51.28886437733538,96.50943793925548 54.34263609517927,93.93875137310587 56.82507065662362,90.81281634911196 58.63728058422904,87.25615410701282 59.707076716953864,83.41044385265248 59.99184385656378,79.42887898412609 59.480238338846675,75.47006465148472 58.19263990709037,71.69169973996227 56.180339887498945,68.24429495415053"/>
</g>
</svg>