<?xml version="1.0" encoding="UTF-8"?>
<svg xmlns="http://www.w3.org/2000/svg" xmlns:xlink="http://www.w3.org/1999/xlink"
     width="400.0" height="258.2404361613352" viewBox="-26.22465824821421 -240.05861797951704 400.0 258.2404361613352">
<defs>
<style type="text/css">
.l0d0 {stroke: rgb(255, 0, 0); fill: rgb(255, 0, 0); fill-opacity: 0.5;}
</style>
</defs><rect x="-26.22465824821421" y="-240.05861797951704" width="400.0" height="258.2404361613352" fill="none" stroke="none"/>
<g id="curves_2" transform="scale(1 -1)">
<polygon class="l0d0" points="0.0,0.0 19.34428768220624,1.991323731991819 35.27487753814079,7.396345290255327 45.495968881255045,13.176962507789613 54.63694489652551,20.03769505316767 71.11870471399352,35.55935235699676 87.60046453146151,51.08100966082584 96.74144054673201,57.94174220620391 106.96253188984628,63.7223594237382 122.8931217457808,69.1273809820017 142.23740942798705,71.11870471399352 152.3718248497311,71.63431532316996 161.43945970076533,73.11002844598535 176.37438769070397,78.51505000424886 184.77528468504443,84.29566722178313 190.77592539528763,91.1563997671612 194.3763098214335,98.73720919776842 195.5764379634822,106.67805707099029 194.37630982143352,114.6189049442121 190.77592539528763,122.19971437481937 184.7752846850444,129.06044692019745 176.37438769070397,134.8410641377317 161.4394597007653,140.24608569599522 152.37182484973113,141.72179881881058 142.23740942798705,142.23740942798705 132.01732661936398,141.45954859517772 122.6358630526002,139.21486447764235 106.04783431409291,130.8584166737481 95.17421701483816,121.7324422602532 85.32443970429394,110.65625961592932 67.5456673087069,84.4534618478673 50.41004164607143,55.85040779570803 31.61608723512727,28.447481885597394 17.028959443580497,12.623570086733846"/>
<polygon class="l0d0" points="355.5935235699676,213.35611414198058 328.5684157786501,198.42118615204197 304.38805617589225,182.06388406782347 288.11965247256626,168.86247450528836 273.4514196253051,154.86097951472092 260.3833576341088,140.05939909612098 248.91546649897734,124.45773324948867 239.04774621991072,108.05598197482392 230.780196796909,90.85414527212671 224.1128182299721,72.85222314139709 219.04561051910005,54.05021558263507 214.77848823626044,27.736294838457468 213.35611414198058,0.0 240.02562840972817,0.7111870471399354 263.1392074417761,2.8447481885597417 278.14080921738406,5.378352043995761 291.142197422911,8.712041327464206 302.1433720583568,12.84581603896508 311.14433312372165,17.77967617849838 318.1450806190054,23.513621746064103 323.1456145442082,30.047652741662265 326.1459348993297,37.38176916529285 327.1460416843702,45.515971016955866 325.3680740665203,57.606150818334754 320.0341712129709,71.11870471399352 313.9890813122814,85.34244565679224 310.0775525530118,99.56618659959096 308.21068655426944,120.90179801378898 311.14433312372165,142.23740942798705 318.8784922613685,163.57302084218512 331.41316396720975,184.90863225638316 342.43656319787885,199.13237319918187"/>
<polygon class="l0d0" points="0.0,213.35611414198058 5.72933145173887,218.02340434054815 11.968447270070026,220.73158507305038 22.116809538832666,221.87679979769885 32.9849253996132,220.5587224731034 55.85499093847255,215.19998187474803 71.11870471399352,213.35611414198058 86.3824184895145,215.19998187474806 109.25248402837383,220.5587224731034 120.12059988915435,221.87679979769885 130.268962157917,220.73158507305033 136.50807797624816,218.02340434054815 142.23740942798705,213.35611414198058 147.990630842458,204.8889634940679 150.2802494943831,195.72636335496136 149.86088451025657,188.622848625089 147.71645989195312,181.49603754323505 143.94264003365353,174.50359896089142 138.63508932953852,167.80320172955032 131.88947217378885,161.55251470070365 123.80145296058522,155.9092067258436 114.46669608410843,151.03094665646216 103.98086593853922,147.07540334405138 88.37454652567735,143.50919683598767 71.11870471399352,142.23740942798705 53.8628629023097,143.50919683598767 38.256543489447814,147.0754033440514 27.770713343878608,151.03094665646213 18.435956467401823,155.90920672584355 10.347937254198206,161.55251470070363 3.602320098448518,167.80320172955032 -1.7052306056664999,174.50359896089142 -5.479050463966102,181.49603754323505 -7.623475082269528,188.62284862508903 -8.042840066396032,195.72636335496134 -5.75322141447091,204.88896349406784"/>
</g>
</svg>