<?xml version="1.0" encoding="UTF-8"?>
<svg xmlns="http://www.w3.org/2000/svg" xmlns:xlink="http://www.w3.org/1999/xlink" width="112.48798796564552" height="72.6223676878983" viewBox="-7.374897603570718 -67.50927732582352 112.48798796564552 72.6223676878983">
<defs>
<style type="text/css">
.l0d0 {stroke: rgb(255, 0, 0); fill: rgb(255, 0, 0); fill-opacity: 0.5;}
</style>
</defs><rect x="-7.374897603570718" y="-67.50927732582352" width="112.48798796564552" height="72.6223676878983" fill="none" stroke="none"/>
<g id="curves_2" transform="scale(1 -1)">
<polygon class="l0d0" points="0.0,0.0 5.44,0.56 9.920000000000002,2.08 12.794375,3.7056250000000004 15.364999999999998,5.634999999999999 20.0,10.0 24.634999999999998,14.364999999999998 27.205625,16.294375000000002 30.080000000000005,17.92 34.56,19.439999999999998 40.0,20.0 42.849999999999994,20.144999999999996 45.400000000000006,20.560000000000002 49.60000000000001,22.080000000000002 51.9625,23.705625 53.650000000000006,25.635000000000005 54.66249999999999,27.766874999999995 55.0,30.0 54.662499999999994,32.233124999999994 53.650000000000006,34.364999999999995 51.96249999999999,36.294375 49.60000000000001,37.92 45.4,39.44 42.85,39.855000000000004 40.0,40.0 37.125908620039276,39.78124999999999 34.4876537180436,39.150000000000006 29.822768775266127,36.800000000000004 26.764890445512123,34.23359375 23.994936366580156,31.118750000000006 18.995190528383294,23.75 14.17631039507743,15.706249999999997 8.891075101064487,7.9999999999999964 4.788883462392372,3.549999999999999"/>
<polygon class="l0d0" points="100.0,60.0 92.4,55.80000000000001 85.6,51.20000000000001 81.02499999999999,47.4875 76.89999999999999,43.550000000000004 73.225,39.387499999999996 70.0,35.0 67.225,30.387500000000003 64.9,25.549999999999997 63.025000000000006,20.48749999999999 61.6,15.199999999999998 60.4,7.799999999999998 60.0,0.0 67.50000000000001,0.20000000000000004 74.00000000000001,0.8000000000000002 78.21875,1.5125000000000002 81.875,2.4499999999999997 84.96875,3.6125 87.5,5.0 89.46875,6.612499999999999 90.87500000000003,8.450000000000001 91.71875,10.512500000000003 92.0,12.800000000000002 91.49999999999999,16.200000000000003 90.0,20.0 88.3,24.000000000000004 87.2,28.000000000000007 86.67500000000001,33.99999999999999 87.5,40.0 89.67500000000001,46.00000000000001 93.19999999999999,52.0 96.30000000000001,56.00000000000001"/>
<polygon class="l0d0" points="0.0,60.0 1.6112024184859908,61.312535209221615 3.3657663812077496,62.074129713337875 6.219688513106707,62.39618696374872 9.276019728498513,62.025517298181505 15.707538871270348,60.51853242833447 20.0,60.0 24.292461128729656,60.51853242833448 30.723980271501485,62.025517298181505 33.78031148689328,62.39618696374872 36.634233618792244,62.074129713337854 38.388797581514005,61.312535209221615 40.0,60.0 41.61792075308675,57.61886814953573 42.26180724149593,55.042162014081136 42.14387343327683,53.04451181546197 41.54081840663445,51.040310217439426 40.479544899622155,49.07389684968646 38.9869556502933,47.1896113418761 37.08995339670124,45.431793323681305 34.815440876899345,43.844782424775076 32.190320828940976,42.472918274830405 29.2414959908795,41.36054050352028 24.85268731512443,40.357652016615084 20.0,40.0 15.147312684875569,40.357652016615084 10.7585040091205,41.36054050352029 7.809679171059019,42.4729182748304 5.184559123100652,43.84478242477507 2.9100466032987566,45.4317933236813 1.0130443497066997,47.1896113418761 -0.47954489962215907,49.07389684968646 -1.5408184066344583,51.040310217439426 -2.1438734332768328,53.04451181546198 -2.2618072414959207,55.04216201408113 -1.6179207530867443,57.61886814953571"/>
</g>
</svg>