<?xml version="1.0" encoding="UTF-8"?>
<svg xmlns="http://www.w3.org/2000/svg" xmlns:xlink="http://www.w3.org/1999/xlink"
     width="400.0" height="369.7" viewBox="-109.09 -109.09 400.0 369.7">
<defs>
<style type="text/css">
.l0d0 {stroke: rgb(255, 0, 0); fill: rgb(255, 0, 0); fill-opacity: 0.5;}
</style>
</defs>
<rect x="-109.09" y="-109.09" width="400.0" height="369.7" fill="none" stroke="none"/>
<g id="fillet_operation" transform="scale(1 -1)">
<polygon class="l0d0" points="30.91,-242.36 43.33,-241.39 44.12,-241.3 44.91,-241.18 45.67,-241.03 57.24,-238.24 58.0,-238.03 58.76,-237.79 59.48,-237.52 70.45,-232.97 71.18,-232.64 71.91,-232.27 72.61,-231.88 82.7,-225.7 84.03,-224.79 84.64,-224.27 93.67,-216.55 93.67,-81.76 88.15,-86.48 87.55,-87.0 87.0,-87.55 86.48,-88.15 78.76,-97.18 78.24,-97.79 77.33,-99.12 71.15,-109.21 70.76,-109.91 70.39,-110.64 70.06,-111.36 65.52,-122.33 65.24,-123.06 65.0,-123.82 64.79,-124.58 62.0,-136.15 61.85,-136.91 61.73,-137.7 61.64,-138.48 60.61,-151.52 60.33,-155.03 60.24,-155.85 60.12,-156.64 59.97,-157.42 59.39,-159.73 59.18,-160.48 58.94,-161.24 58.67,-161.97 57.76,-164.18 57.42,-164.91 57.09,-165.61 56.67,-166.3 55.45,-168.3 54.55,-169.64 52.48,-172.06 51.97,-172.64 51.42,-173.18 50.85,-173.7 48.42,-175.76 47.09,-176.67 45.09,-177.88 44.39,-178.3 43.7,-178.64 42.97,-178.97 40.76,-179.88 40.03,-180.15 39.27,-180.39 38.52,-180.61 36.21,-181.18 35.42,-181.33 34.64,-181.45 33.82,-181.55 30.88,-181.79 29.73,-181.82 -75.76,-181.82 -76.52,-181.85 -77.3,-181.91 -78.06,-182.0 -78.82,-182.12 -79.55,-182.3 -80.3,-182.52 -81.03,-182.76 -82.42,-183.36 -83.12,-183.73 -83.76,-184.12 -84.42,-184.55 -85.03,-185.0 -85.64,-185.48 -86.18,-186.0 -86.73,-186.55 -87.24,-187.09 -87.73,-187.7 -88.18,-188.3 -88.61,-188.97 -89.0,-189.61 -89.36,-190.3 -89.97,-191.7 -90.21,-192.42 -90.42,-193.18 -90.61,-193.91 -90.73,-194.67 -90.82,-195.42 -90.88,-196.21 -90.91,-196.97 -90.91,-227.27 -90.88,-228.03 -90.82,-228.82 -90.73,-229.58 -90.61,-230.33 -90.42,-231.06 -90.21,-231.82 -89.97,-232.55 -89.36,-233.94 -89.0,-234.64 -88.61,-235.27 -88.18,-235.94 -87.73,-236.55 -87.24,-237.15 -86.73,-237.7 -86.18,-238.24 -85.64,-238.76 -85.03,-239.24 -84.42,-239.7 -83.76,-240.12 -83.12,-240.52 -82.42,-240.88 -81.03,-241.48 -80.3,-241.73 -79.55,-241.94 -78.82,-242.12 -78.06,-242.24 -77.3,-242.33 -76.52,-242.39 -75.76,-242.42 29.7,-242.42"/>
<polygon class="l0d0" points="94.27,-216.03 94.82,-215.48 95.33,-214.88 103.06,-205.85 103.58,-205.24 104.48,-203.91 110.67,-193.82 111.06,-193.12 111.42,-192.39 111.76,-191.67 116.3,-180.7 116.58,-179.97 116.82,-179.21 117.03,-178.45 119.82,-166.88 119.97,-166.12 120.09,-165.33 120.18,-164.55 121.21,-151.52 121.48,-148.0 121.58,-147.18 121.7,-146.39 121.85,-145.61 122.42,-143.3 122.64,-142.55 122.88,-141.79 123.15,-141.06 124.06,-138.85 124.39,-138.12 124.73,-137.42 125.15,-136.73 126.36,-134.73 127.27,-133.39 129.33,-130.97 129.85,-130.39 130.39,-129.85 130.97,-129.33 133.39,-127.27 134.73,-126.36 136.73,-125.15 137.42,-124.73 138.12,-124.39 138.85,-124.06 141.06,-123.15 141.79,-122.88 142.55,-122.64 143.3,-122.42 145.61,-121.85 146.39,-121.7 147.18,-121.58 148.0,-121.48 150.94,-121.24 152.09,-121.21 257.58,-121.21 258.33,-121.18 259.12,-121.12 259.88,-121.03 260.64,-120.91 261.36,-120.73 262.12,-120.52 262.85,-120.27 264.24,-119.67 264.94,-119.3 265.58,-118.91 266.24,-118.48 266.85,-118.03 267.45,-117.55 268.0,-117.03 268.55,-116.48 269.06,-115.94 269.55,-115.33 270.0,-114.73 270.42,-114.06 270.82,-113.42 271.18,-112.73 271.79,-111.33 272.03,-110.61 272.24,-109.85 272.42,-109.12 272.55,-108.36 272.64,-107.61 272.7,-106.82 272.73,-106.06 272.73,-75.76 272.7,-75.0 272.64,-74.21 272.55,-73.45 272.42,-72.7 272.24,-71.97 272.03,-71.21 271.79,-70.48 271.18,-69.09 270.82,-68.39 270.42,-67.76 270.0,-67.09 269.55,-66.48 269.06,-65.88 268.55,-65.33 268.0,-64.79 267.45,-64.27 266.85,-63.79 266.24,-63.33 265.58,-62.91 264.94,-62.52 264.24,-62.15 262.85,-61.55 262.12,-61.3 261.36,-61.09 260.64,-60.91 259.88,-60.79 259.12,-60.7 258.33,-60.64 257.58,-60.61 152.12,-60.61 150.91,-60.67 138.48,-61.64 137.7,-61.73 136.91,-61.85 136.15,-62.0 124.58,-64.79 123.82,-65.0 123.06,-65.24 122.33,-65.52 111.36,-70.06 110.64,-70.39 109.91,-70.76 109.21,-71.15 99.12,-77.33 97.79,-78.24 97.18,-78.76 93.67,-81.76 93.67,-216.55"/>
<polygon class="l0d0" points="30.3,-45.45 30.28,-44.69 30.23,-43.92 30.13,-43.16 29.99,-42.4 29.82,-41.66 29.61,-40.92 29.36,-40.19 29.08,-39.48 28.75,-38.78 28.4,-38.1 28.01,-37.44 27.59,-36.8 27.13,-36.18 26.65,-35.59 26.13,-35.02 25.59,-34.47 25.02,-33.96 24.43,-33.47 23.81,-33.02 23.17,-32.6 22.5,-32.21 21.82,-31.85 21.13,-31.53 20.41,-31.25 19.69,-31.0 18.95,-30.79 18.2,-30.61 17.45,-30.48 16.68,-30.38 15.92,-30.32 15.15,-30.3 -75.76,-30.3 -76.52,-30.32 -77.29,-30.38 -78.05,-30.48 -78.81,-30.61 -79.56,-30.79 -80.29,-31.0 -81.02,-31.25 -81.73,-31.53 -82.43,-31.85 -83.11,-32.21 -83.77,-32.6 -84.41,-33.02 -85.03,-33.47 -85.63,-33.96 -86.2,-34.47 -86.74,-35.02 -87.25,-35.59 -87.74,-36.18 -88.19,-36.8 -88.62,-37.44 -89.01,-38.1 -89.36,-38.78 -89.68,-39.48 -89.97,-40.19 -90.21,-40.92 -90.43,-41.66 -90.6,-42.4 -90.73,-43.16 -90.83,-43.92 -90.89,-44.69 -90.91,-45.45 -90.91,-75.76 -90.89,-76.52 -90.83,-77.29 -90.73,-78.05 -90.6,-78.81 -90.43,-79.56 -90.21,-80.29 -89.97,-81.02 -89.68,-81.73 -89.36,-82.43 -89.01,-83.11 -88.62,-83.77 -88.19,-84.41 -87.74,-85.03 -87.25,-85.63 -86.74,-86.2 -86.2,-86.74 -85.63,-87.25 -85.03,-87.74 -84.41,-88.19 -83.77,-88.62 -83.11,-89.01 -82.43,-89.36 -81.73,-89.68 -81.02,-89.97 -80.29,-90.21 -79.56,-90.43 -78.81,-90.6 -78.05,-90.73 -77.29,-90.83 -76.52,-90.89 -75.76,-90.91 15.15,-90.91 15.92,-90.89 16.68,-90.83 17.45,-90.73 18.2,-90.6 18.95,-90.43 19.69,-90.21 20.41,-89.97 21.13,-89.68 21.82,-89.36 22.5,-89.01 23.17,-88.62 23.81,-88.19 24.43,-87.74 25.02,-87.25 25.59,-86.74 26.13,-86.2 26.65,-85.63 27.13,-85.03 27.59,-84.41 28.01,-83.77 28.4,-83.11 28.75,-82.43 29.08,-81.73 29.36,-81.02 29.61,-80.29 29.82,-79.56 29.99,-78.81 30.13,-78.05 30.23,-77.29 30.28,-76.52 30.3,-75.76"/>
<polygon class="l0d0" points="272.73,75.76 272.71,76.52 272.65,77.29 272.55,78.05 272.42,78.81 272.24,79.56 272.03,80.29 271.78,81.02 271.5,81.73 271.18,82.43 270.82,83.11 270.43,83.77 270.01,84.41 269.56,85.03 269.07,85.63 268.56,86.2 268.01,86.74 267.45,87.25 266.85,87.74 266.23,88.19 265.59,88.62 264.93,89.01 264.25,89.36 263.55,89.68 262.84,89.97 262.11,90.21 261.37,90.43 260.63,90.6 259.87,90.73 259.11,90.83 258.34,90.89 257.58,90.91 166.67,90.91 165.9,90.89 165.13,90.83 164.37,90.73 163.62,90.6 162.87,90.43 162.13,90.21 161.4,89.97 160.69,89.68 159.99,89.36 159.31,89.01 158.65,88.62 158.01,88.19 157.39,87.74 156.8,87.25 156.23,86.74 155.68,86.2 155.17,85.63 154.69,85.03 154.23,84.41 153.81,83.77 153.42,83.11 153.06,82.43 152.74,81.73 152.46,81.02 152.21,80.29 152.0,79.56 151.83,78.81 151.69,78.05 151.59,77.29 151.53,76.52 151.52,75.76 151.52,45.45 151.53,44.69 151.59,43.92 151.69,43.16 151.83,42.4 152.0,41.66 152.21,40.92 152.46,40.19 152.74,39.48 153.06,38.78 153.42,38.1 153.81,37.44 154.23,36.8 154.69,36.18 155.17,35.59 155.68,35.02 156.23,34.47 156.8,33.96 157.39,33.47 158.01,33.02 158.65,32.6 159.31,32.21 159.99,31.85 160.69,31.53 161.4,31.25 162.13,31.0 162.87,30.79 163.62,30.61 164.37,30.48 165.13,30.38 165.9,30.32 166.67,30.3 257.58,30.3 258.34,30.32 259.11,30.38 259.87,30.48 260.63,30.61 261.37,30.79 262.11,31.0 262.84,31.25 263.55,31.53 264.25,31.85 264.93,32.21 265.59,32.6 266.23,33.02 266.85,33.47 267.45,33.96 268.01,34.47 268.56,35.02 269.07,35.59 269.56,36.18 270.01,36.8 270.43,37.44 270.82,38.1 271.18,38.78 271.5,39.48 271.78,40.19 272.03,40.92 272.24,41.66 272.42,42.4 272.55,43.16 272.65,43.92 272.71,44.69 272.73,45.45"/>
<polygon class="l0d0" points="36.94,-90.36 37.27,-90.36 43.33,-89.88 44.12,-89.79 44.91,-89.67 45.7,-89.52 57.24,-86.73 58.0,-86.55 58.76,-86.27 59.48,-86.0 70.48,-81.45 71.21,-81.12 71.91,-80.79 72.61,-80.36 82.73,-74.18 83.39,-73.73 84.03,-73.27 84.64,-72.76 93.67,-65.06 94.27,-64.52 94.82,-63.97 95.36,-63.36 103.06,-54.33 103.58,-53.73 104.03,-53.09 104.48,-52.42 110.67,-42.3 111.09,-41.61 111.42,-40.91 111.76,-40.18 116.3,-29.18 116.58,-28.45 40.52,-28.45 40.03,-28.64 39.27,-28.88 38.52,-29.09 36.21,-29.67 35.42,-29.82 34.64,-29.94 33.85,-30.03 32.64,-30.12 32.52,-30.12 32.36,-30.15 32.0,-30.24 31.91,-30.3 31.79,-30.33 31.55,-30.45 31.45,-30.52 31.33,-30.58 31.15,-30.76 31.06,-30.82 30.97,-30.91 30.88,-31.03 30.82,-31.12 30.73,-31.21 30.67,-31.33 30.61,-31.42 30.48,-31.67 30.45,-31.79 30.42,-31.88 30.36,-32.12 30.33,-32.27 30.3,-32.39 30.3,-84.24 30.33,-84.58 30.36,-84.88 30.42,-85.21 30.7,-86.12 30.94,-86.73 31.09,-87.03 31.24,-87.3 31.42,-87.58 31.61,-87.82 31.82,-88.09 32.03,-88.33 32.27,-88.55 32.48,-88.76 32.76,-88.97 33.0,-89.18 33.27,-89.36 33.82,-89.67 34.12,-89.82 34.73,-90.06 35.03,-90.15 35.33,-90.21 35.67,-90.27 35.97,-90.33 36.64,-90.39"/>
<polygon class="l0d0" points="116.85,-27.7 117.03,-26.94 119.82,-15.39 119.97,-14.61 120.09,-13.82 120.18,-13.03 120.67,-6.97 120.67,-6.64 120.7,-6.33 120.64,-5.67 120.58,-5.36 120.52,-5.03 120.45,-4.73 120.36,-4.42 120.12,-3.82 119.97,-3.52 119.67,-2.97 119.48,-2.7 119.27,-2.45 119.06,-2.18 118.85,-1.97 118.64,-1.73 118.39,-1.52 118.12,-1.3 117.88,-1.12 117.61,-0.94 117.33,-0.79 117.03,-0.64 116.42,-0.39 115.52,-0.12 115.18,-0.06 114.88,-0.03 114.55,0.0 62.7,0.0 62.58,-0.03 62.42,-0.06 62.18,-0.12 62.09,-0.15 61.97,-0.18 61.73,-0.3 61.64,-0.36 61.52,-0.42 61.42,-0.52 61.33,-0.58 61.21,-0.67 61.12,-0.76 61.06,-0.85 60.88,-1.03 60.82,-1.15 60.76,-1.24 60.64,-1.48 60.61,-1.61 60.55,-1.7 60.45,-2.06 60.42,-2.21 60.42,-2.33 60.33,-3.55 60.24,-4.33 60.12,-5.12 59.97,-5.91 59.39,-8.21 59.18,-8.97 58.94,-9.73 58.67,-10.45 57.76,-12.67 57.42,-13.39 57.09,-14.09 56.67,-14.79 55.45,-16.79 55.0,-17.45 54.55,-18.09 54.03,-18.73 52.52,-20.52 51.97,-21.12 51.42,-21.67 50.82,-22.21 49.03,-23.73 48.39,-24.24 47.76,-24.7 47.09,-25.15 45.09,-26.36 44.39,-26.79 43.7,-27.12 42.97,-27.45 40.76,-28.36 40.52,-28.45 116.58,-28.45"/>
<polygon class="l0d0" points="119.24,0.03 119.39,0.06 119.64,0.12 119.73,0.15 119.85,0.18 120.09,0.3 120.18,0.36 120.3,0.42 120.39,0.52 120.48,0.58 120.61,0.67 120.7,0.76 120.76,0.85 120.94,1.03 121.0,1.15 121.06,1.24 121.18,1.48 121.21,1.61 121.27,1.7 121.36,2.06 121.39,2.21 121.39,2.33 121.48,3.55 121.58,4.33 121.7,5.12 121.85,5.91 122.42,8.21 122.64,8.97 122.88,9.73 123.15,10.45 124.06,12.67 124.39,13.39 124.73,14.09 125.15,14.79 126.36,16.79 126.82,17.45 127.27,18.09 127.79,18.73 129.3,20.52 129.85,21.12 130.39,21.67 131.0,22.21 132.79,23.73 133.42,24.24 134.06,24.7 134.73,25.15 136.73,26.36 137.42,26.79 138.12,27.12 138.85,27.45 141.06,28.36 141.79,28.64 65.3,28.64 65.24,28.45 64.97,27.7 64.79,26.94 62.0,15.39 61.85,14.61 61.73,13.82 61.64,13.03 61.15,6.97 61.15,6.64 61.12,6.33 61.18,5.67 61.24,5.36 61.3,5.03 61.36,4.73 61.45,4.42 61.7,3.82 61.85,3.52 62.15,2.97 62.33,2.7 62.55,2.45 62.76,2.18 62.97,1.97 63.18,1.73 63.42,1.52 63.7,1.3 63.94,1.12 64.21,0.94 64.48,0.79 64.79,0.64 65.39,0.39 66.3,0.12 66.64,0.06 66.94,0.03 67.27,0.0 119.12,0.0"/>
<polygon class="l0d0" points="142.55,28.88 143.3,29.09 145.61,29.67 146.39,29.82 147.18,29.94 147.97,30.03 149.18,30.12 149.3,30.12 149.45,30.15 149.82,30.24 149.91,30.3 150.03,30.33 150.27,30.45 150.36,30.52 150.48,30.58 150.67,30.76 150.76,30.82 150.85,30.91 150.94,31.03 151.0,31.12 151.09,31.21 151.15,31.33 151.21,31.42 151.33,31.67 151.36,31.79 151.39,31.88 151.45,32.12 151.48,32.27 151.52,32.39 151.52,84.24 151.48,84.58 151.45,84.88 151.39,85.21 151.12,86.12 150.88,86.73 150.73,87.03 150.58,87.3 150.39,87.58 150.21,87.82 150.0,88.09 149.79,88.33 149.55,88.55 149.33,88.76 149.06,88.97 148.82,89.18 148.55,89.36 148.0,89.67 147.7,89.82 147.09,90.06 146.79,90.15 146.48,90.21 146.15,90.27 145.85,90.33 145.18,90.39 144.88,90.36 144.55,90.36 138.48,89.88 137.7,89.79 136.91,89.67 136.12,89.52 124.58,86.73 123.82,86.55 123.06,86.27 122.33,86.0 111.33,81.45 110.61,81.12 109.91,80.79 109.21,80.36 99.09,74.18 98.42,73.73 97.79,73.27 97.18,72.76 88.15,65.06 87.55,64.52 87.0,63.97 86.45,63.36 78.76,54.33 78.24,53.73 77.79,53.09 77.33,52.42 71.15,42.3 70.73,41.61 70.39,40.91 70.06,40.18 65.52,29.18 65.3,28.64 141.79,28.64"/>
</g>
</svg>