<?xml version="1.0" encoding="UTF-8"?>
<svg xmlns="http://www.w3.org/2000/svg" xmlns:xlink="http://www.w3.org/1999/xlink" width="264.0" height="244.0" viewBox="-72.0 -72.0 264.0 244.0">
<defs>
<style type="text/css">
.l0d0 {stroke: rgb(255, 0, 0); fill: rgb(255, 0, 0); fill-opacity: 0.5;}
</style>
</defs><rect x="-72.0" y="-72.0" width="264.0" height="244.0" fill="none" stroke="none"/>
<g id="fillet_operation" transform="scale(1 -1)">
<polygon class="l0d0" points="20.4,-159.96 28.599999999999998,-159.32 29.119999999999997,-159.26 29.64,-159.18 30.139999999999997,-159.07999999999998 37.78,-157.24 38.28,-157.10000000000002 38.78,-156.94 39.260000000000005,-156.76 46.5,-153.76 46.980000000000004,-153.54 47.46000000000001,-153.3 47.92,-153.04 54.58,-148.96 55.46,-148.36 55.86,-148.01999999999998 61.82000000000001,-142.92 61.82000000000001,-53.96 58.17999999999999,-57.08 57.779999999999994,-57.42 57.42,-57.779999999999994 57.08,-58.17999999999999 51.980000000000004,-64.14 51.64,-64.53999999999999 51.04,-65.42 46.959999999999994,-72.08 46.7,-72.53999999999999 46.46,-73.02 46.239999999999995,-73.5 43.239999999999995,-80.74 43.06,-81.22 42.9,-81.72 42.76,-82.22 40.919999999999995,-89.86000000000001 40.82,-90.36 40.739999999999995,-90.88 40.67999999999999,-91.4 40.0,-100.0 39.82,-102.32 39.76,-102.86 39.68,-103.38 39.58,-103.9 39.2,-105.42 39.06,-105.92 38.9,-106.41999999999999 38.72,-106.89999999999999 38.12,-108.36 37.9,-108.84 37.68,-109.3 37.400000000000006,-109.76 36.6,-111.08000000000001 36.0,-111.96 34.64,-113.56 34.300000000000004,-113.94 33.94,-114.3 33.56,-114.64 31.96,-116.0 31.080000000000002,-116.6 29.759999999999998,-117.4 29.3,-117.68 28.84,-117.89999999999999 28.36,-118.11999999999999 26.9,-118.72 26.419999999999998,-118.9 25.92,-119.06 25.419999999999998,-119.2 23.900000000000002,-119.58 23.380000000000003,-119.68 22.86,-119.76 22.32,-119.82 20.38,-119.97999999999999 19.62,-120.0 -50.0,-120.0 -50.5,-120.02000000000001 -51.02,-120.06 -51.52,-120.12 -52.019999999999996,-120.19999999999999 -52.5,-120.32 -53.0,-120.46 -53.48,-120.61999999999999 -54.400000000000006,-121.02000000000001 -54.86,-121.25999999999999 -55.279999999999994,-121.52 -55.72,-121.8 -56.120000000000005,-122.10000000000001 -56.52,-122.42000000000002 -56.879999999999995,-122.75999999999999 -57.24,-123.11999999999999 -57.58,-123.48 -57.9,-123.88 -58.2,-124.28 -58.48,-124.72 -58.739999999999995,-125.13999999999999 -58.98,-125.60000000000001 -59.379999999999995,-126.52 -59.54,-127.0 -59.68,-127.5 -59.800000000000004,-127.98 -59.88,-128.48000000000002 -59.94,-128.98 -59.980000000000004,-129.5 -60.0,-130.0 -60.0,-150.0 -59.980000000000004,-150.5 -59.94,-151.02 -59.88,-151.51999999999998 -59.800000000000004,-152.02 -59.68,-152.5 -59.54,-153.0 -59.379999999999995,-153.48000000000002 -58.98,-154.4 -58.739999999999995,-154.86 -58.48,-155.28 -58.2,-155.72 -57.9,-156.12 -57.58,-156.51999999999998 -57.24,-156.88 -56.879999999999995,-157.24 -56.52,-157.57999999999998 -56.120000000000005,-157.89999999999998 -55.72,-158.2 -55.279999999999994,-158.48000000000002 -54.86,-158.74 -54.400000000000006,-158.98 -53.48,-159.38 -53.0,-159.54000000000002 -52.5,-159.68 -52.019999999999996,-159.8 -51.52,-159.88 -51.02,-159.94 -50.5,-159.98 -50.0,-160.0 19.6,-160.0"/>
<polygon class="l0d0" points="62.220000000000006,-142.57999999999998 62.58,-142.22 62.92,-141.82 68.02,-135.86 68.36,-135.45999999999998 68.96,-134.58 73.04,-127.92 73.3,-127.46000000000001 73.54,-126.98 73.76,-126.5 76.76,-119.26 76.94,-118.78 77.1,-118.28 77.24000000000001,-117.78 79.08,-110.13999999999999 79.18,-109.64 79.26,-109.12 79.32000000000001,-108.6 80.0,-100.0 80.18,-97.68 80.24,-97.14 80.32,-96.62 80.42,-96.1 80.8,-94.58 80.94,-94.08 81.1,-93.58000000000001 81.28,-93.10000000000001 81.88000000000001,-91.64 82.10000000000001,-91.16 82.32,-90.7 82.6,-90.24 83.4,-88.91999999999999 84.0,-88.04 85.36,-86.44 85.7,-86.06 86.06,-85.7 86.44,-85.36 88.04,-84.0 88.91999999999999,-83.4 90.24,-82.6 90.7,-82.32 91.16,-82.10000000000001 91.64,-81.88000000000001 93.10000000000001,-81.28 93.58000000000001,-81.1 94.08,-80.94 94.58,-80.8 96.1,-80.42 96.62,-80.32 97.14,-80.24 97.68,-80.18 99.62,-80.02000000000001 100.38,-80.0 170.0,-80.0 170.5,-79.98 171.02,-79.94 171.52,-79.88000000000001 172.02,-79.80000000000001 172.5,-79.68 173.0,-79.53999999999999 173.48,-79.38 174.4,-78.97999999999999 174.86,-78.74 175.27999999999997,-78.48 175.72,-78.2 176.11999999999998,-77.9 176.52,-77.58 176.88,-77.24000000000001 177.24,-76.88 177.57999999999998,-76.52 177.89999999999998,-76.12 178.2,-75.72 178.48,-75.28 178.73999999999998,-74.86 178.98,-74.4 179.38,-73.48 179.54000000000002,-73.0 179.68,-72.5 179.8,-72.02 179.88,-71.52 179.94,-71.02000000000001 179.98000000000002,-70.5 180.0,-70.0 180.0,-50.0 179.98000000000002,-49.5 179.94,-48.98 179.88,-48.48 179.8,-47.980000000000004 179.68,-47.5 179.54000000000002,-47.0 179.38,-46.52 178.98,-45.599999999999994 178.73999999999998,-45.14 178.48,-44.720000000000006 178.2,-44.28 177.89999999999998,-43.879999999999995 177.57999999999998,-43.48 177.24,-43.120000000000005 176.88,-42.76 176.52,-42.42 176.11999999999998,-42.1 175.72,-41.8 175.27999999999997,-41.52 174.86,-41.260000000000005 174.4,-41.02 173.48,-40.620000000000005 173.0,-40.46 172.5,-40.32 172.02,-40.199999999999996 171.52,-40.12 171.02,-40.06 170.5,-40.019999999999996 170.0,-40.0 100.39999999999999,-40.0 99.60000000000001,-40.03999999999999 91.4,-40.67999999999999 90.88,-40.739999999999995 90.36,-40.82 89.86000000000001,-40.919999999999995 82.22,-42.76 81.72,-42.9 81.22,-43.06 80.74,-43.239999999999995 73.5,-46.239999999999995 73.02,-46.46 72.53999999999999,-46.7 72.08,-46.959999999999994 65.42,-51.04 64.53999999999999,-51.64 64.14,-51.980000000000004 61.82000000000001,-53.96 61.82000000000001,-142.92"/>
<polygon class="l0d0" points="20.0,-30.0 19.98716507171053,-29.49350831161287 19.948693233918952,-28.98831678012568 19.884683243281113,-28.485722224954234 19.795299412524944,-27.9870147991134 19.680771188662042,-27.4934746774128 19.54139256400049,-27.006368770266423 19.377521321470805,-26.5269474715518 19.189578116202306,-26.056441448866817 18.97804539570742,-25.596058484423658 18.74346616144582,-25.146980374689186 18.48644257494751,-24.710359896730374 18.207634412072764,-24.287317849052073 17.907757369376984,-23.878940174523372 17.58758122692791,-23.48627517277778 17.2479278722912,-23.110330809243138 16.889669190756866,-22.7520721277088 16.513724827222223,-22.41241877307209 16.121059825476628,-22.092242630623016 15.712682150947924,-21.792365587927236 15.289640103269624,-21.51355742505249 14.85301962531081,-21.25653383855418 14.403941515576344,-21.02195460429258 13.943558551133187,-20.810421883797694 13.473052528448202,-20.622478678529195 12.99363122973358,-20.45860743599951 12.506525322587205,-20.319228811337958 12.0129852008866,-20.204700587475056 11.514277775045766,-20.11531675671889 11.011683219874321,-20.051306766081048 10.506491688387127,-20.01283492828947 10.0,-20.0 -50.0,-20.0 -50.50649168838713,-20.01283492828947 -51.011683219874314,-20.051306766081048 -51.51427777504576,-20.11531675671889 -52.0129852008866,-20.204700587475056 -52.5065253225872,-20.319228811337958 -52.99363122973358,-20.45860743599951 -53.4730525284482,-20.622478678529195 -53.94355855113319,-20.81042188379769 -54.40394151557634,-21.02195460429258 -54.853019625310814,-21.25653383855418 -55.289640103269626,-21.51355742505249 -55.71268215094791,-21.792365587927236 -56.12105982547662,-22.092242630623016 -56.51372482722222,-22.41241877307209 -56.88966919075686,-22.7520721277088 -57.2479278722912,-23.11033080924313 -57.58758122692791,-23.486275172777773 -57.90775736937698,-23.878940174523372 -58.207634412072764,-24.287317849052073 -58.48644257494751,-24.710359896730374 -58.74346616144582,-25.146980374689186 -58.97804539570742,-25.596058484423658 -59.189578116202306,-26.056441448866813 -59.37752132147081,-26.526947471551793 -59.54139256400049,-27.00636877026642 -59.68077118866204,-27.4934746774128 -59.79529941252494,-27.9870147991134 -59.88468324328111,-28.48572222495423 -59.94869323391895,-28.98831678012568 -59.98716507171053,-29.49350831161287 -60.0,-30.0 -60.0,-50.0 -59.98716507171053,-50.50649168838713 -59.94869323391895,-51.011683219874314 -59.88468324328111,-51.51427777504577 -59.79529941252494,-52.0129852008866 -59.68077118866204,-52.5065253225872 -59.54139256400049,-52.99363122973357 -59.37752132147081,-53.4730525284482 -59.189578116202306,-53.94355855113318 -58.97804539570742,-54.40394151557634 -58.743466161445824,-54.85301962531081 -58.48644257494751,-55.289640103269626 -58.207634412072764,-55.71268215094791 -57.90775736937698,-56.12105982547662 -57.58758122692791,-56.51372482722222 -57.2479278722912,-56.88966919075686 -56.88966919075686,-57.2479278722912 -56.51372482722223,-57.5875812269279 -56.12105982547662,-57.90775736937698 -55.71268215094793,-58.207634412072764 -55.289640103269626,-58.48644257494751 -54.85301962531081,-58.743466161445824 -54.40394151557634,-58.97804539570742 -53.94355855113319,-59.189578116202306 -53.47305252844821,-59.37752132147081 -52.99363122973358,-59.54139256400048 -52.5065253225872,-59.68077118866204 -52.012985200886604,-59.79529941252494 -51.51427777504577,-59.88468324328111 -51.011683219874314,-59.94869323391895 -50.50649168838713,-59.98716507171053 -50.0,-60.0 10.0,-60.0 10.506491688387127,-59.98716507171053 11.011683219874321,-59.94869323391895 11.514277775045766,-59.88468324328111 12.0129852008866,-59.79529941252494 12.506525322587205,-59.68077118866204 12.99363122973358,-59.54139256400049 13.473052528448202,-59.37752132147081 13.943558551133187,-59.189578116202306 14.403941515576344,-58.97804539570742 14.85301962531081,-58.74346616144582 15.289640103269626,-58.48644257494751 15.712682150947924,-58.207634412072764 16.121059825476628,-57.90775736937698 16.513724827222223,-57.58758122692791 16.889669190756866,-57.2479278722912 17.2479278722912,-56.88966919075686 17.58758122692791,-56.51372482722223 17.907757369376984,-56.12105982547662 18.207634412072764,-55.71268215094793 18.48644257494751,-55.289640103269626 18.74346616144582,-54.853019625310814 18.97804539570742,-54.40394151557634 19.18957811620231,-53.94355855113319 19.377521321470805,-53.4730525284482 19.54139256400049,-52.99363122973358 19.680771188662042,-52.5065253225872 19.795299412524944,-52.0129852008866 19.884683243281113,-51.51427777504576 19.948693233918952,-51.011683219874314 19.98716507171053,-50.50649168838713 20.0,-50.0"/>
<polygon class="l0d0" points="180.0,50.0 179.98716507171054,50.50649168838713 179.94869323391896,51.011683219874314 179.8846832432811,51.51427777504576 179.79529941252494,52.0129852008866 179.68077118866205,52.5065253225872 179.5413925640005,52.99363122973358 179.3775213214708,53.4730525284482 179.1895781162023,53.94355855113319 178.97804539570743,54.40394151557634 178.7434661614458,54.853019625310814 178.48644257494752,55.289640103269626 178.20763441207276,55.71268215094793 177.907757369377,56.12105982547662 177.5875812269279,56.51372482722223 177.2479278722912,56.88966919075686 176.88966919075685,57.2479278722912 176.51372482722223,57.58758122692791 176.12105982547664,57.90775736937698 175.71268215094793,58.207634412072764 175.28964010326962,58.48644257494751 174.85301962531082,58.74346616144582 174.40394151557632,58.97804539570742 173.94355855113318,59.189578116202306 173.4730525284482,59.37752132147081 172.99363122973358,59.54139256400049 172.5065253225872,59.68077118866204 172.0129852008866,59.79529941252494 171.51427777504577,59.88468324328111 171.01168321987433,59.94869323391895 170.50649168838714,59.98716507171053 170.0,60.0 110.0,60.0 109.49350831161289,59.98716507171053 108.98831678012569,59.94869323391895 108.48572222495423,59.88468324328111 107.98701479911341,59.79529941252494 107.49347467741279,59.68077118866204 107.00636877026642,59.54139256400049 106.52694747155181,59.37752132147081 106.05644144886682,59.189578116202306 105.59605848442366,58.97804539570742 105.14698037468919,58.743466161445824 104.71035989673038,58.48644257494751 104.28731784905209,58.207634412072764 103.87894017452338,57.90775736937698 103.48627517277778,57.58758122692791 103.11033080924312,57.2479278722912 102.7520721277088,56.88966919075686 102.41241877307209,56.51372482722223 102.09224263062302,56.121059825476635 101.79236558792724,55.71268215094793 101.51355742505248,55.289640103269626 101.25653383855419,54.853019625310814 101.02195460429257,54.40394151557634 100.81042188379769,53.94355855113319 100.62247867852919,53.4730525284482 100.45860743599951,52.99363122973358 100.31922881133795,52.5065253225872 100.20470058747506,52.012985200886604 100.11531675671888,51.51427777504577 100.05130676608104,51.01168321987433 100.01283492828946,50.50649168838713 100.0,50.0 100.0,29.999999999999996 100.01283492828946,29.493508311612867 100.05130676608104,28.988316780125672 100.11531675671888,28.48572222495423 100.20470058747506,27.987014799113396 100.31922881133795,27.493474677412788 100.45860743599951,27.00636877026642 100.62247867852919,26.526947471551793 100.81042188379769,26.056441448866813 101.02195460429257,25.59605848442365 101.25653383855419,25.146980374689186 101.51355742505248,24.71035989673037 101.79236558792724,24.287317849052073 102.09224263062302,23.878940174523365 102.41241877307209,23.486275172777773 102.7520721277088,23.11033080924313 103.11033080924312,22.7520721277088 103.48627517277777,22.41241877307209 103.87894017452338,22.092242630623005 104.28731784905209,21.792365587927232 104.71035989673038,21.51355742505249 105.14698037468919,21.256533838554176 105.59605848442366,21.021954604292578 106.05644144886682,20.810421883797687 106.5269474715518,20.622478678529195 107.0063687702664,20.458607435999507 107.49347467741279,20.31922881133795 107.98701479911341,20.204700587475052 108.48572222495423,20.11531675671888 108.98831678012569,20.051306766081044 109.49350831161289,20.012834928289468 110.0,19.999999999999996 170.0,19.999999999999996 170.50649168838714,20.012834928289468 171.01168321987433,20.051306766081044 171.51427777504577,20.11531675671888 172.0129852008866,20.204700587475052 172.5065253225872,20.31922881133795 172.99363122973358,20.458607435999507 173.4730525284482,20.62247867852919 173.94355855113318,20.810421883797687 174.40394151557632,21.021954604292578 174.85301962531082,21.256533838554176 175.28964010326962,21.51355742505249 175.71268215094793,21.792365587927232 176.12105982547664,22.092242630623012 176.51372482722223,22.412418773072087 176.88966919075685,22.752072127708797 177.2479278722912,23.11033080924313 177.5875812269279,23.486275172777773 177.907757369377,23.878940174523365 178.20763441207276,24.287317849052073 178.48644257494752,24.710359896730374 178.7434661614458,25.146980374689186 178.97804539570743,25.59605848442365 179.1895781162023,26.056441448866813 179.37752132147082,26.526947471551793 179.5413925640005,27.00636877026642 179.68077118866205,27.49347467741279 179.79529941252494,27.987014799113396 179.8846832432811,28.48572222495423 179.94869323391896,28.988316780125672 179.98716507171054,29.493508311612867 180.0,29.999999999999996"/>
<polygon class="l0d0" points="24.380000000000003,-59.64 24.6,-59.64 28.599999999999998,-59.32000000000001 29.119999999999997,-59.260000000000005 29.64,-59.18 30.16,-59.080000000000005 37.78,-57.24 38.28,-57.12 38.78,-56.94 39.260000000000005,-56.760000000000005 46.52,-53.760000000000005 47.0,-53.54 47.46000000000001,-53.32 47.92,-53.040000000000006 54.6,-48.96 55.03999999999999,-48.66 55.46,-48.36 55.86,-48.019999999999996 61.82000000000001,-42.94 62.220000000000006,-42.58 62.58,-42.220000000000006 62.94,-41.82000000000001 68.02,-35.86 68.36,-35.46 68.66,-35.04 68.96,-34.6 73.04,-27.919999999999998 73.32,-27.46 73.54,-27.0 73.76,-26.520000000000003 76.76,-19.259999999999998 76.94,-18.779999999999998 26.74,-18.779999999999998 26.419999999999998,-18.9 25.92,-19.06 25.419999999999998,-19.2 23.900000000000002,-19.58 23.380000000000003,-19.68 22.86,-19.759999999999998 22.34,-19.82 21.54,-19.88 21.46,-19.88 21.36,-19.9 21.12,-19.96 21.06,-20.0 20.979999999999997,-20.019999999999996 20.82,-20.099999999999998 20.76,-20.139999999999997 20.68,-20.18 20.560000000000002,-20.299999999999997 20.5,-20.339999999999996 20.44,-20.4 20.38,-20.48 20.339999999999996,-20.54 20.28,-20.6 20.240000000000002,-20.68 20.2,-20.74 20.12,-20.9 20.099999999999998,-20.979999999999997 20.08,-21.04 20.04,-21.200000000000003 20.019999999999996,-21.299999999999997 20.0,-21.38 20.0,-55.599999999999994 20.019999999999996,-55.82 20.04,-56.02 20.08,-56.239999999999995 20.259999999999998,-56.84 20.419999999999998,-57.24 20.52,-57.44 20.619999999999997,-57.62 20.74,-57.800000000000004 20.86,-57.96 21.0,-58.14 21.14,-58.3 21.299999999999997,-58.440000000000005 21.44,-58.58 21.619999999999997,-58.72 21.78,-58.86 21.96,-58.98 22.32,-59.18 22.519999999999996,-59.28 22.919999999999998,-59.44 23.119999999999997,-59.5 23.32,-59.54 23.54,-59.58 23.740000000000002,-59.62 24.18,-59.660000000000004"/>
<polygon class="l0d0" points="77.12,-18.28 77.24000000000001,-17.78 79.08,-10.16 79.18,-9.64 79.26,-9.120000000000001 79.32000000000001,-8.6 79.64,-4.6000000000000005 79.64,-4.38 79.66,-4.18 79.62,-3.74 79.58,-3.54 79.53999999999999,-3.3200000000000003 79.5,-3.12 79.44,-2.92 79.28,-2.52 79.18,-2.3200000000000003 78.97999999999999,-1.96 78.86,-1.7799999999999998 78.72,-1.62 78.58,-1.44 78.44,-1.3 78.3,-1.1400000000000001 78.14,-1.0 77.96000000000001,-0.8599999999999999 77.8,-0.74 77.61999999999999,-0.62 77.44,-0.52 77.24000000000001,-0.42000000000000004 76.84,-0.26 76.24,-0.08 76.02000000000001,-0.04 75.82,-0.02 75.6,0.0 41.379999999999995,0.0 41.3,-0.02 41.2,-0.04 41.04,-0.08 40.98,-0.1 40.9,-0.12 40.739999999999995,-0.2 40.67999999999999,-0.24 40.599999999999994,-0.28 40.540000000000006,-0.34 40.480000000000004,-0.38 40.4,-0.43999999999999995 40.339999999999996,-0.5 40.300000000000004,-0.56 40.18,-0.68 40.14,-0.76 40.099999999999994,-0.8200000000000001 40.019999999999996,-0.98 40.0,-1.06 39.96,-1.12 39.900000000000006,-1.36 39.88,-1.46 39.88,-1.54 39.82,-2.3400000000000003 39.76,-2.86 39.68,-3.3800000000000003 39.58,-3.9000000000000004 39.2,-5.42 39.06,-5.92 38.9,-6.42 38.72,-6.8999999999999995 38.12,-8.36 37.9,-8.84 37.68,-9.3 37.400000000000006,-9.76 36.6,-11.080000000000002 36.3,-11.52 36.0,-11.94 35.66,-12.36 34.660000000000004,-13.540000000000001 34.300000000000004,-13.94 33.94,-14.299999999999999 33.54,-14.66 32.36,-15.66 31.939999999999998,-16.0 31.520000000000003,-16.299999999999997 31.080000000000002,-16.599999999999998 29.759999999999998,-17.4 29.3,-17.68 28.84,-17.9 28.36,-18.12 26.9,-18.720000000000002 26.74,-18.779999999999998 76.94,-18.779999999999998"/>
<polygon class="l0d0" points="78.7,0.02 78.8,0.04 78.96,0.08 79.02,0.1 79.1,0.12 79.26,0.2 79.32000000000001,0.24 79.4,0.28 79.46,0.34 79.52,0.38 79.6,0.43999999999999995 79.66,0.5 79.7,0.56 79.82000000000001,0.68 79.86,0.76 79.9,0.8200000000000001 79.98,0.98 80.0,1.06 80.03999999999999,1.12 80.1,1.36 80.12,1.46 80.12,1.54 80.18,2.3400000000000003 80.24,2.86 80.32,3.3800000000000003 80.42,3.9000000000000004 80.8,5.42 80.94,5.92 81.1,6.42 81.28,6.8999999999999995 81.88000000000001,8.36 82.10000000000001,8.84 82.32,9.3 82.6,9.76 83.4,11.080000000000002 83.69999999999999,11.52 84.0,11.94 84.33999999999999,12.36 85.34,13.540000000000001 85.7,13.94 86.06,14.299999999999999 86.46000000000001,14.66 87.63999999999999,15.66 88.05999999999999,16.0 88.48,16.299999999999997 88.91999999999999,16.599999999999998 90.24,17.4 90.7,17.68 91.16,17.9 91.64,18.12 93.10000000000001,18.720000000000002 93.58000000000001,18.9 43.099999999999994,18.9 43.06,18.779999999999998 42.88,18.28 42.76,17.78 40.919999999999995,10.16 40.82,9.64 40.739999999999995,9.120000000000001 40.67999999999999,8.6 40.36,4.6000000000000005 40.36,4.38 40.339999999999996,4.18 40.38,3.74 40.42,3.54 40.46,3.3200000000000003 40.5,3.12 40.56,2.92 40.72,2.52 40.82,2.3200000000000003 41.02,1.96 41.14,1.7799999999999998 41.28,1.62 41.42,1.44 41.559999999999995,1.3 41.7,1.1400000000000001 41.86,1.0 42.04,0.8599999999999999 42.199999999999996,0.74 42.38,0.62 42.56,0.52 42.76,0.42000000000000004 43.16,0.26 43.760000000000005,0.08 43.98,0.04 44.18,0.02 44.400000000000006,0.0 78.62,0.0"/>
<polygon class="l0d0" points="94.08,19.06 94.58,19.2 96.1,19.58 96.62,19.68 97.14,19.759999999999998 97.66,19.82 98.46000000000001,19.88 98.53999999999999,19.88 98.64000000000001,19.9 98.88,19.96 98.94,20.0 99.02,20.019999999999996 99.17999999999999,20.099999999999998 99.24,20.139999999999997 99.32000000000001,20.18 99.44000000000001,20.299999999999997 99.5,20.339999999999996 99.56,20.4 99.62,20.48 99.66,20.54 99.72,20.6 99.76,20.68 99.80000000000001,20.74 99.88,20.9 99.9,20.979999999999997 99.92000000000002,21.04 99.96000000000001,21.200000000000003 99.97999999999999,21.299999999999997 100.0,21.38 100.0,55.599999999999994 99.97999999999999,55.82 99.96000000000001,56.02 99.92000000000002,56.239999999999995 99.74000000000001,56.84 99.58,57.24 99.48,57.44 99.38000000000001,57.62 99.26,57.800000000000004 99.14,57.96 99.0,58.14 98.85999999999999,58.3 98.69999999999999,58.440000000000005 98.56,58.58 98.38,58.72 98.22,58.86 98.04,58.98 97.68,59.18 97.47999999999999,59.28 97.08,59.44 96.88000000000001,59.5 96.67999999999999,59.54 96.46000000000001,59.58 96.25999999999999,59.62 95.82000000000001,59.660000000000004 95.61999999999999,59.64 95.39999999999999,59.64 91.4,59.32000000000001 90.88,59.260000000000005 90.36,59.18 89.84,59.080000000000005 82.22,57.24 81.72,57.12 81.22,56.94 80.74,56.760000000000005 73.48,53.760000000000005 73.0,53.54 72.53999999999999,53.32 72.08,53.040000000000006 65.4,48.96 64.96000000000001,48.66 64.53999999999999,48.36 64.14,48.019999999999996 58.17999999999999,42.94 57.779999999999994,42.58 57.42,42.220000000000006 57.06,41.82000000000001 51.980000000000004,35.86 51.64,35.46 51.34,35.04 51.04,34.6 46.959999999999994,27.919999999999998 46.68,27.46 46.46,27.0 46.239999999999995,26.520000000000003 43.239999999999995,19.259999999999998 43.099999999999994,18.9 93.58000000000001,18.9"/>
</g>
</svg>