<?xml version="1.0" encoding="UTF-8"?>
<svg xmlns="http://www.w3.org/2000/svg" xmlns:xlink="http://www.w3.org/1999/xlink"
     width="400.0" height="369.6969696969697" viewBox="-109.0909090909091 -109.0909090909091 400.0 369.6969696969697">
<defs>
<style type="text/css">
.l0d0 {stroke: rgb(255, 0, 0); fill: rgb(255, 0, 0); fill-opacity: 0.5;}
</style>
</defs><rect x="-109.0909090909091" y="-109.0909090909091" width="400.0" height="369.6969696969697" fill="none" stroke="none"/>
<g id="fillet_operation" transform="scale(1 -1)">
<polygon class="l0d0" points="30.909090909090907,-242.36363636363635 43.33333333333333,-241.39393939393938 44.12121212121212,-241.30303030303028 44.90909090909091,-241.18181818181816 45.66666666666666,-241.030303030303 57.24242424242424,-238.24242424242422 57.99999999999999,-238.03030303030303 58.75757575757576,-237.78787878787878 59.484848484848484,-237.5151515151515 70.45454545454545,-232.96969696969694 71.18181818181819,-232.6363636363636 71.9090909090909,-232.27272727272725 72.6060606060606,-231.87878787878788 82.69696969696969,-225.6969696969697 84.03030303030303,-224.78787878787878 84.63636363636364,-224.27272727272725 93.66666666666667,-216.54545454545453 93.66666666666667,-81.75757575757575 88.15151515151514,-86.48484848484848 87.54545454545453,-87.0 87.0,-87.54545454545453 86.48484848484848,-88.15151515151514 78.75757575757576,-97.18181818181817 78.24242424242424,-97.78787878787878 77.33333333333333,-99.12121212121211 71.15151515151514,-109.2121212121212 70.75757575757575,-109.90909090909089 70.39393939393939,-110.63636363636363 70.06060606060605,-111.36363636363635 65.5151515151515,-122.33333333333333 65.24242424242424,-123.06060606060605 65.0,-123.81818181818181 64.78787878787878,-124.57575757575756 61.99999999999999,-136.15151515151516 61.848484848484844,-136.9090909090909 61.72727272727272,-137.6969696969697 61.636363636363626,-138.48484848484847 60.6060606060606,-151.5151515151515 60.333333333333336,-155.030303030303 60.242424242424235,-155.84848484848484 60.12121212121212,-156.63636363636363 59.96969696969697,-157.42424242424244 59.39393939393939,-159.72727272727272 59.18181818181818,-160.48484848484847 58.93939393939394,-161.24242424242422 58.666666666666664,-161.96969696969694 57.75757575757575,-164.1818181818182 57.42424242424242,-164.9090909090909 57.090909090909086,-165.6060606060606 56.666666666666664,-166.3030303030303 55.45454545454545,-168.3030303030303 54.54545454545454,-169.63636363636363 52.48484848484848,-172.06060606060603 51.96969696969697,-172.63636363636363 51.42424242424242,-173.18181818181816 50.848484848484844,-173.6969696969697 48.42424242424242,-175.75757575757575 47.090909090909086,-176.66666666666666 45.090909090909086,-177.87878787878788 44.39393939393939,-178.3030303030303 43.696969696969695,-178.6363636363636 42.96969696969696,-178.96969696969694 40.75757575757575,-179.87878787878788 40.030303030303024,-180.15151515151516 39.27272727272727,-180.39393939393938 38.51515151515151,-180.6060606060606 36.21212121212121,-181.18181818181816 35.42424242424242,-181.33333333333331 34.63636363636363,-181.45454545454547 33.81818181818182,-181.54545454545453 30.878787878787875,-181.78787878787875 29.727272727272723,-181.8181818181818 -75.75757575757575,-181.8181818181818 -76.5151515151515,-181.84848484848484 -77.3030303030303,-181.9090909090909 -78.06060606060606,-182.0 -78.81818181818181,-182.1212121212121 -79.54545454545455,-182.30303030303028 -80.3030303030303,-182.5151515151515 -81.03030303030302,-182.75757575757572 -82.42424242424242,-183.36363636363635 -83.12121212121211,-183.72727272727272 -83.75757575757575,-184.1212121212121 -84.42424242424242,-184.54545454545453 -85.03030303030303,-185.0 -85.63636363636363,-185.4848484848485 -86.18181818181817,-185.99999999999997 -86.72727272727272,-186.54545454545453 -87.24242424242424,-187.0909090909091 -87.72727272727272,-187.6969696969697 -88.18181818181819,-188.3030303030303 -88.6060606060606,-188.96969696969694 -88.99999999999999,-189.6060606060606 -89.36363636363636,-190.3030303030303 -89.96969696969695,-191.69696969696966 -90.2121212121212,-192.4242424242424 -90.42424242424242,-193.18181818181816 -90.60606060606061,-193.9090909090909 -90.72727272727273,-194.66666666666666 -90.81818181818181,-195.4242424242424 -90.87878787878788,-196.2121212121212 -90.9090909090909,-196.96969696969697 -90.9090909090909,-227.27272727272725 -90.87878787878788,-228.03030303030303 -90.81818181818181,-228.8181818181818 -90.72727272727273,-229.57575757575754 -90.60606060606061,-230.33333333333331 -90.42424242424242,-231.06060606060603 -90.2121212121212,-231.8181818181818 -89.96969696969695,-232.54545454545453 -89.36363636363636,-233.9393939393939 -88.99999999999999,-234.63636363636363 -88.6060606060606,-235.27272727272725 -88.18181818181819,-235.9393939393939 -87.72727272727272,-236.54545454545453 -87.24242424242424,-237.15151515151513 -86.72727272727272,-237.6969696969697 -86.18181818181817,-238.24242424242422 -85.63636363636363,-238.75757575757572 -85.03030303030303,-239.24242424242422 -84.42424242424242,-239.6969696969697 -83.75757575757575,-240.12121212121212 -83.12121212121211,-240.5151515151515 -82.42424242424242,-240.87878787878785 -81.03030303030302,-241.48484848484847 -80.3030303030303,-241.72727272727272 -79.54545454545455,-241.9393939393939 -78.81818181818181,-242.12121212121212 -78.06060606060606,-242.24242424242422 -77.3030303030303,-242.33333333333331 -76.5151515151515,-242.39393939393938 -75.75757575757575,-242.4242424242424 29.696969696969695,-242.4242424242424"/>
<polygon class="l0d0" points="94.27272727272727,-216.030303030303 94.81818181818181,-215.48484848484847 95.33333333333333,-214.87878787878788 103.06060606060605,-205.84848484848484 103.57575757575758,-205.24242424242422 104.48484848484847,-203.9090909090909 110.66666666666666,-193.8181818181818 111.06060606060605,-193.12121212121212 111.42424242424242,-192.39393939393938 111.75757575757575,-191.66666666666666 116.3030303030303,-180.6969696969697 116.57575757575756,-179.96969696969697 116.81818181818181,-179.2121212121212 117.03030303030303,-178.45454545454544 119.81818181818181,-166.87878787878785 119.96969696969697,-166.12121212121212 120.09090909090908,-165.33333333333334 120.18181818181817,-164.54545454545453 121.2121212121212,-151.5151515151515 121.48484848484848,-148.0 121.57575757575755,-147.1818181818182 121.69696969696969,-146.3939393939394 121.84848484848484,-145.6060606060606 122.42424242424242,-143.30303030303028 122.63636363636363,-142.54545454545453 122.87878787878786,-141.78787878787878 123.15151515151514,-141.06060606060606 124.06060606060606,-138.84848484848484 124.3939393939394,-138.1212121212121 124.7272727272727,-137.4242424242424 125.15151515151514,-136.7272727272727 126.36363636363636,-134.72727272727272 127.27272727272727,-133.39393939393938 129.33333333333331,-130.96969696969697 129.84848484848484,-130.39393939393938 130.39393939393938,-129.84848484848484 130.96969696969697,-129.33333333333331 133.39393939393938,-127.27272727272727 134.72727272727272,-126.36363636363636 136.7272727272727,-125.15151515151514 137.4242424242424,-124.7272727272727 138.1212121212121,-124.3939393939394 138.84848484848484,-124.06060606060606 141.06060606060606,-123.15151515151514 141.78787878787878,-122.87878787878786 142.54545454545453,-122.63636363636363 143.30303030303028,-122.42424242424242 145.6060606060606,-121.84848484848484 146.3939393939394,-121.69696969696969 147.1818181818182,-121.57575757575755 148.0,-121.48484848484848 150.93939393939394,-121.24242424242425 152.0909090909091,-121.2121212121212 257.57575757575756,-121.2121212121212 258.3333333333333,-121.18181818181817 259.1212121212121,-121.12121212121211 259.8787878787879,-121.03030303030303 260.6363636363636,-120.9090909090909 261.3636363636364,-120.72727272727272 262.1212121212121,-120.5151515151515 262.8484848484848,-120.27272727272727 264.24242424242425,-119.66666666666666 264.93939393939394,-119.30303030303028 265.57575757575756,-118.90909090909089 266.2424242424242,-118.48484848484848 266.8484848484848,-118.03030303030302 267.45454545454544,-117.54545454545453 267.99999999999994,-117.03030303030303 268.5454545454545,-116.48484848484847 269.060606060606,-115.93939393939394 269.5454545454545,-115.33333333333333 270.0,-114.72727272727272 270.4242424242424,-114.06060606060605 270.81818181818176,-113.42424242424241 271.1818181818182,-112.72727272727272 271.78787878787875,-111.33333333333333 272.030303030303,-110.6060606060606 272.24242424242425,-109.84848484848484 272.42424242424244,-109.12121212121211 272.5454545454545,-108.36363636363636 272.6363636363636,-107.60606060606061 272.6969696969697,-106.81818181818181 272.7272727272727,-106.06060606060605 272.7272727272727,-75.75757575757575 272.6969696969697,-75.0 272.6363636363636,-74.2121212121212 272.5454545454545,-73.45454545454545 272.42424242424244,-72.69696969696969 272.24242424242425,-71.96969696969697 272.030303030303,-71.2121212121212 271.78787878787875,-70.48484848484848 271.1818181818182,-69.09090909090908 270.81818181818176,-68.39393939393939 270.4242424242424,-67.75757575757576 270.0,-67.09090909090908 269.5454545454545,-66.48484848484848 269.060606060606,-65.87878787878788 268.5454545454545,-65.33333333333333 267.99999999999994,-64.78787878787878 267.45454545454544,-64.27272727272727 266.8484848484848,-63.78787878787878 266.2424242424242,-63.33333333333332 265.57575757575756,-62.90909090909091 264.93939393939394,-62.515151515151516 264.24242424242425,-62.15151515151515 262.8484848484848,-61.54545454545455 262.1212121212121,-61.303030303030305 261.3636363636364,-61.090909090909086 260.6363636363636,-60.9090909090909 259.8787878787879,-60.787878787878775 259.1212121212121,-60.696969696969695 258.3333333333333,-60.636363636363626 257.57575757575756,-60.6060606060606 152.1212121212121,-60.6060606060606 150.9090909090909,-60.66666666666666 138.48484848484847,-61.636363636363626 137.6969696969697,-61.72727272727272 136.9090909090909,-61.848484848484844 136.15151515151516,-61.99999999999999 124.57575757575756,-64.78787878787878 123.81818181818181,-65.0 123.06060606060605,-65.24242424242424 122.33333333333333,-65.5151515151515 111.36363636363635,-70.06060606060605 110.63636363636363,-70.39393939393939 109.90909090909089,-70.75757575757575 109.2121212121212,-71.15151515151514 99.12121212121211,-77.33333333333333 97.78787878787878,-78.24242424242424 97.18181818181817,-78.75757575757576 93.66666666666667,-81.75757575757575 93.66666666666667,-216.54545454545453"/>
<polygon class="l0d0" points="30.3030303030303,-45.45454545454545 30.283583441985645,-44.68713380547405 30.225292778665075,-43.92169209109951 30.12830794436532,-43.160185189324594 29.992877897765066,-42.40456787744454 29.819350285851577,-41.65677981426181 29.60817055151589,-40.91874056100973 29.35988079010728,-40.19234465386636 29.07511835788228,-39.47945674070729 28.754614235920325,-38.781906794581296 28.399191153705786,-38.101485416195736 28.009761477193194,-37.43993923747026 27.587324866776914,-36.79896643795769 27.132965711177246,-36.18021238564147 26.647850343830164,-35.585265413299666 26.13322404892606,-35.01565274127748 25.590407864783128,-34.47283655713454 25.020795192760943,-33.95821026223044 24.425848220419134,-33.47309489488335 23.80709416810291,-33.01873573928369 23.16612136859034,-32.59629912886741 22.504575189864862,-32.206869452354816 21.824153811479306,-31.851446370140277 21.12660386535331,-31.530942248178324 20.413715952194245,-31.246179815953322 19.68732004505088,-30.997890054544712 18.949280791798795,-30.78671032020903 18.20149272861606,-30.613182708295536 17.44587541673601,-30.477752661695284 16.684368514961093,-30.380767827395527 15.918926800586556,-30.322477164074957 15.15151515151515,-30.3030303030303 -75.75757575757575,-30.3030303030303 -76.52498740664716,-30.322477164074957 -77.29042912102169,-30.380767827395527 -78.05193602279661,-30.477752661695284 -78.80755333467665,-30.613182708295536 -79.5553413978594,-30.78671032020903 -80.29338065111148,-30.997890054544712 -81.01977655825485,-31.246179815953322 -81.73266447141391,-31.53094224817832 -82.43021441753991,-31.851446370140277 -83.11063579592548,-32.206869452354816 -83.77218197465095,-32.59629912886741 -84.4131547741635,-33.01873573928369 -85.03190882647972,-33.47309489488335 -85.62685579882154,-33.95821026223044 -86.19646847084373,-34.47283655713454 -86.73928465498666,-35.01565274127747 -87.25391094989077,-35.58526541329966 -87.73902631723784,-36.18021238564147 -88.19338547283752,-36.79896643795769 -88.6158220832538,-37.43993923747026 -89.00525175976638,-38.101485416195736 -89.36067484198092,-38.781906794581296 -89.68117896394288,-39.479456740707285 -89.96594139616788,-40.19234465386635 -90.21423115757649,-40.91874056100972 -90.42541089191218,-41.65677981426181 -90.59893850382566,-42.40456787744454 -90.73436855042593,-43.16018518932459 -90.83135338472567,-43.92169209109951 -90.88964404804625,-44.68713380547405 -90.9090909090909,-45.45454545454545 -90.9090909090909,-75.75757575757575 -90.88964404804625,-76.52498740664716 -90.83135338472567,-77.29042912102169 -90.73436855042593,-78.05193602279662 -90.59893850382566,-78.80755333467665 -90.42541089191218,-79.5553413978594 -90.21423115757649,-80.29338065111146 -89.96594139616788,-81.01977655825485 -89.68117896394288,-81.7326644714139 -89.36067484198092,-82.43021441753991 -89.0052517597664,-83.11063579592546 -88.6158220832538,-83.77218197465095 -88.19338547283752,-84.4131547741635 -87.73902631723784,-85.03190882647972 -87.25391094989077,-85.62685579882154 -86.73928465498666,-86.19646847084373 -86.19646847084373,-86.73928465498666 -85.62685579882155,-87.25391094989075 -85.03190882647972,-87.73902631723784 -84.41315477416352,-88.19338547283752 -83.77218197465095,-88.6158220832538 -83.11063579592546,-89.0052517597664 -82.43021441753991,-89.36067484198092 -81.73266447141391,-89.68117896394288 -81.01977655825486,-89.96594139616788 -80.29338065111148,-90.21423115757648 -79.5553413978594,-90.42541089191218 -78.80755333467667,-90.59893850382566 -78.05193602279662,-90.73436855042593 -77.29042912102169,-90.83135338472567 -76.52498740664716,-90.88964404804625 -75.75757575757575,-90.9090909090909 15.15151515151515,-90.9090909090909 15.918926800586556,-90.88964404804625 16.684368514961093,-90.83135338472567 17.44587541673601,-90.73436855042593 18.20149272861606,-90.59893850382566 18.949280791798795,-90.42541089191218 19.68732004505088,-90.21423115757649 20.413715952194245,-89.96594139616788 21.12660386535331,-89.68117896394288 21.824153811479306,-89.36067484198092 22.504575189864862,-89.00525175976638 23.166121368590343,-88.6158220832538 23.80709416810291,-88.19338547283752 24.425848220419134,-87.73902631723784 25.020795192760943,-87.25391094989077 25.590407864783128,-86.73928465498666 26.13322404892606,-86.19646847084373 26.647850343830164,-85.62685579882155 27.132965711177246,-85.03190882647972 27.587324866776914,-84.41315477416352 28.009761477193194,-83.77218197465095 28.399191153705786,-83.11063579592548 28.754614235920325,-82.43021441753991 29.075118357882282,-81.73266447141391 29.35988079010728,-81.01977655825485 29.60817055151589,-80.29338065111148 29.819350285851577,-79.5553413978594 29.992877897765066,-78.80755333467665 30.12830794436532,-78.05193602279661 30.225292778665075,-77.29042912102169 30.283583441985645,-76.52498740664716 30.3030303030303,-75.75757575757575"/>
<polygon class="l0d0" points="272.7272727272727,75.75757575757575 272.70782586622806,76.52498740664716 272.6495352029075,77.29042912102169 272.55255036860774,78.05193602279661 272.41712032200746,78.80755333467665 272.243592710094,79.5553413978594 272.0324129757583,80.29338065111148 271.7841232143497,81.01977655825485 271.4993607821247,81.73266447141391 271.17885666016275,82.43021441753991 270.8234335779482,83.11063579592548 270.43400390143563,83.77218197465095 270.01156729101933,84.41315477416352 269.55720813541967,85.03190882647972 269.07209276807254,85.62685579882155 268.55746647316846,86.19646847084373 268.0146502890255,86.73928465498666 267.4450376170034,87.25391094989077 266.8500906446616,87.73902631723784 266.2313365923453,88.19338547283752 265.59036379283276,88.6158220832538 264.9288176141073,89.00525175976638 264.2483962357217,89.36067484198092 263.5508462895957,89.68117896394288 262.83795837643663,89.96594139616788 262.1115624692933,90.21423115757649 261.3735232160412,90.42541089191218 260.62573515285845,90.59893850382566 259.8701178409784,90.73436855042593 259.1086109392035,90.83135338472567 258.34316922482896,90.88964404804625 257.57575757575756,90.9090909090909 166.66666666666666,90.9090909090909 165.89925501759527,90.88964404804625 165.13381330322073,90.83135338472567 164.3723064014458,90.73436855042593 163.61668908956574,90.59893850382566 162.868901026383,90.42541089191218 162.13086177313093,90.21423115757649 161.4044658659876,89.96594139616788 160.6915779528285,89.68117896394288 159.9940280067025,89.36067484198092 159.31360662831696,89.0052517597664 158.65206044959146,88.6158220832538 158.0110876500789,88.19338547283752 157.39233359776267,87.73902631723784 156.79738662542087,87.25391094989077 156.22777395339867,86.73928465498666 155.68495776925576,86.19646847084373 155.17033147435163,85.62685579882155 154.68521610700455,85.03190882647974 154.2308569514049,84.41315477416352 153.80842034098862,83.77218197465095 153.418990664476,83.11063579592548 153.06356758226147,82.43021441753991 152.7430634602995,81.73266447141391 152.45830102807452,81.01977655825485 152.2100112666659,80.29338065111148 151.99883153233023,79.5553413978594 151.82530392041676,78.80755333467667 151.68987387381648,78.05193602279662 151.5928890395167,77.2904291210217 151.53459837619616,76.52498740664716 151.5151515151515,75.75757575757575 151.5151515151515,45.454545454545446 151.53459837619616,44.68713380547404 151.5928890395167,43.9216920910995 151.68987387381648,43.16018518932459 151.82530392041676,42.404567877444535 151.99883153233023,41.656779814261796 152.2100112666659,40.91874056100972 152.45830102807452,40.19234465386635 152.7430634602995,39.479456740707285 153.06356758226147,38.78190679458129 153.418990664476,38.101485416195736 153.80842034098862,37.439939237470256 154.2308569514049,36.79896643795769 154.68521610700455,36.18021238564146 155.17033147435163,35.58526541329966 155.68495776925576,35.01565274127747 156.22777395339867,34.47283655713454 156.79738662542084,33.95821026223044 157.39233359776267,33.47309489488334 158.0110876500789,33.018735739283684 158.65206044959146,32.59629912886741 159.31360662831696,32.20686945235481 159.9940280067025,31.85144637014027 160.6915779528285,31.530942248178313 161.40446586598756,31.246179815953322 162.1308617731309,30.997890054544705 162.868901026383,30.786710320209014 163.61668908956574,30.61318270829553 164.3723064014458,30.47775266169527 165.13381330322073,30.38076782739552 165.89925501759527,30.32247716407495 166.66666666666666,30.303030303030294 257.57575757575756,30.303030303030294 258.34316922482896,30.32247716407495 259.1086109392035,30.38076782739552 259.8701178409784,30.47775266169527 260.62573515285845,30.61318270829553 261.3735232160412,30.786710320209014 262.1115624692933,30.997890054544705 262.83795837643663,31.246179815953315 263.5508462895957,31.530942248178313 264.2483962357217,31.85144637014027 264.9288176141073,32.20686945235481 265.59036379283276,32.59629912886741 266.2313365923453,33.018735739283684 266.8500906446616,33.473094894883346 267.4450376170034,33.95821026223043 268.0146502890255,34.472836557134535 268.55746647316846,35.01565274127747 269.07209276807254,35.58526541329966 269.55720813541967,36.18021238564146 270.01156729101933,36.79896643795769 270.43400390143563,37.43993923747026 270.8234335779482,38.101485416195736 271.17885666016275,38.78190679458129 271.4993607821247,39.479456740707285 271.78412321434973,40.19234465386635 272.0324129757583,40.91874056100972 272.243592710094,41.6567798142618 272.41712032200746,42.404567877444535 272.55255036860774,43.16018518932459 272.6495352029075,43.9216920910995 272.70782586622806,44.68713380547404 272.7272727272727,45.454545454545446"/>
<polygon class="l0d0" points="36.93939393939394,-90.36363636363636 37.272727272727266,-90.36363636363636 43.33333333333333,-89.87878787878788 44.12121212121212,-89.78787878787878 44.90909090909091,-89.66666666666666 45.696969696969695,-89.51515151515152 57.24242424242424,-86.72727272727272 57.99999999999999,-86.54545454545453 58.75757575757576,-86.27272727272727 59.484848484848484,-86.0 70.48484848484848,-81.45454545454545 71.2121212121212,-81.12121212121211 71.9090909090909,-80.78787878787878 72.6060606060606,-80.36363636363636 82.72727272727272,-74.18181818181817 83.39393939393938,-73.72727272727272 84.03030303030303,-73.27272727272727 84.63636363636364,-72.75757575757575 93.66666666666667,-65.06060606060605 94.27272727272727,-64.51515151515152 94.81818181818181,-63.96969696969697 95.36363636363635,-63.36363636363637 103.06060606060605,-54.33333333333333 103.57575757575758,-53.72727272727272 104.03030303030302,-53.090909090909086 104.48484848484847,-52.42424242424242 110.66666666666666,-42.3030303030303 111.09090909090908,-41.6060606060606 111.42424242424242,-40.90909090909091 111.75757575757575,-40.18181818181818 116.3030303030303,-29.18181818181818 116.57575757575756,-28.45454545454545 40.51515151515151,-28.45454545454545 40.030303030303024,-28.636363636363633 39.27272727272727,-28.878787878787875 38.51515151515151,-29.090909090909086 36.21212121212121,-29.666666666666664 35.42424242424242,-29.818181818181817 34.63636363636363,-29.939393939393938 33.848484848484844,-30.030303030303028 32.63636363636363,-30.121212121212118 32.51515151515151,-30.121212121212118 32.36363636363636,-30.15151515151515 32.0,-30.24242424242424 31.909090909090907,-30.3030303030303 31.787878787878785,-30.33333333333333 31.54545454545454,-30.45454545454545 31.454545454545453,-30.51515151515151 31.333333333333332,-30.57575757575757 31.15151515151515,-30.757575757575754 31.060606060606055,-30.818181818181813 30.96969696969697,-30.909090909090907 30.878787878787875,-31.030303030303028 30.818181818181813,-31.121212121212118 30.727272727272727,-31.21212121212121 30.666666666666664,-31.333333333333332 30.606060606060606,-31.42424242424242 30.484848484848484,-31.66666666666666 30.45454545454545,-31.787878787878785 30.424242424242422,-31.87878787878788 30.363636363636363,-32.12121212121212 30.33333333333333,-32.272727272727266 30.3030303030303,-32.39393939393939 30.3030303030303,-84.24242424242424 30.33333333333333,-84.57575757575756 30.363636363636363,-84.87878787878788 30.424242424242422,-85.2121212121212 30.696969696969692,-86.12121212121212 30.939393939393934,-86.72727272727272 31.09090909090909,-87.03030303030302 31.24242424242424,-87.3030303030303 31.42424242424242,-87.57575757575758 31.606060606060602,-87.81818181818181 31.818181818181817,-88.09090909090908 32.030303030303024,-88.33333333333333 32.272727272727266,-88.54545454545455 32.484848484848484,-88.75757575757575 32.75757575757575,-88.96969696969697 33.0,-89.18181818181817 33.27272727272727,-89.36363636363636 33.81818181818182,-89.66666666666666 34.12121212121212,-89.81818181818181 34.72727272727272,-90.06060606060605 35.030303030303024,-90.15151515151514 35.33333333333333,-90.2121212121212 35.666666666666664,-90.27272727272727 35.96969696969697,-90.33333333333333 36.63636363636363,-90.39393939393939"/>
<polygon class="l0d0" points="116.84848484848483,-27.696969696969695 117.03030303030303,-26.939393939393938 119.81818181818181,-15.393939393939393 119.96969696969697,-14.606060606060604 120.09090909090908,-13.818181818181818 120.18181818181817,-13.03030303030303 120.66666666666667,-6.96969696969697 120.66666666666667,-6.636363636363636 120.69696969696969,-6.333333333333333 120.63636363636363,-5.666666666666666 120.57575757575756,-5.363636363636363 120.5151515151515,-5.03030303030303 120.45454545454545,-4.727272727272727 120.36363636363636,-4.424242424242424 120.12121212121211,-3.818181818181818 119.96969696969697,-3.515151515151515 119.66666666666666,-2.9696969696969697 119.48484848484848,-2.696969696969697 119.27272727272727,-2.4545454545454546 119.06060606060605,-2.1818181818181817 118.84848484848484,-1.9696969696969697 118.63636363636363,-1.7272727272727273 118.39393939393939,-1.5151515151515151 118.12121212121211,-1.3030303030303028 117.87878787878788,-1.121212121212121 117.6060606060606,-0.9393939393939393 117.33333333333333,-0.7878787878787877 117.03030303030303,-0.6363636363636364 116.42424242424242,-0.39393939393939387 115.5151515151515,-0.1212121212121212 115.18181818181817,-0.0606060606060606 114.87878787878788,-0.0303030303030303 114.54545454545453,0.0 62.69696969696969,0.0 62.57575757575757,-0.0303030303030303 62.42424242424242,-0.0606060606060606 62.18181818181818,-0.1212121212121212 62.090909090909086,-0.15151515151515152 61.96969696969696,-0.18181818181818182 61.72727272727272,-0.30303030303030304 61.636363636363626,-0.36363636363636365 61.51515151515151,-0.4242424242424242 61.42424242424242,-0.5151515151515151 61.33333333333333,-0.5757575757575757 61.21212121212121,-0.6666666666666666 61.12121212121212,-0.7575757575757576 61.06060606060606,-0.8484848484848484 60.87878787878787,-1.0303030303030303 60.81818181818182,-1.1515151515151514 60.75757575757575,-1.2424242424242424 60.636363636363626,-1.4848484848484849 60.6060606060606,-1.606060606060606 60.54545454545454,-1.6969696969696968 60.45454545454545,-2.0606060606060606 60.42424242424242,-2.212121212121212 60.42424242424242,-2.333333333333333 60.333333333333336,-3.5454545454545454 60.242424242424235,-4.333333333333333 60.12121212121212,-5.121212121212121 59.96969696969697,-5.909090909090909 59.39393939393939,-8.212121212121213 59.18181818181818,-8.969696969696969 58.93939393939394,-9.727272727272727 58.666666666666664,-10.454545454545453 57.75757575757575,-12.666666666666666 57.42424242424242,-13.393939393939393 57.090909090909086,-14.09090909090909 56.666666666666664,-14.787878787878787 55.45454545454545,-16.78787878787879 54.99999999999999,-17.454545454545453 54.54545454545454,-18.09090909090909 54.030303030303024,-18.727272727272727 52.515151515151516,-20.515151515151516 51.96969696969697,-21.121212121212118 51.42424242424242,-21.666666666666664 50.81818181818181,-22.21212121212121 49.03030303030303,-23.727272727272727 48.39393939393939,-24.242424242424242 47.75757575757576,-24.696969696969695 47.090909090909086,-25.15151515151515 45.090909090909086,-26.363636363636363 44.39393939393939,-26.787878787878785 43.696969696969695,-27.12121212121212 42.96969696969696,-27.454545454545453 40.75757575757575,-28.363636363636363 40.51515151515151,-28.45454545454545 116.57575757575756,-28.45454545454545"/>
<polygon class="l0d0" points="119.24242424242424,0.0303030303030303 119.39393939393939,0.0606060606060606 119.63636363636363,0.1212121212121212 119.72727272727272,0.15151515151515152 119.84848484848484,0.18181818181818182 120.09090909090908,0.30303030303030304 120.18181818181817,0.36363636363636365 120.3030303030303,0.4242424242424242 120.39393939393938,0.5151515151515151 120.48484848484847,0.5757575757575757 120.6060606060606,0.6666666666666666 120.69696969696969,0.7575757575757576 120.75757575757575,0.8484848484848484 120.93939393939394,1.0303030303030303 120.99999999999999,1.1515151515151514 121.06060606060606,1.2424242424242424 121.18181818181817,1.4848484848484849 121.2121212121212,1.606060606060606 121.27272727272725,1.6969696969696968 121.36363636363635,2.0606060606060606 121.39393939393939,2.212121212121212 121.39393939393939,2.333333333333333 121.48484848484848,3.5454545454545454 121.57575757575755,4.333333333333333 121.69696969696969,5.121212121212121 121.84848484848484,5.909090909090909 122.42424242424242,8.212121212121213 122.63636363636363,8.969696969696969 122.87878787878786,9.727272727272727 123.15151515151514,10.454545454545453 124.06060606060606,12.666666666666666 124.3939393939394,13.393939393939393 124.7272727272727,14.09090909090909 125.15151515151514,14.787878787878787 126.36363636363636,16.78787878787879 126.8181818181818,17.454545454545453 127.27272727272727,18.09090909090909 127.78787878787877,18.727272727272727 129.3030303030303,20.515151515151516 129.84848484848484,21.121212121212118 130.39393939393938,21.666666666666664 131.0,22.21212121212121 132.78787878787878,23.727272727272727 133.4242424242424,24.242424242424242 134.06060606060606,24.696969696969695 134.72727272727272,25.15151515151515 136.7272727272727,26.363636363636363 137.4242424242424,26.787878787878785 138.1212121212121,27.12121212121212 138.84848484848484,27.454545454545453 141.06060606060606,28.363636363636363 141.78787878787878,28.636363636363633 65.3030303030303,28.636363636363633 65.24242424242424,28.45454545454545 64.96969696969697,27.696969696969695 64.78787878787878,26.939393939393938 61.99999999999999,15.393939393939393 61.848484848484844,14.606060606060604 61.72727272727272,13.818181818181818 61.636363636363626,13.03030303030303 61.15151515151514,6.96969696969697 61.15151515151514,6.636363636363636 61.12121212121212,6.333333333333333 61.18181818181818,5.666666666666666 61.242424242424235,5.363636363636363 61.303030303030305,5.03030303030303 61.36363636363636,4.727272727272727 61.45454545454545,4.424242424242424 61.696969696969695,3.818181818181818 61.848484848484844,3.515151515151515 62.15151515151515,2.9696969696969697 62.33333333333333,2.696969696969697 62.54545454545454,2.4545454545454546 62.75757575757576,2.1818181818181817 62.96969696969696,1.9696969696969697 63.18181818181818,1.7272727272727273 63.42424242424242,1.5151515151515151 63.69696969696969,1.3030303030303028 63.93939393939393,1.121212121212121 64.21212121212122,0.9393939393939393 64.48484848484848,0.7878787878787877 64.78787878787878,0.6363636363636364 65.39393939393939,0.39393939393939387 66.3030303030303,0.1212121212121212 66.63636363636363,0.0606060606060606 66.93939393939394,0.0303030303030303 67.27272727272728,0.0 119.12121212121211,0.0"/>
<polygon class="l0d0" points="142.54545454545453,28.878787878787875 143.30303030303028,29.090909090909086 145.6060606060606,29.666666666666664 146.3939393939394,29.818181818181817 147.1818181818182,29.939393939393938 147.96969696969697,30.030303030303028 149.1818181818182,30.121212121212118 149.30303030303028,30.121212121212118 149.45454545454547,30.15151515151515 149.8181818181818,30.24242424242424 149.9090909090909,30.3030303030303 150.030303030303,30.33333333333333 150.27272727272725,30.45454545454545 150.36363636363635,30.51515151515151 150.48484848484847,30.57575757575757 150.66666666666666,30.757575757575754 150.75757575757575,30.818181818181813 150.84848484848484,30.909090909090907 150.93939393939394,31.030303030303028 150.99999999999997,31.121212121212118 151.09090909090907,31.21212121212121 151.15151515151516,31.333333333333332 151.21212121212122,31.42424242424242 151.33333333333331,31.66666666666666 151.36363636363635,31.787878787878785 151.3939393939394,31.87878787878788 151.45454545454544,32.12121212121212 151.48484848484847,32.272727272727266 151.5151515151515,32.39393939393939 151.5151515151515,84.24242424242424 151.48484848484847,84.57575757575756 151.45454545454544,84.87878787878788 151.3939393939394,85.2121212121212 151.12121212121212,86.12121212121212 150.87878787878788,86.72727272727272 150.72727272727272,87.03030303030302 150.57575757575756,87.3030303030303 150.39393939393938,87.57575757575758 150.2121212121212,87.81818181818181 150.0,88.09090909090908 149.78787878787875,88.33333333333333 149.54545454545453,88.54545454545455 149.33333333333331,88.75757575757575 149.06060606060603,88.96969696969697 148.81818181818178,89.18181818181817 148.54545454545453,89.36363636363636 148.0,89.66666666666666 147.6969696969697,89.81818181818181 147.0909090909091,90.06060606060605 146.78787878787878,90.15151515151514 146.48484848484847,90.2121212121212 146.15151515151516,90.27272727272727 145.84848484848484,90.33333333333333 145.1818181818182,90.39393939393939 144.87878787878785,90.36363636363636 144.54545454545453,90.36363636363636 138.48484848484847,89.87878787878788 137.6969696969697,89.78787878787878 136.9090909090909,89.66666666666666 136.12121212121212,89.51515151515152 124.57575757575756,86.72727272727272 123.81818181818181,86.54545454545453 123.06060606060605,86.27272727272727 122.33333333333333,86.0 111.33333333333333,81.45454545454545 110.6060606060606,81.12121212121211 109.90909090909089,80.78787878787878 109.2121212121212,80.36363636363636 99.09090909090908,74.18181818181817 98.42424242424242,73.72727272727272 97.78787878787878,73.27272727272727 97.18181818181817,72.75757575757575 88.15151515151514,65.06060606060605 87.54545454545453,64.51515151515152 87.0,63.96969696969697 86.45454545454545,63.36363636363637 78.75757575757576,54.33333333333333 78.24242424242424,53.72727272727272 77.78787878787878,53.090909090909086 77.33333333333333,52.42424242424242 71.15151515151514,42.3030303030303 70.72727272727272,41.6060606060606 70.39393939393939,40.90909090909091 70.06060606060605,40.18181818181818 65.5151515151515,29.18181818181818 65.3030303030303,28.636363636363633 141.78787878787878,28.636363636363633"/>
</g>
</svg>