<?xml version="1.0" encoding="UTF-8"?>
<svg xmlns="http://www.w3.org/2000/svg" xmlns:xlink="http://www.w3.org/1999/xlink"
     width="400.0" height="312.41" viewBox="-22.61 -288.29 400.0 312.41">
<defs>
<style type="text/css">
.l1d0 {stroke: rgb(21, 255, 21); fill: rgb(21, 255, 21); fill-opacity: 0.5;}
.l0d0 {stroke: rgb(255, 0, 0); fill: rgb(255, 0, 0); fill-opacity: 0.5;}
</style>
</defs>
<rect x="-22.61" y="-288.29" width="400.0" height="312.41" fill="none" stroke="none"/>
<g id="flexible_paths_2" transform="scale(1 -1)">
<polygon class="l0d0" points="-4.43,0.0 4.43,0.0 4.43,33.83 5.11,44.49 7.13,54.99 10.48,65.15 15.08,74.79 20.87,83.78 27.75,91.96 35.61,99.21 44.33,105.39 53.76,110.42 63.76,114.22 74.15,116.71 84.78,117.87 95.47,117.67 106.04,116.12 116.34,113.24 126.18,109.08 202.78,70.78 213.07,66.38 223.81,63.26 234.85,61.45 246.03,60.97 257.18,61.85 268.15,64.05 278.78,67.56 288.9,72.32 298.38,78.26 307.08,85.29 314.87,93.32 321.64,102.23 327.3,111.88 331.75,122.15 334.93,132.87 336.81,143.9 337.35,155.08 336.54,166.24 333.45,189.41 331.32,200.34 327.89,210.94 323.23,221.05 317.39,230.54 310.45,239.25 302.53,247.08 293.72,253.9 284.17,259.62 273.99,264.16 263.35,267.44 252.39,269.44 241.28,270.1 141.69,270.1 141.69,261.25 241.28,261.25 252.24,260.53 263.03,258.39 273.44,254.86 283.3,250.0 292.44,243.9 300.71,236.66 307.97,228.4 314.08,219.27 318.96,209.42 322.51,199.01 324.67,188.24 327.76,165.06 328.5,154.37 327.87,143.67 325.88,133.14 322.58,122.95 318.0,113.26 312.23,104.23 305.36,96.0 297.5,88.72 288.78,82.49 279.33,77.43 269.32,73.6 258.91,71.08 248.25,69.9 237.54,70.09 226.93,71.64 216.61,74.52 206.74,78.7 130.14,117.0 119.26,121.6 107.88,124.78 96.19,126.5 84.38,126.72 72.63,125.44 61.14,122.68 50.1,118.49 39.67,112.93 30.04,106.09 21.35,98.08 13.74,89.04 7.34,79.11 2.26,68.44 -1.44,57.22 -3.68,45.62 -4.43,33.83"/>
<polygon class="l1d0" points="-4.43,0.0 4.43,0.0 4.43,169.95 356.21,-5.94 359.21,-3.8 322.69,270.1 141.69,270.1 141.69,261.25 314.93,261.25 348.74,7.7 -1.98,183.06 -4.43,181.54"/>
</g>
</svg>