<?xml version="1.0" encoding="UTF-8"?>
<svg xmlns="http://www.w3.org/2000/svg" xmlns:xlink="http://www.w3.org/1999/xlink"
     width="400.0" height="312.40785605941403" viewBox="-22.609744944944943 -288.2853507325506 400.0 312.40785605941403">
<defs>
<style type="text/css">
.l1d0 {stroke: rgb(21, 255, 21); fill: rgb(21, 255, 21); fill-opacity: 0.5;}
.l0d0 {stroke: rgb(255, 0, 0); fill: rgb(255, 0, 0); fill-opacity: 0.5;}
</style>
</defs><rect x="-22.609744944944943" y="-288.2853507325506" width="400.0" height="312.40785605941403" fill="none" stroke="none"/>
<g id="flexible_paths_2" transform="scale(1 -1)">
<polygon class="l0d0" points="-4.427926763126761,0.0 4.427926763126761,0.0 4.427926763126761,33.82635047638236 5.107115241287907,44.49498595230439 7.133714465087871,54.99136511338004 10.475002863455067,65.14601290372244 15.077031829030938,74.79497187901974 20.86549677504657,83.78244947152126 27.74693686084725,91.96333342452441 35.610244015237626,99.20553478203186 44.32845689288179,105.39212060355317 53.76081079845028,110.42320196913212 63.75501048033691,114.21754679077743 74.14968909730626,116.71389138976393 84.77701365547523,117.87192966301224 95.46539484811395,117.67296386741823 106.04225754505947,116.12020651453568 116.3368271992834,113.23872850120621 126.18288718115501,109.0750543136219 202.78099384166458,70.77600098336713 213.07049158499427,66.38372547804984 223.81301799850476,63.25898962047302 234.85306504913348,61.447026860231965 246.03081781665819,60.97406703879799 257.18446796288845,61.84695668823604 268.152556057431,64.05305992130326 278.7763088526919,67.56044134763599 288.90193767389,72.318328368144 298.3828646527573,78.2578461554718 307.0818445781264,85.2930146810028 314.8729516476513,93.32199335551654 321.64340236058695,102.22855526617018 327.29518816356443,111.8837696688574 331.7464942152996,122.14786838030705 334.9328837323005,132.87226905216482 336.8082307710706,143.90172603828944 337.3453879439207,155.07657771946415 336.53657940258364,166.235057753414 333.44705280110765,189.4065072644841 331.31642114941945,200.33892677329243 327.8939178589338,210.93816536756714 323.2286480814579,221.05214803786666 317.3875478463252,230.535762095539 310.4544236803448,239.2529392103421 302.5287501744152,247.0786076820546 293.7242427489909,253.90048693541266 284.167226095977,259.6206984914448 273.9948217062065,264.15717030142275 263.3529804873656,267.4448142944254 252.3943886998339,269.4364602433813 241.2762772555052,270.10353255073244 141.69365642005636,270.10353255073244 141.69365642005636,261.2476790244789 241.27627725550522,261.247679024479 252.24499953919192,260.5295780880499 263.0264736884876,258.38753405031076 273.43664810027695,254.85811395521424 283.2978096656966,250.0015688795215 292.4416175280545,243.90080538075958 300.7119768461127,236.65997019124222 307.9677035044385,228.40267231898366 314.08493428129236,219.2698729061937 318.9592413298405,209.41747886778768 322.5074148761744,199.01368138914358 324.66888370152645,188.23608471787333 327.75841030300245,165.06463520680316 328.49532628718777,154.37310451789193 327.86709832402437,143.67463718532608 325.8839204759136,133.14283395594313 322.57797316130643,122.94859116931498 318.0029009729261,113.25732767528142 312.2329422034225,104.22630063302829 305.36172420337476,96.00205374741627 297.5007441190013,88.71803934924525 288.7775596621781,82.49245290522923 279.33371927058596,77.42631509642341 269.32246524464335,73.60183258662836 258.90624713171627,71.08106408007981 248.2540857071562,69.9049133138962 237.53883032603946,70.09246532568672 226.93435414971617,71.64067676650188 216.6127327593705,74.52442528432307 206.74145193836142,78.69691717676076 130.14334527785184,116.99597050701551 119.26085792946743,121.59792618802977 107.88264936427257,124.78271767644655 96.1924326992275,126.49892317173781 84.37895874946892,126.71883273528908 72.6329684483348,125.43889569643568 61.14411313484235,122.67977798176642 50.09789243380977,118.48602844205315 39.67265916976037,112.92535956430795 30.03673967341683,106.08755418262655 21.34571597645904,98.0830158401183 13.739913776363553,89.04098620785166 7.342136730767335,79.10745834245522 2.2556836635518906,68.4428194750214 -1.4373193030644709,57.21926139095873 -3.677244760948647,45.61800021292774 -4.427926763126761,33.82635047638236"/>
<polygon class="l1d0" points="-4.427926763126761,0.0 4.427926763126761,0.0 4.427926763126761,169.95253452263606 356.2143700984893,-5.940687145045229 359.20843687323685,-3.803873276485181 322.68744942960785,270.10353255073244 141.69365642005636,270.10353255073244 141.69365642005636,261.2476790244789 314.9340044606458,261.2476790244789 348.7407241904829,7.6972810507000125 -1.9802290483484093,183.05775767011568 -4.427926763126761,181.5449972881972"/>
</g>
</svg>