<?xml version="1.0" encoding="UTF-8"?>
<svg xmlns="http://www.w3.org/2000/svg" xmlns:xlink="http://www.w3.org/1999/xlink"
     width="400.0" height="252.95858345568433" viewBox="-47.883467944512304 -216.28818065001414 400.0 252.95858345568433">
<defs>
<style type="text/css">
.l0d0 {stroke: rgb(255, 0, 0); fill: rgb(255, 0, 0); fill-opacity: 0.5;}
</style>
</defs><rect x="-47.883467944512304" y="-216.28818065001414" width="400.0" height="252.95858345568433" fill="none" stroke="none"/>
<g id="flexible_paths" transform="scale(1 -1)">
<polygon class="l0d0" points="0.0,13.206131874179997 0.0,-13.206131874179997 92.44292311925997,-13.206131874179997 92.44292311925997,44.6626891385634 149.77920389609588,73.33082952698135 149.77920389609588,85.14275296317861 82.35433608721318,118.85518686761998 3.388925955776644,118.85518686761998 4.316917018409679,118.34533404446486 3.5242231070266716,118.87174339457023 1.5102914032542576,120.56166693709315 -0.15027823363615525,122.44146628582324 -0.5159084940033546,122.96120422916016 -1.7079495042132196,125.1169189884501 -2.501427934418402,127.19836905789076 -3.0064508042213465,129.38650353004144 -3.1894528416871872,131.3705251119687 -2.8610549206588805,135.36577734444936 -2.08587583772744,138.09511688278528 -1.1313873566533148,140.1406359441511 -0.15847710985721547,141.66510012736808 0.755832991551545,142.80626088907408 1.3612423418734791,143.4398326694383 3.4884030756115467,145.19647490852012 6.047210125383496,146.7077011156235 6.614133942994656,146.95817970900748 9.003712257450935,147.69298674403424 11.101949060220576,148.0215827920894 17.5997568121241,147.96211038204444 23.395927939699824,147.20266972218963 28.71352153300899,146.3085239292549 33.36725702530001,145.56066916156772 37.341777235745,145.03932589712102 40.90714760891031,144.7100650677075 47.92556272398039,144.58674201357329 55.17414806607373,145.45443094082347 58.92632507092898,146.36456906583575 64.76014985024985,148.42523935448963 70.40900127974541,151.1800831439477 79.54243508558967,157.02717071646373 86.1317128131009,161.86618080552213 90.87738870347414,165.28573694853662 94.37737221015797,167.56912471363054 96.98665207118178,169.04379651232145 98.94900765541051,169.98113533815507 100.16651954885216,170.46604845602678 103.19312568813874,171.31648006025475 106.26878058797402,171.66533000884394 108.09349936544858,171.63018743630488 109.30592737594272,171.50287796589848 112.38562796408917,170.8182641430883 115.19210696434125,169.7269253434439 115.96263423599667,169.32225477281085 118.40938322323407,167.67114046629894 120.41498517908943,165.8504545321906 122.15934241737675,163.75407188224213 123.46549469068017,161.6568977448879 125.24211242819365,157.213763106369 125.86899098248695,153.81842177926566 125.92379966812709,151.06827445251744 125.6727984808438,148.875994236325 125.27691118505248,147.13487487594537 124.82972317706738,145.75092948746106 124.48013621484485,144.88645926835235 123.2299449341937,142.48882505503906 121.2238417580149,139.60790815054364 142.89879572558505,124.5147293330563 145.8693397090362,128.7806566687443 148.4886168332291,133.8039427404906 149.6710170504127,136.72782116068245 150.7711547999748,140.13249780231274 151.74885910881656,144.4324587228782 152.36611285206743,149.8236410688498 152.23311813546033,156.49694585761878 150.73955504649982,164.5864816151484 147.12151120730985,173.63482981417278 143.62110468041476,179.25512553961974 139.536094933226,184.16452332288878 134.75698625287743,188.50299932331467 129.53114548773294,192.02949938355394 126.15350588167748,193.80339032428424 120.08207245756157,196.1643525351544 113.56464284153655,197.61316948232667 109.72988174956556,198.01583372261834 105.02932939890594,198.10636246819595 98.09947822944326,197.32035808768913 91.68427545022554,195.51778089729734 88.3587823005383,194.1932967092066 84.78247731805526,192.48503876653555 80.6499279605598,190.1494694451958 75.93316028079937,187.0722521982609 70.59417715031672,183.22518109963667 64.59001873526918,178.81586882775986 57.45672630702313,174.2492418181425 54.53971952677233,172.8266697939569 51.395429182712576,171.71601838840346 50.47490692736625,171.49273403949644 46.581678545864825,171.02669673725651 42.355585860334436,171.10095490644272 40.274822818028035,171.29311271710927 37.18094810348807,171.69894050463148 32.998768930715805,172.37101622506313 27.302728816324635,173.32879726178595 19.443039740587462,174.35860941304114 9.166499414995581,174.4526673851176 3.0484982704871393,173.49455293615333 -2.636481880369069,171.74639369669052 -6.047210125383496,170.2394638646964 -11.729774801944206,166.88335279585127 -16.65827596621452,162.81332029515386 -19.13605637927518,160.2202785014988 -21.65888237057437,157.0715108947023 -24.331062377912833,152.88444150601921 -26.915233805521932,147.34642610004732 -28.973218813155412,140.1004361419651 -29.70164976269412,131.23842700305326 -29.14325399555302,125.18456405919619 -27.828482254047973,119.48799556177487 -25.723769266244137,113.96691921256127 -22.939222051743975,108.93127909881981 -20.912159397243236,106.04983987109489 -16.978545599372143,101.5969072803 -12.319897061681985,97.6877579156837 -9.371902049820541,95.7300638852094 -3.3889259557766658,92.44292311925997 76.1192464029468,92.44292311925997 102.5315101513068,79.23679124507998 66.03065937089998,60.986365854876574 66.03065937089998,13.206131874179997"/>
<polygon class="l0d0" points="316.94716498031994,9.244292311925998 320.90900454257394,9.244292311925998 320.90900454257394,17.167971436433998 316.94716498031994,17.167971436433998 228.46608142331397,17.167971436433998 228.4660814233139,51.458429943042404 259.75416011640516,35.81439059649683 261.8531147497521,35.40965975583334 275.32554251439547,36.52601694835899 275.9709505113917,36.63371649462368 286.55002761766207,39.31270265563572 287.16890632811504,39.525163985294746 297.16275198191397,43.90887112872318 297.73822000789875,44.2202988505488 306.8742281518026,50.18915087299285 307.3905882257036,50.59105005056515 315.4195523733417,57.982232228488115 315.86271953839315,58.46364009991588 322.56563047776575,67.07554025087823 322.9235162889556,67.62332526436559 328.1175360828213,77.22103320179727 328.380378348159,77.8202532101452 331.9238276763402,88.14196848087018 332.084456744006,88.77627832430097 333.8806795459128,99.5404514424374 333.9347138736695,100.1925488019446 333.9347138736695,111.10556118493538 333.8806795459128,111.75765854444259 332.084456744006,122.52183166257895 331.9238276763402,123.15614150600973 328.38037834815896,133.47785677673485 328.11753608282123,134.07707678508277 322.9235162889556,143.67478472251437 322.5656304777657,144.22256973600173 315.862719538393,152.83446988696423 315.4195523733415,153.31587775839202 307.39058822570354,160.70705993631478 306.8742281518026,161.10895911388707 297.7382200078988,167.0778111363311 297.162751981914,167.38923885815672 287.16890632811493,171.77294600158524 286.55002761766195,171.98540733124426 275.9709505113918,174.66439349225624 275.3255425143955,174.77209303852092 264.30359228380246,175.68539787344267 263.5623011647297,175.67722619251785 255.45626072716232,174.82524701129466 254.6461099745942,174.65304415289444 246.7545212197153,172.08891153186414 245.9978771923118,171.75203190629674 238.8118517344684,167.60317817380735 238.14178340700786,167.11634503723783 231.97538504108374,161.56409500980817 231.42117761482078,160.94858530638928 226.5439075390691,154.2355989528696 226.12978253791368,153.5183134101839 222.75480085838322,145.93798044670538 222.49885753207806,145.1502678848862 220.7736671431232,137.0338852364262 220.68709144318024,136.2101724742893 220.68709144318024,127.9124650093107 220.7736671431232,127.0887522471738 222.49885753207806,118.9723695987137 222.75480085838322,118.1846570368945 226.12978253791368,110.60432407341602 226.5439075390691,109.88703853073034 231.42117761482075,103.17405217721073 231.9753850410837,102.55854247379182 238.14178340700786,97.00629244636208 238.8118517344684,96.51945930979257 245.99787719231176,92.37060557730325 246.75452121971523,92.03372595173583 254.64610997459425,89.4695933307055 255.45626072716237,89.29739047230524 262.3280958119265,88.57513150084925 266.2682320025244,88.16100649969385 267.0964820048352,96.04127888088958 263.15634581423734,96.45540388204498 256.6986357306286,97.13413656195013 249.59909847857486,99.44091604928164 243.1343095727132,103.17336366433494 237.58681130972855,108.16835353606162 233.19905598356334,114.20758063844649 230.16280955675717,121.02710176768836 228.6107705676882,128.32887112674672 228.61077056768826,135.79376635685327 230.16280955675722,143.0955357159116 233.19905598356328,149.91505684515343 237.58681130972857,155.95428394753836 243.1343095727132,160.949273819265 249.59909847857486,164.6817214343183 256.6986357306286,166.98850092164983 264.0202895611995,167.75803774839198 274.3440441606436,166.90258705292004 284.2866375087557,164.3847804695485 293.6792094998069,160.26481640779764 302.265555254489,154.65507674732714 309.81146164354647,147.70858056257538 316.11109601139657,139.61481016129753 320.992620754405,130.59454250115604 324.322880602768,120.89382696983662 326.01103474916147,110.77727379915618 326.01103474916147,100.52083618772379 324.322880602768,90.40428301704333 320.99262075440504,80.70356748572398 316.1110960113967,71.68329982558264 309.8114616435465,63.58952942430468 302.2655552544889,56.643033239552715 293.67920949980686,51.0332935790823 284.28663750875586,46.91332951733146 274.3440441606434,44.39552293395986 262.30495528736435,43.397935588165204 226.27603037648956,61.41239804360258 220.54240229880594,57.868821012743396 220.54240229880594,13.206131874179997 224.50424186105994,9.244292311925998"/>
<polygon class="l0d0" points="316.94716498031994,-2.6412263748359996 316.94716498031994,2.6412263748359996 213.93933636171593,2.6412263748359996 213.939336361716,74.96319719861266 263.6032997132469,50.1312155228472 273.2534904342524,50.93085312409018 282.1352775187682,53.1800270780611 290.52572673857276,56.86041933701589 298.1959685112183,61.87163839419684 304.9367786359756,68.0769912569973 310.56428538462126,75.30721207546753 314.9249850428677,83.36507927345875 317.8999290915336,92.03079523910166 319.4079688120715,101.06798183068932 319.4079688120715,110.23012815619067 317.8999290915335,119.26731474777824 314.9249850428677,127.93303071342119 310.56428538462126,135.99089791141242 304.9367786359756,143.22111872988265 298.1959685112184,149.42647159268313 290.52572673857276,154.43769064986407 282.13527751876813,158.11808290881885 273.25349043425246,160.36725686278973 264.0933952200569,161.126283992512 258.0790524011467,160.49415108990482 252.29960098713514,158.6162934920713 247.03687300124298,155.57785607274474 242.52087490982382,151.51163312718955 238.9489774996363,146.5953381100297 236.47728982737053,141.0438367045151 235.21383650477824,135.0997561611266 235.21383650477824,129.02288132247335 236.47728982737058,123.07880077908484 238.9489774996363,117.52729937357023 242.52087490982376,112.61100435641038 247.03687300124298,108.54478141085517 252.2996009871352,105.5063439915286 258.0790524011466,103.62848639369514 263.84655414949634,103.0222975330414 264.3987208177036,108.27581245383855 259.1833857375609,108.8239662590912 254.46000299398355,110.35868634532612 250.15892374406664,112.8419156080716 246.46812578990034,116.16512501268915 243.54891471249442,120.18307436166971 241.52887404386124,124.72015998820193 240.49628925445023,129.57808947905457 240.49628925445023,134.5445480045454 241.5288740438613,139.40247749539802 243.54891471249442,143.93956312193023 246.46812578990028,147.95751247091079 250.15892374406664,151.28072187552837 254.46000299398358,153.76395113827385 259.1833857375609,155.29867122450872 264.15187974714297,155.82088098780795 272.3810474531394,155.13899271068553 280.41418952677816,153.10472486023514 288.0029405295853,149.7759900435172 294.94029911660215,145.24358746896766 301.0370322299187,139.63114926372867 306.126836883201,133.09176811150448 310.0708764736378,125.80382128323355 312.761567882546,117.96610497013141 314.1255160623995,109.792411641818 314.1255160623995,101.50569834506193 312.76156788254593,93.3320050167486 310.0708764736378,85.49428870364642 306.1268368832009,78.20634187537544 301.0370322299187,71.66696072315126 294.94029911660215,66.05452251791228 288.0029405295853,61.52211994336276 280.4141895267781,58.193385126644806 272.38104745313956,56.159117276194436 264.641975253953,55.5178394705928 208.65688361204397,83.5103852915473 208.65688361204397,-2.6412263748359996"/>
<polygon class="l0d0" points="316.94716498031994,-18.488584623851995 320.05211280250893,-17.479725920647315 321.9710760899167,-14.838499545811317 321.9710760899167,-11.573764202548679 320.05211280250893,-8.932537827712679 316.94716498031994,-7.923679124507998 203.37443086237195,-7.923679124507998 203.37443086237195,92.0575733844819 264.35694164812566,61.56631799160506 265.25167132836617,61.21661243433504 266.19493845002484,61.03472699047941 267.15554782592153,61.02667687072041 271.0723829814701,61.35123508503939 271.36172517008885,61.38325947079872 271.6488638456606,61.43117444120202 271.93292697746523,61.494834480058955 278.2687790293493,63.099290123468215 278.5489039269915,63.178501897333085 278.82423986036406,63.27302484265208 279.0939506432865,63.38257189634692 285.07930521209937,66.00799182859122 285.3425717417887,66.13223029986027 285.5985944864467,66.2707828805496 285.84659591341256,66.4232287910254 291.31818812917123,69.99799840031181 291.55741506626214,70.16387466735435 291.78714098913287,70.3426775301924 292.00666822770586,70.53386397040819 296.8152473181416,74.96047286052466 297.02390917540856,75.16346225118293 297.2210719521669,75.3776381201758 297.4061368715436,75.6023500224284 301.420537334099,80.7600518421605 301.5929423600165,80.99461733501114 301.75216390407735,81.23832405076746 301.89771841568546,81.49043186014354 305.0084378705031,87.23853794897408 305.1398833053905,87.49828120883883 305.2568204680917,87.76487108744885 305.35889422428676,88.03749796010473 307.4810803536796,94.21921496812477 307.5679807087258,94.49705087597458 307.6394437491012,94.7792520404977 307.69525244390064,95.06496142603248 308.77101754238527,101.51166822779705 308.8110024024371,101.80001814432995 308.83504199503534,102.09013288264153 308.8430633127275,102.38113137380664 308.8430633127275,108.9169786130733 308.83504199503534,109.2079771042384 308.8110024024371,109.49809184254998 308.77101754238527,109.78644175908288 307.69525244390064,116.23314856084748 307.6394437491012,116.51885794638228 307.5679807087258,116.80105911090543 307.4810803536796,117.07889501875523 305.35889422428676,123.2606120267752 305.2568204680917,123.53323889943107 305.1398833053905,123.79982877804107 305.00843787050314,124.05957203790578 301.8977184156855,129.80767812673636 301.75216390407746,130.05978593611246 301.59294236001654,130.30349265186882 301.420537334099,130.53805814471946 297.40613687154377,135.6957599644514 297.22107195216705,135.920471866704 297.0239091754087,136.13464773569686 296.8152473181418,136.3376371263551 292.0066682277059,140.7642460164718 291.78714098913287,140.95543245668756 291.55741506626214,141.13423531952563 291.31818812917123,141.3001115865682 285.8465959134125,144.8748811958546 285.59859448644664,145.02732710633038 285.3425717417886,145.1658796870197 285.07930521209937,145.29011815828878 279.0939506432867,147.915538090533 278.8242398603642,148.02508514422783 278.54890392699167,148.11960808954683 278.26877902934945,148.1988198634117 271.9329269774651,149.803275506821 271.64886384566057,149.86693554567796 271.36172517008873,149.91485051608123 271.07238298147007,149.9468749018406 264.7050702918712,150.4744854737635 264.37559502169364,150.49144907014463 264.04570338418193,150.48781248374536 263.7166821331076,150.46358989919707 260.8398857421827,150.16122641451386 260.47476411679764,150.10991191651436 260.11411142777354,150.03325282097833 259.75968473875855,149.9316226033135 257.1484393360486,149.08317754027544 256.8019653782448,148.95707133268644 256.4651321379471,148.80710351194048 256.13958063284394,148.63400470618555 253.76179885487824,147.26119175660284 253.4491151391781,147.06580528582072 253.1508225765131,146.84908305325686 252.86837441826418,146.6120809078435 250.82797673860276,144.77489858510043 250.5627490438054,144.51877117746668 250.31603397512802,144.24476633459662 250.0890335035855,143.95421898054192 248.47519509174384,141.73296096792117 248.26901514081555,141.427286620185 248.08466019849723,141.10797449346325 247.9230284235366,140.7765802443402 246.80628176216817,138.2683261757719 246.66816060832568,137.92646432371768 246.55422298797896,137.57580038531162 246.46502399376135,137.21804276001302 245.89417627071288,134.53241537423193 245.83015047115794,134.16930702122957 245.79160979352528,133.8026169679198 245.77874200412225,133.4341316913827 245.77874200412225,130.68850579221723 245.79160979352528,130.32002051568014 245.83015047115794,129.95333046237036 245.89417627071288,129.590222109368 246.46502399376135,126.90459472358692 246.55422298797896,126.54683709828835 246.66816060832568,126.1961731598823 246.80628176216817,125.85431130782807 247.9230284235366,123.34605723925974 248.08466019849723,123.01466299013669 248.26901514081555,122.69535086341496 248.47519509174384,122.38967651567877 250.0890335035855,120.16841850305802 250.31603397512802,119.87787114900331 250.5627490438054,119.6038663061333 250.82797673860273,119.34773889849953 252.86837441826412,117.51055657575642 253.15082257651304,117.27355443034307 253.4491151391781,117.0568321977792 253.76179885487824,116.86144572699705 256.1395806328439,115.48863277741442 256.4651321379471,115.31553397165948 256.8019653782447,115.16556615091355 257.14843933604857,115.03945994332454 259.7596847387586,114.19101488028642 260.1141114277736,114.0893846626216 260.4747641167977,114.01272556708558 260.83988574218273,113.96141106908607 264.95088748591076,113.52932737463567 268.1442805289539,114.20810401992591 270.32881486879245,116.6342751968247 270.6700726371993,119.88112597828204 269.03770496556797,122.7084697221804 266.0552208223251,124.03635721622997 262.4963857468043,124.41040585527927 260.9412090145281,124.91571340671894 259.525075972538,125.73331819972022 258.3098784301291,126.82748698152604 257.34872635106944,128.150399325967 256.68362669333345,129.64423761555318 256.34364750346623,131.2437139487987 256.34364750346623,132.87892353480123 256.6836266933334,134.4783998680467 257.34872635106944,135.97223815763294 258.3098784301292,137.29515050207397 259.52507597253805,138.38931928387976 260.94120901452817,139.20692407688102 262.49638574680426,139.7122316283207 264.32733332840075,139.9046719736959 269.7637185098009,139.45420025437278 275.2509255508077,138.06465071448406 280.43458190262317,135.79088822447662 285.17329093275305,132.69493509782163 289.33779301174843,128.86124086526627 292.8144913789402,124.3943787117805 295.5085507659482,119.41619299267 297.3464842555834,114.062475637191 298.27815781338353,108.47926209870097 298.27815781338353,102.818847888179 297.3464842555834,97.23563434968894 295.5085507659482,91.88191699420985 292.8144913789402,86.9037312750995 289.33779301174826,82.4368691216135 285.1732909327531,78.60317488905837 280.4345819026232,75.50722176240332 275.2509255508078,73.23345927239593 269.76371850980087,71.8439097325072 267.7580018760712,71.67771131382955 200.45436279993942,105.32953085189546 196.96755905238442,105.76615555550404 193.97834239660497,103.91871806249502 192.80952536302794,100.60476147741656 192.80952536302794,-13.206131874179997 193.51723983719305,-15.847358249015999 195.45075173786395,-17.780870149686905 198.09197811269996,-18.488584623851995"/>
</g>
</svg>