<?xml version="1.0" encoding="UTF-8"?>
<svg xmlns="http://www.w3.org/2000/svg" xmlns:xlink="http://www.w3.org/1999/xlink" width="451.67865391425505" height="352.7698997428862" viewBox="-25.530847905193415 -325.5308479051934 451.67865391425505 352.7698997428862">
<defs>
<style type="text/css">
.l1d0 {stroke: rgb(21, 255, 21); fill: rgb(21, 255, 21); fill-opacity: 0.5;}
.l0d0 {stroke: rgb(255, 0, 0); fill: rgb(255, 0, 0); fill-opacity: 0.5;}
</style>
</defs><rect x="-25.530847905193415" y="-325.5308479051934" width="451.67865391425505" height="352.7698997428862" fill="none" stroke="none"/>
<g id="flexible_paths_2" transform="scale(1 -1)">
<polygon class="l0d0" points="-5.0,0.0 5.0,0.0 5.0,38.19660112501051 5.766937343924745,50.243588402176336 8.055366367498848,62.09606442829706 11.828337982783381,73.56265854058509 17.024933603897683,84.4582305446755 23.56124874151316,94.60685999733954 31.331747728878277,103.8446866266425 40.21096770590172,112.0225560279799 50.05554434868232,119.00842791845432 60.70652663695743,124.6895080657988 71.99194328511949,128.97406946961698 83.72957939907951,131.79293339005784 95.72991852693868,133.1005863111628 107.79920260097242,132.8759148043406 119.74256036495305,131.12254642682697 131.36715377506906,127.86879115096653 142.485291572496,123.16718427000251 228.97961584449476,79.92002213400313 240.59848206989705,74.96027941434747 252.72890674512894,71.43183819937772 265.195290722574,69.38577594815662 277.8171715321287,68.85171130940456 290.41183574282826,69.83737536408923 302.7969639092181,72.32849971085844 314.79326981442125,76.289023014383 326.22709580440664,81.66161302663092 336.93292664359194,88.3684965243309 346.7557855013865,96.31258514851035 355.55347738554866,105.37888084853691 363.1986475465776,115.43614058555693 369.58062505582905,126.33877619720516 374.60702486984934,137.9289619212817 378.205085189563,150.03891907003634 380.3227207547974,162.4933447822812 380.92927682673064,175.1119496948923 380.01597294366695,187.7120677985512 376.5272899021995,213.8771906095569 374.1213878111455,226.2220419289681 370.2567086129863,238.19066648091314 364.9887016798934,249.6113416764956 358.392950950936,260.320206756025 350.5640904741599,270.16361381889106 341.61444662285453,279.0003323220969 331.67242646712026,286.70357541790275 320.8806754239467,293.1628190572361 309.39403061933916,298.2853877588632 297.3772993271009,301.99778429213495 285.0028943586306,304.2467441953804 272.448360330523,305.0 160.0,305.0 160.0,295.0 272.448360330523,295.00000000000006 284.8342046211602,294.1891228391479 297.0086089485732,291.7703339201703 308.76374286189736,287.7849246260425 319.89893331664666,282.3009302698855 330.22409038394767,275.4119686574604 339.56295229436705,267.23564192842 347.7560944198729,257.9115289586431 354.6636508273035,247.59880259554842 360.16770194343593,236.47351240279824 364.17428757159155,224.725579300922 366.61501089537325,212.55555340864674 370.10369393684067,186.39043059764103 370.9358169863025,174.3175901230151 370.2264240844201,162.23691681371764 367.987026332152,150.3444400488739 364.25396174971894,138.83313540002564 359.08780563069854,127.88979327574204 352.5723876053232,117.69198793097172 344.81343136279077,108.40519602409236 335.9368391053994,100.18011147794752 326.0866485721402,93.15020021579754 315.4226957825017,87.42953445073371 304.1180214264232,83.11094167087663 292.35606298611265,80.26449835620839 280.3276781523061,78.93639286903331 268.22804783508036,79.14817596959443 256.25350902311163,80.89641111849954 244.59836888360178,84.1527302403913 233.45175179949436,88.8642940440023 146.9574275274956,132.11145618000162 134.66895943560266,137.30796904843558 121.82072461389549,140.90422487964975 108.62017129581162,142.84215834953326 95.28043626661643,143.09047948865253 82.01690354635105,141.64517889164176 69.04372678881629,138.5295924532598 56.57037154611085,133.79402458588177 44.79823322749098,127.51493600197466 33.91738535915454,119.7937091756609 24.103510647707573,110.75501141628799 15.515064398514546,100.54478198390046 8.290716088518497,89.32787574674546 2.5471104020237334,77.28540142643507 -1.6230161201328386,64.61179740759036 -4.152332409346329,51.51169232608851 -5.0,38.19660112501051"/>
<polygon class="l1d0" points="-5.0,0.0 5.0,0.0 5.0,191.90983005625054 402.23606797749983,-6.708203932499369 405.6169581038682,-4.295320902958084 364.3775819834738,305.0 160.0,305.0 160.0,295.0 355.6224180165262,295.0 393.79685216859957,8.69174385944971 -2.23606797749979,206.70820393249937 -5.0,205.0"/>
</g>
</svg>