<?xml version="1.0" encoding="UTF-8"?>
<svg xmlns="http://www.w3.org/2000/svg" xmlns:xlink="http://www.w3.org/1999/xlink"
     width="400.0" height="348.22" viewBox="-65.93 -311.67 400.0 348.22">
<defs>
<style type="text/css">
.l1d0 {stroke: rgb(21, 255, 21); fill: rgb(21, 255, 21); fill-opacity: 0.5;}
.l2d0 {stroke: rgb(42, 42, 255); fill: rgb(42, 42, 255); fill-opacity: 0.5;}
.l0d0 {stroke: rgb(255, 0, 0); fill: rgb(255, 0, 0); fill-opacity: 0.5;}
</style>
</defs>
<rect x="-65.93" y="-311.67" width="400.0" height="348.22" fill="none" stroke="none"/>
<g id="flexible_paths_1" transform="scale(1 -1)">
<polygon class="l0d0" points="11.02,0.0 14.69,-3.67 18.37,0.0 18.37,62.69 207.81,167.41 271.81,67.04 271.81,0.0 279.16,-7.35 286.5,0.0 286.5,69.17 279.16,69.17 285.23,73.3 212.09,174.36 209.06,172.3 207.28,175.51 12.92,68.07 14.69,64.85 11.02,64.85"/>
<polygon class="l1d0" points="-11.02,0.0 0.0,-11.02 11.02,0.0 11.02,67.37 213.99,194.7 286.5,71.47 286.5,0.0 293.85,-7.35 301.19,0.0 301.19,73.46 293.85,73.46 300.26,77.04 227.37,215.42 217.74,210.06 211.88,219.39 -5.86,82.8 0.0,73.46 -11.02,73.46"/>
<polygon class="l2d0" points="-47.75,0.0 -29.38,-18.37 -11.02,0.0 -11.02,79.15 230.59,250.08 301.19,74.12 301.19,0.0 308.54,-7.35 315.89,0.0 315.89,75.51 308.54,75.51 315.49,77.89 256.32,284.45 238.95,278.5 228.34,293.49 -39.99,103.65 -29.38,88.65 -47.75,88.65"/>
</g>
</svg>