<?xml version="1.0" encoding="UTF-8"?>
<svg xmlns="http://www.w3.org/2000/svg" xmlns:xlink="http://www.w3.org/1999/xlink"
     width="399.99999999999994" height="348.2169740954708" viewBox="-65.93204775022956 -311.66968300272515 399.99999999999994 348.2169740954708">
<defs>
<style type="text/css">
.l2d0 {stroke: rgb(42, 42, 255); fill: rgb(42, 42, 255); fill-opacity: 0.5;}
.l1d0 {stroke: rgb(21, 255, 21); fill: rgb(21, 255, 21); fill-opacity: 0.5;}
.l0d0 {stroke: rgb(255, 0, 0); fill: rgb(255, 0, 0); fill-opacity: 0.5;}
</style>
</defs><rect x="-65.93204775022956" y="-311.66968300272515" width="399.99999999999994" height="348.2169740954708" fill="none" stroke="none"/>
<g id="flexible_paths_1" transform="scale(1 -1)">
<polygon class="l0d0" points="11.019283746556475,0.0 14.692378328741965,-3.6730945821854903 18.365472910927455,0.0 18.365472910927455,62.68730121291432 207.8141163486428,167.41411828655316 271.8089990817263,67.03647579136246 271.8089990817263,0.0 279.1551882460973,-7.346189164370989 286.5013774104683,0.0 286.5013774104683,69.17310454466728 279.1551882460973,69.17310454466728 285.230613274645,73.302959985384 212.09289317666105,174.36206328475177 209.0551806623872,172.29713556439341 207.27814620366357,175.51175410197908 12.915343870018363,68.06840018528787 14.692378328741965,64.85378164770222 11.019283746556475,64.85378164770222"/>
<polygon class="l1d0" points="-11.019283746556473,0.0 0.0,-11.019283746556473 11.019283746556473,0.0 11.019283746556473,67.36654040724987 213.9939920493005,194.69912672891488 286.5013774104683,71.4650599305486 286.5013774104683,0.0 293.8475665748393,-7.346189164370972 301.19375573921025,0.0 301.19375573921025,73.46189164370982 293.8475665748393,73.46189164370982 300.26486004236875,77.03748107628242 227.36545175300932,215.42029978414217 217.73951155171508,210.05691563528327 211.883655677921,219.39145184617644 -5.855855873794058,82.79642785460297 0.0,73.46189164370982 -11.019283746556473,73.46189164370982"/>
<polygon class="l2d0" points="-47.750229568411385,0.0 -29.38475665748393,-18.365472910927455 -11.019283746556475,0.0 -11.019283746556475,79.15030436982805 230.58640628623598,250.08223305462624 301.1937557392103,74.1152756412176 301.1937557392103,0.0 308.5399449035813,-7.346189164370956 315.8861340679522,0.0 315.8861340679522,75.50817871900588 308.5399449035813,75.50817871900588 315.48908427328325,77.89060547741403 256.3212029599377,284.4512456220562 238.94835453568263,278.4951787260359 228.3412833610996,293.48786482090696 -39.99182783206693,103.6467388937195 -29.38475665748393,88.65405279884843 -47.750229568411385,88.65405279884843"/>
</g>
</svg>