<?xml version="1.0" encoding="UTF-8"?>
<svg xmlns="http://www.w3.org/2000/svg" xmlns:xlink="http://www.w3.org/1999/xlink" width="302.8895999305149" height="191.54631035470496" viewBox="-36.25851112249741 -163.7786012669543 302.8895999305149 191.54631035470496">
<defs>
<style type="text/css">
.l0d0 {stroke: rgb(255, 0, 0); fill: rgb(255, 0, 0); fill-opacity: 0.5;}
</style>
</defs><rect x="-36.25851112249741" y="-163.7786012669543" width="302.8895999305149" height="191.54631035470496" fill="none" stroke="none"/>
<g id="flexible_paths" transform="scale(1 -1)">
<polygon class="l0d0" points="0.0,10.0 0.0,-10.0 70.0,-10.0 70.0,33.819660112501055 113.41640786499875,55.52786404500043 113.41640786499875,64.47213595499957 62.36067977499792,90.0 2.5661760673483136,90.0 3.2688731715983472,89.61392720592777 2.6686263173829614,90.01253699956051 1.1436288972754451,91.29218766383032 -0.11379428516079877,92.71561684554656 -0.39065829337357627,93.10917488986163 -1.2933003550816582,94.74153384237573 -1.8941412657775096,96.31765778939629 -2.276556703253446,97.97456572655602 -2.4151302380396897,99.47691448456466 -2.1664594507439983,102.50221536035855 -1.5794752449849798,104.56893676246132 -0.8567136595579132,106.11785288782963 -0.12000267100699062,107.27221375423711 0.5723348810633293,108.13632807066097 1.0307653708463382,108.61608382836539 2.641502529920898,109.94625549090674 4.579092638932915,111.09059224409191 5.008380959701226,111.28026064644496 6.8178270088719675,111.83667416860843 8.406662273247916,112.08549498244386 13.326958249246557,112.04046104623032 17.715958134147087,111.46539435214434 21.742567624323293,110.78832569839045 25.26648782792946,110.2220321199132 28.276089919073026,109.82725848792639 30.975873933903408,109.57793428569175 36.29038629977805,109.48455110936946 41.77918908560016,110.14158598946682 44.62042756527288,110.83076442088301 49.037939698955924,112.39115341918068 53.315385572823,114.47718725233075 60.231440851433014,118.90474229132592 65.22100008822534,122.56895686616247 68.81453976781293,125.15832684640645 71.4648112780701,126.88736286304527 73.44062061110073,128.00401974088103 74.92656335567186,128.71379519577124 75.84849258145982,129.0809830464543 78.1403113881492,129.72495026738648 80.46927109348779,129.9891078207964 81.85099194472521,129.96249702145417 82.76907153233302,129.86609523505726 85.10109472995664,129.3476892178126 87.226227983956,128.52130128678021 87.80968972657416,128.2148750186735 89.66242678126096,126.96461163932612 91.18111671633318,125.58594455387316 92.50198588143505,123.99851329851273 93.49103573020807,122.41048270989313 94.83633331957036,119.0460345271471 95.31102080585765,116.47500058666245 95.3525232580233,114.39252302779059 95.16245913502749,112.73247583374528 94.86268377342797,111.41405846750365 94.52406228134714,110.36610180489441 94.25934664352589,109.71150420785021 93.31267180144326,107.89595803872476 91.79360233031295,105.71445861713558 108.20639766968705,94.28554138286442 110.45576486649587,97.5158039429624 112.4391443671307,101.3195567144818 113.33448618898194,103.53358762682524 114.16753689606524,106.11169049151565 114.9078780634538,109.36772409888297 115.37527741182598,113.45005675869244 115.27457062056098,118.503243302904 114.14360880434538,124.62883392595835 111.4039391768871,131.48046034104456 108.75334734557356,135.73628315047412 105.66007992547793,139.4537969766594 102.04122413493984,142.73899512685225 98.08409208830187,145.40934560785428 95.52646231583287,146.75257840124968 90.9290272137448,148.5403556500035 85.99387309131204,149.6374346137574 83.09009995887155,149.94234164037806 79.53072890651222,150.0108921792036 74.28327928577082,149.41571079831525 69.42553377759485,148.05075608821116 66.90739055339377,147.0478248735984 64.19932658995927,145.754290961514 61.07006103599701,143.98574181813754 57.49841134727746,141.65559906607908 53.455605186208324,138.74250450116273 48.90911233557536,135.40366742616902 43.50761211112832,131.94570785623182 41.298784569466406,130.86850217803703 38.917852458522304,130.02749027831115 38.22081091439984,129.85841401053318 35.27276494712211,129.5055193804628 32.07266614014817,129.56174944835374 30.49706242656221,129.70725595434453 28.154306240256844,130.01455849485276 24.98745979906004,130.52347036006415 20.674281520469773,131.2487251476492 14.722736321149094,132.02852362389234 6.941093351428275,132.0997465777236 2.3083960538417907,131.37423932238755 -1.9964073549225971,130.05049119074823 -4.579092638932915,128.9094077559081 -8.882066992589788,126.3680799084959 -12.614046357347068,123.28615361889483 -14.490281152416092,121.3226401401866 -16.400625540413383,118.93831773844474 -18.42406437382605,115.76776830839592 -20.38086099847702,111.57425013158628 -21.939216637539776,106.08741263282616 -22.490802034746736,99.37688662616222 -22.067971358466085,94.79275631341463 -21.07239464150506,90.47917793051282 -19.478655454393902,86.29848641401497 -17.370129474924944,82.48537886540198 -15.835188983785402,80.30348392812775 -12.856562209989582,76.93161650076921 -9.328921730494956,73.97151478297607 -7.09662915614529,72.48910187878427 -2.56617606734833,70.0 57.6393202250021,70.0 77.63932022500211,60.0 50.0,46.180339887498945 50.0,10.0"/>
<polygon class="l0d0" points="240.0,7.0 243.0,7.0 243.0,13.0 240.0,13.0 173.0,13.0 172.99999999999997,38.965558146251354 196.69208409486217,27.1195160988203 198.28146291777904,26.813044192800035 208.483108557093,27.658376651359156 208.97182698209838,27.739929332561175 216.98255806297914,29.768521948881983 217.4511878755157,29.9294027667348 225.01876765513185,33.248851023948745 225.4545258555402,33.484671569126334 232.37253048471257,38.00442957193263 232.76353072522252,38.30875727470084 238.84325507155887,43.90553780691243 239.17883188487082,44.27007140086282 244.2544369168619,50.79120887927914 244.52543664229216,51.206004838236936 248.45847308578004,58.47361963178345 248.6575035572625,58.92736340328061 251.34068843072959,66.74321392564705 251.46232061583586,67.2235285624189 252.82246363047494,75.37441878575677 252.86337972026678,75.86820255659897 252.86337972026678,84.13179744340106 252.82246363047494,84.62558121424325 251.46232061583586,92.77647143758108 251.34068843072959,93.25678607435292 248.65750355726246,101.07263659671945 248.45847308578,101.52638036821662 244.52543664229216,108.79399516176308 244.25443691686186,109.20879112072087 239.17883188487068,115.72992859913731 238.8432550715587,116.09446219308771 232.7635307252225,121.69124272529915 232.37253048471257,121.99557042806732 225.45452585554023,126.51532843087364 225.01876765513188,126.75114897605121 217.4511878755156,130.07059723326523 216.98255806297905,130.23147805111805 208.97182698209846,132.26007066743878 208.4831085570931,132.3416233486408 200.13702331759708,133.03319968880095 199.57569989137713,133.02701189588575 193.43761152848873,132.38187281251123 192.82414593516683,132.25147667529188 186.84844553321327,130.30985391591025 186.27549651633814,130.0547605783781 180.83406557629644,126.91314896036829 180.32667375721985,126.54450722544715 175.6573289220525,122.34021025164124 175.23766975800424,121.8741315320865 171.54448380301048,116.79089715469503 171.2308984132075,116.247751327045 168.675281286493,110.50774128042475 168.48147485721938,109.91126642365062 167.17511929043312,103.76534669046305 167.10956209263455,103.14161161800979 167.10956209263455,96.85838838199025 167.17511929043312,96.234653309537 168.48147485721938,90.08873357634937 168.675281286493,89.49225871957522 171.2308984132075,83.75224867295499 171.54448380301048,83.20910284530497 175.2376697580042,78.12586846791356 175.65732892205247,77.6597897483588 180.32667375721985,73.45549277455285 180.83406557629644,73.0868510396317 186.2754965163381,69.94523942162192 186.84844553321324,69.69014608408978 192.82414593516688,67.74852332470813 193.4376115284888,67.61812718748877 198.6411299775205,67.07121536021245 201.62469566362535,66.75762997040948 202.25186644323128,72.72476134261913 199.26830075712644,73.03834673242208 194.3783676978977,73.55229940711268 189.0024277029818,75.29904819722708 184.10713438965263,78.12534710943983 179.90643556592602,81.9076733192005 176.5839219275881,86.48072102152769 174.28480326382368,91.6446260879121 173.10956209263452,97.1737010877873 173.10956209263455,102.82629891221275 174.2848032638237,108.35537391208791 176.58392192758808,113.5192789784723 179.90643556592605,118.09232668079954 184.10713438965263,121.87465289056016 189.0024277029818,124.70095180277292 194.3783676978977,126.44770059288733 199.92249969682604,127.03041234684665 207.7398944478421,126.3826445495672 215.2686647515458,124.47610097771765 222.38094568326596,121.3563653117381 228.88273275951778,117.1085358080525 234.59667417775464,111.8484821822567 239.36690851122123,105.71968498532549 243.06331620237304,98.88932182820945 245.58506888521137,91.54370721240676 246.86337972026678,83.8832103560488 246.86337972026678,76.11678964395121 245.58506888521137,68.45629278759324 243.06331620237307,61.11067817179062 239.3669085112213,54.280315014674684 234.59667417775466,48.15151781774337 228.88273275951772,42.89146419194744 222.3809456832659,38.643634688261876 215.2686647515459,35.52389902228236 207.739894447842,33.61735545043275 198.62360741695346,32.86195837027403 171.34164078649988,46.5029416855008 167.0,43.819660112501055 167.0,10.0 170.0,7.0"/>
<polygon class="l0d0" points="240.0,-2.0 240.0,2.0 162.0,2.0 162.00000000000003,56.763932022500214 199.60674497627238,37.960559534364016 206.9141009931187,38.56606431718872 213.63960333486122,40.26919281491969 219.99305285342098,43.056074162175136 225.80114400813835,46.85068950065941 230.90544721287657,51.549531615762675 235.16673038213548,57.024428343551996 238.46875681939397,63.12603877328394 240.72145585118415,69.68792687814658 241.86337972026678,76.53110145620508 241.86337972026678,83.46889854379495 240.7214558511841,90.31207312185337 238.46875681939397,96.87396122671603 235.16673038213548,102.97557165644801 230.90544721287657,108.45046838423733 225.80114400813838,113.1493104993406 219.99305285342098,116.94392583782486 213.6396033348612,119.73080718508031 206.91410099311872,121.43393568281125 199.97785705623596,122.00868924195619 195.42365233057427,121.5300230370222 191.04731301405477,120.10806419568652 187.06224907857975,117.8072864598022 183.64262694058743,114.72824485678348 180.9379004966761,111.00550827956366 179.0662792711617,106.80177818023863 178.10956209263455,102.30077773588437 178.10956209263455,97.69922226411565 179.06627927116173,93.19822181976137 180.9379004966761,88.99449172043634 183.6426269405874,85.27175514321652 187.06224907857975,82.19271354019779 191.0473130140548,79.89193580431345 195.4236523305742,78.46997696297782 199.7909430734647,78.01095620926345 200.2090569265353,81.98904379073655 196.25988003671537,82.40411900766995 192.68322126291324,83.56624588998251 189.4263408297213,85.44660668480432 186.63158004031683,87.96302060242915 184.42108335194632,91.00550827956366 182.89146007703212,94.44109840524072 182.10956209263455,98.11963920517825 182.10956209263455,101.88036079482177 182.89146007703215,105.55890159475928 184.42108335194632,108.99449172043634 186.6315800403168,112.03697939757085 189.4263408297213,114.55339331519569 192.68322126291326,116.43375411001753 196.25988003671534,117.59588099233002 200.02214294376404,117.99131075804381 206.25346622933995,117.47496858940652 212.33635420151353,115.93457215097045 218.08273858954493,113.41397425869425 223.33587300703502,109.98193025237089 227.95246564097397,105.73205734582197 231.80658787886685,100.78028099334614 234.7931093130106,95.26167274552151 236.83056542396233,89.32676584941056 237.86337972026678,83.13744909399165 237.86337972026678,76.86255090600834 236.8305654239623,70.67323415058948 234.7931093130106,64.7383272544785 231.80658787886676,59.21971900665385 227.95246564097397,54.26794265417803 223.33587300703505,50.018069747629085 218.08273858954493,46.58602574130575 212.33635420151347,44.06542784902955 206.25346622934006,42.5250314105935 200.3932550237276,42.039440465636 158.0,63.236067977499786 158.0,-2.0"/>
<polygon class="l0d0" points="240.0,-14.0 242.35114100916988,-13.23606797749979 243.80422606518061,-11.23606797749979 243.80422606518061,-8.76393202250021 242.35114100916988,-6.76393202250021 240.0,-6.0 154.0,-6.0 154.0,69.70820393249934 200.1774207366381,46.61949356418029 200.85493152387315,46.35468812334281 201.56919602664016,46.216960100036275 202.29659250052725,46.21086435615328 205.26251408367202,46.45662762537637 205.48161093305634,46.480877258853035 205.69903922947765,46.51715962439337 205.91413865034588,46.56536453364573 210.71179788338114,47.78029685349195 210.92391517882473,47.840277909731235 211.13240615558897,47.91185295246105 211.3366376334298,47.99480461062903 215.86889176040484,49.98283559294673 216.06824349503654,50.07691194509338 216.26211006179295,50.181827284429204 216.44990269428268,50.29726298651685 220.59312363731783,53.00416432851817 220.77427201548804,53.129769818924366 220.94822599766798,53.26516363790299 221.11445729133106,53.409934598875736 224.75562878367185,56.76186908831633 224.9136325498427,56.915577526632894 225.06292893627653,57.077756634817945 225.2030645347545,57.24791388025022 228.24286490991514,61.153449482099084 228.37341413323057,61.33106810281667 228.49398050768286,61.515608676906204 228.6041978771555,61.706510760709406 230.95970930506996,66.0591146447195 231.05924294303435,66.2557984748822 231.14779056910325,66.4576667290765 231.22508326704659,66.6641063400491 232.83205353632127,71.34505081865623 232.89785657075572,71.55543483609362 232.9519701000285,71.76912433064946 232.9942297831296,71.98547033435203 233.80882493387764,76.86707144449151 233.8391024295386,77.08541692163814 233.85730578600004,77.30509876419099 233.86337972026678,77.52544980561444 233.86337972026678,82.47455019438554 233.85730578600004,82.694901235809 233.8391024295386,82.91458307836186 233.80882493387764,83.13292855550847 232.9942297831296,88.01452966564798 232.9519701000285,88.23087566935057 232.89785657075572,88.44456516390642 232.83205353632127,88.65494918134381 231.22508326704659,93.33589365995088 231.14779056910325,93.54233327092348 231.05924294303435,93.74420152511776 230.95970930507002,93.94088535528043 228.60419787715557,98.29348923929055 228.49398050768292,98.48439132309377 228.3734141332306,98.66893189718333 228.24286490991517,98.84655051790092 225.2030645347546,102.75208611974966 225.06292893627662,102.92224336518194 224.91363254984282,103.08442247336698 224.755628783672,103.23813091168353 221.1144572913311,106.59006540112428 220.948225997668,106.73483636209703 220.77427201548804,106.87023018107566 220.59312363731783,106.99583567148187 216.44990269428266,109.70273701348319 216.26211006179292,109.81817271557082 216.0682434950365,109.92308805490664 215.86889176040484,110.0171644070533 211.33663763342994,112.00519538937094 211.13240615558908,112.08814704753892 210.9239151788248,112.15972209026873 210.71179788338125,112.21970314650802 205.91413865034582,113.43463546635428 205.6990392294776,113.48284037560663 205.48161093305626,113.51912274114697 205.26251408367193,113.54337237462366 200.4410321007092,113.94289176224575 200.19154551878154,113.95573700454891 199.9417436535157,113.95298329404994 199.6926008657493,113.93464137169217 197.51422159592732,113.70568448441892 197.23774273833018,113.66682791499466 196.96464786659925,113.6087798080498 196.69626747149812,113.53182296812645 194.71896978313012,112.88936000385988 194.45661138696624,112.7938693569464 194.2015531734736,112.68031012387593 193.95503776062992,112.54923555381701 192.15452433200466,111.50970864112068 191.91775271812165,111.3617573162031 191.69187843070202,111.1976500404098 191.4780019065692,111.0181863278925 189.9329638143397,109.62702778105484 189.73212703842054,109.43308196098127 189.54530846729924,109.22559891789143 189.37341826227538,109.00558948831518 188.15138108498732,107.32359961135231 187.99525667786142,107.09213565911523 187.8556586910514,106.85034485332595 187.7332672319167,106.59940517448558 186.88763985820262,104.70009499610372 186.7830512056294,104.44122899710321 186.69677490501977,104.17569784706853 186.62923128583782,103.90479518707156 186.19697168969932,101.8711736759674 186.14848981766826,101.59621931653662 186.11930589159525,101.31855280767286 186.10956209263458,101.03952691269637 186.10956209263458,98.96047308730363 186.11930589159525,98.68144719232714 186.14848981766826,98.40378068346338 186.19697168969932,98.12882632403259 186.62923128583782,96.09520481292844 186.69677490501977,95.8243021529315 186.7830512056294,95.55877100289683 186.88763985820262,95.2999050038963 187.7332672319167,93.40059482551442 187.8556586910514,93.14965514667405 187.99525667786142,92.90786434088477 188.15138108498732,92.67640038864769 189.37341826227538,90.99441051168482 189.54530846729924,90.77440108210857 189.73212703842054,90.56691803901876 189.93296381433967,90.37297221894518 191.47800190656915,88.9818136721075 191.691878430702,88.80234995959017 191.91775271812165,88.63824268379689 192.15452433200466,88.49029135887929 193.95503776062984,87.450764446183 194.20155317347354,87.3196898761241 194.4566113869662,87.20613064305363 194.71896978313004,87.11063999614015 196.69626747149817,86.46817703187355 196.96464786659928,86.3912201919502 197.2377427383302,86.33317208500534 197.51422159592735,86.29431551558108 200.62717077960593,85.96713137220962 203.0452846326765,86.48111733854498 204.69946646324695,88.31827238137953 204.95787503561175,90.77686571695375 203.72180705811195,92.9177982555923 201.46339848574712,93.92330653515583 198.7685631551392,94.2065451417463 197.59094600948822,94.58917614698989 196.5186160831463,95.20828611862345 195.59843933950435,96.03681698006751 194.87063191775746,97.03855795694466 194.36700249464351,98.16972816167878 194.10956209263452,99.38089002836645 194.10956209263452,100.61910997163355 194.3670024946435,101.83027183832117 194.87063191775746,102.96144204305534 195.5984393395044,103.96318301993253 196.51861608314633,104.79171388137657 197.59094600948825,105.41082385301013 198.76856315513913,105.79345485825371 200.1550006063479,105.93917530630668 204.27156193800408,105.59806730919219 208.42660680147023,104.54586704864087 212.35179579791688,102.82411952130246 215.94006000372474,100.47978951146207 219.09352092526655,97.57682423057554 221.726160369061,94.1944090040404 223.76616679386075,90.42480730193743 225.15789414229698,86.3708440320822 225.8633797202668,82.14310074458251 225.8633797202668,77.8568992554175 225.15789414229698,73.62915596791778 223.76616679386075,69.5751926980625 221.726160369061,65.80559099595966 219.09352092526638,62.423175769424326 215.94006000372477,59.520210488537955 212.3517957979169,57.17588047869752 208.42660680147026,55.45413295135915 204.27156193800403,54.401932690807826 202.75278516609316,54.27608325945193 151.78885438199984,79.7580486514986 149.14856290166696,80.08867135598805 146.8850563092303,78.68974734810271 146.0,76.18033988749895 146.0,-10.0 146.53589838486224,-12.000000000000002 148.0,-13.464101615137753 150.0,-14.0"/>
</g>
</svg>