<?xml version="1.0" encoding="UTF-8"?>
<svg xmlns="http://www.w3.org/2000/svg" xmlns:xlink="http://www.w3.org/1999/xlink" width="108.9" height="94.80207119749193" viewBox="-17.95 -84.85207119749192 108.9 94.80207119749193">
<defs>
<style type="text/css">
.l2d0 {stroke: rgb(42, 42, 255); fill: rgb(42, 42, 255); fill-opacity: 0.5;}
.l1d0 {stroke: rgb(21, 255, 21); fill: rgb(21, 255, 21); fill-opacity: 0.5;}
.l0d0 {stroke: rgb(255, 0, 0); fill: rgb(255, 0, 0); fill-opacity: 0.5;}
</style>
</defs><rect x="-17.95" y="-84.85207119749192" width="108.9" height="94.80207119749193" fill="none" stroke="none"/>
<g id="flexible_paths_1" transform="scale(1 -1)">
<polygon class="l0d0" points="3.0000000000000004,0.0 4.0,-0.9999999999999998 5.0,0.0 5.0,17.066617755215926 56.57739317591801,45.5784937035141 74.0,18.250680534198434 74.0,0.0 76.0,-2.0000000000000018 78.0,0.0 78.0,18.83237771228567 76.0,18.83237771228567 77.65403446402212,19.956730856020798 57.74229016734598,47.47007172927368 56.91527293533491,46.90789515740611 56.431475303947416,47.783075054263804 3.5162023686125,18.531621950444624 4.0,17.65644205358693 3.0000000000000004,17.65644205358693"/>
<polygon class="l1d0" points="-3.0,0.0 0.0,-3.0 3.0,0.0 3.0,18.34054062587378 58.25986433542206,53.00683725194708 78.0,19.456362566091858 78.0,0.0 80.0,-1.9999999999999973 82.0,0.0 82.0,20.0 80.0,20.0 81.74710814653491,20.97345422301789 61.900244239756795,58.64817661623271 59.27958201995444,57.18799528170588 57.685325258314,59.72932276512154 -1.5942567616404324,22.541327483415657 0.0,20.0 -3.0,20.0"/>
<polygon class="l2d0" points="-13.0,0.0 -8.0,-5.0 -3.0000000000000004,0.0 -3.0000000000000004,21.54867036468569 62.77714911142775,68.08488794912199 82.00000000000001,20.17788379332149 82.00000000000001,0.0 84.0,-1.999999999999993 86.0,0.0 86.0,20.557101656249355 84.0,20.557101656249355 85.89190319340136,21.20571734122597 69.78344750584304,77.44185162060481 65.0536895223396,75.82031240816328 62.165914395059374,79.90207119749192 -10.887775127280223,28.217824663815136 -8.0,24.136065874486484 -13.0,24.136065874486484"/>
</g>
</svg>