<?xml version="1.0" encoding="UTF-8"?>
<svg xmlns="http://www.w3.org/2000/svg" xmlns:xlink="http://www.w3.org/1999/xlink"
     width="400.05" height="400.56" viewBox="-44.22 -356.34 400.05 400.56">
<defs>
<style type="text/css">
.l0d0 {stroke: rgb(255, 0, 0); fill: rgb(255, 0, 0); fill-opacity: 0.5;}
</style>
</defs>
<rect x="-44.22" y="-356.34" width="400.05" height="400.56" fill="none" stroke="none"/>
<g id="polygonal-only_paths" transform="scale(1 -1)">
<polygon class="l0d0" points="-26.01,0.0 26.01,0.0 26.01,208.08 -26.01,208.08"/>
<polygon class="l0d0" points="-26.01,208.08 -24.03,230.67 -18.17,252.56 -8.59,273.11 4.42,291.68 20.45,307.71 39.02,320.71 59.56,330.29 81.46,336.16 104.04,338.14 104.04,286.11 90.49,284.93 77.35,281.41 65.03,275.66 53.88,267.86 44.27,258.24 36.46,247.1 30.72,234.77 27.2,221.63 26.01,208.08"/>
<polygon class="l0d0" points="104.04,338.14 104.04,286.11 156.06,286.11 156.06,338.14"/>
<polygon class="l0d0" points="156.06,338.14 183.2,336.1 209.73,330.05 235.06,320.1 258.63,306.5 279.9,289.53 298.41,269.58 313.74,247.1 325.55,222.58 333.57,196.58 337.63,169.67 337.63,142.46 333.57,115.55 325.55,89.54 313.74,65.03 298.41,42.54 279.9,22.59 258.63,5.63 235.06,-7.98 209.73,-17.92 183.2,-23.98 156.06,-26.01 156.06,26.01 175.45,27.46 194.4,31.79 212.49,38.89 229.32,48.61 244.52,60.73 257.74,74.98 268.69,91.04 277.12,108.55 282.85,127.12 285.75,146.34 285.75,165.78 282.85,185.0 277.12,203.58 268.69,221.09 257.74,237.15 244.52,251.4 229.32,263.52 212.49,273.24 194.4,280.34 175.45,284.66 156.06,286.11"/>
</g>
</svg>