<?xml version="1.0" encoding="UTF-8"?>
<svg xmlns="http://www.w3.org/2000/svg" xmlns:xlink="http://www.w3.org/1999/xlink"
     width="427.81285378344853" height="705.9413916179346" viewBox="-154.1939397098734 -673.8531465443921 427.81285378344853 705.9413916179346">
<defs>
<style type="text/css">
.l0d0 {stroke: rgb(255, 0, 0); fill: rgb(255, 0, 0); fill-opacity: 0.5;}
</style>
</defs><rect x="-154.1939397098734" y="-673.8531465443921" width="427.81285378344853" height="705.9413916179346" fill="none" stroke="none"/>
<g id="polygonal-only_paths_1" transform="scale(1 -1)">
<polygon class="l0d0" points="-11.501460428572983,0.0 -10.817774052908668,21.64508814329452 -8.818111924503135,42.06060728590572 -5.58165067141147,61.31615251970858 -1.1914250110773283,79.47802357721949 4.264704412299908,96.61078850821251 10.693852510158614,112.77935880290408 17.998833410229548,128.05107931197483 26.079642886426473,142.49729516102263 44.165455046320794,169.2218755596655 64.15844885323577,193.60979544597075 85.30285797976893,216.35636051790624 106.88184362313713,238.16196923405235 128.20869668792204,259.71147502405046 148.62229887556862,281.6678518522327 167.49166159488655,304.67852865399186 184.22472377930498,329.3960271253336 191.61584959642767,342.6083525901149 198.26649817145628,356.5114792130933 204.10819530623039,371.2025402929176 209.0696484487725,386.7826694031539 213.07526426339766,403.3554334778324 216.04442497005851,421.02474289142566 217.89168686195205,439.8927763356641 218.52774814288668,460.0584171429193 241.53066900003265,460.0584171429193 240.84698262436834,438.4133289996248 238.8473204959628,417.99780985701364 235.61085924287113,398.74226462321076 231.220633582537,380.5803935656998 225.76450415915974,363.4476286347068 219.33535606130107,347.27905834001524 212.03037516123013,332.0073378309445 203.9495656850332,317.5611219818967 185.86375352513886,290.8365415832538 165.8707597182239,266.4486216969486 144.72635059169073,243.70205662501309 123.14736494832253,221.89644790886697 101.82051188353762,200.34694211886884 81.40690969589106,178.39056529068668 62.5375469765731,155.3798884889275 45.80448479215467,130.66239001758572 38.41335897503198,117.45006455280445 31.762710400003378,103.54693792982604 25.921013265229284,88.85587685000172 20.959560122687144,73.27574773976544 16.953944308062002,56.70298366508695 13.984783601401153,39.033674251493636 12.137521709507618,20.165640807255215 11.501460428572983,0.0"/>
<polygon class="l0d0" points="218.52774814288668,460.0584171429193 216.16015023087374,481.04494942642094 211.265587297028,501.4538284559274 203.94950624705302,520.9840116260517 194.35281111345444,539.3515242713231 182.6492795140203,556.2935838472582 169.04250615406778,571.5723496434689 153.76242600396014,584.9782446796447 137.06147568203633,596.3328036622049 119.21045649760522,605.4910087422977 100.4941664927378,612.3430831853292 81.20687161589912,616.8157218024347 61.64768783320174,618.8727459649687 42.11594652030273,618.5151800817621 22.906614883699184,615.7807554232453 4.305841456057258,610.7428559865793 -13.41330606494519,603.5089295762048 -29.994847155787525,594.2183952958295 -45.203580242143104,583.0400860905205 -58.82840676468883,570.1692717312638 -70.68524075115833,555.8243136011525 -80.61946412603663,540.2430077376562 -88.5078955433068,523.6786767392634 -94.26024849527829,506.3960743027163 -97.82006270213688,488.66716828091165 -99.16510118976403,470.766869219815 -98.30721388397309,452.9687713407706 -95.29167685516252,435.54097189448476 -90.1960244093337,418.7420327531863 -83.12839891556231,402.817145072258 -74.22545046962945,387.9945539011051 -63.64982511083651,374.48229482812826 -51.5872862368204,362.465289191807 -38.24351901422334,352.1028381755449 -23.84067188931267,343.5265493338878 -8.613692704278144,336.83872188542483 7.193480620906302,332.1112095722407 23.33181340182973,329.3847721501156 39.55108956606695,328.6689187624094 55.60378764987982,329.9422386881729 71.2488574242851,333.15320736371746 86.25533953922502,338.2214482747525 100.405773832905,345.0394244154074 113.49934602784735,353.4745266154485 125.35472735111375,363.37152024297484 135.81256708776442,374.5553066813393 144.737604108845,386.83395162859824 152.02036990505314,400.0019287350942 157.57846249573618,413.8435244257348 161.35737765667997,428.13634797971895 163.3308911035786,442.654890078774 163.5009924648624,457.17407308751234 161.89737896281443,471.4727372837453 158.57652358387676,485.33700908568426 153.62033905092824,498.5634999863543 147.13446501187295,510.962288349859 139.24621143801375,522.3596403840075 130.10219619979992,532.6004314032842 119.86571908478588,541.5502338497838 108.71391808292564,549.0970443543551 96.83475654019176,555.1526282962286 84.42389173868747,559.6534667527495 71.68147657932231,562.5612973144898 58.808946314918714,563.8632468668718 46.005841714291975,563.5715610000761 33.466718651822454,561.7229410993676 21.378191945793578,558.3775062870789 9.91615835804163,553.6174031400326 -0.7567599255358841,547.5450914039639 -10.493514221803844,540.2813386898566 -19.164638318496724,531.9629612960351 -26.659940316875105,522.7403517950793 -32.88985574424188,512.7748368084556 -37.78644616084664,502.23591042866934 -41.30403348335635,491.29839001589505 -43.41946631294836,480.1395415834336 -44.132020590114465,468.9362216968952 -43.46294280219752,457.8620817612791 -41.45464964863086,447.08487878601113 -38.169603432856114,436.7639342400434 -33.68888741531107,427.0477794877876 -28.110509852700456,418.07202259231605 -21.547469397770747,409.95746705417343 -14.125617883598364,402.80850839907873 -5.981359220177503,396.71182951881775 2.740774846628079,391.7354103945406 11.890630046687095,387.9278623815983 21.314973300677472,385.3180917027833 30.86003228829605,383.91529127539826 40.37398914051711,383.70925457856396 49.709388028847215,384.67100003934803 58.7254185725024,386.7536894640295 67.29003973324537,389.89381944286976 75.2819121626454,394.01266048490226 82.59211074475145,399.0179149572361 89.12559326825641,404.80556176591665 94.80240568984803,411.2618531673631 99.55860923354066,418.26542717523057 103.34691952508521,425.6894977506695 123.07718285783129,413.8636330135512 117.69287971624921,404.1133035882884 111.06792701503338,394.99633184217777 103.2777168551986,386.67129128320806 94.41797548186969,379.28765162449 84.603646036748,372.98316582762317 73.96743519017194,367.88139663501113 62.6580413692438,364.0894258338413 50.838087858045,361.6957872077835 38.68178930614346,360.7686611319971 26.37238505096394,361.35436509242896 14.099377051949961,363.4761701129719 2.0556140704406514,367.1334682161724 -9.565733062396301,372.301310697224 -20.574257728098747,378.9303312383682 -30.78541621374979,386.94706182069876 -40.02358867628361,396.25464309827703 -48.12505204800643,406.7339244858241 -54.940815183205224,418.2449427797524 -60.33926799836013,430.6287617882571 -64.20859862109857,443.709649294783 -66.45893560964862,457.2975618238294 -67.02417609599546,471.1909022185398 -65.86346519037336,485.1795100704646 -62.96229709827684,499.04784065105184 -58.333214068926594,512.5782842611904 -52.01608543115916,525.5545749091916 -44.077955485394554,537.7652350075822 -34.61245580775033,549.0070013915886 -23.7387844778849,559.0881774407869 -11.600261755061169,567.8318564500032 1.6375213157476558,575.0789626519152 15.788938097623737,580.691058433271 30.6509155781451,584.5528692860787 46.005841714291975,586.5744818572222 61.62474938859608,586.6931750535829 77.27073042749218,584.874849460682 92.70252878098145,581.1150262646322 107.67825836971706,575.439393342268 121.9591883390067,567.9038831052856 135.31353657403952,558.5942739453371 147.52021136831937,547.625314615787 158.37244112493102,535.1393784847436 167.6812329199529,521.3046621823802 175.27860266584872,506.3129506215111 181.0205224613018,490.37697757271525 184.7895344686954,473.7274178053899 186.4969852723135,456.6095531500626 186.0848400760463,439.2796605875459 183.52704222218398,422.0011755279327 178.83039026363028,405.04068771769965 172.03491210035912,388.6638306286023 163.21372338735785,373.1311276727019 152.47236541791582,358.69386010295915 139.94762585903499,345.59002196252527 125.8058539368717,334.04042691813186 110.24078980915142,324.2450302499814 93.47093578795253,316.379526684941 75.73650466161722,310.59228118074816 57.29598748425343,307.001645241606 38.42238973686914,305.6937059308448 19.399190605088314,306.7205085199275 0.5160851639797419,310.098786764382 -17.935426578380774,315.80922722814574 -35.66653662643091,323.7962860011417 -52.395642601165534,333.9685676928363 -67.8528075620058,346.19976786662164 -81.78409559354509,360.33017124118606 -93.95571380237554,376.1686891639868 -104.15789357284139,393.49541119815535 -112.2084472171924,412.0646372962598 -117.95594048535072,431.6083490977433 -121.28242671553768,451.84007151157283 -122.10569463633092,472.45906905418866 -120.3809888851061,493.15481551824377 -116.10217008508971,513.6116705514438 -109.30228970873269,533.5136927155097 -100.05356382335326,552.5495156466806 -88.46673903160789,570.4172121090737 -74.6898533430689,586.8290700614152 -58.906404198039446,601.5162053690333 -41.332945262279566,614.2329374911355 -22.216142772980316,624.7608573440989 -1.8293309957289956,632.9125205520834 19.531385392471023,638.534704395713 41.55142658285305,641.5111728892132 63.9023683548464,641.7649014708496 86.24684010293012,639.2597206798597 108.24361712789455,634.0013468002497 129.5528303301263,626.0377766503777 149.8412137827724,615.4590333491224 168.78730921646292,602.3962598481643 186.08654624962114,587.0201671327225 201.45611826495065,569.5388541033392 214.6395761594938,550.1950261008483 225.41106575893562,529.2626486683456 233.57913944322024,507.0430823040973 238.99007841758495,483.8607525000984 241.53066900003265,460.0584171429193"/>
<polygon class="l0d0" points="103.34691952508521,425.6894977506695 106.13705299994925,433.40408434665716 107.91578086139448,441.2782424203133 108.68669581653113,449.1822572206814 108.46970160010814,456.98976448228774 107.30023982933778,464.5797635753863 105.22827294458617,471.83849114091606 102.31704581302452,478.66112622166986 98.64165194552623,484.9533013327931 94.28743314981288,490.6323977294017 89.34824377288777,495.62860725597733 83.9246124407318,499.8857475259376 78.12183536092398,503.3618217019338 72.04803580264083,506.0293187477627 65.81222430737103,507.8752546206812 59.52239352213355,508.9009593887953 53.28368030475266,509.12161961480285 47.196625957349916,508.5655894711365 41.35556313839988,507.27348787379884 30.749110776327104,502.69812363479406 22.043832775411857,495.9200978058892 15.646145294087482,487.57484204565236 11.771925699100589,478.3568264802432 10.443617981298097,468.96629046344003 11.501460428572983,460.0584171429193 -11.501460428572983,460.0584171429193 -11.869934164894122,474.5555443116099 -8.514839346938722,489.2003283097686 -1.3978948014658854,503.0226595349059 9.26409467467582,515.0463274928065 22.999660141170356,524.3563872497147 39.10088261675525,530.1656433796799 47.76114589479963,531.5615822785876 56.658909795980826,531.8755685872705 65.65756597391982,531.0706239542994 74.61506101540618,529.1271823885753 83.38613390913285,526.0438609430687 91.82465931682033,521.8379409804467 99.78605901911189,516.5455458560889 107.12974205333734,510.2215057638985 113.72153284712951,502.93890563842615 119.43604611095212,494.7883173090394 124.15896740283594,485.87672247039734 127.78919912755539,476.3261383782482 130.24083327590466,466.27196340975996 131.44491443167271,455.86106465308995 131.3509594467193,445.24963442393994 129.92820366925315,434.60084696338674 127.16654765722834,424.08235047255454 123.07718285783129,413.8636330135512"/>
</g>
</svg>