<?xml version="1.0" encoding="UTF-8"?>
<svg xmlns="http://www.w3.org/2000/svg" xmlns:xlink="http://www.w3.org/1999/xlink"
     width="400.0509112303141" height="400.56002353345536" viewBox="-44.21766493551131 -356.34235859794404 400.0509112303141 400.56002353345536">
<defs>
<style type="text/css">
.l0d0 {stroke: rgb(255, 0, 0); fill: rgb(255, 0, 0); fill-opacity: 0.5;}
</style>
</defs><rect x="-44.21766493551131" y="-356.34235859794404" width="400.0509112303141" height="400.56002353345536" fill="none" stroke="none"/>
<g id="polygonal-only_paths" transform="scale(1 -1)">
<polygon class="l0d0" points="-26.01039113853606,0.0 26.01039113853606,0.0 26.01039113853606,208.0831291082885 -26.01039113853606,208.0831291082885"/>
<polygon class="l0d0" points="-26.01039113853606,208.0831291082885 -24.034609706407473,230.66641421634276 -18.167298529043343,252.5635176340825 -8.586732887565152,273.1091069546286 4.415986579010972,291.6789148430462 20.445778819386547,307.70870708342176 39.01558670780407,320.71142654999784 59.56117602835021,330.291992191476 81.45827944608995,336.15930336884014 104.04156455414424,338.1350848009688 104.04156455414424,286.1143025238967 90.49159348931165,284.9288336646195 77.35333143866782,281.408446958201 65.02597784634018,275.6601075733141 53.88409311328962,267.85847589336845 44.26621776906428,258.2406005491431 36.464586089118626,247.09871581609258 30.716246704231697,234.77136222376492 27.195859997813212,221.63310017312105 26.01039113853606,208.08312910828846"/>
<polygon class="l0d0" points="104.04156455414424,338.1350848009688 104.04156455414424,286.1143025238967 156.06234683121636,286.1143025238967 156.06234683121636,338.1350848009688"/>
<polygon class="l0d0" points="156.06234683121636,338.1350848009688 183.19888030712906,336.10148275091797 209.72922846696162,330.0461039101375 235.06074717290394,320.10421543571806 258.62757215614,306.49790268770187 279.9032594895501,289.53110820912485 298.4125454751211,269.58284215185444 313.7419632496095,247.09871581609252 325.5490789510337,222.58098743027992 333.5701411252953,196.57734253222898 337.62597249782755,169.66865957923244 337.62597249782755,142.45603408320025 333.5701411252953,115.54735113020377 325.5490789510337,89.54370623215276 313.74196324960946,65.02597784634011 298.4125454751211,42.54185151057832 279.90325948955007,22.59358545330784 258.62757215613993,5.6267909747308025 235.06074717290394,-7.979521773285286 209.7292284669616,-17.921410247704767 183.19888030712903,-23.976789088485283 156.06234683121636,-26.01039113853606 156.06234683121636,26.01039113853606 175.44558502829688,27.462964031429486 194.39583371389156,31.788234631987 212.4897756467075,38.88958354228661 229.32322206330463,48.608378362298126 244.52014158716906,60.72751727556744 257.7410601482912,74.97627874504634 268.6906442729258,91.03636898487623 277.12429834537164,108.54903211759955 282.85362846984424,127.12306418763593 285.75065087879574,146.3435520112049 285.75065087879574,165.7811416512279 282.85362846984424,185.0016294747968 277.12429834537164,203.57566154483322 268.69064427292574,221.08832467755653 257.7410601482912,237.1484149173864 244.520141587169,251.3971763868653 229.32322206330463,263.5163153001346 212.4897756467075,273.23511012014615 194.39583371389153,280.3364590304458 175.44558502829685,284.66172963100325 156.06234683121636,286.1143025238967"/>
</g>
</svg>