<?xml version="1.0" encoding="UTF-8"?>
<svg xmlns="http://www.w3.org/2000/svg" xmlns:xlink="http://www.w3.org/1999/xlink" width="185.98197004644584" height="306.89206644756615" viewBox="-67.03233066246555 -292.9424270635859 185.98197004644584 306.89206644756615">
<defs>
<style type="text/css">
.l0d0 {stroke: rgb(255, 0, 0); fill: rgb(255, 0, 0); fill-opacity: 0.5;}
</style>
</defs><rect x="-67.03233066246555" y="-292.9424270635859" width="185.98197004644584" height="306.89206644756615" fill="none" stroke="none"/>
<g id="polygonal-only_paths_1" transform="scale(1 -1)">
<polygon class="l0d0" points="-5.0,0.0 -4.702782798797517,9.409712913293083 -3.8334748788059874,18.28489849054947 -2.4264964897609964,26.65581162518343 -0.5179450985709089,34.55127462759985 1.853983865259901,41.99935699826568 4.648910708587913,49.02827754061878 7.824586069746062,55.667312906567325 11.33753537143728,61.94747877713763 19.199933486968714,73.56538615707836 27.891435723174535,84.16748318543424 37.08348974876779,94.0560383011943 46.46446609406726,103.53553390593274 55.73583349876779,112.9036945511943 64.61018572317454,122.44873318543424 72.81321473696872,132.45210490707836 80.08753537143727,143.19747877713763 83.30066028849606,148.94123868781733 86.1918794585879,154.98530879061877 88.7314252715099,161.37191559201568 90.8883049014291,168.14502462759987 92.62965585398901,175.34965928143345 93.92043137119401,183.03099224054947 94.72348673245249,191.23344338204308 95.0,200.0 105.0,200.0 104.70278279879751,190.59028708670692 103.83347487880599,181.71510150945053 102.42649648976099,173.34418837481655 100.5179450985709,165.44872537240013 98.1460161347401,158.00064300173432 95.3510892914121,150.97172245938123 92.17541393025394,144.33268709343267 88.66246462856273,138.05252122286237 80.80006651303128,126.43461384292164 72.10856427682546,115.83251681456576 62.91651025123221,105.9439616988057 53.53553390593274,96.46446609406726 44.26416650123221,87.0963054488057 35.38981427682546,77.55126681456576 27.18678526303129,67.54789509292164 19.91246462856272,56.80252122286237 16.69933971150394,51.058761312182675 13.808120541412087,45.01469120938122 11.2685747284901,38.62808440798431 9.111695098570909,31.854975372400144 7.370344146010996,24.65034071856657 6.079568628805987,16.96900775945053 5.276513267547517,8.766556617956917 5.0,0.0"/>
<polygon class="l0d0" points="95.0,200.0 93.9707403130601,209.12342063594156 91.84293968972091,217.99571957408548 88.66243878924408,226.4860253449968 84.49049245547346,234.4708863804011 79.40264658054475,241.83606390770282 73.4874093615611,248.47816205301913 66.84473983059118,254.30607196038693 59.584379102646665,259.24220987655633 51.82405192711513,263.2235325689951 43.687567816640474,266.20231708318113 35.30285224220637,268.1466956448785 26.799939110363283,269.04094041288363 18.308955972093088,268.88549672578534 9.95813315446118,267.6967674007147 1.8718672653780086,265.5066544720338 -5.8311316846435535,262.36186844451186 -13.03958194790271,258.3230186227558 -19.6512349552776,253.4635013141804 -25.574320378715516,247.8682056388235 -30.72881100192962,241.63205927323926 -35.04749011080122,234.85843867076866 -38.47680739892273,227.65747010627138 -40.97751284745907,220.1442492662413 -42.525061625705945,212.43700802852823 -43.10978671169836,204.65525754029147 -42.73683959288739,196.9179367063091 -41.42590301768556,189.34159474760003 -39.21068327343042,182.03863559488016 -36.13819281116993,175.11565056188113 -32.26783717189157,168.67186402572557 -27.67032304554636,162.79771475707773 -22.426406871192867,157.57359312880715 -16.625505626752965,153.06875173035363 -10.364193328912163,149.34040397185893 -3.7446082424798934,146.43302212674627 3.1272031345843687,144.37784298556537 10.142978601163858,143.19258593101262 17.193942374400777,142.88138484826672 24.172490091668614,143.43493191025556 30.973830613407216,144.83082797731828 37.49755958162565,147.0341311762947 43.64914110536248,149.99809222410954 49.34127571568297,153.66506228083637 54.495134826398235,157.9675565984012 59.0414443153525,162.82945501026748 62.92140246349697,168.1673184161856 66.08742031028955,173.8917988803286 68.50367545684254,179.90911980083274 70.14647342341898,186.1226018376342 71.00441379505902,192.43420991089536 71.07836151775919,198.74609660515745 70.38122678777997,204.96211772918397 68.93755995974495,210.98929657661802 66.78297073878136,216.7392145904259 63.963383574466775,222.12930763143765 60.53414359974909,227.0840488597056 56.55898962039121,231.53600132386202 52.108912528623094,235.42672568103396 47.2609190624386,238.70753099764528 42.09672203871865,241.34005926632912 36.70137903920179,243.2966970709246 31.161902014306207,244.56081069362438 25.565860387964356,245.12680383878512 20.000000000000018,245.0 14.548899620034932,244.19635427509883 9.29368582301249,242.74200209388465 4.310825751052883,240.6726548242019 -0.3289842756211514,238.0328545250228 -4.561818165167483,234.87510218599724 -8.331393407608555,231.25887560091235 -11.58980656519238,227.2495545419779 -14.298121507479989,222.91727211205858 -16.42680353312962,218.33571203747692 -17.955995127690514,213.58087221487392 -18.87563174372262,208.72981503750032 -19.185398612717762,203.85942490047648 -18.8945321648992,199.04519282778043 -18.021472101771273,194.36004738812204 -16.593372498170616,189.87324998962495 -14.645482469173242,185.64937128630913 -12.22040888949448,181.74736381899083 -9.367275369761108,178.21974417949545 -6.140793150279511,175.11189596339648 -2.600260748329865,172.46150259895248 1.1914899258441976,170.29811684669 5.169182696637073,168.64287139478057 9.266202945725423,167.50833257033202 13.415701631955681,166.89849678639098 17.551679367698533,166.80892698866234 21.61003306386839,167.2270240932678 25.52954858959099,168.13242625398271 29.252824087486,169.49752679853586 32.72711001796918,171.28809985993598 35.90505364847778,173.46402112811657 38.74533752550347,175.98006978325185 41.2132034355964,178.78679656440355 43.28085544084821,181.83144209066583 44.927737728132904,185.0588889968845 46.14068520214783,188.41263117766982 46.91394694246837,191.8357434522182 47.249084797319156,195.27183526397292 47.15475146557813,198.66597260422333 46.64635438938375,201.9655531836786 45.74561361058481,205.12112095292335 44.48002340591423,208.0871073696589 42.882228982187165,210.82248830245402 40.989330761672406,213.29134711907005 38.84212980071673,215.46333630148882 36.484328647620515,217.3140318268085 33.961702449041404,218.82517651907762 31.321255352777847,219.9848105770282 28.610377228214542,220.78728948150396 25.876015438118863,221.23319144955576 23.163875855443735,221.3291184961156 20.517666539155208,221.08739695687305 17.97839648070283,220.52568498761406 13.367481011340674,218.5366487832907 9.583058130882469,215.5900552306727 6.801808079614782,211.96214388321252 5.117578664121511,207.95481993393872 4.540126902211958,203.87249661720827 5.0,200.0 -5.0,200.0 -5.1601856297334825,206.3022984162409 -3.701633979362037,212.66878730219872 -0.6077031739348104,218.67773343168267 4.027355800686452,223.9047513536982 9.998582477418472,227.95208943512094 16.998225077407238,230.47753225433607 20.763078824384344,231.08438514383508 24.631180599997357,231.22088359576338 28.54314301286785,230.8709521075102 32.437211551865445,230.0260848066168 36.25023727507568,228.68568048811537 39.91869549396574,226.85725183388405 43.37973409499119,224.55650265632315 46.5722343343441,221.80726914312527 49.43786641416948,218.64132331794107 51.92212191342159,215.0980392367568 53.9753052118446,211.2239247736478 55.55346641461711,207.07202417308463 56.61925895617066,202.70119881967528 57.142706027629856,198.17529586094912 57.10186122120856,193.5622163763699 56.483350299790445,188.9328966796736 55.28278275918314,184.36021803761992 53.50502382813563,179.91786155495225 51.16431971711425,175.67912618485957 48.28427124746186,171.7157287525381 44.89765343130975,168.09660550698578 41.04608109041,164.88673502811383 36.779523158019074,162.14600230290068 32.15567086003063,159.92812344121378 27.239167477194,158.2796498300933 22.10070980714256,157.23906953121605 16.81603373170185,156.83602242187544 11.464798411794401,157.09064398235867 6.129385541736506,158.01305076440164 0.8936317623342451,159.60297846354615 -4.158486273026784,161.84958119419292 -8.944193589966318,164.73139806532512 -13.383263979794183,168.21649051602583 -17.399350684567562,172.2627511345711 -20.921278800581604,176.81838189669304 -23.88427779428611,181.8225369626582 -26.23113315612502,187.20612241487598 -27.913237201419086,192.89274264356845 -28.891520351861246,198.7997805425513 -29.13724587943973,204.83959630377205 -28.632653044107904,210.920827439069 -27.371435779520716,216.94977074879614 -25.359046545084777,222.831825334023 -22.61281763050544,228.4729744422546 -19.161895030257224,233.78128297151568 -15.046982956078732,238.66838685446197 -10.319900079345938,243.05095031751307 -5.042951643881127,246.85206716850638 0.7118753857030082,250.0025828125493 6.863884023979862,252.44231462583005 13.324792868042776,254.1211496210859 20.000000000000018,255.0 26.789967139956516,255.0515991847722 33.591703813338846,254.26112322556978 40.300329404551675,252.626625059272 46.81068940697863,250.1592719098127 53.019000976617065,246.8833791291611 58.82450207709327,242.83623693458355 64.13107808545605,238.06772975339982 68.84883972277454,232.6397511899016 72.89562658642193,226.62542092798375 76.19841139061155,220.1081131243481 78.69458126013024,213.1803089781867 80.33307405450194,205.94228913247957 81.07534970472123,198.50068431992833 80.89617889470682,190.96690516634175 79.78423408137337,183.4554742628852 77.7424707819554,176.08228547718184 74.78829022137667,168.9628169580308 70.95347777830342,162.21032537126123 66.28391514486717,155.9340495628968 60.83906766803469,150.2374520647738 54.69125191455394,145.2165266283393 47.9246920396653,140.9581992928751 40.634376985614566,137.5388493703643 32.924733833568496,135.02297517328597 24.908135727665282,133.46202734346863 16.703265631126598,132.893430286215 8.433359713560838,133.33980950712322 0.22435636203974402,134.80843962824326 -7.797021382529797,137.29092456971097 -15.505220770844383,140.7631178718562 -22.777821532559237,145.18528745408756 -29.497474683058343,150.50252531694167 -35.55378732181243,156.64539885127144 -40.845123271894295,163.53083658379333 -45.280290368205236,171.06323742183122 -48.78008663075251,179.13578882233554 -51.27867944157498,187.631975859997 -52.72479415493912,196.42725996303489 -53.08269127848527,205.39090317628816 -52.33291442973825,214.38791124868948 -50.47279465338943,223.28106667023022 -47.516700330157164,231.93302104057415 -43.49602576329829,240.20841486963968 -38.45891553555699,247.97599211487568 -32.46972582608619,255.11067646833817 -25.608228000201937,261.4955766289869 -17.968563870200548,267.023888533843 -9.65796600829445,271.6006637696247 -0.7952603093709751,275.1444151299882 8.490828409907564,277.5885325003625 18.063543686863966,278.8824849127474 27.78011051365889,278.9927876796056 37.49386464377507,277.9037169452638 47.05646635056268,275.6177577350114 56.32016522366119,272.15577558095026 65.14008143284269,267.55690599958183 73.37646826012895,261.8781604254518 80.8969206151107,255.19375160148928 87.57849471206059,247.59414582188126 93.30970509895704,239.18485374866106 97.99236677759147,230.08497571034667 101.54325222166635,220.42552137311813 103.89553565904721,210.34752738793375 105.0,200.0"/>
</g>
</svg>