<?xml version="1.0" encoding="UTF-8"?>
<svg xmlns="http://www.w3.org/2000/svg" xmlns:xlink="http://www.w3.org/1999/xlink"
     width="400.0" height="185.1681296441763" viewBox="-196.91833590138674 -92.1417565485362 400.0 185.1681296441763">
<defs>
<style type="text/css">
.l0d0 {stroke: rgb(255, 0, 0); fill: rgb(255, 0, 0); fill-opacity: 0.5;}
</style>
</defs><rect x="-196.91833590138674" y="-92.1417565485362" width="400.0" height="185.1681296441763" fill="none" stroke="none"/>
<g id="polygonal-only_paths_2" transform="scale(1 -1)">
<polygon class="l0d0" points="-97.38058551617873,73.95993836671802 -99.84591679506933,73.95993836671802 -104.77657935285053,24.653312788906007 -92.44992295839752,24.653312788906007"/>
<polygon class="l0d0" points="-134.36055469953774,73.95993836671802 -136.82588597842835,73.95993836671802 -141.75654853620955,24.653312788906007 -129.42989214175654,24.653312788906007"/>
<polygon class="l0d0" points="-171.34052388289675,73.95993836671802 -173.80585516178735,73.95993836671802 -178.73651771956855,24.653312788906007 -166.40986132511554,24.653312788906007"/>
<polygon class="l0d0" points="-166.40986132511554,24.653312788906007 -164.89963680853577,13.724205003724732 -162.6564955820209,3.287680908489636 -159.64244025204852,-6.631365553009186 -155.82067190579156,-15.987476151442594 -151.16480009055056,-24.710012087664463 -145.672019027033,-32.70367366583461 -139.37664900816765,-39.85843459067038 -132.35669481758345,-46.07010005641243 -124.72606029132925,-51.26566545490959 -116.61201377942076,-55.421666519887204 -108.1274030747903,-58.56595702648013 -99.35054765205734,-60.76350736295169 -90.31942980533476,-62.09554661921394 -81.03775482935968,-62.64178765759796 -71.48619621276274,-62.470138877111445 -61.63328197226502,-61.63328197226502 -61.63328197226502,-73.95993836671802 -72.3061531991883,-74.7694936734949 -82.78100729453453,-74.8445549138219 -93.09119568143657,-74.10653208232173 -103.24857866613237,-72.45760040517682 -113.22820978420398,-69.7877317871902 -122.95402617298042,-65.99168717581995 -132.29389528072736,-60.995739012707126 -141.07295714345767,-54.786362382286654 -149.1067225659652,-47.426269580068464 -156.24203968296575,-39.04568605939425 -162.38657485126063,-29.810818797078138 -167.51476494801668,-19.885507165517637 -171.65342571515632,-9.403131429110983 -174.85926283824483,1.5444284433147888 -177.19899160491926,12.904248017299166 -178.73651771956855,24.653312788906007"/>
<polygon class="l0d0" points="-129.42989214175654,24.653312788906007 -129.15463693154632,16.10720499552403 -128.33621267389108,8.190578466793895 -126.98757352422422,0.9043729226425788 -125.1236776699506,-5.755144739495605 -122.75968272750319,-11.798595104461114 -119.90759367819693,-17.245018456532964 -116.57178910707964,-22.121321334268593 -112.74510458436642,-26.45850982319539 -108.40791609543962,-30.28519434590862 -103.53161321770399,-33.620998917025915 -98.08518986563215,-36.47308796633217 -92.04173950066664,-38.83708290877957 -85.38222183852845,-40.700978763053186 -78.09601629437714,-42.04961791272008 -70.179389765647,-42.86804217037529 -61.63328197226502,-43.14329738058551 -61.63328197226502,-55.46995377503852 -70.99934675207255,-55.16739696675875 -79.83926875955197,-54.25238516894401 -88.15398771463025,-52.71196422616098 -95.93977051474167,-50.5311759510047 -103.18599657504582,-47.69486272704224 -109.87362561126362,-44.191019572958666 -115.97575108483771,-40.01526790370617 -121.46136691024064,-35.17477214906963 -126.30186266487719,-29.689156323666687 -130.4776143341297,-23.58703085009261 -133.98145748821327,-16.899401813874782 -136.81777071217573,-9.653175753570649 -138.998558987332,-1.8673929534592197 -140.53897993011503,6.4473260016190475 -141.45399172792978,15.287248009098464 -141.75654853620955,24.653312788906007"/>
<polygon class="l0d0" points="-92.44992295839752,24.653312788906007 -93.40963705455685,18.490204987323327 -94.0159297657613,13.093476025098152 -94.3327067963999,8.440111398294343 -94.42668343410963,4.477186672451383 -94.35456536445584,1.112821878742236 -94.14316832936088,-1.7863632472313185 -93.76692920599163,-4.384208077866813 -93.13351435114939,-6.846919589978356 -92.08977189954999,-9.304723236907657 -90.4512126559872,-11.82033131416463 -88.04297665647398,-14.380218906184215 -84.73293134927593,-16.910658454607454 -80.44501387172211,-19.306410906892427 -75.15427775939457,-21.457448167842198 -68.87258331853126,-23.265945463639135 -61.63328197226502,-24.653312788906007 -61.63328197226502,-36.97996918335901 -69.69254030495681,-35.565300260022596 -76.89753022456942,-33.66021542406613 -83.21677974782392,-31.317396370000225 -88.63096236335097,-28.60475149683258 -93.14378336588764,-25.601993666894288 -96.79322504954686,-22.390351970097374 -99.65760688894808,-19.034796794705205 -101.84977667702363,-15.563181915852594 -103.4970027637892,-11.952043067264906 -104.71318898529363,-8.128375640790967 -105.5763401251659,-3.987984830671433 -106.12077647633475,0.5791556583763405 -106.3436922595077,5.668345522192546 -106.21869702198522,11.350223559923306 -105.70899185094032,17.67024800089776 -104.77657935285053,24.653312788906007"/>
<polygon class="l0d0" points="-61.63328197226502,-61.63328197226502 -61.14988368228647,-61.642624949556925 -60.66648539230792,-61.670512251420625 -60.183087102329374,-61.7165211347866 -59.699688812350814,-61.77995415188192 -59.21629052237227,-61.85984972282746 -58.73289223239372,-61.95499671220874 -58.24949394241517,-62.06395278865424 -57.766095652436626,-62.18506628910877 -57.28269736245808,-62.31650125636174 -56.79929907247952,-62.45626527028701 -56.315900782500975,-62.60223965090107 -55.83250249252242,-62.75221157539192 -55.34910420254388,-62.903907622257215 -54.86570591256533,-63.05502823405692 -54.38230762258679,-63.20328257636004 -53.898909332608234,-63.34642326445938 -53.415511042629674,-63.48228043143297 -52.93211275265113,-63.60879462111464 -52.448714462672584,-63.724048007350284 -51.96531617269404,-63.826293466287424 -51.481917882715486,-63.913981060991816 -50.99851959273693,-63.985781536911574 -50.51512130275838,-64.04060647202114 -50.031723012779835,-64.07762477618971 -49.54832472280129,-64.09627528966045 -49.06492643282274,-64.09627528966045 -48.58152814284419,-64.07762477618971 -48.09812985286564,-64.04060647202114 -47.614731562887094,-63.985781536911574 -47.13133327290854,-63.913981060991816 -46.64793498292999,-63.826293466287424 -46.164536692951444,-63.724048007350284 -45.6811384029729,-63.60879462111464 -45.19774011299435,-63.48228043143297 -44.71434182301579,-63.34642326445938 -44.23094353303725,-63.20328257636004 -43.7475452430587,-63.05502823405692 -43.26414695308015,-62.903907622257215 -42.780748663101605,-62.75221157539192 -42.29735037312305,-62.60223965090107 -41.81395208314451,-62.45626527028701 -41.330553793165954,-62.31650125636174 -40.8471555031874,-62.18506628910877 -40.36375721320886,-62.06395278865424 -39.880358923230304,-61.95499671220874 -39.39696063325176,-61.85984972282746 -38.913562343273206,-61.77995415188192 -38.43016405329466,-61.7165211347866 -37.94676576331611,-61.670512251420625 -37.463367473337556,-61.642624949556925 -36.97996918335901,-61.63328197226502 -36.496570893380465,-61.642624949556925 -36.01317260340191,-61.670512251420625 -35.52977431342336,-61.7165211347866 -35.04637602344481,-61.77995415188192 -34.56297773346626,-61.85984972282746 -34.07957944348772,-61.95499671220874 -33.596181153509164,-62.06395278865424 -33.11278286353061,-62.18506628910877 -32.629384573552066,-62.31650125636174 -32.14598628357352,-62.45626527028701 -31.662587993594972,-62.60223965090107 -31.17918970361642,-62.75221157539192 -30.69579141363787,-62.903907622257215 -30.212393123659325,-63.05502823405692 -29.728994833680776,-63.20328257636004 -29.245596543702224,-63.34642326445938 -28.762198253723678,-63.48228043143297 -28.27879996374513,-63.60879462111463 -27.795401673766577,-63.724048007350284 -27.312003383788028,-63.826293466287424 -26.828605093809482,-63.913981060991816 -26.345206803830933,-63.985781536911574 -25.861808513852388,-64.04060647202114 -25.37841022387383,-64.07762477618971 -24.89501193389528,-64.09627528966045 -24.411613643916734,-64.09627528966045 -23.92821535393818,-64.07762477618971 -23.444817063959633,-64.04060647202114 -22.961418773981084,-63.985781536911574 -22.47802048400254,-63.913981060991816 -21.99462219402399,-63.826293466287424 -21.511223904045437,-63.724048007350284 -21.02782561406689,-63.60879462111464 -20.544427324088343,-63.48228043143297 -20.061029034109783,-63.34642326445938 -19.577630744131238,-63.20328257636004 -19.09423245415269,-63.05502823405692 -18.610834164174143,-62.903907622257215 -18.127435874195594,-62.75221157539192 -17.644037584217042,-62.60223965090107 -17.160639294238493,-62.45626527028701 -16.677241004259947,-62.31650125636174 -16.193842714281395,-62.18506628910877 -15.710444424302846,-62.06395278865424 -15.227046134324299,-61.95499671220874 -14.743647844345752,-61.85984972282746 -14.260249554367205,-61.77995415188192 -14.260249554367205,-73.81326618710112 -14.743647844345752,-73.73337061615558 -15.227046134324299,-73.63822362677429 -15.710444424302846,-73.5292675503288 -16.193842714281395,-73.40815404987427 -16.677241004259947,-73.2767190826213 -17.160639294238493,-73.13695506869603 -17.644037584217042,-72.99098068808196 -18.127435874195594,-72.84100876359112 -18.610834164174143,-72.68931271672582 -19.09423245415269,-72.53819210492611 -19.577630744131238,-72.38993776262299 -20.061029034109783,-72.24679707452366 -20.544427324088343,-72.11093990755006 -21.02782561406689,-71.98442571786839 -21.511223904045437,-71.86917233163275 -21.99462219402399,-71.76692687269562 -22.47802048400254,-71.67923927799123 -22.961418773981084,-71.60743880207147 -23.444817063959633,-71.5526138669619 -23.92821535393818,-71.51559556279332 -24.411613643916734,-71.49694504932258 -24.89501193389528,-71.49694504932258 -25.37841022387383,-71.51559556279332 -25.861808513852388,-71.5526138669619 -26.345206803830933,-71.60743880207147 -26.828605093809482,-71.67923927799123 -27.312003383788028,-71.76692687269562 -27.795401673766577,-71.86917233163275 -28.27879996374513,-71.9844257178684 -28.762198253723678,-72.11093990755006 -29.245596543702224,-72.24679707452366 -29.728994833680776,-72.38993776262299 -30.212393123659325,-72.53819210492611 -30.69579141363787,-72.68931271672582 -31.17918970361642,-72.84100876359112 -31.662587993594972,-72.99098068808196 -32.14598628357352,-73.13695506869603 -32.629384573552066,-73.2767190826213 -33.11278286353061,-73.40815404987427 -33.596181153509164,-73.5292675503288 -34.07957944348772,-73.63822362677429 -34.56297773346626,-73.73337061615558 -35.04637602344481,-73.81326618710112 -35.52977431342336,-73.87669920419643 -36.01317260340191,-73.92270808756241 -36.496570893380465,-73.95059538942611 -36.97996918335901,-73.95993836671802 -37.463367473337556,-73.95059538942611 -37.94676576331611,-73.92270808756241 -38.43016405329466,-73.87669920419643 -38.913562343273206,-73.81326618710112 -39.39696063325176,-73.73337061615558 -39.880358923230304,-73.63822362677429 -40.36375721320886,-73.5292675503288 -40.8471555031874,-73.40815404987427 -41.330553793165954,-73.2767190826213 -41.81395208314451,-73.13695506869603 -42.29735037312305,-72.99098068808196 -42.780748663101605,-72.84100876359112 -43.26414695308015,-72.68931271672582 -43.7475452430587,-72.53819210492611 -44.23094353303725,-72.38993776262299 -44.71434182301579,-72.24679707452366 -45.19774011299435,-72.11093990755006 -45.6811384029729,-71.98442571786839 -46.164536692951444,-71.86917233163275 -46.64793498292999,-71.76692687269562 -47.13133327290854,-71.67923927799123 -47.614731562887094,-71.60743880207147 -48.09812985286564,-71.5526138669619 -48.58152814284419,-71.51559556279332 -49.06492643282274,-71.49694504932258 -49.54832472280129,-71.49694504932258 -50.031723012779835,-71.51559556279332 -50.51512130275838,-71.5526138669619 -50.99851959273693,-71.60743880207147 -51.481917882715486,-71.67923927799123 -51.96531617269404,-71.76692687269562 -52.448714462672584,-71.86917233163275 -52.93211275265113,-71.98442571786839 -53.415511042629674,-72.11093990755006 -53.898909332608234,-72.24679707452366 -54.38230762258679,-72.38993776262299 -54.86570591256533,-72.53819210492611 -55.34910420254388,-72.68931271672582 -55.83250249252242,-72.84100876359112 -56.315900782500975,-72.99098068808196 -56.79929907247952,-73.13695506869603 -57.28269736245808,-73.2767190826213 -57.766095652436626,-73.40815404987427 -58.24949394241517,-73.5292675503288 -58.73289223239372,-73.63822362677429 -59.21629052237227,-73.73337061615558 -59.699688812350814,-73.81326618710112 -60.183087102329374,-73.87669920419643 -60.66648539230792,-73.92270808756241 -61.14988368228647,-73.95059538942611 -61.63328197226502,-73.95993836671802"/>
<polygon class="l0d0" points="-61.63328197226502,-43.14329738058551 -61.14988368228647,-43.152640357877424 -60.66648539230792,-43.180527659741124 -60.183087102329374,-43.22653654310711 -59.699688812350814,-43.28996956020242 -59.21629052237227,-43.36986513114795 -58.73289223239372,-43.46501212052923 -58.24949394241517,-43.57396819697473 -57.766095652436626,-43.69508169742926 -57.28269736245808,-43.82651666468223 -56.79929907247952,-43.966280678607504 -56.315900782500975,-44.11225505922157 -55.83250249252242,-44.26222698371241 -55.34910420254388,-44.41392303057771 -54.86570591256533,-44.56504364237742 -54.38230762258679,-44.71329798468053 -53.898909332608234,-44.85643867277987 -53.415511042629674,-44.99229583975346 -52.93211275265113,-45.11881002943513 -52.448714462672584,-45.23406341567078 -51.96531617269404,-45.33630887460791 -51.481917882715486,-45.42399646931231 -50.99851959273693,-45.49579694523207 -50.51512130275838,-45.55062188034164 -50.031723012779835,-45.5876401845102 -49.54832472280129,-45.606290697980945 -49.06492643282274,-45.606290697980945 -48.58152814284419,-45.5876401845102 -48.09812985286564,-45.55062188034164 -47.614731562887094,-45.49579694523207 -47.13133327290854,-45.42399646931231 -46.64793498292999,-45.33630887460791 -46.164536692951444,-45.23406341567078 -45.6811384029729,-45.11881002943514 -45.19774011299435,-44.99229583975346 -44.71434182301579,-44.85643867277987 -44.23094353303725,-44.71329798468053 -43.7475452430587,-44.56504364237742 -43.26414695308015,-44.41392303057771 -42.780748663101605,-44.26222698371241 -42.29735037312305,-44.11225505922157 -41.81395208314451,-43.966280678607504 -41.330553793165954,-43.82651666468223 -40.8471555031874,-43.69508169742926 -40.36375721320886,-43.57396819697473 -39.880358923230304,-43.46501212052923 -39.39696063325176,-43.36986513114795 -38.913562343273206,-43.28996956020242 -38.43016405329466,-43.22653654310711 -37.94676576331611,-43.180527659741124 -37.463367473337556,-43.152640357877424 -36.97996918335901,-43.14329738058551 -36.496570893380465,-43.152640357877424 -36.01317260340191,-43.180527659741124 -35.52977431342336,-43.22653654310711 -35.04637602344481,-43.28996956020242 -34.56297773346626,-43.36986513114795 -34.07957944348772,-43.46501212052923 -33.596181153509164,-43.57396819697473 -33.11278286353061,-43.69508169742926 -32.629384573552066,-43.82651666468223 -32.14598628357352,-43.966280678607504 -31.662587993594972,-44.11225505922157 -31.17918970361642,-44.26222698371241 -30.69579141363787,-44.41392303057771 -30.212393123659325,-44.56504364237742 -29.728994833680776,-44.71329798468053 -29.245596543702224,-44.85643867277987 -28.762198253723678,-44.99229583975346 -28.27879996374513,-45.11881002943513 -27.795401673766577,-45.23406341567078 -27.312003383788028,-45.33630887460791 -26.828605093809482,-45.42399646931231 -26.345206803830933,-45.49579694523207 -25.861808513852388,-45.55062188034163 -25.37841022387383,-45.5876401845102 -24.89501193389528,-45.606290697980945 -24.411613643916734,-45.606290697980945 -23.92821535393818,-45.5876401845102 -23.444817063959633,-45.55062188034164 -22.961418773981084,-45.49579694523207 -22.47802048400254,-45.42399646931231 -21.99462219402399,-45.33630887460791 -21.511223904045437,-45.23406341567078 -21.02782561406689,-45.11881002943514 -20.544427324088343,-44.99229583975347 -20.061029034109783,-44.85643867277987 -19.577630744131238,-44.71329798468053 -19.09423245415269,-44.56504364237742 -18.610834164174143,-44.41392303057771 -18.127435874195594,-44.26222698371241 -17.644037584217042,-44.112255059221575 -17.160639294238493,-43.966280678607504 -16.677241004259947,-43.82651666468223 -16.193842714281395,-43.69508169742926 -15.710444424302846,-43.57396819697473 -15.227046134324299,-43.46501212052923 -14.743647844345752,-43.36986513114795 -14.260249554367205,-43.28996956020242 -14.260249554367205,-55.32328159542161 -14.743647844345752,-55.243386024476074 -15.227046134324299,-55.14823903509479 -15.710444424302846,-55.039282958649295 -16.193842714281395,-54.91816945819477 -16.677241004259947,-54.7867344909418 -17.160639294238493,-54.646970477016524 -17.644037584217042,-54.50099609640246 -18.127435874195594,-54.35102417191162 -18.610834164174143,-54.199328125046314 -19.09423245415269,-54.04820751324661 -19.577630744131238,-53.89995317094349 -20.061029034109783,-53.756812482844154 -20.544427324088343,-53.62095531587056 -21.02782561406689,-53.49444112618889 -21.511223904045437,-53.379187739953245 -21.99462219402399,-53.27694228101612 -22.47802048400254,-53.18925468631172 -22.961418773981084,-53.11745421039196 -23.444817063959633,-53.0626292752824 -23.92821535393818,-53.025610971113835 -24.411613643916734,-53.006960457643075 -24.89501193389528,-53.006960457643075 -25.37841022387383,-53.025610971113835 -25.861808513852388,-53.0626292752824 -26.345206803830933,-53.11745421039196 -26.828605093809482,-53.18925468631172 -27.312003383788028,-53.27694228101612 -27.795401673766577,-53.379187739953245 -28.27879996374513,-53.49444112618889 -28.762198253723678,-53.62095531587056 -29.245596543702224,-53.756812482844154 -29.728994833680776,-53.899953170943505 -30.212393123659325,-54.04820751324661 -30.69579141363787,-54.199328125046314 -31.17918970361642,-54.35102417191162 -31.662587993594972,-54.50099609640246 -32.14598628357352,-54.646970477016524 -32.629384573552066,-54.786734490941804 -33.11278286353061,-54.91816945819477 -33.596181153509164,-55.039282958649295 -34.07957944348772,-55.14823903509479 -34.56297773346626,-55.243386024476074 -35.04637602344481,-55.32328159542161 -35.52977431342336,-55.38671461251692 -36.01317260340191,-55.43272349588291 -36.496570893380465,-55.460610797746604 -36.97996918335901,-55.46995377503852 -37.463367473337556,-55.460610797746604 -37.94676576331611,-55.43272349588291 -38.43016405329466,-55.38671461251692 -38.913562343273206,-55.32328159542161 -39.39696063325176,-55.243386024476074 -39.880358923230304,-55.14823903509479 -40.36375721320886,-55.039282958649295 -40.8471555031874,-54.91816945819477 -41.330553793165954,-54.7867344909418 -41.81395208314451,-54.646970477016524 -42.29735037312305,-54.50099609640246 -42.780748663101605,-54.35102417191162 -43.26414695308015,-54.199328125046314 -43.7475452430587,-54.04820751324661 -44.23094353303725,-53.89995317094349 -44.71434182301579,-53.756812482844154 -45.19774011299435,-53.62095531587056 -45.6811384029729,-53.49444112618889 -46.164536692951444,-53.379187739953245 -46.64793498292999,-53.27694228101612 -47.13133327290854,-53.18925468631172 -47.614731562887094,-53.11745421039196 -48.09812985286564,-53.0626292752824 -48.58152814284419,-53.025610971113835 -49.06492643282274,-53.006960457643075 -49.54832472280129,-53.006960457643075 -50.031723012779835,-53.025610971113835 -50.51512130275838,-53.0626292752824 -50.99851959273693,-53.11745421039196 -51.481917882715486,-53.18925468631172 -51.96531617269404,-53.27694228101612 -52.448714462672584,-53.379187739953245 -52.93211275265113,-53.49444112618889 -53.415511042629674,-53.62095531587056 -53.898909332608234,-53.756812482844154 -54.38230762258679,-53.89995317094349 -54.86570591256533,-54.04820751324661 -55.34910420254388,-54.199328125046314 -55.83250249252242,-54.35102417191162 -56.315900782500975,-54.50099609640246 -56.79929907247952,-54.646970477016524 -57.28269736245808,-54.7867344909418 -57.766095652436626,-54.91816945819477 -58.24949394241517,-55.039282958649295 -58.73289223239372,-55.14823903509479 -59.21629052237227,-55.243386024476074 -59.699688812350814,-55.32328159542161 -60.183087102329374,-55.38671461251692 -60.66648539230792,-55.43272349588291 -61.14988368228647,-55.460610797746604 -61.63328197226502,-55.46995377503852"/>
<polygon class="l0d0" points="-61.63328197226502,-24.653312788906007 -61.14988368228647,-24.66265576619792 -60.66648539230792,-24.69054306806162 -60.183087102329374,-24.7365519514276 -59.699688812350814,-24.79998496852291 -59.21629052237227,-24.879880539468445 -58.73289223239372,-24.975027528849726 -58.24949394241517,-25.08398360529523 -57.766095652436626,-25.205097105749758 -57.28269736245808,-25.336532073002722 -56.79929907247952,-25.476296086927995 -56.315900782500975,-25.622270467542062 -55.83250249252242,-25.772242392032908 -55.34910420254388,-25.923938438898205 -54.86570591256533,-26.075059050697913 -54.38230762258679,-26.223313393001025 -53.898909332608234,-26.36645408110037 -53.415511042629674,-26.502311248073955 -52.93211275265113,-26.628825437755633 -52.448714462672584,-26.744078823991277 -51.96531617269404,-26.846324282928407 -51.481917882715486,-26.934011877632805 -50.99851959273693,-27.00581235355257 -50.51512130275838,-27.06063728866213 -50.031723012779835,-27.097655592830694 -49.54832472280129,-27.11630610630144 -49.06492643282274,-27.11630610630144 -48.58152814284419,-27.097655592830694 -48.09812985286564,-27.06063728866213 -47.614731562887094,-27.00581235355257 -47.13133327290854,-26.934011877632805 -46.64793498292999,-26.846324282928407 -46.164536692951444,-26.744078823991277 -45.6811384029729,-26.628825437755633 -45.19774011299435,-26.502311248073955 -44.71434182301579,-26.36645408110037 -44.23094353303725,-26.223313393001025 -43.7475452430587,-26.075059050697913 -43.26414695308015,-25.923938438898205 -42.780748663101605,-25.772242392032908 -42.29735037312305,-25.622270467542062 -41.81395208314451,-25.476296086927995 -41.330553793165954,-25.336532073002722 -40.8471555031874,-25.205097105749758 -40.36375721320886,-25.08398360529523 -39.880358923230304,-24.975027528849726 -39.39696063325176,-24.879880539468445 -38.913562343273206,-24.79998496852291 -38.43016405329466,-24.7365519514276 -37.94676576331611,-24.69054306806162 -37.463367473337556,-24.66265576619792 -36.97996918335901,-24.653312788906007 -36.496570893380465,-24.66265576619792 -36.01317260340191,-24.69054306806162 -35.52977431342336,-24.7365519514276 -35.04637602344481,-24.79998496852291 -34.56297773346626,-24.879880539468445 -34.07957944348772,-24.975027528849726 -33.596181153509164,-25.08398360529523 -33.11278286353061,-25.205097105749758 -32.629384573552066,-25.336532073002722 -32.14598628357352,-25.476296086927995 -31.662587993594972,-25.622270467542062 -31.17918970361642,-25.772242392032908 -30.69579141363787,-25.923938438898205 -30.212393123659325,-26.075059050697913 -29.728994833680776,-26.223313393001025 -29.245596543702224,-26.36645408110037 -28.762198253723678,-26.502311248073955 -28.27879996374513,-26.628825437755626 -27.795401673766577,-26.744078823991277 -27.312003383788028,-26.846324282928407 -26.828605093809482,-26.934011877632805 -26.345206803830933,-27.00581235355257 -25.861808513852388,-27.06063728866213 -25.37841022387383,-27.097655592830694 -24.89501193389528,-27.11630610630144 -24.411613643916734,-27.11630610630144 -23.92821535393818,-27.097655592830694 -23.444817063959633,-27.06063728866213 -22.961418773981084,-27.00581235355257 -22.47802048400254,-26.934011877632805 -21.99462219402399,-26.846324282928407 -21.511223904045437,-26.744078823991277 -21.02782561406689,-26.628825437755633 -20.544427324088343,-26.502311248073962 -20.061029034109783,-26.36645408110037 -19.577630744131238,-26.223313393001025 -19.09423245415269,-26.075059050697913 -18.610834164174143,-25.923938438898205 -18.127435874195594,-25.772242392032908 -17.644037584217042,-25.622270467542062 -17.160639294238493,-25.476296086927995 -16.677241004259947,-25.336532073002722 -16.193842714281395,-25.205097105749758 -15.710444424302846,-25.08398360529523 -15.227046134324299,-24.975027528849726 -14.743647844345752,-24.87988053946845 -14.260249554367205,-24.799984968522914 -14.260249554367205,-36.8332970037421 -14.743647844345752,-36.753401432796565 -15.227046134324299,-36.658254443415295 -15.710444424302846,-36.549298366969786 -16.193842714281395,-36.42818486651526 -16.677241004259947,-36.296749899262295 -17.160639294238493,-36.15698588533702 -17.644037584217042,-36.01101150472296 -18.127435874195594,-35.86103958023211 -18.610834164174143,-35.70934353336681 -19.09423245415269,-35.55822292156711 -19.577630744131238,-35.409968579263996 -20.061029034109783,-35.266827891164645 -20.544427324088343,-35.13097072419106 -21.02782561406689,-35.00445653450939 -21.511223904045437,-34.889203148273744 -21.99462219402399,-34.78695768933661 -22.47802048400254,-34.69927009463221 -22.961418773981084,-34.627469618712446 -23.444817063959633,-34.57264468360289 -23.92821535393818,-34.535626379434326 -24.411613643916734,-34.51697586596358 -24.89501193389528,-34.51697586596358 -25.37841022387383,-34.535626379434326 -25.861808513852388,-34.57264468360289 -26.345206803830933,-34.627469618712446 -26.828605093809482,-34.69927009463221 -27.312003383788028,-34.78695768933661 -27.795401673766577,-34.889203148273744 -28.27879996374513,-35.00445653450939 -28.762198253723678,-35.13097072419106 -29.245596543702224,-35.266827891164645 -29.728994833680776,-35.409968579263996 -30.212393123659325,-35.55822292156711 -30.69579141363787,-35.70934353336681 -31.17918970361642,-35.86103958023211 -31.662587993594972,-36.01101150472296 -32.14598628357352,-36.15698588533702 -32.629384573552066,-36.296749899262295 -33.11278286353061,-36.42818486651526 -33.596181153509164,-36.549298366969786 -34.07957944348772,-36.658254443415295 -34.56297773346626,-36.75340143279657 -35.04637602344481,-36.83329700374211 -35.52977431342336,-36.89673002083742 -36.01317260340191,-36.942738904203395 -36.496570893380465,-36.9706262060671 -36.97996918335901,-36.97996918335901 -37.463367473337556,-36.9706262060671 -37.94676576331611,-36.942738904203395 -38.43016405329466,-36.89673002083742 -38.913562343273206,-36.83329700374211 -39.39696063325176,-36.75340143279657 -39.880358923230304,-36.658254443415295 -40.36375721320886,-36.549298366969786 -40.8471555031874,-36.42818486651526 -41.330553793165954,-36.296749899262295 -41.81395208314451,-36.15698588533702 -42.29735037312305,-36.01101150472296 -42.780748663101605,-35.86103958023211 -43.26414695308015,-35.70934353336681 -43.7475452430587,-35.55822292156711 -44.23094353303725,-35.409968579263996 -44.71434182301579,-35.266827891164645 -45.19774011299435,-35.13097072419106 -45.6811384029729,-35.00445653450939 -46.164536692951444,-34.889203148273744 -46.64793498292999,-34.78695768933661 -47.13133327290854,-34.69927009463221 -47.614731562887094,-34.627469618712446 -48.09812985286564,-34.57264468360289 -48.58152814284419,-34.535626379434326 -49.06492643282274,-34.51697586596358 -49.54832472280129,-34.51697586596358 -50.031723012779835,-34.535626379434326 -50.51512130275838,-34.57264468360289 -50.99851959273693,-34.627469618712446 -51.481917882715486,-34.69927009463221 -51.96531617269404,-34.78695768933661 -52.448714462672584,-34.889203148273744 -52.93211275265113,-35.00445653450939 -53.415511042629674,-35.13097072419106 -53.898909332608234,-35.266827891164645 -54.38230762258679,-35.409968579263996 -54.86570591256533,-35.55822292156711 -55.34910420254388,-35.70934353336681 -55.83250249252242,-35.86103958023211 -56.315900782500975,-36.01101150472296 -56.79929907247952,-36.15698588533702 -57.28269736245808,-36.296749899262295 -57.766095652436626,-36.42818486651526 -58.24949394241517,-36.549298366969786 -58.73289223239372,-36.658254443415295 -59.21629052237227,-36.75340143279657 -59.699688812350814,-36.83329700374211 -60.183087102329374,-36.89673002083742 -60.66648539230792,-36.942738904203395 -61.14988368228647,-36.9706262060671 -61.63328197226502,-36.97996918335901"/>
<polygon class="l0d0" points="-14.260249554367205,-61.77995415188192 -13.776851264388652,-61.7165211347866 -13.293452974410103,-61.670512251420625 -12.810054684431556,-61.642624949556925 -12.326656394453003,-61.63328197226502 -11.843258104474456,-61.642624949556925 -11.359859814495909,-61.670512251420625 -10.876461524517362,-61.7165211347866 -10.393063234538813,-61.77995415188192 -9.909664944560255,-61.85984972282746 -9.426266654581708,-61.95499671220874 -8.94286836460316,-62.06395278865424 -8.459470074624601,-62.18506628910877 -7.976071784646055,-62.31650125636174 -7.492673494667507,-62.45626527028701 -7.00927520468896,-62.60223965090107 -6.5258769147104125,-62.75221157539192 -6.0424786247318645,-62.903907622257215 -5.559080334753317,-63.05502823405692 -5.07568204477477,-63.20328257636004 -4.592283754796211,-63.34642326445938 -4.108885464817664,-63.48228043143297 -3.6254871748391166,-63.60879462111463 -3.1420888848605695,-63.724048007350284 -2.658690594882022,-63.82629346628741 -2.1752923049034742,-63.913981060991816 -1.691894014924927,-63.985781536911574 -1.2084957249463795,-64.04060647202114 -0.7250974349678212,-64.07762477618971 -0.24169914498927372,-64.09627528966045 0.24169914498927372,-64.09627528966045 0.7250974349678212,-64.07762477618971 1.2084957249463686,-64.04060647202114 1.691894014924916,-63.985781536911574 2.1752923049034636,-63.913981060991816 2.658690594882022,-63.826293466287424 3.1420888848605695,-63.724048007350284 3.6254871748391166,-63.60879462111464 4.108885464817664,-63.48228043143297 4.592283754796211,-63.34642326445938 5.075682044774759,-63.20328257636004 5.559080334753307,-63.055028234056934 6.0424786247318645,-62.903907622257215 6.5258769147104125,-62.75221157539192 7.00927520468896,-62.60223965090107 7.492673494667507,-62.45626527028701 7.976071784646055,-62.31650125636174 8.459470074624601,-62.18506628910877 8.94286836460315,-62.06395278865424 9.426266654581697,-61.95499671220874 9.909664944560244,-61.85984972282746 10.393063234538813,-61.77995415188192 10.876461524517362,-61.7165211347866 11.359859814495909,-61.670512251420625 11.843258104474456,-61.642624949556925 12.326656394453003,-61.63328197226502 12.81005468443155,-61.642624949556925 13.293452974410098,-61.670512251420625 13.776851264388657,-61.7165211347866 14.260249554367205,-61.77995415188192 14.743647844345752,-61.85984972282746 15.227046134324299,-61.95499671220874 15.710444424302846,-62.06395278865424 16.193842714281395,-62.18506628910877 16.67724100425994,-62.31650125636174 17.16063929423849,-62.45626527028701 17.644037584217035,-62.60223965090107 18.127435874195594,-62.75221157539192 18.610834164174143,-62.903907622257215 19.09423245415269,-63.05502823405692 19.577630744131238,-63.203282576360024 20.061029034109783,-63.34642326445938 20.544427324088332,-63.48228043143296 21.02782561406688,-63.60879462111463 21.511223904045448,-63.724048007350284 21.994622194023997,-63.826293466287424 22.478020484002542,-63.913981060991816 22.96141877398109,-63.985781536911574 23.44481706395964,-64.04060647202114 23.928215353938185,-64.07762477618971 24.411613643916734,-64.09627528966045 24.89501193389528,-64.09627528966045 25.37841022387383,-64.07762477618971 25.861808513852388,-64.04060647202114 26.345206803830933,-63.985781536911574 26.828605093809482,-63.913981060991816 27.312003383788028,-63.826293466287424 27.795401673766577,-63.724048007350284 28.278799963745122,-63.60879462111464 28.76219825372367,-63.48228043143297 29.24559654370223,-63.34642326445938 29.728994833680776,-63.20328257636004 30.212393123659325,-63.05502823405692 30.69579141363787,-62.903907622257215 31.17918970361642,-62.75221157539192 31.66258799359497,-62.60223965090108 32.145986283573514,-62.45626527028701 32.62938457355206,-62.31650125636174 33.11278286353061,-62.18506628910877 33.11278286353061,-73.40815404987427 32.62938457355206,-73.2767190826213 32.145986283573514,-73.13695506869603 31.66258799359497,-72.99098068808196 31.17918970361642,-72.84100876359112 30.69579141363787,-72.68931271672582 30.212393123659325,-72.53819210492611 29.728994833680776,-72.38993776262299 29.24559654370223,-72.24679707452366 28.76219825372367,-72.11093990755006 28.278799963745122,-71.98442571786839 27.795401673766577,-71.86917233163275 27.312003383788028,-71.76692687269562 26.828605093809482,-71.67923927799123 26.345206803830933,-71.60743880207147 25.861808513852388,-71.5526138669619 25.37841022387383,-71.51559556279332 24.89501193389528,-71.49694504932258 24.411613643916734,-71.49694504932258 23.928215353938185,-71.51559556279332 23.44481706395964,-71.5526138669619 22.96141877398109,-71.60743880207147 22.478020484002542,-71.67923927799123 21.994622194023997,-71.76692687269562 21.511223904045448,-71.86917233163275 21.02782561406688,-71.9844257178684 20.544427324088332,-72.11093990755008 20.061029034109783,-72.24679707452366 19.577630744131238,-72.389937762623 19.09423245415269,-72.53819210492611 18.610834164174143,-72.68931271672582 18.127435874195594,-72.84100876359112 17.644037584217035,-72.99098068808196 17.16063929423849,-73.13695506869603 16.67724100425994,-73.2767190826213 16.193842714281395,-73.40815404987427 15.710444424302846,-73.5292675503288 15.227046134324299,-73.63822362677429 14.743647844345752,-73.73337061615558 14.260249554367205,-73.81326618710112 13.776851264388657,-73.87669920419643 13.293452974410098,-73.92270808756241 12.81005468443155,-73.95059538942611 12.326656394453003,-73.95993836671802 11.843258104474456,-73.95059538942611 11.359859814495909,-73.92270808756241 10.876461524517362,-73.87669920419643 10.393063234538813,-73.81326618710112 9.909664944560244,-73.73337061615558 9.426266654581697,-73.63822362677429 8.94286836460315,-73.5292675503288 8.459470074624601,-73.40815404987427 7.976071784646055,-73.2767190826213 7.492673494667507,-73.13695506869603 7.00927520468896,-72.99098068808196 6.5258769147104125,-72.84100876359112 6.0424786247318645,-72.68931271672582 5.559080334753307,-72.5381921049261 5.075682044774759,-72.38993776262299 4.592283754796211,-72.24679707452366 4.108885464817664,-72.11093990755006 3.6254871748391166,-71.98442571786839 3.1420888848605695,-71.86917233163275 2.658690594882022,-71.76692687269562 2.1752923049034636,-71.67923927799123 1.691894014924916,-71.60743880207147 1.2084957249463686,-71.5526138669619 0.7250974349678212,-71.51559556279332 0.24169914498927372,-71.49694504932258 -0.24169914498927372,-71.49694504932258 -0.7250974349678212,-71.51559556279332 -1.2084957249463795,-71.5526138669619 -1.691894014924927,-71.60743880207147 -2.1752923049034742,-71.67923927799123 -2.658690594882022,-71.76692687269562 -3.1420888848605695,-71.86917233163275 -3.6254871748391166,-71.9844257178684 -4.108885464817664,-72.11093990755006 -4.592283754796211,-72.24679707452366 -5.07568204477477,-72.38993776262299 -5.559080334753317,-72.53819210492611 -6.0424786247318645,-72.68931271672582 -6.5258769147104125,-72.84100876359112 -7.00927520468896,-72.99098068808196 -7.492673494667507,-73.13695506869603 -7.976071784646055,-73.2767190826213 -8.459470074624601,-73.40815404987427 -8.94286836460316,-73.5292675503288 -9.426266654581708,-73.63822362677429 -9.909664944560255,-73.73337061615558 -10.393063234538813,-73.81326618710112 -10.876461524517362,-73.87669920419643 -11.359859814495909,-73.92270808756241 -11.843258104474456,-73.95059538942611 -12.326656394453003,-73.95993836671802 -12.810054684431556,-73.95059538942611 -13.293452974410103,-73.92270808756241 -13.776851264388652,-73.87669920419643 -14.260249554367205,-73.81326618710112"/>
<polygon class="l0d0" points="-14.260249554367205,-43.28996956020242 -13.776851264388652,-43.22653654310711 -13.293452974410103,-43.180527659741124 -12.810054684431556,-43.152640357877424 -12.326656394453003,-43.14329738058551 -11.843258104474456,-43.152640357877424 -11.359859814495909,-43.180527659741124 -10.876461524517362,-43.22653654310711 -10.393063234538813,-43.289969560202415 -9.909664944560255,-43.36986513114795 -9.426266654581708,-43.46501212052923 -8.94286836460316,-43.57396819697473 -8.459470074624601,-43.69508169742926 -7.976071784646055,-43.82651666468223 -7.492673494667507,-43.966280678607504 -7.00927520468896,-44.11225505922157 -6.5258769147104125,-44.26222698371241 -6.0424786247318645,-44.41392303057771 -5.559080334753317,-44.56504364237742 -5.07568204477477,-44.71329798468053 -4.592283754796211,-44.85643867277988 -4.108885464817664,-44.99229583975346 -3.6254871748391166,-45.11881002943513 -3.1420888848605695,-45.23406341567078 -2.658690594882022,-45.33630887460791 -2.1752923049034742,-45.42399646931231 -1.691894014924927,-45.49579694523207 -1.2084957249463795,-45.55062188034163 -0.7250974349678212,-45.5876401845102 -0.24169914498927372,-45.606290697980945 0.24169914498927372,-45.606290697980945 0.7250974349678212,-45.5876401845102 1.2084957249463686,-45.55062188034164 1.691894014924916,-45.49579694523207 2.1752923049034636,-45.42399646931231 2.658690594882022,-45.33630887460791 3.1420888848605695,-45.23406341567078 3.6254871748391166,-45.11881002943514 4.108885464817664,-44.99229583975347 4.592283754796211,-44.85643867277988 5.075682044774759,-44.71329798468054 5.559080334753307,-44.565043642377425 6.0424786247318645,-44.41392303057771 6.5258769147104125,-44.26222698371241 7.00927520468896,-44.112255059221575 7.492673494667507,-43.966280678607504 7.976071784646055,-43.82651666468223 8.459470074624601,-43.695081697429266 8.94286836460315,-43.57396819697473 9.426266654581697,-43.46501212052923 9.909664944560244,-43.369865131147954 10.393063234538813,-43.289969560202415 10.876461524517362,-43.22653654310711 11.359859814495909,-43.180527659741124 11.843258104474456,-43.152640357877424 12.326656394453003,-43.14329738058551 12.81005468443155,-43.152640357877424 13.293452974410098,-43.180527659741124 13.776851264388657,-43.22653654310711 14.260249554367205,-43.28996956020242 14.743647844345752,-43.36986513114795 15.227046134324299,-43.46501212052923 15.710444424302846,-43.57396819697473 16.193842714281395,-43.69508169742926 16.67724100425994,-43.82651666468223 17.16063929423849,-43.966280678607504 17.644037584217035,-44.11225505922157 18.127435874195594,-44.26222698371241 18.610834164174143,-44.413923030577706 19.09423245415269,-44.56504364237742 19.577630744131238,-44.71329798468053 20.061029034109783,-44.85643867277987 20.544427324088332,-44.99229583975345 21.02782561406688,-45.11881002943513 21.511223904045448,-45.23406341567078 21.994622194023997,-45.33630887460791 22.478020484002542,-45.42399646931231 22.96141877398109,-45.49579694523207 23.44481706395964,-45.55062188034163 23.928215353938185,-45.5876401845102 24.411613643916734,-45.606290697980945 24.89501193389528,-45.606290697980945 25.37841022387383,-45.5876401845102 25.861808513852388,-45.55062188034164 26.345206803830933,-45.49579694523207 26.828605093809482,-45.42399646931231 27.312003383788028,-45.33630887460791 27.795401673766577,-45.23406341567078 28.278799963745122,-45.11881002943514 28.76219825372367,-44.99229583975347 29.24559654370223,-44.85643867277987 29.728994833680776,-44.71329798468053 30.212393123659325,-44.56504364237742 30.69579141363787,-44.41392303057771 31.17918970361642,-44.26222698371241 31.66258799359497,-44.112255059221575 32.145986283573514,-43.966280678607504 32.62938457355206,-43.82651666468223 33.11278286353061,-43.695081697429266 33.11278286353061,-54.91816945819477 32.62938457355206,-54.7867344909418 32.145986283573514,-54.646970477016524 31.66258799359497,-54.50099609640246 31.17918970361642,-54.35102417191162 30.69579141363787,-54.199328125046314 30.212393123659325,-54.04820751324661 29.728994833680776,-53.89995317094349 29.24559654370223,-53.756812482844154 28.76219825372367,-53.62095531587056 28.278799963745122,-53.49444112618889 27.795401673766577,-53.379187739953245 27.312003383788028,-53.27694228101611 26.828605093809482,-53.18925468631172 26.345206803830933,-53.11745421039196 25.861808513852388,-53.0626292752824 25.37841022387383,-53.02561097111382 24.89501193389528,-53.006960457643075 24.411613643916734,-53.00696045764309 23.928215353938185,-53.025610971113835 23.44481706395964,-53.0626292752824 22.96141877398109,-53.11745421039196 22.478020484002542,-53.18925468631172 21.994622194023997,-53.27694228101612 21.511223904045448,-53.379187739953245 21.02782561406688,-53.4944411261889 20.544427324088332,-53.620955315870575 20.061029034109783,-53.756812482844154 19.577630744131238,-53.899953170943505 19.09423245415269,-54.04820751324661 18.610834164174143,-54.199328125046314 18.127435874195594,-54.35102417191162 17.644037584217035,-54.50099609640246 17.16063929423849,-54.646970477016524 16.67724100425994,-54.786734490941804 16.193842714281395,-54.91816945819477 15.710444424302846,-55.039282958649295 15.227046134324299,-55.14823903509479 14.743647844345752,-55.243386024476074 14.260249554367205,-55.32328159542161 13.776851264388657,-55.38671461251692 13.293452974410098,-55.43272349588291 12.81005468443155,-55.460610797746604 12.326656394453003,-55.46995377503852 11.843258104474456,-55.460610797746604 11.359859814495909,-55.43272349588291 10.876461524517362,-55.38671461251692 10.393063234538813,-55.32328159542161 9.909664944560244,-55.243386024476074 9.426266654581697,-55.14823903509479 8.94286836460315,-55.039282958649295 8.459470074624601,-54.91816945819477 7.976071784646055,-54.7867344909418 7.492673494667507,-54.646970477016524 7.00927520468896,-54.50099609640246 6.5258769147104125,-54.35102417191162 6.0424786247318645,-54.199328125046314 5.559080334753307,-54.048207513246595 5.075682044774759,-53.89995317094349 4.592283754796211,-53.756812482844154 4.108885464817664,-53.62095531587056 3.6254871748391166,-53.49444112618889 3.1420888848605695,-53.379187739953245 2.658690594882022,-53.27694228101611 2.1752923049034636,-53.18925468631172 1.691894014924916,-53.11745421039195 1.2084957249463686,-53.0626292752824 0.7250974349678212,-53.025610971113835 0.24169914498927372,-53.006960457643075 -0.24169914498927372,-53.006960457643075 -0.7250974349678212,-53.025610971113835 -1.2084957249463795,-53.0626292752824 -1.691894014924927,-53.11745421039196 -2.1752923049034742,-53.18925468631172 -2.658690594882022,-53.27694228101612 -3.1420888848605695,-53.379187739953245 -3.6254871748391166,-53.49444112618889 -4.108885464817664,-53.62095531587056 -4.592283754796211,-53.756812482844154 -5.07568204477477,-53.89995317094349 -5.559080334753317,-54.04820751324661 -6.0424786247318645,-54.199328125046314 -6.5258769147104125,-54.35102417191162 -7.00927520468896,-54.50099609640246 -7.492673494667507,-54.646970477016524 -7.976071784646055,-54.7867344909418 -8.459470074624601,-54.91816945819477 -8.94286836460316,-55.039282958649295 -9.426266654581708,-55.148239035094804 -9.909664944560255,-55.243386024476074 -10.393063234538813,-55.32328159542161 -10.876461524517362,-55.386714612516926 -11.359859814495909,-55.43272349588291 -11.843258104474456,-55.460610797746604 -12.326656394453003,-55.46995377503852 -12.810054684431556,-55.460610797746604 -13.293452974410103,-55.43272349588291 -13.776851264388652,-55.386714612516926 -14.260249554367205,-55.32328159542161"/>
<polygon class="l0d0" points="-14.260249554367205,-24.799984968522914 -13.776851264388652,-24.7365519514276 -13.293452974410103,-24.69054306806162 -12.810054684431556,-24.66265576619792 -12.326656394453003,-24.653312788906007 -11.843258104474456,-24.66265576619792 -11.359859814495909,-24.69054306806162 -10.876461524517362,-24.7365519514276 -10.393063234538813,-24.79998496852291 -9.909664944560255,-24.879880539468445 -9.426266654581708,-24.975027528849726 -8.94286836460316,-25.08398360529523 -8.459470074624601,-25.205097105749758 -7.976071784646055,-25.336532073002722 -7.492673494667507,-25.476296086927995 -7.00927520468896,-25.622270467542062 -6.5258769147104125,-25.772242392032908 -6.0424786247318645,-25.923938438898205 -5.559080334753317,-26.075059050697913 -5.07568204477477,-26.223313393001025 -4.592283754796211,-26.36645408110037 -4.108885464817664,-26.502311248073955 -3.6254871748391166,-26.628825437755626 -3.1420888848605695,-26.744078823991277 -2.658690594882022,-26.8463242829284 -2.1752923049034742,-26.934011877632805 -1.691894014924927,-27.00581235355257 -1.2084957249463795,-27.06063728866213 -0.7250974349678212,-27.097655592830694 -0.24169914498927372,-27.11630610630144 0.24169914498927372,-27.11630610630144 0.7250974349678212,-27.097655592830694 1.2084957249463686,-27.060637288662132 1.691894014924916,-27.00581235355257 2.1752923049034636,-26.934011877632805 2.658690594882022,-26.846324282928407 3.1420888848605695,-26.744078823991277 3.6254871748391166,-26.628825437755633 4.108885464817664,-26.502311248073962 4.592283754796211,-26.366454081100375 5.075682044774759,-26.22331339300103 5.559080334753307,-26.075059050697917 6.0424786247318645,-25.923938438898205 6.5258769147104125,-25.772242392032908 7.00927520468896,-25.622270467542062 7.492673494667507,-25.476296086928002 7.976071784646055,-25.336532073002722 8.459470074624601,-25.205097105749758 8.94286836460315,-25.08398360529523 9.426266654581697,-24.97502752884973 9.909664944560244,-24.87988053946845 10.393063234538813,-24.79998496852291 10.876461524517362,-24.7365519514276 11.359859814495909,-24.69054306806162 11.843258104474456,-24.66265576619792 12.326656394453003,-24.653312788906007 12.81005468443155,-24.66265576619792 13.293452974410098,-24.69054306806162 13.776851264388657,-24.7365519514276 14.260249554367205,-24.799984968522914 14.743647844345752,-24.87988053946845 15.227046134324299,-24.975027528849726 15.710444424302846,-25.08398360529523 16.193842714281395,-25.205097105749758 16.67724100425994,-25.336532073002722 17.16063929423849,-25.476296086927995 17.644037584217035,-25.622270467542062 18.127435874195594,-25.772242392032908 18.610834164174143,-25.923938438898205 19.09423245415269,-26.075059050697913 19.577630744131238,-26.223313393001018 20.061029034109783,-26.36645408110037 20.544427324088332,-26.50231124807395 21.02782561406688,-26.628825437755626 21.511223904045448,-26.744078823991277 21.994622194023997,-26.846324282928407 22.478020484002542,-26.934011877632805 22.96141877398109,-27.00581235355257 23.44481706395964,-27.06063728866213 23.928215353938185,-27.097655592830694 24.411613643916734,-27.11630610630144 24.89501193389528,-27.11630610630144 25.37841022387383,-27.097655592830694 25.861808513852388,-27.06063728866213 26.345206803830933,-27.00581235355257 26.828605093809482,-26.934011877632805 27.312003383788028,-26.846324282928407 27.795401673766577,-26.744078823991277 28.278799963745122,-26.628825437755633 28.76219825372367,-26.502311248073962 29.24559654370223,-26.36645408110037 29.728994833680776,-26.223313393001025 30.212393123659325,-26.075059050697913 30.69579141363787,-25.923938438898205 31.17918970361642,-25.772242392032908 31.66258799359497,-25.622270467542066 32.145986283573514,-25.476296086928002 32.62938457355206,-25.336532073002722 33.11278286353061,-25.205097105749758 33.11278286353061,-36.42818486651526 32.62938457355206,-36.296749899262295 32.145986283573514,-36.156985885337015 31.66258799359497,-36.01101150472295 31.17918970361642,-35.86103958023211 30.69579141363787,-35.70934353336681 30.212393123659325,-35.55822292156711 29.728994833680776,-35.409968579263996 29.24559654370223,-35.266827891164645 28.76219825372367,-35.13097072419106 28.278799963745122,-35.00445653450939 27.795401673766577,-34.889203148273744 27.312003383788028,-34.78695768933661 26.828605093809482,-34.69927009463221 26.345206803830933,-34.627469618712446 25.861808513852388,-34.57264468360289 25.37841022387383,-34.535626379434326 24.89501193389528,-34.51697586596358 24.411613643916734,-34.51697586596358 23.928215353938185,-34.535626379434326 23.44481706395964,-34.57264468360289 22.96141877398109,-34.627469618712446 22.478020484002542,-34.69927009463221 21.994622194023997,-34.78695768933661 21.511223904045448,-34.889203148273744 21.02782561406688,-35.00445653450939 20.544427324088332,-35.130970724191066 20.061029034109783,-35.266827891164645 19.577630744131238,-35.409968579264 19.09423245415269,-35.55822292156711 18.610834164174143,-35.70934353336681 18.127435874195594,-35.86103958023211 17.644037584217035,-36.01101150472296 17.16063929423849,-36.15698588533702 16.67724100425994,-36.296749899262295 16.193842714281395,-36.42818486651526 15.710444424302846,-36.549298366969786 15.227046134324299,-36.658254443415295 14.743647844345752,-36.753401432796565 14.260249554367205,-36.8332970037421 13.776851264388657,-36.89673002083742 13.293452974410098,-36.942738904203395 12.81005468443155,-36.9706262060671 12.326656394453003,-36.97996918335901 11.843258104474456,-36.9706262060671 11.359859814495909,-36.942738904203395 10.876461524517362,-36.89673002083742 10.393063234538813,-36.83329700374211 9.909664944560244,-36.753401432796565 9.426266654581697,-36.65825444341529 8.94286836460315,-36.549298366969786 8.459470074624601,-36.42818486651526 7.976071784646055,-36.296749899262295 7.492673494667507,-36.156985885337015 7.00927520468896,-36.01101150472296 6.5258769147104125,-35.86103958023211 6.0424786247318645,-35.70934353336681 5.559080334753307,-35.5582229215671 5.075682044774759,-35.40996857926399 4.592283754796211,-35.266827891164645 4.108885464817664,-35.13097072419106 3.6254871748391166,-35.00445653450939 3.1420888848605695,-34.889203148273744 2.658690594882022,-34.78695768933661 2.1752923049034636,-34.69927009463221 1.691894014924916,-34.627469618712446 1.2084957249463686,-34.57264468360288 0.7250974349678212,-34.535626379434326 0.24169914498927372,-34.51697586596358 -0.24169914498927372,-34.51697586596358 -0.7250974349678212,-34.535626379434326 -1.2084957249463795,-34.57264468360289 -1.691894014924927,-34.627469618712446 -2.1752923049034742,-34.69927009463221 -2.658690594882022,-34.78695768933662 -3.1420888848605695,-34.889203148273744 -3.6254871748391166,-35.00445653450939 -4.108885464817664,-35.13097072419106 -4.592283754796211,-35.266827891164645 -5.07568204477477,-35.409968579263996 -5.559080334753317,-35.55822292156711 -6.0424786247318645,-35.70934353336681 -6.5258769147104125,-35.86103958023211 -7.00927520468896,-36.01101150472296 -7.492673494667507,-36.15698588533702 -7.976071784646055,-36.296749899262295 -8.459470074624601,-36.42818486651526 -8.94286836460316,-36.549298366969786 -9.426266654581708,-36.658254443415295 -9.909664944560255,-36.75340143279657 -10.393063234538813,-36.83329700374211 -10.876461524517362,-36.89673002083742 -11.359859814495909,-36.942738904203395 -11.843258104474456,-36.9706262060671 -12.326656394453003,-36.97996918335901 -12.810054684431556,-36.9706262060671 -13.293452974410103,-36.942738904203395 -13.776851264388652,-36.89673002083742 -14.260249554367205,-36.8332970037421"/>
<polygon class="l0d0" points="33.11278286353061,-62.18506628910877 33.596181153509164,-62.06395278865424 34.07957944348772,-61.95499671220874 34.56297773346626,-61.85984972282746 35.04637602344481,-61.77995415188192 35.52977431342336,-61.71652113478662 36.013172603401905,-61.670512251420625 36.49657089338045,-61.642624949556925 36.97996918335901,-61.63328197226502 37.463367473337556,-61.642624949556925 37.94676576331611,-61.670512251420625 38.430164053294654,-61.7165211347866 38.9135623432732,-61.77995415188192 39.396960633251744,-61.85984972282746 39.8803589232303,-61.954996712208725 40.36375721320884,-62.06395278865424 40.84715550318739,-62.18506628910877 41.33055379316596,-62.31650125636174 41.81395208314451,-62.45626527028701 42.29735037312305,-62.60223965090107 42.780748663101605,-62.75221157539192 43.26414695308015,-62.903907622257215 43.747545243058696,-63.05502823405692 44.23094353303724,-63.203282576360024 44.714341823015815,-63.34642326445938 45.19774011299436,-63.48228043143297 45.681138402972906,-63.60879462111464 46.16453669295146,-63.724048007350284 46.64793498293,-63.826293466287424 47.13133327290855,-63.913981060991816 47.614731562887094,-63.985781536911574 48.09812985286565,-64.04060647202114 48.58152814284419,-64.07762477618971 49.06492643282274,-64.09627528966045 49.54832472280129,-64.09627528966045 50.031723012779835,-64.07762477618971 50.51512130275838,-64.04060647202114 50.99851959273693,-63.985781536911574 51.48191788271548,-63.913981060991816 51.965316172694024,-63.826293466287424 52.44871446267259,-63.724048007350284 52.93211275265114,-63.60879462111464 53.41551104262969,-63.48228043143297 53.898909332608234,-63.34642326445938 54.38230762258679,-63.20328257636004 54.86570591256533,-63.055028234056934 55.34910420254388,-62.903907622257215 55.83250249252242,-62.752211575391925 56.315900782500975,-62.60223965090108 56.79929907247952,-62.45626527028701 57.282697362458066,-62.31650125636174 57.76609565243662,-62.18506628910877 58.249493942415164,-62.06395278865424 58.73289223239371,-61.95499671220874 59.216290522372255,-61.85984972282746 59.69968881235081,-61.77995415188192 60.183087102329374,-61.7165211347866 60.66648539230792,-61.670512251420625 61.14988368228647,-61.642624949556925 61.63328197226502,-61.63328197226502 61.63328197226502,-73.95993836671802 61.14988368228647,-73.95059538942611 60.66648539230792,-73.92270808756241 60.183087102329374,-73.87669920419643 59.69968881235081,-73.81326618710112 59.216290522372255,-73.73337061615558 58.73289223239371,-73.63822362677429 58.249493942415164,-73.5292675503288 57.76609565243662,-73.40815404987427 57.282697362458066,-73.2767190826213 56.79929907247952,-73.13695506869603 56.315900782500975,-72.99098068808196 55.83250249252242,-72.8410087635911 55.34910420254388,-72.68931271672582 54.86570591256533,-72.5381921049261 54.38230762258679,-72.38993776262299 53.898909332608234,-72.24679707452366 53.41551104262969,-72.11093990755006 52.93211275265114,-71.98442571786839 52.44871446267259,-71.86917233163275 51.965316172694024,-71.76692687269562 51.48191788271548,-71.67923927799123 50.99851959273693,-71.60743880207147 50.51512130275838,-71.5526138669619 50.031723012779835,-71.51559556279332 49.54832472280129,-71.49694504932258 49.06492643282274,-71.49694504932258 48.58152814284419,-71.51559556279332 48.09812985286565,-71.5526138669619 47.614731562887094,-71.60743880207147 47.13133327290855,-71.67923927799123 46.64793498293,-71.76692687269562 46.16453669295146,-71.86917233163275 45.681138402972906,-71.98442571786839 45.19774011299436,-72.11093990755006 44.714341823015815,-72.24679707452366 44.23094353303724,-72.389937762623 43.747545243058696,-72.53819210492611 43.26414695308015,-72.68931271672582 42.780748663101605,-72.84100876359112 42.29735037312305,-72.99098068808196 41.81395208314451,-73.13695506869603 41.33055379316596,-73.2767190826213 40.84715550318739,-73.40815404987427 40.36375721320884,-73.5292675503288 39.8803589232303,-73.6382236267743 39.396960633251744,-73.73337061615558 38.9135623432732,-73.81326618710112 38.430164053294654,-73.87669920419643 37.94676576331611,-73.92270808756241 37.463367473337556,-73.95059538942611 36.97996918335901,-73.95993836671802 36.49657089338045,-73.95059538942611 36.013172603401905,-73.92270808756241 35.52977431342336,-73.87669920419643 35.04637602344481,-73.81326618710112 34.56297773346626,-73.73337061615558 34.07957944348772,-73.63822362677429 33.596181153509164,-73.5292675503288 33.11278286353061,-73.40815404987427"/>
<polygon class="l0d0" points="33.11278286353061,-43.695081697429266 33.596181153509164,-43.57396819697473 34.07957944348772,-43.46501212052923 34.56297773346626,-43.36986513114795 35.04637602344481,-43.28996956020242 35.52977431342336,-43.22653654310711 36.013172603401905,-43.180527659741124 36.49657089338045,-43.152640357877424 36.97996918335901,-43.14329738058551 37.463367473337556,-43.152640357877424 37.94676576331611,-43.180527659741124 38.430164053294654,-43.22653654310711 38.9135623432732,-43.289969560202415 39.396960633251744,-43.36986513114795 39.8803589232303,-43.465012120529224 40.36375721320884,-43.57396819697473 40.84715550318739,-43.69508169742926 41.33055379316596,-43.82651666468223 41.81395208314451,-43.966280678607504 42.29735037312305,-44.11225505922157 42.780748663101605,-44.26222698371241 43.26414695308015,-44.413923030577706 43.747545243058696,-44.56504364237742 44.23094353303724,-44.71329798468052 44.714341823015815,-44.85643867277987 45.19774011299436,-44.99229583975346 45.681138402972906,-45.11881002943513 46.16453669295146,-45.23406341567078 46.64793498293,-45.33630887460791 47.13133327290855,-45.42399646931231 47.614731562887094,-45.49579694523207 48.09812985286565,-45.55062188034163 48.58152814284419,-45.5876401845102 49.06492643282274,-45.606290697980945 49.54832472280129,-45.606290697980945 50.031723012779835,-45.5876401845102 50.51512130275838,-45.55062188034164 50.99851959273693,-45.49579694523207 51.48191788271548,-45.42399646931231 51.965316172694024,-45.33630887460791 52.44871446267259,-45.23406341567078 52.93211275265114,-45.11881002943514 53.41551104262969,-44.99229583975347 53.898909332608234,-44.85643867277988 54.38230762258679,-44.71329798468054 54.86570591256533,-44.565043642377425 55.34910420254388,-44.41392303057771 55.83250249252242,-44.26222698371242 56.315900782500975,-44.112255059221575 56.79929907247952,-43.966280678607504 57.282697362458066,-43.82651666468223 57.76609565243662,-43.695081697429266 58.249493942415164,-43.57396819697474 58.73289223239371,-43.46501212052924 59.216290522372255,-43.369865131147954 59.69968881235081,-43.28996956020242 60.183087102329374,-43.22653654310711 60.66648539230792,-43.180527659741124 61.14988368228647,-43.152640357877424 61.63328197226502,-43.14329738058551 61.63328197226502,-55.46995377503852 61.14988368228647,-55.460610797746604 60.66648539230792,-55.43272349588291 60.183087102329374,-55.38671461251692 59.69968881235081,-55.32328159542161 59.216290522372255,-55.243386024476074 58.73289223239371,-55.14823903509479 58.249493942415164,-55.039282958649295 57.76609565243662,-54.91816945819477 57.282697362458066,-54.7867344909418 56.79929907247952,-54.646970477016524 56.315900782500975,-54.50099609640245 55.83250249252242,-54.351024171911604 55.34910420254388,-54.199328125046314 54.86570591256533,-54.048207513246595 54.38230762258679,-53.89995317094349 53.898909332608234,-53.756812482844154 53.41551104262969,-53.62095531587056 52.93211275265114,-53.49444112618889 52.44871446267259,-53.379187739953245 51.965316172694024,-53.27694228101611 51.48191788271548,-53.18925468631172 50.99851959273693,-53.11745421039196 50.51512130275838,-53.0626292752824 50.031723012779835,-53.025610971113835 49.54832472280129,-53.00696045764309 49.06492643282274,-53.006960457643075 48.58152814284419,-53.025610971113835 48.09812985286565,-53.0626292752824 47.614731562887094,-53.11745421039196 47.13133327290855,-53.18925468631172 46.64793498293,-53.27694228101612 46.16453669295146,-53.379187739953245 45.681138402972906,-53.49444112618889 45.19774011299436,-53.62095531587056 44.714341823015815,-53.756812482844154 44.23094353303724,-53.899953170943505 43.747545243058696,-54.04820751324661 43.26414695308015,-54.199328125046314 42.780748663101605,-54.35102417191162 42.29735037312305,-54.50099609640246 41.81395208314451,-54.646970477016524 41.33055379316596,-54.786734490941804 40.84715550318739,-54.91816945819477 40.36375721320884,-55.039282958649295 39.8803589232303,-55.148239035094804 39.396960633251744,-55.24338602447608 38.9135623432732,-55.32328159542161 38.430164053294654,-55.386714612516926 37.94676576331611,-55.43272349588291 37.463367473337556,-55.460610797746604 36.97996918335901,-55.46995377503852 36.49657089338045,-55.460610797746604 36.013172603401905,-55.4327234958829 35.52977431342336,-55.38671461251692 35.04637602344481,-55.32328159542161 34.56297773346626,-55.243386024476074 34.07957944348772,-55.148239035094804 33.596181153509164,-55.039282958649295 33.11278286353061,-54.91816945819477"/>
<polygon class="l0d0" points="33.11278286353061,-25.205097105749758 33.596181153509164,-25.08398360529523 34.07957944348772,-24.975027528849726 34.56297773346626,-24.879880539468445 35.04637602344481,-24.79998496852291 35.52977431342336,-24.736551951427607 36.013172603401905,-24.69054306806162 36.49657089338045,-24.66265576619792 36.97996918335901,-24.653312788906007 37.463367473337556,-24.66265576619792 37.94676576331611,-24.69054306806162 38.430164053294654,-24.7365519514276 38.9135623432732,-24.79998496852291 39.396960633251744,-24.879880539468445 39.8803589232303,-24.97502752884972 40.36375721320884,-25.08398360529523 40.84715550318739,-25.205097105749758 41.33055379316596,-25.336532073002722 41.81395208314451,-25.476296086927995 42.29735037312305,-25.622270467542062 42.780748663101605,-25.772242392032908 43.26414695308015,-25.923938438898205 43.747545243058696,-26.075059050697913 44.23094353303724,-26.223313393001018 44.714341823015815,-26.36645408110037 45.19774011299436,-26.502311248073955 45.681138402972906,-26.628825437755633 46.16453669295146,-26.744078823991277 46.64793498293,-26.846324282928407 47.13133327290855,-26.934011877632805 47.614731562887094,-27.00581235355257 48.09812985286565,-27.06063728866213 48.58152814284419,-27.097655592830694 49.06492643282274,-27.11630610630144 49.54832472280129,-27.11630610630144 50.031723012779835,-27.097655592830694 50.51512130275838,-27.06063728866213 50.99851959273693,-27.00581235355257 51.48191788271548,-26.934011877632805 51.965316172694024,-26.846324282928407 52.44871446267259,-26.744078823991277 52.93211275265114,-26.628825437755633 53.41551104262969,-26.502311248073962 53.898909332608234,-26.366454081100375 54.38230762258679,-26.22331339300103 54.86570591256533,-26.075059050697917 55.34910420254388,-25.923938438898205 55.83250249252242,-25.77224239203291 56.315900782500975,-25.622270467542073 56.79929907247952,-25.476296086928002 57.282697362458066,-25.336532073002722 57.76609565243662,-25.20509710574976 58.249493942415164,-25.08398360529523 58.73289223239371,-24.97502752884973 59.216290522372255,-24.87988053946845 59.69968881235081,-24.799984968522914 60.183087102329374,-24.7365519514276 60.66648539230792,-24.69054306806162 61.14988368228647,-24.66265576619792 61.63328197226502,-24.653312788906007 61.63328197226502,-36.97996918335901 61.14988368228647,-36.9706262060671 60.66648539230792,-36.942738904203395 60.183087102329374,-36.89673002083742 59.69968881235081,-36.8332970037421 59.216290522372255,-36.753401432796565 58.73289223239371,-36.65825444341529 58.249493942415164,-36.549298366969786 57.76609565243662,-36.42818486651525 57.282697362458066,-36.296749899262295 56.79929907247952,-36.156985885337015 56.315900782500975,-36.011011504722944 55.83250249252242,-35.8610395802321 55.34910420254388,-35.70934353336681 54.86570591256533,-35.5582229215671 54.38230762258679,-35.40996857926399 53.898909332608234,-35.266827891164645 53.41551104262969,-35.13097072419106 52.93211275265114,-35.00445653450939 52.44871446267259,-34.889203148273744 51.965316172694024,-34.78695768933661 51.48191788271548,-34.69927009463221 50.99851959273693,-34.627469618712446 50.51512130275838,-34.57264468360289 50.031723012779835,-34.535626379434326 49.54832472280129,-34.51697586596358 49.06492643282274,-34.51697586596358 48.58152814284419,-34.535626379434326 48.09812985286565,-34.57264468360289 47.614731562887094,-34.627469618712446 47.13133327290855,-34.69927009463221 46.64793498293,-34.78695768933661 46.16453669295146,-34.889203148273744 45.681138402972906,-35.00445653450939 45.19774011299436,-35.13097072419106 44.714341823015815,-35.266827891164645 44.23094353303724,-35.409968579264 43.747545243058696,-35.55822292156711 43.26414695308015,-35.70934353336681 42.780748663101605,-35.86103958023211 42.29735037312305,-36.01101150472296 41.81395208314451,-36.15698588533702 41.33055379316596,-36.296749899262295 40.84715550318739,-36.42818486651526 40.36375721320884,-36.549298366969786 39.8803589232303,-36.6582544434153 39.396960633251744,-36.75340143279657 38.9135623432732,-36.83329700374211 38.430164053294654,-36.89673002083742 37.94676576331611,-36.942738904203395 37.463367473337556,-36.9706262060671 36.97996918335901,-36.97996918335901 36.49657089338045,-36.9706262060671 36.013172603401905,-36.942738904203395 35.52977431342336,-36.89673002083741 35.04637602344481,-36.83329700374211 34.56297773346626,-36.75340143279657 34.07957944348772,-36.658254443415295 33.596181153509164,-36.549298366969786 33.11278286353061,-36.42818486651526"/>
<polygon class="l0d0" points="61.63328197226502,-36.97996918335901 70.4046125283997,-36.35263124073544 78.99738408884004,-34.483388204283344 87.23667260412242,-31.410292471773086 94.95474992022173,-27.195903410242288 101.9944982400792,-21.926013827689257 108.21260858886028,-15.707903478908172 113.48249817141331,-8.668155159050697 117.6968872329441,-0.950077842951394 120.76998296545436,7.289210672330987 122.63922600190648,15.881982232771335 123.26656394453003,24.653312788906007 110.93990755007704,24.653312788906007 110.43803719597818,17.636248343998265 108.9426427668165,10.762031095645993 106.4841661808083,4.170600283420086 103.11265493158365,-2.0038615694593553 98.89674326554122,-7.635660225345336 93.92225498651636,-12.610148504370207 88.29045633063039,-16.826060170412624 82.11599447775095,-20.197571419637267 75.52456366552504,-22.656048005645477 68.65034641717276,-24.151442434807155 61.63328197226502,-24.653312788906007"/>
<polygon class="l0d0" points="61.63328197226502,-55.46995377503852 73.03601169524009,-54.65441444962788 84.20661472381255,-52.224398502240156 94.91768979367964,-48.229374049976805 104.95119030460874,-42.75066826998677 114.10286312042345,-35.89981181266784 122.18640657383888,-27.81626835925243 129.0372630311578,-18.664595543437706 134.51596881114784,-8.631095032508615 138.5109932634112,2.0799800373584807 140.94100921079894,13.250583065930932 141.75654853620955,24.653312788906007 129.42989214175654,24.653312788906007 128.7398204048706,15.004849177157864 126.68365306477331,5.552800460673487 123.30324775901202,-3.510416906137132 118.66741979132814,-12.000301953846366 112.87054125051982,-19.74402510568959 106.0306198668606,-26.58394648934879 98.28689671501739,-32.38082503015711 89.79701166730815,-37.01665299784099 80.73379430049754,-40.397058303602286 71.28174558401317,-42.45322564369959 61.63328197226502,-43.14329738058551"/>
<polygon class="l0d0" points="61.63328197226503,-73.95993836671802 75.66741086208049,-72.95619765852032 89.41584535878505,-69.96540880019695 102.59870698323688,-65.04845562818053 114.94763068899576,-58.305433129731256 126.21122800076772,-49.87360979764642 136.16020455881744,-39.92463323959668 144.5920278909023,-28.661035927824717 151.33505038935158,-16.312112222065835 156.25200356136799,-3.1292505976140252 159.24279241969134,10.619183899090533 160.24653312788905,24.653312788906007 147.91987673343604,24.653312788906007 147.04160361376304,12.373450010317459 144.42466336273012,0.3435698257009844 140.12232933721575,-11.191434095694353 134.22218465107264,-21.996742338233375 126.84433923549838,-31.85238998603384 118.13898474720486,-40.557744474327365 108.2833370994044,-47.9355898899016 97.4780288568654,-53.83573457604472 85.94302493547005,-58.13806860155909 73.91314475085356,-60.75500885259203 61.63328197226502,-61.63328197226502"/>
<polygon class="l0d0" points="110.93990755007704,24.653312788906007 123.26656394453003,24.653312788906007 110.93990755007704,73.95993836671802 86.28659476117102,73.95993836671802"/>
<polygon class="l0d0" points="129.42989214175654,24.653312788906007 141.75654853620955,24.653312788906007 147.91987673343604,73.95993836671802 123.26656394453003,73.95993836671802"/>
<polygon class="l0d0" points="147.91987673343604,24.653312788906007 160.24653312788905,24.653312788906003 184.89984591679504,73.95993836671802 160.24653312788905,73.95993836671802"/>
</g>
</svg>