<?xml version="1.0" encoding="UTF-8"?>
<svg xmlns="http://www.w3.org/2000/svg" xmlns:xlink="http://www.w3.org/1999/xlink"
     width="400.0" height="185.17" viewBox="-196.92 -92.14 400.0 185.17">
<defs>
<style type="text/css">
.l0d0 {stroke: rgb(255, 0, 0); fill: rgb(255, 0, 0); fill-opacity: 0.5;}
</style>
</defs>
<rect x="-196.92" y="-92.14" width="400.0" height="185.17" fill="none" stroke="none"/>
<g id="polygonal-only_paths_2" transform="scale(1 -1)">
<polygon class="l0d0" points="-97.38,73.96 -99.85,73.96 -104.78,24.65 -92.45,24.65"/>
<polygon class="l0d0" points="-134.36,73.96 -136.83,73.96 -141.76,24.65 -129.43,24.65"/>
<polygon class="l0d0" points="-171.34,73.96 -173.81,73.96 -178.74,24.65 -166.41,24.65"/>
<polygon class="l0d0" points="-166.41,24.65 -164.9,13.72 -162.66,3.29 -159.64,-6.63 -155.82,-15.99 -151.16,-24.71 -145.67,-32.7 -139.38,-39.86 -132.36,-46.07 -124.73,-51.27 -116.61,-55.42 -108.13,-58.57 -99.35,-60.76 -90.32,-62.1 -81.04,-62.64 -71.49,-62.47 -61.63,-61.63 -61.63,-73.96 -72.31,-74.77 -82.78,-74.84 -93.09,-74.11 -103.25,-72.46 -113.23,-69.79 -122.95,-65.99 -132.29,-61.0 -141.07,-54.79 -149.11,-47.43 -156.24,-39.05 -162.39,-29.81 -167.51,-19.89 -171.65,-9.4 -174.86,1.54 -177.2,12.9 -178.74,24.65"/>
<polygon class="l0d0" points="-129.43,24.65 -129.15,16.11 -128.34,8.19 -126.99,0.9 -125.12,-5.76 -122.76,-11.8 -119.91,-17.25 -116.57,-22.12 -112.75,-26.46 -108.41,-30.29 -103.53,-33.62 -98.09,-36.47 -92.04,-38.84 -85.38,-40.7 -78.1,-42.05 -70.18,-42.87 -61.63,-43.14 -61.63,-55.47 -71.0,-55.17 -79.84,-54.25 -88.15,-52.71 -95.94,-50.53 -103.19,-47.69 -109.87,-44.19 -115.98,-40.02 -121.46,-35.17 -126.3,-29.69 -130.48,-23.59 -133.98,-16.9 -136.82,-9.65 -139.0,-1.87 -140.54,6.45 -141.45,15.29 -141.76,24.65"/>
<polygon class="l0d0" points="-92.45,24.65 -93.41,18.49 -94.02,13.09 -94.33,8.44 -94.43,4.48 -94.35,1.11 -94.14,-1.79 -93.77,-4.38 -93.13,-6.85 -92.09,-9.3 -90.45,-11.82 -88.04,-14.38 -84.73,-16.91 -80.45,-19.31 -75.15,-21.46 -68.87,-23.27 -61.63,-24.65 -61.63,-36.98 -69.69,-35.57 -76.9,-33.66 -83.22,-31.32 -88.63,-28.6 -93.14,-25.6 -96.79,-22.39 -99.66,-19.03 -101.85,-15.56 -103.5,-11.95 -104.71,-8.13 -105.58,-3.99 -106.12,0.58 -106.34,5.67 -106.22,11.35 -105.71,17.67 -104.78,24.65"/>
<polygon class="l0d0" points="-61.63,-61.63 -61.15,-61.64 -60.67,-61.67 -60.18,-61.72 -59.7,-61.78 -59.22,-61.86 -58.73,-61.95 -58.25,-62.06 -57.77,-62.19 -57.28,-62.32 -56.8,-62.46 -56.32,-62.6 -55.83,-62.75 -55.35,-62.9 -54.87,-63.06 -54.38,-63.2 -53.9,-63.35 -53.42,-63.48 -52.93,-63.61 -52.45,-63.72 -51.97,-63.83 -51.48,-63.91 -51.0,-63.99 -50.52,-64.04 -50.03,-64.08 -49.55,-64.1 -49.06,-64.1 -48.58,-64.08 -48.1,-64.04 -47.61,-63.99 -47.13,-63.91 -46.65,-63.83 -46.16,-63.72 -45.68,-63.61 -45.2,-63.48 -44.71,-63.35 -44.23,-63.2 -43.75,-63.06 -43.26,-62.9 -42.78,-62.75 -42.3,-62.6 -41.81,-62.46 -41.33,-62.32 -40.85,-62.19 -40.36,-62.06 -39.88,-61.95 -39.4,-61.86 -38.91,-61.78 -38.43,-61.72 -37.95,-61.67 -37.46,-61.64 -36.98,-61.63 -36.5,-61.64 -36.01,-61.67 -35.53,-61.72 -35.05,-61.78 -34.56,-61.86 -34.08,-61.95 -33.6,-62.06 -33.11,-62.19 -32.63,-62.32 -32.15,-62.46 -31.66,-62.6 -31.18,-62.75 -30.7,-62.9 -30.21,-63.06 -29.73,-63.2 -29.25,-63.35 -28.76,-63.48 -28.28,-63.61 -27.8,-63.72 -27.31,-63.83 -26.83,-63.91 -26.35,-63.99 -25.86,-64.04 -25.38,-64.08 -24.9,-64.1 -24.41,-64.1 -23.93,-64.08 -23.44,-64.04 -22.96,-63.99 -22.48,-63.91 -21.99,-63.83 -21.51,-63.72 -21.03,-63.61 -20.54,-63.48 -20.06,-63.35 -19.58,-63.2 -19.09,-63.06 -18.61,-62.9 -18.13,-62.75 -17.64,-62.6 -17.16,-62.46 -16.68,-62.32 -16.19,-62.19 -15.71,-62.06 -15.23,-61.95 -14.74,-61.86 -14.26,-61.78 -14.26,-73.81 -14.74,-73.73 -15.23,-73.64 -15.71,-73.53 -16.19,-73.41 -16.68,-73.28 -17.16,-73.14 -17.64,-72.99 -18.13,-72.84 -18.61,-72.69 -19.09,-72.54 -19.58,-72.39 -20.06,-72.25 -20.54,-72.11 -21.03,-71.98 -21.51,-71.87 -21.99,-71.77 -22.48,-71.68 -22.96,-71.61 -23.44,-71.55 -23.93,-71.52 -24.41,-71.5 -24.9,-71.5 -25.38,-71.52 -25.86,-71.55 -26.35,-71.61 -26.83,-71.68 -27.31,-71.77 -27.8,-71.87 -28.28,-71.98 -28.76,-72.11 -29.25,-72.25 -29.73,-72.39 -30.21,-72.54 -30.7,-72.69 -31.18,-72.84 -31.66,-72.99 -32.15,-73.14 -32.63,-73.28 -33.11,-73.41 -33.6,-73.53 -34.08,-73.64 -34.56,-73.73 -35.05,-73.81 -35.53,-73.88 -36.01,-73.92 -36.5,-73.95 -36.98,-73.96 -37.46,-73.95 -37.95,-73.92 -38.43,-73.88 -38.91,-73.81 -39.4,-73.73 -39.88,-73.64 -40.36,-73.53 -40.85,-73.41 -41.33,-73.28 -41.81,-73.14 -42.3,-72.99 -42.78,-72.84 -43.26,-72.69 -43.75,-72.54 -44.23,-72.39 -44.71,-72.25 -45.2,-72.11 -45.68,-71.98 -46.16,-71.87 -46.65,-71.77 -47.13,-71.68 -47.61,-71.61 -48.1,-71.55 -48.58,-71.52 -49.06,-71.5 -49.55,-71.5 -50.03,-71.52 -50.52,-71.55 -51.0,-71.61 -51.48,-71.68 -51.97,-71.77 -52.45,-71.87 -52.93,-71.98 -53.42,-72.11 -53.9,-72.25 -54.38,-72.39 -54.87,-72.54 -55.35,-72.69 -55.83,-72.84 -56.32,-72.99 -56.8,-73.14 -57.28,-73.28 -57.77,-73.41 -58.25,-73.53 -58.73,-73.64 -59.22,-73.73 -59.7,-73.81 -60.18,-73.88 -60.67,-73.92 -61.15,-73.95 -61.63,-73.96"/>
<polygon class="l0d0" points="-61.63,-43.14 -61.15,-43.15 -60.67,-43.18 -60.18,-43.23 -59.7,-43.29 -59.22,-43.37 -58.73,-43.47 -58.25,-43.57 -57.77,-43.7 -57.28,-43.83 -56.8,-43.97 -56.32,-44.11 -55.83,-44.26 -55.35,-44.41 -54.87,-44.57 -54.38,-44.71 -53.9,-44.86 -53.42,-44.99 -52.93,-45.12 -52.45,-45.23 -51.97,-45.34 -51.48,-45.42 -51.0,-45.5 -50.52,-45.55 -50.03,-45.59 -49.55,-45.61 -49.06,-45.61 -48.58,-45.59 -48.1,-45.55 -47.61,-45.5 -47.13,-45.42 -46.65,-45.34 -46.16,-45.23 -45.68,-45.12 -45.2,-44.99 -44.71,-44.86 -44.23,-44.71 -43.75,-44.57 -43.26,-44.41 -42.78,-44.26 -42.3,-44.11 -41.81,-43.97 -41.33,-43.83 -40.85,-43.7 -40.36,-43.57 -39.88,-43.47 -39.4,-43.37 -38.91,-43.29 -38.43,-43.23 -37.95,-43.18 -37.46,-43.15 -36.98,-43.14 -36.5,-43.15 -36.01,-43.18 -35.53,-43.23 -35.05,-43.29 -34.56,-43.37 -34.08,-43.47 -33.6,-43.57 -33.11,-43.7 -32.63,-43.83 -32.15,-43.97 -31.66,-44.11 -31.18,-44.26 -30.7,-44.41 -30.21,-44.57 -29.73,-44.71 -29.25,-44.86 -28.76,-44.99 -28.28,-45.12 -27.8,-45.23 -27.31,-45.34 -26.83,-45.42 -26.35,-45.5 -25.86,-45.55 -25.38,-45.59 -24.9,-45.61 -24.41,-45.61 -23.93,-45.59 -23.44,-45.55 -22.96,-45.5 -22.48,-45.42 -21.99,-45.34 -21.51,-45.23 -21.03,-45.12 -20.54,-44.99 -20.06,-44.86 -19.58,-44.71 -19.09,-44.57 -18.61,-44.41 -18.13,-44.26 -17.64,-44.11 -17.16,-43.97 -16.68,-43.83 -16.19,-43.7 -15.71,-43.57 -15.23,-43.47 -14.74,-43.37 -14.26,-43.29 -14.26,-55.32 -14.74,-55.24 -15.23,-55.15 -15.71,-55.04 -16.19,-54.92 -16.68,-54.79 -17.16,-54.65 -17.64,-54.5 -18.13,-54.35 -18.61,-54.2 -19.09,-54.05 -19.58,-53.9 -20.06,-53.76 -20.54,-53.62 -21.03,-53.49 -21.51,-53.38 -21.99,-53.28 -22.48,-53.19 -22.96,-53.12 -23.44,-53.06 -23.93,-53.03 -24.41,-53.01 -24.9,-53.01 -25.38,-53.03 -25.86,-53.06 -26.35,-53.12 -26.83,-53.19 -27.31,-53.28 -27.8,-53.38 -28.28,-53.49 -28.76,-53.62 -29.25,-53.76 -29.73,-53.9 -30.21,-54.05 -30.7,-54.2 -31.18,-54.35 -31.66,-54.5 -32.15,-54.65 -32.63,-54.79 -33.11,-54.92 -33.6,-55.04 -34.08,-55.15 -34.56,-55.24 -35.05,-55.32 -35.53,-55.39 -36.01,-55.43 -36.5,-55.46 -36.98,-55.47 -37.46,-55.46 -37.95,-55.43 -38.43,-55.39 -38.91,-55.32 -39.4,-55.24 -39.88,-55.15 -40.36,-55.04 -40.85,-54.92 -41.33,-54.79 -41.81,-54.65 -42.3,-54.5 -42.78,-54.35 -43.26,-54.2 -43.75,-54.05 -44.23,-53.9 -44.71,-53.76 -45.2,-53.62 -45.68,-53.49 -46.16,-53.38 -46.65,-53.28 -47.13,-53.19 -47.61,-53.12 -48.1,-53.06 -48.58,-53.03 -49.06,-53.01 -49.55,-53.01 -50.03,-53.03 -50.52,-53.06 -51.0,-53.12 -51.48,-53.19 -51.97,-53.28 -52.45,-53.38 -52.93,-53.49 -53.42,-53.62 -53.9,-53.76 -54.38,-53.9 -54.87,-54.05 -55.35,-54.2 -55.83,-54.35 -56.32,-54.5 -56.8,-54.65 -57.28,-54.79 -57.77,-54.92 -58.25,-55.04 -58.73,-55.15 -59.22,-55.24 -59.7,-55.32 -60.18,-55.39 -60.67,-55.43 -61.15,-55.46 -61.63,-55.47"/>
<polygon class="l0d0" points="-61.63,-24.65 -61.15,-24.66 -60.67,-24.69 -60.18,-24.74 -59.7,-24.8 -59.22,-24.88 -58.73,-24.98 -58.25,-25.08 -57.77,-25.21 -57.28,-25.34 -56.8,-25.48 -56.32,-25.62 -55.83,-25.77 -55.35,-25.92 -54.87,-26.08 -54.38,-26.22 -53.9,-26.37 -53.42,-26.5 -52.93,-26.63 -52.45,-26.74 -51.97,-26.85 -51.48,-26.93 -51.0,-27.01 -50.52,-27.06 -50.03,-27.1 -49.55,-27.12 -49.06,-27.12 -48.58,-27.1 -48.1,-27.06 -47.61,-27.01 -47.13,-26.93 -46.65,-26.85 -46.16,-26.74 -45.68,-26.63 -45.2,-26.5 -44.71,-26.37 -44.23,-26.22 -43.75,-26.08 -43.26,-25.92 -42.78,-25.77 -42.3,-25.62 -41.81,-25.48 -41.33,-25.34 -40.85,-25.21 -40.36,-25.08 -39.88,-24.98 -39.4,-24.88 -38.91,-24.8 -38.43,-24.74 -37.95,-24.69 -37.46,-24.66 -36.98,-24.65 -36.5,-24.66 -36.01,-24.69 -35.53,-24.74 -35.05,-24.8 -34.56,-24.88 -34.08,-24.98 -33.6,-25.08 -33.11,-25.21 -32.63,-25.34 -32.15,-25.48 -31.66,-25.62 -31.18,-25.77 -30.7,-25.92 -30.21,-26.08 -29.73,-26.22 -29.25,-26.37 -28.76,-26.5 -28.28,-26.63 -27.8,-26.74 -27.31,-26.85 -26.83,-26.93 -26.35,-27.01 -25.86,-27.06 -25.38,-27.1 -24.9,-27.12 -24.41,-27.12 -23.93,-27.1 -23.44,-27.06 -22.96,-27.01 -22.48,-26.93 -21.99,-26.85 -21.51,-26.74 -21.03,-26.63 -20.54,-26.5 -20.06,-26.37 -19.58,-26.22 -19.09,-26.08 -18.61,-25.92 -18.13,-25.77 -17.64,-25.62 -17.16,-25.48 -16.68,-25.34 -16.19,-25.21 -15.71,-25.08 -15.23,-24.98 -14.74,-24.88 -14.26,-24.8 -14.26,-36.83 -14.74,-36.75 -15.23,-36.66 -15.71,-36.55 -16.19,-36.43 -16.68,-36.3 -17.16,-36.16 -17.64,-36.01 -18.13,-35.86 -18.61,-35.71 -19.09,-35.56 -19.58,-35.41 -20.06,-35.27 -20.54,-35.13 -21.03,-35.0 -21.51,-34.89 -21.99,-34.79 -22.48,-34.7 -22.96,-34.63 -23.44,-34.57 -23.93,-34.54 -24.41,-34.52 -24.9,-34.52 -25.38,-34.54 -25.86,-34.57 -26.35,-34.63 -26.83,-34.7 -27.31,-34.79 -27.8,-34.89 -28.28,-35.0 -28.76,-35.13 -29.25,-35.27 -29.73,-35.41 -30.21,-35.56 -30.7,-35.71 -31.18,-35.86 -31.66,-36.01 -32.15,-36.16 -32.63,-36.3 -33.11,-36.43 -33.6,-36.55 -34.08,-36.66 -34.56,-36.75 -35.05,-36.83 -35.53,-36.9 -36.01,-36.94 -36.5,-36.97 -36.98,-36.98 -37.46,-36.97 -37.95,-36.94 -38.43,-36.9 -38.91,-36.83 -39.4,-36.75 -39.88,-36.66 -40.36,-36.55 -40.85,-36.43 -41.33,-36.3 -41.81,-36.16 -42.3,-36.01 -42.78,-35.86 -43.26,-35.71 -43.75,-35.56 -44.23,-35.41 -44.71,-35.27 -45.2,-35.13 -45.68,-35.0 -46.16,-34.89 -46.65,-34.79 -47.13,-34.7 -47.61,-34.63 -48.1,-34.57 -48.58,-34.54 -49.06,-34.52 -49.55,-34.52 -50.03,-34.54 -50.52,-34.57 -51.0,-34.63 -51.48,-34.7 -51.97,-34.79 -52.45,-34.89 -52.93,-35.0 -53.42,-35.13 -53.9,-35.27 -54.38,-35.41 -54.87,-35.56 -55.35,-35.71 -55.83,-35.86 -56.32,-36.01 -56.8,-36.16 -57.28,-36.3 -57.77,-36.43 -58.25,-36.55 -58.73,-36.66 -59.22,-36.75 -59.7,-36.83 -60.18,-36.9 -60.67,-36.94 -61.15,-36.97 -61.63,-36.98"/>
<polygon class="l0d0" points="-14.26,-61.78 -13.78,-61.72 -13.29,-61.67 -12.81,-61.64 -12.33,-61.63 -11.84,-61.64 -11.36,-61.67 -10.88,-61.72 -10.39,-61.78 -9.91,-61.86 -9.43,-61.95 -8.94,-62.06 -8.46,-62.19 -7.98,-62.32 -7.49,-62.46 -7.01,-62.6 -6.53,-62.75 -6.04,-62.9 -5.56,-63.06 -5.08,-63.2 -4.59,-63.35 -4.11,-63.48 -3.63,-63.61 -3.14,-63.72 -2.66,-63.83 -2.18,-63.91 -1.69,-63.99 -1.21,-64.04 -0.73,-64.08 -0.24,-64.1 0.24,-64.1 0.73,-64.08 1.21,-64.04 1.69,-63.99 2.18,-63.91 2.66,-63.83 3.14,-63.72 3.63,-63.61 4.11,-63.48 4.59,-63.35 5.08,-63.2 5.56,-63.06 6.04,-62.9 6.53,-62.75 7.01,-62.6 7.49,-62.46 7.98,-62.32 8.46,-62.19 8.94,-62.06 9.43,-61.95 9.91,-61.86 10.39,-61.78 10.88,-61.72 11.36,-61.67 11.84,-61.64 12.33,-61.63 12.81,-61.64 13.29,-61.67 13.78,-61.72 14.26,-61.78 14.74,-61.86 15.23,-61.95 15.71,-62.06 16.19,-62.19 16.68,-62.32 17.16,-62.46 17.64,-62.6 18.13,-62.75 18.61,-62.9 19.09,-63.06 19.58,-63.2 20.06,-63.35 20.54,-63.48 21.03,-63.61 21.51,-63.72 21.99,-63.83 22.48,-63.91 22.96,-63.99 23.44,-64.04 23.93,-64.08 24.41,-64.1 24.9,-64.1 25.38,-64.08 25.86,-64.04 26.35,-63.99 26.83,-63.91 27.31,-63.83 27.8,-63.72 28.28,-63.61 28.76,-63.48 29.25,-63.35 29.73,-63.2 30.21,-63.06 30.7,-62.9 31.18,-62.75 31.66,-62.6 32.15,-62.46 32.63,-62.32 33.11,-62.19 33.11,-73.41 32.63,-73.28 32.15,-73.14 31.66,-72.99 31.18,-72.84 30.7,-72.69 30.21,-72.54 29.73,-72.39 29.25,-72.25 28.76,-72.11 28.28,-71.98 27.8,-71.87 27.31,-71.77 26.83,-71.68 26.35,-71.61 25.86,-71.55 25.38,-71.52 24.9,-71.5 24.41,-71.5 23.93,-71.52 23.44,-71.55 22.96,-71.61 22.48,-71.68 21.99,-71.77 21.51,-71.87 21.03,-71.98 20.54,-72.11 20.06,-72.25 19.58,-72.39 19.09,-72.54 18.61,-72.69 18.13,-72.84 17.64,-72.99 17.16,-73.14 16.68,-73.28 16.19,-73.41 15.71,-73.53 15.23,-73.64 14.74,-73.73 14.26,-73.81 13.78,-73.88 13.29,-73.92 12.81,-73.95 12.33,-73.96 11.84,-73.95 11.36,-73.92 10.88,-73.88 10.39,-73.81 9.91,-73.73 9.43,-73.64 8.94,-73.53 8.46,-73.41 7.98,-73.28 7.49,-73.14 7.01,-72.99 6.53,-72.84 6.04,-72.69 5.56,-72.54 5.08,-72.39 4.59,-72.25 4.11,-72.11 3.63,-71.98 3.14,-71.87 2.66,-71.77 2.18,-71.68 1.69,-71.61 1.21,-71.55 0.73,-71.52 0.24,-71.5 -0.24,-71.5 -0.73,-71.52 -1.21,-71.55 -1.69,-71.61 -2.18,-71.68 -2.66,-71.77 -3.14,-71.87 -3.63,-71.98 -4.11,-72.11 -4.59,-72.25 -5.08,-72.39 -5.56,-72.54 -6.04,-72.69 -6.53,-72.84 -7.01,-72.99 -7.49,-73.14 -7.98,-73.28 -8.46,-73.41 -8.94,-73.53 -9.43,-73.64 -9.91,-73.73 -10.39,-73.81 -10.88,-73.88 -11.36,-73.92 -11.84,-73.95 -12.33,-73.96 -12.81,-73.95 -13.29,-73.92 -13.78,-73.88 -14.26,-73.81"/>
<polygon class="l0d0" points="-14.26,-43.29 -13.78,-43.23 -13.29,-43.18 -12.81,-43.15 -12.33,-43.14 -11.84,-43.15 -11.36,-43.18 -10.88,-43.23 -10.39,-43.29 -9.91,-43.37 -9.43,-43.47 -8.94,-43.57 -8.46,-43.7 -7.98,-43.83 -7.49,-43.97 -7.01,-44.11 -6.53,-44.26 -6.04,-44.41 -5.56,-44.57 -5.08,-44.71 -4.59,-44.86 -4.11,-44.99 -3.63,-45.12 -3.14,-45.23 -2.66,-45.34 -2.18,-45.42 -1.69,-45.5 -1.21,-45.55 -0.73,-45.59 -0.24,-45.61 0.24,-45.61 0.73,-45.59 1.21,-45.55 1.69,-45.5 2.18,-45.42 2.66,-45.34 3.14,-45.23 3.63,-45.12 4.11,-44.99 4.59,-44.86 5.08,-44.71 5.56,-44.57 6.04,-44.41 6.53,-44.26 7.01,-44.11 7.49,-43.97 7.98,-43.83 8.46,-43.7 8.94,-43.57 9.43,-43.47 9.91,-43.37 10.39,-43.29 10.88,-43.23 11.36,-43.18 11.84,-43.15 12.33,-43.14 12.81,-43.15 13.29,-43.18 13.78,-43.23 14.26,-43.29 14.74,-43.37 15.23,-43.47 15.71,-43.57 16.19,-43.7 16.68,-43.83 17.16,-43.97 17.64,-44.11 18.13,-44.26 18.61,-44.41 19.09,-44.57 19.58,-44.71 20.06,-44.86 20.54,-44.99 21.03,-45.12 21.51,-45.23 21.99,-45.34 22.48,-45.42 22.96,-45.5 23.44,-45.55 23.93,-45.59 24.41,-45.61 24.9,-45.61 25.38,-45.59 25.86,-45.55 26.35,-45.5 26.83,-45.42 27.31,-45.34 27.8,-45.23 28.28,-45.12 28.76,-44.99 29.25,-44.86 29.73,-44.71 30.21,-44.57 30.7,-44.41 31.18,-44.26 31.66,-44.11 32.15,-43.97 32.63,-43.83 33.11,-43.7 33.11,-54.92 32.63,-54.79 32.15,-54.65 31.66,-54.5 31.18,-54.35 30.7,-54.2 30.21,-54.05 29.73,-53.9 29.25,-53.76 28.76,-53.62 28.28,-53.49 27.8,-53.38 27.31,-53.28 26.83,-53.19 26.35,-53.12 25.86,-53.06 25.38,-53.03 24.9,-53.01 24.41,-53.01 23.93,-53.03 23.44,-53.06 22.96,-53.12 22.48,-53.19 21.99,-53.28 21.51,-53.38 21.03,-53.49 20.54,-53.62 20.06,-53.76 19.58,-53.9 19.09,-54.05 18.61,-54.2 18.13,-54.35 17.64,-54.5 17.16,-54.65 16.68,-54.79 16.19,-54.92 15.71,-55.04 15.23,-55.15 14.74,-55.24 14.26,-55.32 13.78,-55.39 13.29,-55.43 12.81,-55.46 12.33,-55.47 11.84,-55.46 11.36,-55.43 10.88,-55.39 10.39,-55.32 9.91,-55.24 9.43,-55.15 8.94,-55.04 8.46,-54.92 7.98,-54.79 7.49,-54.65 7.01,-54.5 6.53,-54.35 6.04,-54.2 5.56,-54.05 5.08,-53.9 4.59,-53.76 4.11,-53.62 3.63,-53.49 3.14,-53.38 2.66,-53.28 2.18,-53.19 1.69,-53.12 1.21,-53.06 0.73,-53.03 0.24,-53.01 -0.24,-53.01 -0.73,-53.03 -1.21,-53.06 -1.69,-53.12 -2.18,-53.19 -2.66,-53.28 -3.14,-53.38 -3.63,-53.49 -4.11,-53.62 -4.59,-53.76 -5.08,-53.9 -5.56,-54.05 -6.04,-54.2 -6.53,-54.35 -7.01,-54.5 -7.49,-54.65 -7.98,-54.79 -8.46,-54.92 -8.94,-55.04 -9.43,-55.15 -9.91,-55.24 -10.39,-55.32 -10.88,-55.39 -11.36,-55.43 -11.84,-55.46 -12.33,-55.47 -12.81,-55.46 -13.29,-55.43 -13.78,-55.39 -14.26,-55.32"/>
<polygon class="l0d0" points="-14.26,-24.8 -13.78,-24.74 -13.29,-24.69 -12.81,-24.66 -12.33,-24.65 -11.84,-24.66 -11.36,-24.69 -10.88,-24.74 -10.39,-24.8 -9.91,-24.88 -9.43,-24.98 -8.94,-25.08 -8.46,-25.21 -7.98,-25.34 -7.49,-25.48 -7.01,-25.62 -6.53,-25.77 -6.04,-25.92 -5.56,-26.08 -5.08,-26.22 -4.59,-26.37 -4.11,-26.5 -3.63,-26.63 -3.14,-26.74 -2.66,-26.85 -2.18,-26.93 -1.69,-27.01 -1.21,-27.06 -0.73,-27.1 -0.24,-27.12 0.24,-27.12 0.73,-27.1 1.21,-27.06 1.69,-27.01 2.18,-26.93 2.66,-26.85 3.14,-26.74 3.63,-26.63 4.11,-26.5 4.59,-26.37 5.08,-26.22 5.56,-26.08 6.04,-25.92 6.53,-25.77 7.01,-25.62 7.49,-25.48 7.98,-25.34 8.46,-25.21 8.94,-25.08 9.43,-24.98 9.91,-24.88 10.39,-24.8 10.88,-24.74 11.36,-24.69 11.84,-24.66 12.33,-24.65 12.81,-24.66 13.29,-24.69 13.78,-24.74 14.26,-24.8 14.74,-24.88 15.23,-24.98 15.71,-25.08 16.19,-25.21 16.68,-25.34 17.16,-25.48 17.64,-25.62 18.13,-25.77 18.61,-25.92 19.09,-26.08 19.58,-26.22 20.06,-26.37 20.54,-26.5 21.03,-26.63 21.51,-26.74 21.99,-26.85 22.48,-26.93 22.96,-27.01 23.44,-27.06 23.93,-27.1 24.41,-27.12 24.9,-27.12 25.38,-27.1 25.86,-27.06 26.35,-27.01 26.83,-26.93 27.31,-26.85 27.8,-26.74 28.28,-26.63 28.76,-26.5 29.25,-26.37 29.73,-26.22 30.21,-26.08 30.7,-25.92 31.18,-25.77 31.66,-25.62 32.15,-25.48 32.63,-25.34 33.11,-25.21 33.11,-36.43 32.63,-36.3 32.15,-36.16 31.66,-36.01 31.18,-35.86 30.7,-35.71 30.21,-35.56 29.73,-35.41 29.25,-35.27 28.76,-35.13 28.28,-35.0 27.8,-34.89 27.31,-34.79 26.83,-34.7 26.35,-34.63 25.86,-34.57 25.38,-34.54 24.9,-34.52 24.41,-34.52 23.93,-34.54 23.44,-34.57 22.96,-34.63 22.48,-34.7 21.99,-34.79 21.51,-34.89 21.03,-35.0 20.54,-35.13 20.06,-35.27 19.58,-35.41 19.09,-35.56 18.61,-35.71 18.13,-35.86 17.64,-36.01 17.16,-36.16 16.68,-36.3 16.19,-36.43 15.71,-36.55 15.23,-36.66 14.74,-36.75 14.26,-36.83 13.78,-36.9 13.29,-36.94 12.81,-36.97 12.33,-36.98 11.84,-36.97 11.36,-36.94 10.88,-36.9 10.39,-36.83 9.91,-36.75 9.43,-36.66 8.94,-36.55 8.46,-36.43 7.98,-36.3 7.49,-36.16 7.01,-36.01 6.53,-35.86 6.04,-35.71 5.56,-35.56 5.08,-35.41 4.59,-35.27 4.11,-35.13 3.63,-35.0 3.14,-34.89 2.66,-34.79 2.18,-34.7 1.69,-34.63 1.21,-34.57 0.73,-34.54 0.24,-34.52 -0.24,-34.52 -0.73,-34.54 -1.21,-34.57 -1.69,-34.63 -2.18,-34.7 -2.66,-34.79 -3.14,-34.89 -3.63,-35.0 -4.11,-35.13 -4.59,-35.27 -5.08,-35.41 -5.56,-35.56 -6.04,-35.71 -6.53,-35.86 -7.01,-36.01 -7.49,-36.16 -7.98,-36.3 -8.46,-36.43 -8.94,-36.55 -9.43,-36.66 -9.91,-36.75 -10.39,-36.83 -10.88,-36.9 -11.36,-36.94 -11.84,-36.97 -12.33,-36.98 -12.81,-36.97 -13.29,-36.94 -13.78,-36.9 -14.26,-36.83"/>
<polygon class="l0d0" points="33.11,-62.19 33.6,-62.06 34.08,-61.95 34.56,-61.86 35.05,-61.78 35.53,-61.72 36.01,-61.67 36.5,-61.64 36.98,-61.63 37.46,-61.64 37.95,-61.67 38.43,-61.72 38.91,-61.78 39.4,-61.86 39.88,-61.95 40.36,-62.06 40.85,-62.19 41.33,-62.32 41.81,-62.46 42.3,-62.6 42.78,-62.75 43.26,-62.9 43.75,-63.06 44.23,-63.2 44.71,-63.35 45.2,-63.48 45.68,-63.61 46.16,-63.72 46.65,-63.83 47.13,-63.91 47.61,-63.99 48.1,-64.04 48.58,-64.08 49.06,-64.1 49.55,-64.1 50.03,-64.08 50.52,-64.04 51.0,-63.99 51.48,-63.91 51.97,-63.83 52.45,-63.72 52.93,-63.61 53.42,-63.48 53.9,-63.35 54.38,-63.2 54.87,-63.06 55.35,-62.9 55.83,-62.75 56.32,-62.6 56.8,-62.46 57.28,-62.32 57.77,-62.19 58.25,-62.06 58.73,-61.95 59.22,-61.86 59.7,-61.78 60.18,-61.72 60.67,-61.67 61.15,-61.64 61.63,-61.63 61.63,-73.96 61.15,-73.95 60.67,-73.92 60.18,-73.88 59.7,-73.81 59.22,-73.73 58.73,-73.64 58.25,-73.53 57.77,-73.41 57.28,-73.28 56.8,-73.14 56.32,-72.99 55.83,-72.84 55.35,-72.69 54.87,-72.54 54.38,-72.39 53.9,-72.25 53.42,-72.11 52.93,-71.98 52.45,-71.87 51.97,-71.77 51.48,-71.68 51.0,-71.61 50.52,-71.55 50.03,-71.52 49.55,-71.5 49.06,-71.5 48.58,-71.52 48.1,-71.55 47.61,-71.61 47.13,-71.68 46.65,-71.77 46.16,-71.87 45.68,-71.98 45.2,-72.11 44.71,-72.25 44.23,-72.39 43.75,-72.54 43.26,-72.69 42.78,-72.84 42.3,-72.99 41.81,-73.14 41.33,-73.28 40.85,-73.41 40.36,-73.53 39.88,-73.64 39.4,-73.73 38.91,-73.81 38.43,-73.88 37.95,-73.92 37.46,-73.95 36.98,-73.96 36.5,-73.95 36.01,-73.92 35.53,-73.88 35.05,-73.81 34.56,-73.73 34.08,-73.64 33.6,-73.53 33.11,-73.41"/>
<polygon class="l0d0" points="33.11,-43.7 33.6,-43.57 34.08,-43.47 34.56,-43.37 35.05,-43.29 35.53,-43.23 36.01,-43.18 36.5,-43.15 36.98,-43.14 37.46,-43.15 37.95,-43.18 38.43,-43.23 38.91,-43.29 39.4,-43.37 39.88,-43.47 40.36,-43.57 40.85,-43.7 41.33,-43.83 41.81,-43.97 42.3,-44.11 42.78,-44.26 43.26,-44.41 43.75,-44.57 44.23,-44.71 44.71,-44.86 45.2,-44.99 45.68,-45.12 46.16,-45.23 46.65,-45.34 47.13,-45.42 47.61,-45.5 48.1,-45.55 48.58,-45.59 49.06,-45.61 49.55,-45.61 50.03,-45.59 50.52,-45.55 51.0,-45.5 51.48,-45.42 51.97,-45.34 52.45,-45.23 52.93,-45.12 53.42,-44.99 53.9,-44.86 54.38,-44.71 54.87,-44.57 55.35,-44.41 55.83,-44.26 56.32,-44.11 56.8,-43.97 57.28,-43.83 57.77,-43.7 58.25,-43.57 58.73,-43.47 59.22,-43.37 59.7,-43.29 60.18,-43.23 60.67,-43.18 61.15,-43.15 61.63,-43.14 61.63,-55.47 61.15,-55.46 60.67,-55.43 60.18,-55.39 59.7,-55.32 59.22,-55.24 58.73,-55.15 58.25,-55.04 57.77,-54.92 57.28,-54.79 56.8,-54.65 56.32,-54.5 55.83,-54.35 55.35,-54.2 54.87,-54.05 54.38,-53.9 53.9,-53.76 53.42,-53.62 52.93,-53.49 52.45,-53.38 51.97,-53.28 51.48,-53.19 51.0,-53.12 50.52,-53.06 50.03,-53.03 49.55,-53.01 49.06,-53.01 48.58,-53.03 48.1,-53.06 47.61,-53.12 47.13,-53.19 46.65,-53.28 46.16,-53.38 45.68,-53.49 45.2,-53.62 44.71,-53.76 44.23,-53.9 43.75,-54.05 43.26,-54.2 42.78,-54.35 42.3,-54.5 41.81,-54.65 41.33,-54.79 40.85,-54.92 40.36,-55.04 39.88,-55.15 39.4,-55.24 38.91,-55.32 38.43,-55.39 37.95,-55.43 37.46,-55.46 36.98,-55.47 36.5,-55.46 36.01,-55.43 35.53,-55.39 35.05,-55.32 34.56,-55.24 34.08,-55.15 33.6,-55.04 33.11,-54.92"/>
<polygon class="l0d0" points="33.11,-25.21 33.6,-25.08 34.08,-24.98 34.56,-24.88 35.05,-24.8 35.53,-24.74 36.01,-24.69 36.5,-24.66 36.98,-24.65 37.46,-24.66 37.95,-24.69 38.43,-24.74 38.91,-24.8 39.4,-24.88 39.88,-24.98 40.36,-25.08 40.85,-25.21 41.33,-25.34 41.81,-25.48 42.3,-25.62 42.78,-25.77 43.26,-25.92 43.75,-26.08 44.23,-26.22 44.71,-26.37 45.2,-26.5 45.68,-26.63 46.16,-26.74 46.65,-26.85 47.13,-26.93 47.61,-27.01 48.1,-27.06 48.58,-27.1 49.06,-27.12 49.55,-27.12 50.03,-27.1 50.52,-27.06 51.0,-27.01 51.48,-26.93 51.97,-26.85 52.45,-26.74 52.93,-26.63 53.42,-26.5 53.9,-26.37 54.38,-26.22 54.87,-26.08 55.35,-25.92 55.83,-25.77 56.32,-25.62 56.8,-25.48 57.28,-25.34 57.77,-25.21 58.25,-25.08 58.73,-24.98 59.22,-24.88 59.7,-24.8 60.18,-24.74 60.67,-24.69 61.15,-24.66 61.63,-24.65 61.63,-36.98 61.15,-36.97 60.67,-36.94 60.18,-36.9 59.7,-36.83 59.22,-36.75 58.73,-36.66 58.25,-36.55 57.77,-36.43 57.28,-36.3 56.8,-36.16 56.32,-36.01 55.83,-35.86 55.35,-35.71 54.87,-35.56 54.38,-35.41 53.9,-35.27 53.42,-35.13 52.93,-35.0 52.45,-34.89 51.97,-34.79 51.48,-34.7 51.0,-34.63 50.52,-34.57 50.03,-34.54 49.55,-34.52 49.06,-34.52 48.58,-34.54 48.1,-34.57 47.61,-34.63 47.13,-34.7 46.65,-34.79 46.16,-34.89 45.68,-35.0 45.2,-35.13 44.71,-35.27 44.23,-35.41 43.75,-35.56 43.26,-35.71 42.78,-35.86 42.3,-36.01 41.81,-36.16 41.33,-36.3 40.85,-36.43 40.36,-36.55 39.88,-36.66 39.4,-36.75 38.91,-36.83 38.43,-36.9 37.95,-36.94 37.46,-36.97 36.98,-36.98 36.5,-36.97 36.01,-36.94 35.53,-36.9 35.05,-36.83 34.56,-36.75 34.08,-36.66 33.6,-36.55 33.11,-36.43"/>
<polygon class="l0d0" points="61.63,-36.98 70.4,-36.35 79.0,-34.48 87.24,-31.41 94.95,-27.2 101.99,-21.93 108.21,-15.71 113.48,-8.67 117.7,-0.95 120.77,7.29 122.64,15.88 123.27,24.65 110.94,24.65 110.44,17.64 108.94,10.76 106.48,4.17 103.11,-2.0 98.9,-7.64 93.92,-12.61 88.29,-16.83 82.12,-20.2 75.52,-22.66 68.65,-24.15 61.63,-24.65"/>
<polygon class="l0d0" points="61.63,-55.47 73.04,-54.65 84.21,-52.22 94.92,-48.23 104.95,-42.75 114.1,-35.9 122.19,-27.82 129.04,-18.66 134.52,-8.63 138.51,2.08 140.94,13.25 141.76,24.65 129.43,24.65 128.74,15.0 126.68,5.55 123.3,-3.51 118.67,-12.0 112.87,-19.74 106.03,-26.58 98.29,-32.38 89.8,-37.02 80.73,-40.4 71.28,-42.45 61.63,-43.14"/>
<polygon class="l0d0" points="61.63,-73.96 75.67,-72.96 89.42,-69.97 102.6,-65.05 114.95,-58.31 126.21,-49.87 136.16,-39.92 144.59,-28.66 151.34,-16.31 156.25,-3.13 159.24,10.62 160.25,24.65 147.92,24.65 147.04,12.37 144.42,0.34 140.12,-11.19 134.22,-22.0 126.84,-31.85 118.14,-40.56 108.28,-47.94 97.48,-53.84 85.94,-58.14 73.91,-60.76 61.63,-61.63"/>
<polygon class="l0d0" points="110.94,24.65 123.27,24.65 110.94,73.96 86.29,73.96"/>
<polygon class="l0d0" points="129.43,24.65 141.76,24.65 147.92,73.96 123.27,73.96"/>
<polygon class="l0d0" points="147.92,24.65 160.25,24.65 184.9,73.96 160.25,73.96"/>
</g>
</svg>