<?xml version="1.0" encoding="UTF-8"?>
<svg xmlns="http://www.w3.org/2000/svg" xmlns:xlink="http://www.w3.org/1999/xlink" width="324.5" height="150.217645173838" viewBox="-159.75 -74.75 324.5 150.217645173838">
<defs>
<style type="text/css">
.l0d0 {stroke: rgb(255, 0, 0); fill: rgb(255, 0, 0); fill-opacity: 0.5;}
</style>
</defs><rect x="-159.75" y="-74.75" width="324.5" height="150.217645173838" fill="none" stroke="none"/>
<g id="polygonal-only_paths_2" transform="scale(1 -1)">
<polygon class="l0d0" points="-79.0,60.0 -81.0,60.0 -85.0,20.0 -75.0,20.0"/>
<polygon class="l0d0" points="-109.0,60.0 -111.0,60.0 -115.0,20.0 -105.0,20.0"/>
<polygon class="l0d0" points="-139.0,60.0 -141.0,60.0 -145.0,20.0 -135.0,20.0"/>
<polygon class="l0d0" points="-135.0,20.0 -133.77483036092465,11.13376130927169 -131.95508204091448,2.6671311370122175 -129.50992965447438,-5.379695304878702 -126.40952008357343,-12.969840027857806 -122.63244407345915,-20.045997306117798 -118.17642543568054,-26.530855261408327 -113.06930650787601,-32.33515506168135 -107.37436867076457,-37.37436867076458 -101.18401641134086,-41.589271100295406 -94.6014961785551,-44.9608269642585 -87.71835574442363,-47.511632637732006 -80.59813178273153,-49.29439534819457 -73.27163742957784,-50.37501219483731 -65.74187860531805,-50.81815023722635 -57.99317667760378,-50.678900164056664 -50.0,-50.0 -50.0,-60.0 -58.65836678284151,-60.656751742622745 -67.15609216769114,-60.717645173838015 -75.52023249656543,-60.11892415178352 -83.7604094428999,-58.7812283286997 -91.85638518743548,-56.615297412358046 -99.74645373283037,-53.53575622138394 -107.32342254649006,-49.482793274058665 -114.44543648263006,-44.44543648263006 -120.96282868163928,-38.47456119683055 -126.75135469280598,-31.675812815683592 -131.7361088480852,-24.184026749129643 -135.89635306407854,-16.132117688026185 -139.25384161142057,-7.628290371866287 -141.85457697752614,1.2529175746391226 -143.75268193949074,10.46857120403395 -145.0,20.0"/>
<polygon class="l0d0" points="-105.0,20.0 -104.77669921071696,13.066970052618869 -104.11275253169416,6.644606781186547 -103.0186690215269,0.7336725334937921 -101.50658350974743,-4.66886116991581 -99.58879261268697,-9.57161027849408 -97.27503537143727,-13.990021222862367 -94.56886391311838,-17.9459219324254 -91.46446609406726,-21.464466094067262 -87.94592193242539,-24.56886391311837 -83.99002122286237,-27.275035371437276 -79.57161027849408,-29.58879261268698 -74.66886116991581,-31.50658350974743 -69.26632746650621,-33.0186690215269 -63.355393218813454,-34.11275253169417 -56.93302994738113,-34.776699210716956 -50.0,-35.0 -50.0,-45.0 -57.59822005261887,-44.754550789283044 -64.76960678118655,-44.01224746830583 -71.51492253349379,-42.7625809784731 -77.83113883008419,-40.993416490252564 -83.70963972150592,-38.69245738731302 -89.13497877713763,-35.849964628562724 -94.08532806757461,-32.46238608688163 -98.53553390593274,-28.535533905932738 -102.46238608688162,-24.0853280675746 -105.84996462856273,-19.134978777137633 -108.69245738731303,-13.70963972150592 -110.99341649025257,-7.83113883008419 -112.7625809784731,-1.5149225334937921 -114.01224746830584,5.230393218813453 -114.75455078928304,12.401779947381131 -115.0,20.0"/>
<polygon class="l0d0" points="-75.0,20.0 -75.77856806050926,15.00017879596605 -76.27042302247386,10.622082425360876 -76.52740838857943,6.847040371866287 -76.60364693592145,3.6321176880261854 -76.5451411519148,0.902776749129639 -76.37364530719401,-1.4491871843164073 -76.06842131836072,-3.556688803169452 -75.55456351736994,-5.5545635173699415 -74.70782745350994,-7.548456725941337 -73.37854626716963,-9.589243778616057 -71.42486481256452,-11.665952587641947 -68.7395905571001,-13.7187716713003 -65.26101750343457,-15.662325848216483 -60.96890783230886,-17.407354826161985 -55.87288321715849,-18.87449825737725 -50.0,-20.0 -50.0,-30.0 -56.53807332239622,-28.852349835943336 -62.38312139468195,-27.30684976277365 -67.50961257042216,-25.406237805162686 -71.90186821726849,-23.205604651805434 -75.56289425557635,-20.769617362267994 -78.5235038214449,-18.1641730357415 -80.84723358865914,-15.441978899704598 -82.62563132923543,-12.625631329235418 -83.96194349212399,-9.696094938318655 -84.94857456431946,-6.594144738591673 -85.64880592654085,-3.2352526938822 -86.09047991642657,0.4698400278578063 -86.27132034552562,4.598445304878703 -86.16991795908552,9.207868862987782 -85.75641963907535,14.33498869072831 -85.0,20.0"/>
<polygon class="l0d0" points="-50.0,-50.0 -49.6078431372549,-50.00757949032806 -49.21568627450981,-50.03020306396499 -48.82352941176471,-50.06752777059564 -48.431372549019606,-50.11898780571421 -48.03921568627451,-50.18380308764378 -47.64705882352941,-50.26099108277934 -47.254901960784316,-50.34938169979576 -46.86274509803922,-50.447635027039496 -46.47058823529412,-50.554261644223466 -46.07843137254902,-50.66764520052034 -45.68627450980392,-50.7860669167935 -45.294117647058826,-50.907731640536696 -44.90196078431373,-51.03079505855617 -44.50980392156863,-51.15339165487868 -44.117647058823536,-51.27366299007208 -43.72549019607844,-51.38978587329268 -43.33333333333333,-51.5 -42.94117647058823,-51.60263463637926 -42.549019607843135,-51.69613394596293 -42.15686274509804,-51.77908057452568 -41.76470588235294,-51.850217135729615 -41.37254901960784,-51.90846527181952 -40.98039215686274,-51.95294200042716 -40.588235294117645,-51.9829730996839 -40.19607843137255,-51.998103328737045 -39.80392156862745,-51.998103328737045 -39.411764705882355,-51.9829730996839 -39.01960784313725,-51.95294200042716 -38.627450980392155,-51.90846527181952 -38.23529411764706,-51.850217135729615 -37.84313725490196,-51.77908057452568 -37.450980392156865,-51.69613394596293 -37.05882352941177,-51.60263463637926 -36.66666666666667,-51.5 -36.27450980392157,-51.38978587329268 -35.88235294117647,-51.27366299007208 -35.490196078431374,-51.15339165487868 -35.09803921568627,-51.03079505855617 -34.705882352941174,-50.907731640536696 -34.31372549019608,-50.7860669167935 -33.92156862745098,-50.66764520052034 -33.529411764705884,-50.554261644223466 -33.13725490196078,-50.447635027039496 -32.745098039215684,-50.34938169979576 -32.35294117647059,-50.26099108277934 -31.96078431372549,-50.18380308764378 -31.56862745098039,-50.11898780571421 -31.176470588235293,-50.06752777059564 -30.784313725490197,-50.03020306396499 -30.392156862745097,-50.00757949032806 -30.0,-50.0 -29.607843137254903,-50.00757949032806 -29.215686274509807,-50.03020306396499 -28.823529411764707,-50.06752777059564 -28.431372549019606,-50.11898780571421 -28.03921568627451,-50.18380308764378 -27.647058823529413,-50.26099108277934 -27.254901960784316,-50.34938169979576 -26.862745098039213,-50.447635027039496 -26.470588235294116,-50.554261644223466 -26.07843137254902,-50.66764520052034 -25.686274509803923,-50.7860669167935 -25.294117647058822,-50.907731640536696 -24.901960784313726,-51.03079505855617 -24.50980392156863,-51.15339165487868 -24.117647058823533,-51.27366299007208 -23.725490196078432,-51.38978587329268 -23.333333333333336,-51.5 -22.94117647058824,-51.60263463637925 -22.549019607843135,-51.69613394596293 -22.15686274509804,-51.77908057452568 -21.764705882352942,-51.850217135729615 -21.372549019607845,-51.90846527181952 -20.98039215686275,-51.95294200042716 -20.588235294117645,-51.9829730996839 -20.19607843137255,-51.998103328737045 -19.80392156862745,-51.998103328737045 -19.41176470588235,-51.9829730996839 -19.019607843137255,-51.95294200042716 -18.627450980392158,-51.90846527181952 -18.23529411764706,-51.850217135729615 -17.843137254901965,-51.77908057452568 -17.450980392156865,-51.69613394596293 -17.058823529411768,-51.60263463637926 -16.66666666666667,-51.5 -16.274509803921564,-51.38978587329268 -15.882352941176467,-51.27366299007208 -15.49019607843137,-51.15339165487868 -15.098039215686274,-51.03079505855617 -14.705882352941178,-50.907731640536696 -14.313725490196077,-50.7860669167935 -13.92156862745098,-50.66764520052034 -13.529411764705884,-50.554261644223466 -13.137254901960782,-50.447635027039496 -12.745098039215685,-50.34938169979576 -12.352941176470589,-50.26099108277934 -11.960784313725492,-50.18380308764378 -11.568627450980395,-50.11898780571421 -11.176470588235293,-50.06752777059564 -10.784313725490197,-50.03020306396499 -10.3921568627451,-50.00757949032806 -10.0,-50.0 -9.607843137254903,-50.00757949032806 -9.215686274509807,-50.03020306396499 -8.82352941176471,-50.06752777059564 -8.431372549019613,-50.11898780571421 -8.039215686274508,-50.18380308764378 -7.647058823529411,-50.26099108277934 -7.254901960784315,-50.34938169979576 -6.862745098039209,-50.447635027039496 -6.470588235294112,-50.554261644223466 -6.078431372549016,-50.66764520052034 -5.686274509803919,-50.7860669167935 -5.2941176470588225,-50.907731640536696 -4.901960784313726,-51.03079505855617 -4.509803921568629,-51.15339165487868 -4.1176470588235325,-51.27366299007208 -3.725490196078427,-51.38978587329268 -3.3333333333333304,-51.5 -2.9411764705882337,-51.60263463637925 -2.549019607843137,-51.69613394596293 -2.1568627450980404,-51.779080574525665 -1.7647058823529438,-51.850217135729615 -1.3725490196078471,-51.90846527181952 -0.9803921568627505,-51.95294200042716 -0.588235294117645,-51.9829730996839 -0.19607843137254832,-51.998103328737045 0.19607843137254832,-51.998103328737045 0.588235294117645,-51.9829730996839 0.9803921568627416,-51.95294200042716 1.3725490196078383,-51.90846527181952 1.764705882352935,-51.850217135729615 2.1568627450980404,-51.77908057452568 2.549019607843137,-51.69613394596293 2.9411764705882337,-51.60263463637926 3.3333333333333304,-51.5 3.725490196078427,-51.38978587329268 4.117647058823524,-51.27366299007208 4.50980392156862,-51.15339165487869 4.901960784313726,-51.03079505855617 5.2941176470588225,-50.907731640536696 5.686274509803919,-50.7860669167935 6.078431372549016,-50.66764520052034 6.470588235294112,-50.554261644223466 6.862745098039209,-50.447635027039496 7.254901960784306,-50.34938169979576 7.647058823529402,-50.26099108277934 8.039215686274499,-50.18380308764378 8.431372549019613,-50.11898780571421 8.82352941176471,-50.06752777059564 9.215686274509807,-50.03020306396499 9.607843137254903,-50.00757949032806 10.0,-50.0 10.392156862745097,-50.00757949032806 10.784313725490193,-50.03020306396499 11.176470588235299,-50.06752777059564 11.568627450980395,-50.11898780571421 11.960784313725492,-50.18380308764378 12.352941176470589,-50.26099108277934 12.745098039215685,-50.34938169979576 13.137254901960782,-50.447635027039496 13.529411764705879,-50.554261644223466 13.921568627450975,-50.66764520052034 14.313725490196072,-50.7860669167935 14.705882352941178,-50.907731640536696 15.098039215686274,-51.03079505855617 15.49019607843137,-51.15339165487868 15.882352941176467,-51.273662990072076 16.274509803921564,-51.38978587329268 16.66666666666666,-51.49999999999999 17.058823529411757,-51.60263463637925 17.450980392156872,-51.69613394596293 17.84313725490197,-51.77908057452568 18.235294117647065,-51.850217135729615 18.62745098039216,-51.90846527181952 19.01960784313726,-51.95294200042716 19.411764705882355,-51.9829730996839 19.80392156862745,-51.998103328737045 20.19607843137255,-51.998103328737045 20.588235294117645,-51.9829730996839 20.98039215686275,-51.95294200042716 21.372549019607845,-51.90846527181952 21.764705882352942,-51.850217135729615 22.15686274509804,-51.77908057452568 22.549019607843135,-51.69613394596293 22.941176470588232,-51.60263463637926 23.33333333333333,-51.5 23.725490196078436,-51.38978587329268 24.117647058823533,-51.27366299007208 24.50980392156863,-51.15339165487868 24.901960784313726,-51.03079505855617 25.294117647058822,-50.907731640536696 25.68627450980392,-50.78606691679351 26.078431372549016,-50.66764520052034 26.470588235294112,-50.554261644223466 26.86274509803921,-50.447635027039496 27.254901960784316,-50.34938169979576 27.647058823529413,-50.26099108277934 28.03921568627451,-50.18380308764378 28.431372549019606,-50.11898780571421 28.823529411764703,-50.067527770595646 29.2156862745098,-50.03020306396499 29.607843137254896,-50.00757949032806 30.0,-50.0 30.392156862745097,-50.00757949032806 30.784313725490193,-50.03020306396499 31.17647058823529,-50.06752777059564 31.568627450980387,-50.11898780571421 31.960784313725483,-50.18380308764378 32.35294117647058,-50.260991082779334 32.74509803921568,-50.34938169979576 33.13725490196077,-50.447635027039496 33.529411764705884,-50.554261644223466 33.92156862745098,-50.66764520052034 34.31372549019608,-50.7860669167935 34.705882352941174,-50.907731640536696 35.09803921568627,-51.03079505855617 35.49019607843137,-51.15339165487868 35.882352941176464,-51.273662990072076 36.27450980392158,-51.38978587329268 36.66666666666668,-51.5 37.058823529411775,-51.60263463637926 37.45098039215687,-51.69613394596293 37.84313725490197,-51.77908057452568 38.235294117647065,-51.850217135729615 38.62745098039216,-51.90846527181952 39.01960784313726,-51.95294200042716 39.411764705882355,-51.9829730996839 39.80392156862745,-51.998103328737045 40.19607843137255,-51.998103328737045 40.588235294117645,-51.9829730996839 40.98039215686274,-51.95294200042716 41.37254901960784,-51.90846527181952 41.764705882352935,-51.850217135729615 42.15686274509803,-51.77908057452568 42.54901960784315,-51.69613394596293 42.941176470588246,-51.60263463637926 43.33333333333334,-51.5 43.72549019607844,-51.38978587329268 44.117647058823536,-51.27366299007208 44.50980392156863,-51.15339165487869 44.90196078431373,-51.03079505855617 45.294117647058826,-50.90773164053671 45.68627450980392,-50.78606691679351 46.07843137254902,-50.66764520052034 46.470588235294116,-50.554261644223466 46.86274509803921,-50.447635027039496 47.25490196078431,-50.34938169979576 47.647058823529406,-50.26099108277934 48.0392156862745,-50.18380308764378 48.4313725490196,-50.11898780571421 48.82352941176471,-50.06752777059564 49.21568627450981,-50.03020306396499 49.6078431372549,-50.00757949032806 50.0,-50.0 50.0,-60.0 49.6078431372549,-59.99242050967194 49.21568627450981,-59.96979693603501 48.82352941176471,-59.93247222940436 48.4313725490196,-59.88101219428579 48.0392156862745,-59.81619691235622 47.647058823529406,-59.73900891722066 47.25490196078431,-59.65061830020424 46.86274509803921,-59.552364972960504 46.470588235294116,-59.445738355776534 46.07843137254902,-59.33235479947966 45.68627450980392,-59.21393308320649 45.294117647058826,-59.09226835946329 44.90196078431373,-58.96920494144383 44.50980392156863,-58.84660834512131 44.117647058823536,-58.72633700992792 43.72549019607844,-58.61021412670732 43.33333333333334,-58.5 42.941176470588246,-58.39736536362074 42.54901960784315,-58.30386605403707 42.15686274509803,-58.22091942547432 41.764705882352935,-58.149782864270385 41.37254901960784,-58.09153472818048 40.98039215686274,-58.04705799957284 40.588235294117645,-58.0170269003161 40.19607843137255,-58.001896671262955 39.80392156862745,-58.001896671262955 39.411764705882355,-58.0170269003161 39.01960784313726,-58.04705799957284 38.62745098039216,-58.09153472818048 38.235294117647065,-58.149782864270385 37.84313725490197,-58.22091942547432 37.45098039215687,-58.30386605403707 37.058823529411775,-58.39736536362074 36.66666666666668,-58.5 36.27450980392158,-58.61021412670732 35.882352941176464,-58.726337009927924 35.49019607843137,-58.84660834512132 35.09803921568627,-58.96920494144383 34.705882352941174,-59.092268359463304 34.31372549019608,-59.2139330832065 33.92156862745098,-59.33235479947966 33.529411764705884,-59.445738355776534 33.13725490196077,-59.552364972960504 32.74509803921568,-59.65061830020424 32.35294117647058,-59.739008917220666 31.960784313725483,-59.81619691235622 31.568627450980387,-59.88101219428579 31.17647058823529,-59.93247222940436 30.784313725490193,-59.96979693603501 30.392156862745097,-59.99242050967194 30.0,-60.0 29.607843137254896,-59.99242050967194 29.2156862745098,-59.96979693603501 28.823529411764703,-59.932472229404354 28.431372549019606,-59.88101219428579 28.03921568627451,-59.81619691235622 27.647058823529413,-59.73900891722066 27.254901960784316,-59.65061830020424 26.86274509803921,-59.552364972960504 26.470588235294112,-59.445738355776534 26.078431372549016,-59.33235479947966 25.68627450980392,-59.21393308320649 25.294117647058822,-59.092268359463304 24.901960784313726,-58.96920494144383 24.50980392156863,-58.84660834512132 24.117647058823533,-58.72633700992792 23.725490196078436,-58.61021412670732 23.33333333333333,-58.5 22.941176470588232,-58.39736536362074 22.549019607843135,-58.30386605403707 22.15686274509804,-58.22091942547432 21.764705882352942,-58.149782864270385 21.372549019607845,-58.09153472818048 20.98039215686275,-58.04705799957284 20.588235294117645,-58.0170269003161 20.19607843137255,-58.001896671262955 19.80392156862745,-58.001896671262955 19.411764705882355,-58.0170269003161 19.01960784313726,-58.04705799957284 18.62745098039216,-58.09153472818048 18.235294117647065,-58.149782864270385 17.84313725490197,-58.22091942547432 17.450980392156872,-58.30386605403707 17.058823529411757,-58.39736536362075 16.66666666666666,-58.50000000000001 16.274509803921564,-58.61021412670732 15.882352941176467,-58.726337009927924 15.49019607843137,-58.84660834512132 15.098039215686274,-58.96920494144383 14.705882352941178,-59.092268359463304 14.313725490196072,-59.2139330832065 13.921568627450975,-59.33235479947966 13.529411764705879,-59.445738355776534 13.137254901960782,-59.552364972960504 12.745098039215685,-59.65061830020424 12.352941176470589,-59.73900891722066 11.960784313725492,-59.81619691235622 11.568627450980395,-59.88101219428579 11.176470588235299,-59.93247222940436 10.784313725490193,-59.96979693603501 10.392156862745097,-59.99242050967194 10.0,-60.0 9.607843137254903,-59.99242050967194 9.215686274509807,-59.96979693603501 8.82352941176471,-59.93247222940436 8.431372549019613,-59.88101219428579 8.039215686274499,-59.81619691235622 7.647058823529402,-59.73900891722066 7.254901960784306,-59.65061830020424 6.862745098039209,-59.552364972960504 6.470588235294112,-59.445738355776534 6.078431372549016,-59.33235479947966 5.686274509803919,-59.2139330832065 5.2941176470588225,-59.092268359463304 4.901960784313726,-58.96920494144383 4.50980392156862,-58.84660834512131 4.117647058823524,-58.72633700992792 3.725490196078427,-58.61021412670732 3.3333333333333304,-58.5 2.9411764705882337,-58.39736536362074 2.549019607843137,-58.30386605403707 2.1568627450980404,-58.22091942547432 1.764705882352935,-58.149782864270385 1.3725490196078383,-58.09153472818048 0.9803921568627416,-58.04705799957284 0.588235294117645,-58.0170269003161 0.19607843137254832,-58.001896671262955 -0.19607843137254832,-58.001896671262955 -0.588235294117645,-58.0170269003161 -0.9803921568627505,-58.04705799957284 -1.3725490196078471,-58.09153472818048 -1.7647058823529438,-58.149782864270385 -2.1568627450980404,-58.220919425474335 -2.549019607843137,-58.30386605403707 -2.9411764705882337,-58.39736536362075 -3.3333333333333304,-58.5 -3.725490196078427,-58.61021412670732 -4.1176470588235325,-58.72633700992792 -4.509803921568629,-58.84660834512132 -4.901960784313726,-58.96920494144383 -5.2941176470588225,-59.092268359463304 -5.686274509803919,-59.2139330832065 -6.078431372549016,-59.33235479947966 -6.470588235294112,-59.445738355776534 -6.862745098039209,-59.552364972960504 -7.254901960784315,-59.65061830020424 -7.647058823529411,-59.73900891722066 -8.039215686274508,-59.81619691235622 -8.431372549019613,-59.88101219428579 -8.82352941176471,-59.93247222940436 -9.215686274509807,-59.96979693603501 -9.607843137254903,-59.99242050967194 -10.0,-60.0 -10.3921568627451,-59.99242050967194 -10.784313725490197,-59.96979693603501 -11.176470588235293,-59.93247222940436 -11.568627450980395,-59.88101219428579 -11.960784313725492,-59.81619691235622 -12.352941176470589,-59.73900891722066 -12.745098039215685,-59.65061830020424 -13.137254901960782,-59.552364972960504 -13.529411764705884,-59.445738355776534 -13.92156862745098,-59.33235479947966 -14.313725490196077,-59.2139330832065 -14.705882352941178,-59.092268359463304 -15.098039215686274,-58.96920494144383 -15.49019607843137,-58.84660834512132 -15.882352941176467,-58.72633700992792 -16.274509803921564,-58.61021412670732 -16.66666666666667,-58.5 -17.058823529411768,-58.39736536362074 -17.450980392156865,-58.30386605403707 -17.843137254901965,-58.22091942547432 -18.23529411764706,-58.149782864270385 -18.627450980392158,-58.09153472818048 -19.019607843137255,-58.04705799957284 -19.41176470588235,-58.0170269003161 -19.80392156862745,-58.001896671262955 -20.19607843137255,-58.001896671262955 -20.588235294117645,-58.0170269003161 -20.98039215686275,-58.04705799957284 -21.372549019607845,-58.09153472818048 -21.764705882352942,-58.149782864270385 -22.15686274509804,-58.22091942547432 -22.549019607843135,-58.30386605403707 -22.94117647058824,-58.39736536362075 -23.333333333333336,-58.5 -23.725490196078432,-58.61021412670732 -24.117647058823533,-58.72633700992792 -24.50980392156863,-58.84660834512132 -24.901960784313726,-58.96920494144383 -25.294117647058822,-59.092268359463304 -25.686274509803923,-59.2139330832065 -26.07843137254902,-59.33235479947966 -26.470588235294116,-59.445738355776534 -26.862745098039213,-59.552364972960504 -27.254901960784316,-59.65061830020424 -27.647058823529413,-59.73900891722066 -28.03921568627451,-59.81619691235622 -28.431372549019606,-59.88101219428579 -28.823529411764707,-59.93247222940436 -29.215686274509807,-59.96979693603501 -29.607843137254903,-59.99242050967194 -30.0,-60.0 -30.392156862745097,-59.99242050967194 -30.784313725490197,-59.96979693603501 -31.176470588235293,-59.93247222940436 -31.56862745098039,-59.88101219428579 -31.96078431372549,-59.81619691235622 -32.35294117647059,-59.73900891722066 -32.745098039215684,-59.65061830020424 -33.13725490196078,-59.552364972960504 -33.529411764705884,-59.445738355776534 -33.92156862745098,-59.33235479947966 -34.31372549019608,-59.2139330832065 -34.705882352941174,-59.092268359463304 -35.09803921568627,-58.96920494144383 -35.490196078431374,-58.84660834512132 -35.88235294117647,-58.72633700992792 -36.27450980392157,-58.61021412670732 -36.66666666666667,-58.5 -37.05882352941177,-58.39736536362074 -37.450980392156865,-58.30386605403707 -37.84313725490196,-58.22091942547432 -38.23529411764706,-58.149782864270385 -38.627450980392155,-58.09153472818048 -39.01960784313725,-58.04705799957284 -39.411764705882355,-58.0170269003161 -39.80392156862745,-58.001896671262955 -40.19607843137255,-58.001896671262955 -40.588235294117645,-58.0170269003161 -40.98039215686274,-58.04705799957284 -41.37254901960784,-58.09153472818048 -41.76470588235294,-58.149782864270385 -42.15686274509804,-58.22091942547432 -42.549019607843135,-58.30386605403707 -42.94117647058823,-58.39736536362074 -43.33333333333333,-58.5 -43.72549019607844,-58.61021412670732 -44.117647058823536,-58.72633700992792 -44.50980392156863,-58.84660834512132 -44.90196078431373,-58.96920494144383 -45.294117647058826,-59.092268359463304 -45.68627450980392,-59.2139330832065 -46.07843137254902,-59.33235479947966 -46.47058823529412,-59.445738355776534 -46.86274509803922,-59.552364972960504 -47.254901960784316,-59.65061830020424 -47.64705882352941,-59.73900891722066 -48.03921568627451,-59.81619691235622 -48.431372549019606,-59.88101219428579 -48.82352941176471,-59.93247222940436 -49.21568627450981,-59.96979693603501 -49.6078431372549,-59.99242050967194 -50.0,-60.0"/>
<polygon class="l0d0" points="-50.0,-35.0 -49.6078431372549,-35.00757949032806 -49.21568627450981,-35.03020306396499 -48.82352941176471,-35.067527770595646 -48.431372549019606,-35.11898780571422 -48.03921568627451,-35.183803087643774 -47.64705882352941,-35.26099108277934 -47.254901960784316,-35.34938169979576 -46.86274509803922,-35.447635027039496 -46.47058823529412,-35.55426164422346 -46.07843137254902,-35.66764520052034 -45.68627450980392,-35.7860669167935 -45.294117647058826,-35.907731640536696 -44.90196078431373,-36.03079505855617 -44.50980392156863,-36.15339165487868 -44.117647058823536,-36.27366299007208 -43.72549019607844,-36.38978587329268 -43.33333333333333,-36.5 -42.94117647058823,-36.60263463637926 -42.549019607843135,-36.69613394596293 -42.15686274509804,-36.77908057452567 -41.76470588235294,-36.850217135729615 -41.37254901960784,-36.90846527181952 -40.98039215686274,-36.95294200042716 -40.588235294117645,-36.9829730996839 -40.19607843137255,-36.998103328737045 -39.80392156862745,-36.998103328737045 -39.411764705882355,-36.9829730996839 -39.01960784313725,-36.95294200042716 -38.627450980392155,-36.90846527181952 -38.23529411764706,-36.850217135729615 -37.84313725490196,-36.77908057452567 -37.450980392156865,-36.69613394596293 -37.05882352941177,-36.60263463637926 -36.66666666666667,-36.5 -36.27450980392157,-36.38978587329268 -35.88235294117647,-36.27366299007208 -35.490196078431374,-36.15339165487868 -35.09803921568627,-36.03079505855617 -34.705882352941174,-35.907731640536696 -34.31372549019608,-35.7860669167935 -33.92156862745098,-35.66764520052034 -33.529411764705884,-35.55426164422346 -33.13725490196078,-35.447635027039496 -32.745098039215684,-35.34938169979576 -32.35294117647059,-35.26099108277934 -31.96078431372549,-35.183803087643774 -31.56862745098039,-35.11898780571422 -31.176470588235293,-35.067527770595646 -30.784313725490197,-35.03020306396499 -30.392156862745097,-35.00757949032806 -30.0,-35.0 -29.607843137254903,-35.00757949032806 -29.215686274509807,-35.03020306396499 -28.823529411764707,-35.067527770595646 -28.431372549019606,-35.11898780571422 -28.03921568627451,-35.183803087643774 -27.647058823529413,-35.26099108277934 -27.254901960784316,-35.34938169979576 -26.862745098039213,-35.447635027039496 -26.470588235294116,-35.55426164422346 -26.07843137254902,-35.66764520052034 -25.686274509803923,-35.7860669167935 -25.294117647058822,-35.907731640536696 -24.901960784313726,-36.03079505855617 -24.50980392156863,-36.15339165487868 -24.117647058823533,-36.27366299007208 -23.725490196078432,-36.38978587329268 -23.333333333333336,-36.5 -22.94117647058824,-36.60263463637926 -22.549019607843135,-36.69613394596293 -22.15686274509804,-36.77908057452567 -21.764705882352942,-36.850217135729615 -21.372549019607845,-36.90846527181952 -20.98039215686275,-36.95294200042716 -20.588235294117645,-36.9829730996839 -20.19607843137255,-36.998103328737045 -19.80392156862745,-36.998103328737045 -19.41176470588235,-36.9829730996839 -19.019607843137255,-36.95294200042716 -18.627450980392158,-36.90846527181952 -18.23529411764706,-36.850217135729615 -17.843137254901965,-36.77908057452567 -17.450980392156865,-36.69613394596293 -17.058823529411768,-36.60263463637926 -16.66666666666667,-36.5 -16.274509803921564,-36.38978587329268 -15.882352941176467,-36.27366299007208 -15.49019607843137,-36.15339165487868 -15.098039215686274,-36.03079505855617 -14.705882352941178,-35.907731640536696 -14.313725490196077,-35.7860669167935 -13.92156862745098,-35.66764520052034 -13.529411764705884,-35.55426164422346 -13.137254901960782,-35.447635027039496 -12.745098039215685,-35.34938169979576 -12.352941176470589,-35.26099108277934 -11.960784313725492,-35.183803087643774 -11.568627450980395,-35.11898780571422 -11.176470588235293,-35.067527770595646 -10.784313725490197,-35.03020306396499 -10.3921568627451,-35.00757949032806 -10.0,-35.0 -9.607843137254903,-35.00757949032806 -9.215686274509807,-35.03020306396499 -8.82352941176471,-35.067527770595646 -8.431372549019613,-35.11898780571421 -8.039215686274508,-35.183803087643774 -7.647058823529411,-35.26099108277934 -7.254901960784315,-35.34938169979576 -6.862745098039209,-35.447635027039496 -6.470588235294112,-35.55426164422346 -6.078431372549016,-35.66764520052034 -5.686274509803919,-35.7860669167935 -5.2941176470588225,-35.907731640536696 -4.901960784313726,-36.03079505855617 -4.509803921568629,-36.15339165487868 -4.1176470588235325,-36.27366299007208 -3.725490196078427,-36.38978587329268 -3.3333333333333304,-36.5 -2.9411764705882337,-36.60263463637926 -2.549019607843137,-36.69613394596293 -2.1568627450980404,-36.779080574525665 -1.7647058823529438,-36.850217135729615 -1.3725490196078471,-36.90846527181952 -0.9803921568627505,-36.95294200042716 -0.588235294117645,-36.9829730996839 -0.19607843137254832,-36.998103328737045 0.19607843137254832,-36.998103328737045 0.588235294117645,-36.9829730996839 0.9803921568627416,-36.95294200042716 1.3725490196078383,-36.90846527181952 1.764705882352935,-36.850217135729615 2.1568627450980404,-36.77908057452567 2.549019607843137,-36.69613394596293 2.9411764705882337,-36.60263463637926 3.3333333333333304,-36.5 3.725490196078427,-36.38978587329268 4.117647058823524,-36.27366299007208 4.50980392156862,-36.15339165487869 4.901960784313726,-36.03079505855617 5.2941176470588225,-35.907731640536696 5.686274509803919,-35.7860669167935 6.078431372549016,-35.66764520052034 6.470588235294112,-35.55426164422346 6.862745098039209,-35.447635027039496 7.254901960784306,-35.34938169979576 7.647058823529402,-35.26099108277934 8.039215686274499,-35.18380308764378 8.431372549019613,-35.11898780571421 8.82352941176471,-35.067527770595646 9.215686274509807,-35.03020306396499 9.607843137254903,-35.00757949032806 10.0,-35.0 10.392156862745097,-35.00757949032806 10.784313725490193,-35.03020306396499 11.176470588235299,-35.067527770595646 11.568627450980395,-35.11898780571422 11.960784313725492,-35.183803087643774 12.352941176470589,-35.26099108277934 12.745098039215685,-35.34938169979576 13.137254901960782,-35.447635027039496 13.529411764705879,-35.55426164422346 13.921568627450975,-35.66764520052034 14.313725490196072,-35.7860669167935 14.705882352941178,-35.907731640536696 15.098039215686274,-36.030795058556166 15.49019607843137,-36.15339165487868 15.882352941176467,-36.27366299007208 16.274509803921564,-36.38978587329268 16.66666666666666,-36.49999999999999 17.058823529411757,-36.60263463637926 17.450980392156872,-36.69613394596293 17.84313725490197,-36.77908057452567 18.235294117647065,-36.850217135729615 18.62745098039216,-36.90846527181952 19.01960784313726,-36.95294200042716 19.411764705882355,-36.9829730996839 19.80392156862745,-36.998103328737045 20.19607843137255,-36.998103328737045 20.588235294117645,-36.9829730996839 20.98039215686275,-36.95294200042716 21.372549019607845,-36.90846527181952 21.764705882352942,-36.850217135729615 22.15686274509804,-36.77908057452567 22.549019607843135,-36.69613394596293 22.941176470588232,-36.60263463637926 23.33333333333333,-36.5 23.725490196078436,-36.38978587329268 24.117647058823533,-36.27366299007208 24.50980392156863,-36.15339165487868 24.901960784313726,-36.03079505855617 25.294117647058822,-35.907731640536696 25.68627450980392,-35.7860669167935 26.078431372549016,-35.66764520052034 26.470588235294112,-35.55426164422346 26.86274509803921,-35.447635027039496 27.254901960784316,-35.34938169979576 27.647058823529413,-35.26099108277934 28.03921568627451,-35.183803087643774 28.431372549019606,-35.11898780571422 28.823529411764703,-35.067527770595646 29.2156862745098,-35.03020306396499 29.607843137254896,-35.00757949032806 30.0,-35.0 30.392156862745097,-35.00757949032806 30.784313725490193,-35.03020306396499 31.17647058823529,-35.067527770595646 31.568627450980387,-35.11898780571421 31.960784313725483,-35.183803087643774 32.35294117647058,-35.260991082779334 32.74509803921568,-35.34938169979576 33.13725490196077,-35.447635027039496 33.529411764705884,-35.55426164422346 33.92156862745098,-35.66764520052034 34.31372549019608,-35.7860669167935 34.705882352941174,-35.907731640536696 35.09803921568627,-36.030795058556166 35.49019607843137,-36.15339165487868 35.882352941176464,-36.273662990072076 36.27450980392158,-36.38978587329268 36.66666666666668,-36.5 37.058823529411775,-36.60263463637926 37.45098039215687,-36.69613394596293 37.84313725490197,-36.77908057452567 38.235294117647065,-36.850217135729615 38.62745098039216,-36.90846527181952 39.01960784313726,-36.95294200042716 39.411764705882355,-36.9829730996839 39.80392156862745,-36.998103328737045 40.19607843137255,-36.998103328737045 40.588235294117645,-36.9829730996839 40.98039215686274,-36.95294200042716 41.37254901960784,-36.90846527181952 41.764705882352935,-36.850217135729615 42.15686274509803,-36.77908057452567 42.54901960784315,-36.69613394596293 42.941176470588246,-36.60263463637926 43.33333333333334,-36.5 43.72549019607844,-36.38978587329268 44.117647058823536,-36.27366299007208 44.50980392156863,-36.15339165487869 44.90196078431373,-36.03079505855617 45.294117647058826,-35.9077316405367 45.68627450980392,-35.78606691679351 46.07843137254902,-35.66764520052034 46.470588235294116,-35.55426164422346 46.86274509803921,-35.447635027039496 47.25490196078431,-35.349381699795764 47.647058823529406,-35.26099108277934 48.0392156862745,-35.18380308764378 48.4313725490196,-35.11898780571422 48.82352941176471,-35.067527770595646 49.21568627450981,-35.03020306396499 49.6078431372549,-35.00757949032806 50.0,-35.0 50.0,-45.0 49.6078431372549,-44.99242050967194 49.21568627450981,-44.96979693603501 48.82352941176471,-44.932472229404354 48.4313725490196,-44.88101219428579 48.0392156862745,-44.81619691235622 47.647058823529406,-44.73900891722066 47.25490196078431,-44.65061830020424 46.86274509803921,-44.552364972960504 46.470588235294116,-44.445738355776534 46.07843137254902,-44.33235479947966 45.68627450980392,-44.21393308320649 45.294117647058826,-44.09226835946329 44.90196078431373,-43.96920494144383 44.50980392156863,-43.84660834512131 44.117647058823536,-43.72633700992792 43.72549019607844,-43.61021412670732 43.33333333333334,-43.5 42.941176470588246,-43.39736536362074 42.54901960784315,-43.30386605403707 42.15686274509803,-43.22091942547432 41.764705882352935,-43.149782864270385 41.37254901960784,-43.09153472818048 40.98039215686274,-43.04705799957284 40.588235294117645,-43.017026900316104 40.19607843137255,-43.00189667126296 39.80392156862745,-43.001896671262955 39.411764705882355,-43.017026900316104 39.01960784313726,-43.04705799957284 38.62745098039216,-43.09153472818048 38.235294117647065,-43.149782864270385 37.84313725490197,-43.220919425474335 37.45098039215687,-43.30386605403707 37.058823529411775,-43.39736536362074 36.66666666666668,-43.5 36.27450980392158,-43.61021412670732 35.882352941176464,-43.726337009927924 35.49019607843137,-43.84660834512132 35.09803921568627,-43.96920494144383 34.705882352941174,-44.092268359463304 34.31372549019608,-44.2139330832065 33.92156862745098,-44.33235479947966 33.529411764705884,-44.44573835577654 33.13725490196077,-44.552364972960504 32.74509803921568,-44.65061830020424 32.35294117647058,-44.739008917220666 31.960784313725483,-44.816196912356226 31.568627450980387,-44.88101219428579 31.17647058823529,-44.93247222940436 30.784313725490193,-44.96979693603501 30.392156862745097,-44.99242050967194 30.0,-45.0 29.607843137254896,-44.99242050967194 29.2156862745098,-44.969796936035 28.823529411764703,-44.932472229404354 28.431372549019606,-44.88101219428579 28.03921568627451,-44.81619691235622 27.647058823529413,-44.739008917220666 27.254901960784316,-44.65061830020424 26.86274509803921,-44.552364972960504 26.470588235294112,-44.445738355776534 26.078431372549016,-44.33235479947966 25.68627450980392,-44.2139330832065 25.294117647058822,-44.092268359463304 24.901960784313726,-43.96920494144383 24.50980392156863,-43.84660834512132 24.117647058823533,-43.72633700992792 23.725490196078436,-43.61021412670732 23.33333333333333,-43.5 22.941176470588232,-43.39736536362074 22.549019607843135,-43.30386605403707 22.15686274509804,-43.22091942547432 21.764705882352942,-43.149782864270385 21.372549019607845,-43.09153472818048 20.98039215686275,-43.04705799957284 20.588235294117645,-43.0170269003161 20.19607843137255,-43.001896671262955 19.80392156862745,-43.00189667126296 19.411764705882355,-43.017026900316104 19.01960784313726,-43.04705799957284 18.62745098039216,-43.09153472818048 18.235294117647065,-43.149782864270385 17.84313725490197,-43.220919425474335 17.450980392156872,-43.30386605403707 17.058823529411757,-43.39736536362075 16.66666666666666,-43.50000000000001 16.274509803921564,-43.61021412670732 15.882352941176467,-43.726337009927924 15.49019607843137,-43.84660834512132 15.098039215686274,-43.96920494144383 14.705882352941178,-44.092268359463304 14.313725490196072,-44.2139330832065 13.921568627450975,-44.33235479947966 13.529411764705879,-44.44573835577654 13.137254901960782,-44.552364972960504 12.745098039215685,-44.65061830020424 12.352941176470589,-44.73900891722066 11.960784313725492,-44.81619691235622 11.568627450980395,-44.88101219428579 11.176470588235299,-44.932472229404354 10.784313725490193,-44.96979693603501 10.392156862745097,-44.99242050967194 10.0,-45.0 9.607843137254903,-44.99242050967194 9.215686274509807,-44.96979693603501 8.82352941176471,-44.932472229404354 8.431372549019613,-44.88101219428579 8.039215686274499,-44.81619691235622 7.647058823529402,-44.73900891722066 7.254901960784306,-44.65061830020424 6.862745098039209,-44.552364972960504 6.470588235294112,-44.445738355776534 6.078431372549016,-44.33235479947966 5.686274509803919,-44.2139330832065 5.2941176470588225,-44.092268359463304 4.901960784313726,-43.96920494144383 4.50980392156862,-43.84660834512131 4.117647058823524,-43.72633700992792 3.725490196078427,-43.61021412670732 3.3333333333333304,-43.5 2.9411764705882337,-43.39736536362074 2.549019607843137,-43.30386605403707 2.1568627450980404,-43.22091942547432 1.764705882352935,-43.149782864270385 1.3725490196078383,-43.09153472818047 0.9803921568627416,-43.04705799957284 0.588235294117645,-43.017026900316104 0.19607843137254832,-43.001896671262955 -0.19607843137254832,-43.001896671262955 -0.588235294117645,-43.017026900316104 -0.9803921568627505,-43.04705799957284 -1.3725490196078471,-43.09153472818048 -1.7647058823529438,-43.149782864270385 -2.1568627450980404,-43.220919425474335 -2.549019607843137,-43.30386605403707 -2.9411764705882337,-43.39736536362074 -3.3333333333333304,-43.5 -3.725490196078427,-43.61021412670732 -4.1176470588235325,-43.72633700992792 -4.509803921568629,-43.84660834512132 -4.901960784313726,-43.96920494144383 -5.2941176470588225,-44.092268359463304 -5.686274509803919,-44.2139330832065 -6.078431372549016,-44.33235479947966 -6.470588235294112,-44.445738355776534 -6.862745098039209,-44.552364972960504 -7.254901960784315,-44.65061830020424 -7.647058823529411,-44.739008917220666 -8.039215686274508,-44.81619691235622 -8.431372549019613,-44.88101219428579 -8.82352941176471,-44.93247222940436 -9.215686274509807,-44.96979693603501 -9.607843137254903,-44.99242050967194 -10.0,-45.0 -10.3921568627451,-44.99242050967194 -10.784313725490197,-44.96979693603501 -11.176470588235293,-44.93247222940436 -11.568627450980395,-44.88101219428579 -11.960784313725492,-44.81619691235622 -12.352941176470589,-44.73900891722066 -12.745098039215685,-44.65061830020424 -13.137254901960782,-44.552364972960504 -13.529411764705884,-44.445738355776534 -13.92156862745098,-44.33235479947966 -14.313725490196077,-44.2139330832065 -14.705882352941178,-44.092268359463304 -15.098039215686274,-43.96920494144383 -15.49019607843137,-43.84660834512132 -15.882352941176467,-43.72633700992792 -16.274509803921564,-43.61021412670732 -16.66666666666667,-43.5 -17.058823529411768,-43.39736536362074 -17.450980392156865,-43.30386605403707 -17.843137254901965,-43.220919425474335 -18.23529411764706,-43.149782864270385 -18.627450980392158,-43.09153472818048 -19.019607843137255,-43.04705799957284 -19.41176470588235,-43.017026900316104 -19.80392156862745,-43.001896671262955 -20.19607843137255,-43.001896671262955 -20.588235294117645,-43.017026900316104 -20.98039215686275,-43.04705799957284 -21.372549019607845,-43.09153472818048 -21.764705882352942,-43.149782864270385 -22.15686274509804,-43.220919425474335 -22.549019607843135,-43.30386605403707 -22.94117647058824,-43.39736536362074 -23.333333333333336,-43.5 -23.725490196078432,-43.61021412670732 -24.117647058823533,-43.726337009927924 -24.50980392156863,-43.84660834512132 -24.901960784313726,-43.96920494144383 -25.294117647058822,-44.092268359463304 -25.686274509803923,-44.2139330832065 -26.07843137254902,-44.33235479947966 -26.470588235294116,-44.44573835577654 -26.862745098039213,-44.552364972960504 -27.254901960784316,-44.65061830020424 -27.647058823529413,-44.73900891722066 -28.03921568627451,-44.81619691235622 -28.431372549019606,-44.88101219428579 -28.823529411764707,-44.932472229404354 -29.215686274509807,-44.96979693603501 -29.607843137254903,-44.99242050967194 -30.0,-45.0 -30.392156862745097,-44.99242050967194 -30.784313725490197,-44.96979693603501 -31.176470588235293,-44.932472229404354 -31.56862745098039,-44.88101219428579 -31.96078431372549,-44.81619691235622 -32.35294117647059,-44.73900891722066 -32.745098039215684,-44.65061830020424 -33.13725490196078,-44.552364972960504 -33.529411764705884,-44.445738355776534 -33.92156862745098,-44.33235479947966 -34.31372549019608,-44.2139330832065 -34.705882352941174,-44.092268359463304 -35.09803921568627,-43.96920494144383 -35.490196078431374,-43.84660834512132 -35.88235294117647,-43.72633700992792 -36.27450980392157,-43.61021412670732 -36.66666666666667,-43.5 -37.05882352941177,-43.39736536362074 -37.450980392156865,-43.30386605403707 -37.84313725490196,-43.220919425474335 -38.23529411764706,-43.149782864270385 -38.627450980392155,-43.09153472818048 -39.01960784313725,-43.04705799957284 -39.411764705882355,-43.017026900316104 -39.80392156862745,-43.001896671262955 -40.19607843137255,-43.001896671262955 -40.588235294117645,-43.017026900316104 -40.98039215686274,-43.04705799957284 -41.37254901960784,-43.09153472818048 -41.76470588235294,-43.149782864270385 -42.15686274509804,-43.220919425474335 -42.549019607843135,-43.30386605403707 -42.94117647058823,-43.39736536362074 -43.33333333333333,-43.5 -43.72549019607844,-43.61021412670732 -44.117647058823536,-43.72633700992792 -44.50980392156863,-43.84660834512132 -44.90196078431373,-43.96920494144383 -45.294117647058826,-44.092268359463304 -45.68627450980392,-44.2139330832065 -46.07843137254902,-44.33235479947966 -46.47058823529412,-44.445738355776534 -46.86274509803922,-44.552364972960504 -47.254901960784316,-44.65061830020424 -47.64705882352941,-44.73900891722066 -48.03921568627451,-44.81619691235622 -48.431372549019606,-44.88101219428579 -48.82352941176471,-44.932472229404354 -49.21568627450981,-44.96979693603501 -49.6078431372549,-44.99242050967194 -50.0,-45.0"/>
<polygon class="l0d0" points="-50.0,-20.0 -49.6078431372549,-20.007579490328062 -49.21568627450981,-20.03020306396499 -48.82352941176471,-20.067527770595643 -48.431372549019606,-20.118987805714212 -48.03921568627451,-20.183803087643778 -47.64705882352941,-20.26099108277934 -47.254901960784316,-20.349381699795757 -46.86274509803922,-20.447635027039492 -46.47058823529412,-20.554261644223462 -46.07843137254902,-20.66764520052034 -45.68627450980392,-20.7860669167935 -45.294117647058826,-20.907731640536696 -44.90196078431373,-21.030795058556173 -44.50980392156863,-21.153391654878682 -44.117647058823536,-21.273662990072083 -43.72549019607844,-21.389785873292677 -43.33333333333333,-21.5 -42.94117647058823,-21.602634636379257 -42.549019607843135,-21.696133945962927 -42.15686274509804,-21.779080574525672 -41.76470588235294,-21.850217135729615 -41.37254901960784,-21.908465271819523 -40.98039215686274,-21.952942000427154 -40.588235294117645,-21.982973099683903 -40.19607843137255,-21.998103328737045 -39.80392156862745,-21.998103328737045 -39.411764705882355,-21.982973099683903 -39.01960784313725,-21.952942000427154 -38.627450980392155,-21.908465271819523 -38.23529411764706,-21.850217135729615 -37.84313725490196,-21.779080574525672 -37.450980392156865,-21.696133945962927 -37.05882352941177,-21.602634636379257 -36.66666666666667,-21.5 -36.27450980392157,-21.389785873292677 -35.88235294117647,-21.273662990072083 -35.490196078431374,-21.153391654878682 -35.09803921568627,-21.030795058556173 -34.705882352941174,-20.907731640536696 -34.31372549019608,-20.7860669167935 -33.92156862745098,-20.66764520052034 -33.529411764705884,-20.554261644223462 -33.13725490196078,-20.447635027039492 -32.745098039215684,-20.349381699795757 -32.35294117647059,-20.26099108277934 -31.96078431372549,-20.183803087643778 -31.56862745098039,-20.118987805714212 -31.176470588235293,-20.067527770595643 -30.784313725490197,-20.03020306396499 -30.392156862745097,-20.007579490328062 -30.0,-20.0 -29.607843137254903,-20.007579490328062 -29.215686274509807,-20.03020306396499 -28.823529411764707,-20.067527770595643 -28.431372549019606,-20.118987805714212 -28.03921568627451,-20.183803087643778 -27.647058823529413,-20.26099108277934 -27.254901960784316,-20.349381699795757 -26.862745098039213,-20.447635027039492 -26.470588235294116,-20.554261644223462 -26.07843137254902,-20.66764520052034 -25.686274509803923,-20.7860669167935 -25.294117647058822,-20.907731640536696 -24.901960784313726,-21.030795058556173 -24.50980392156863,-21.153391654878682 -24.117647058823533,-21.273662990072083 -23.725490196078432,-21.389785873292677 -23.333333333333336,-21.5 -22.94117647058824,-21.602634636379253 -22.549019607843135,-21.696133945962927 -22.15686274509804,-21.779080574525672 -21.764705882352942,-21.850217135729615 -21.372549019607845,-21.908465271819523 -20.98039215686275,-21.952942000427154 -20.588235294117645,-21.982973099683903 -20.19607843137255,-21.998103328737045 -19.80392156862745,-21.998103328737045 -19.41176470588235,-21.982973099683903 -19.019607843137255,-21.952942000427154 -18.627450980392158,-21.908465271819523 -18.23529411764706,-21.850217135729615 -17.843137254901965,-21.779080574525672 -17.450980392156865,-21.696133945962927 -17.058823529411768,-21.602634636379257 -16.66666666666667,-21.500000000000004 -16.274509803921564,-21.389785873292677 -15.882352941176467,-21.273662990072083 -15.49019607843137,-21.153391654878682 -15.098039215686274,-21.030795058556173 -14.705882352941178,-20.907731640536696 -14.313725490196077,-20.7860669167935 -13.92156862745098,-20.66764520052034 -13.529411764705884,-20.554261644223462 -13.137254901960782,-20.447635027039492 -12.745098039215685,-20.349381699795757 -12.352941176470589,-20.26099108277934 -11.960784313725492,-20.18380308764378 -11.568627450980395,-20.118987805714216 -11.176470588235293,-20.067527770595643 -10.784313725490197,-20.03020306396499 -10.3921568627451,-20.007579490328062 -10.0,-20.0 -9.607843137254903,-20.007579490328062 -9.215686274509807,-20.03020306396499 -8.82352941176471,-20.067527770595643 -8.431372549019613,-20.118987805714212 -8.039215686274508,-20.183803087643778 -7.647058823529411,-20.26099108277934 -7.254901960784315,-20.349381699795757 -6.862745098039209,-20.447635027039492 -6.470588235294112,-20.554261644223462 -6.078431372549016,-20.66764520052034 -5.686274509803919,-20.7860669167935 -5.2941176470588225,-20.907731640536696 -4.901960784313726,-21.030795058556173 -4.509803921568629,-21.153391654878682 -4.1176470588235325,-21.273662990072083 -3.725490196078427,-21.389785873292677 -3.3333333333333304,-21.5 -2.9411764705882337,-21.602634636379253 -2.549019607843137,-21.696133945962927 -2.1568627450980404,-21.779080574525665 -1.7647058823529438,-21.850217135729615 -1.3725490196078471,-21.908465271819523 -0.9803921568627505,-21.952942000427154 -0.588235294117645,-21.982973099683903 -0.19607843137254832,-21.998103328737045 0.19607843137254832,-21.998103328737045 0.588235294117645,-21.982973099683903 0.9803921568627416,-21.952942000427157 1.3725490196078383,-21.908465271819523 1.764705882352935,-21.850217135729615 2.1568627450980404,-21.779080574525672 2.549019607843137,-21.696133945962927 2.9411764705882337,-21.602634636379257 3.3333333333333304,-21.500000000000004 3.725490196078427,-21.38978587329268 4.117647058823524,-21.273662990072086 4.50980392156862,-21.15339165487869 4.901960784313726,-21.030795058556173 5.2941176470588225,-20.907731640536696 5.686274509803919,-20.7860669167935 6.078431372549016,-20.667645200520344 6.470588235294112,-20.554261644223462 6.862745098039209,-20.447635027039492 7.254901960784306,-20.349381699795757 7.647058823529402,-20.260991082779345 8.039215686274499,-20.18380308764378 8.431372549019613,-20.118987805714212 8.82352941176471,-20.067527770595643 9.215686274509807,-20.03020306396499 9.607843137254903,-20.007579490328062 10.0,-20.0 10.392156862745097,-20.007579490328062 10.784313725490193,-20.03020306396499 11.176470588235299,-20.067527770595643 11.568627450980395,-20.118987805714216 11.960784313725492,-20.18380308764378 12.352941176470589,-20.26099108277934 12.745098039215685,-20.349381699795757 13.137254901960782,-20.447635027039492 13.529411764705879,-20.554261644223462 13.921568627450975,-20.66764520052034 14.313725490196072,-20.7860669167935 14.705882352941178,-20.907731640536696 15.098039215686274,-21.030795058556173 15.49019607843137,-21.153391654878682 15.882352941176467,-21.273662990072076 16.274509803921564,-21.389785873292677 16.66666666666666,-21.499999999999993 17.058823529411757,-21.602634636379253 17.450980392156872,-21.696133945962927 17.84313725490197,-21.779080574525672 18.235294117647065,-21.850217135729615 18.62745098039216,-21.908465271819523 19.01960784313726,-21.952942000427154 19.411764705882355,-21.982973099683903 19.80392156862745,-21.998103328737045 20.19607843137255,-21.998103328737045 20.588235294117645,-21.982973099683903 20.98039215686275,-21.952942000427154 21.372549019607845,-21.908465271819523 21.764705882352942,-21.850217135729615 22.15686274509804,-21.779080574525672 22.549019607843135,-21.696133945962927 22.941176470588232,-21.602634636379257 23.33333333333333,-21.500000000000004 23.725490196078436,-21.389785873292677 24.117647058823533,-21.273662990072083 24.50980392156863,-21.153391654878682 24.901960784313726,-21.030795058556173 25.294117647058822,-20.907731640536696 25.68627450980392,-20.786066916793505 26.078431372549016,-20.667645200520344 26.470588235294112,-20.554261644223462 26.86274509803921,-20.447635027039492 27.254901960784316,-20.349381699795757 27.647058823529413,-20.26099108277934 28.03921568627451,-20.183803087643778 28.431372549019606,-20.118987805714212 28.823529411764703,-20.067527770595646 29.2156862745098,-20.03020306396499 29.607843137254896,-20.007579490328062 30.0,-20.0 30.392156862745097,-20.007579490328062 30.784313725490193,-20.03020306396499 31.17647058823529,-20.067527770595643 31.568627450980387,-20.118987805714212 31.960784313725483,-20.183803087643778 32.35294117647058,-20.260991082779334 32.74509803921568,-20.349381699795757 33.13725490196077,-20.447635027039492 33.529411764705884,-20.554261644223462 33.92156862745098,-20.66764520052034 34.31372549019608,-20.7860669167935 34.705882352941174,-20.907731640536696 35.09803921568627,-21.030795058556173 35.49019607843137,-21.153391654878682 35.882352941176464,-21.273662990072076 36.27450980392158,-21.389785873292677 36.66666666666668,-21.5 37.058823529411775,-21.602634636379257 37.45098039215687,-21.696133945962927 37.84313725490197,-21.779080574525672 38.235294117647065,-21.850217135729615 38.62745098039216,-21.908465271819523 39.01960784313726,-21.952942000427154 39.411764705882355,-21.982973099683903 39.80392156862745,-21.998103328737045 40.19607843137255,-21.998103328737045 40.588235294117645,-21.982973099683903 40.98039215686274,-21.952942000427154 41.37254901960784,-21.908465271819523 41.764705882352935,-21.850217135729615 42.15686274509803,-21.779080574525672 42.54901960784315,-21.696133945962927 42.941176470588246,-21.602634636379257 43.33333333333334,-21.500000000000004 43.72549019607844,-21.38978587329268 44.117647058823536,-21.273662990072086 44.50980392156863,-21.15339165487869 44.90196078431373,-21.030795058556173 45.294117647058826,-20.907731640536703 45.68627450980392,-20.78606691679351 46.07843137254902,-20.667645200520344 46.470588235294116,-20.554261644223462 46.86274509803921,-20.447635027039496 47.25490196078431,-20.349381699795757 47.647058823529406,-20.260991082779345 48.0392156862745,-20.18380308764378 48.4313725490196,-20.118987805714216 48.82352941176471,-20.067527770595643 49.21568627450981,-20.03020306396499 49.6078431372549,-20.007579490328062 50.0,-20.0 50.0,-30.0 49.6078431372549,-29.992420509671938 49.21568627450981,-29.96979693603501 48.82352941176471,-29.932472229404357 48.4313725490196,-29.881012194285784 48.0392156862745,-29.81619691235622 47.647058823529406,-29.739008917220655 47.25490196078431,-29.650618300204243 46.86274509803921,-29.552364972960504 46.470588235294116,-29.445738355776538 46.07843137254902,-29.332354799479656 45.68627450980392,-29.21393308320649 45.294117647058826,-29.092268359463297 44.90196078431373,-28.969204941443827 44.50980392156863,-28.84660834512131 44.117647058823536,-28.726337009927914 43.72549019607844,-28.61021412670732 43.33333333333334,-28.499999999999996 42.941176470588246,-28.397365363620743 42.54901960784315,-28.303866054037073 42.15686274509803,-28.220919425474328 41.764705882352935,-28.149782864270385 41.37254901960784,-28.091534728180477 40.98039215686274,-28.047057999572846 40.588235294117645,-28.017026900316097 40.19607843137255,-28.001896671262955 39.80392156862745,-28.001896671262955 39.411764705882355,-28.017026900316097 39.01960784313726,-28.047057999572846 38.62745098039216,-28.091534728180477 38.235294117647065,-28.149782864270385 37.84313725490197,-28.220919425474328 37.45098039215687,-28.303866054037073 37.058823529411775,-28.397365363620743 36.66666666666668,-28.5 36.27450980392158,-28.610214126707323 35.882352941176464,-28.726337009927924 35.49019607843137,-28.846608345121318 35.09803921568627,-28.969204941443827 34.705882352941174,-29.092268359463304 34.31372549019608,-29.2139330832065 33.92156862745098,-29.33235479947966 33.529411764705884,-29.445738355776538 33.13725490196077,-29.552364972960508 32.74509803921568,-29.650618300204243 32.35294117647058,-29.739008917220666 31.960784313725483,-29.816196912356222 31.568627450980387,-29.881012194285788 31.17647058823529,-29.932472229404357 30.784313725490193,-29.96979693603501 30.392156862745097,-29.992420509671938 30.0,-30.0 29.607843137254896,-29.992420509671938 29.2156862745098,-29.96979693603501 28.823529411764703,-29.932472229404354 28.431372549019606,-29.881012194285788 28.03921568627451,-29.816196912356222 27.647058823529413,-29.73900891722066 27.254901960784316,-29.650618300204243 26.86274509803921,-29.552364972960508 26.470588235294112,-29.445738355776538 26.078431372549016,-29.332354799479656 25.68627450980392,-29.213933083206495 25.294117647058822,-29.092268359463304 24.901960784313726,-28.969204941443827 24.50980392156863,-28.846608345121318 24.117647058823533,-28.726337009927917 23.725490196078436,-28.610214126707323 23.33333333333333,-28.499999999999996 22.941176470588232,-28.397365363620743 22.549019607843135,-28.303866054037073 22.15686274509804,-28.220919425474328 21.764705882352942,-28.149782864270385 21.372549019607845,-28.091534728180477 20.98039215686275,-28.047057999572846 20.588235294117645,-28.017026900316097 20.19607843137255,-28.001896671262955 19.80392156862745,-28.001896671262955 19.411764705882355,-28.017026900316097 19.01960784313726,-28.047057999572846 18.62745098039216,-28.091534728180477 18.235294117647065,-28.149782864270385 17.84313725490197,-28.220919425474328 17.450980392156872,-28.303866054037073 17.058823529411757,-28.397365363620747 16.66666666666666,-28.500000000000007 16.274509803921564,-28.610214126707323 15.882352941176467,-28.726337009927924 15.49019607843137,-28.846608345121318 15.098039215686274,-28.969204941443827 14.705882352941178,-29.092268359463304 14.313725490196072,-29.2139330832065 13.921568627450975,-29.33235479947966 13.529411764705879,-29.445738355776538 13.137254901960782,-29.552364972960508 12.745098039215685,-29.650618300204243 12.352941176470589,-29.73900891722066 11.960784313725492,-29.81619691235622 11.568627450980395,-29.881012194285784 11.176470588235299,-29.932472229404357 10.784313725490193,-29.96979693603501 10.392156862745097,-29.992420509671938 10.0,-30.0 9.607843137254903,-29.992420509671938 9.215686274509807,-29.96979693603501 8.82352941176471,-29.932472229404357 8.431372549019613,-29.881012194285788 8.039215686274499,-29.81619691235622 7.647058823529402,-29.739008917220655 7.254901960784306,-29.650618300204243 6.862745098039209,-29.552364972960508 6.470588235294112,-29.445738355776538 6.078431372549016,-29.332354799479656 5.686274509803919,-29.2139330832065 5.2941176470588225,-29.092268359463304 4.901960784313726,-28.969204941443827 4.50980392156862,-28.84660834512131 4.117647058823524,-28.726337009927914 3.725490196078427,-28.61021412670732 3.3333333333333304,-28.499999999999996 2.9411764705882337,-28.397365363620743 2.549019607843137,-28.303866054037073 2.1568627450980404,-28.220919425474328 1.764705882352935,-28.149782864270385 1.3725490196078383,-28.091534728180477 0.9803921568627416,-28.047057999572843 0.588235294117645,-28.017026900316097 0.19607843137254832,-28.001896671262955 -0.19607843137254832,-28.001896671262955 -0.588235294117645,-28.017026900316097 -0.9803921568627505,-28.047057999572846 -1.3725490196078471,-28.091534728180477 -1.7647058823529438,-28.149782864270385 -2.1568627450980404,-28.220919425474335 -2.549019607843137,-28.303866054037073 -2.9411764705882337,-28.397365363620747 -3.3333333333333304,-28.5 -3.725490196078427,-28.610214126707323 -4.1176470588235325,-28.726337009927917 -4.509803921568629,-28.846608345121318 -4.901960784313726,-28.969204941443827 -5.2941176470588225,-29.092268359463304 -5.686274509803919,-29.2139330832065 -6.078431372549016,-29.33235479947966 -6.470588235294112,-29.445738355776538 -6.862745098039209,-29.552364972960508 -7.254901960784315,-29.650618300204243 -7.647058823529411,-29.73900891722066 -8.039215686274508,-29.816196912356222 -8.431372549019613,-29.881012194285788 -8.82352941176471,-29.932472229404357 -9.215686274509807,-29.96979693603501 -9.607843137254903,-29.992420509671938 -10.0,-30.0 -10.3921568627451,-29.992420509671938 -10.784313725490197,-29.96979693603501 -11.176470588235293,-29.932472229404357 -11.568627450980395,-29.881012194285784 -11.960784313725492,-29.81619691235622 -12.352941176470589,-29.73900891722066 -12.745098039215685,-29.650618300204243 -13.137254901960782,-29.552364972960508 -13.529411764705884,-29.445738355776538 -13.92156862745098,-29.33235479947966 -14.313725490196077,-29.2139330832065 -14.705882352941178,-29.092268359463304 -15.098039215686274,-28.969204941443827 -15.49019607843137,-28.846608345121318 -15.882352941176467,-28.726337009927917 -16.274509803921564,-28.610214126707323 -16.66666666666667,-28.499999999999996 -17.058823529411768,-28.397365363620743 -17.450980392156865,-28.303866054037073 -17.843137254901965,-28.220919425474328 -18.23529411764706,-28.149782864270385 -18.627450980392158,-28.091534728180477 -19.019607843137255,-28.047057999572846 -19.41176470588235,-28.017026900316097 -19.80392156862745,-28.001896671262955 -20.19607843137255,-28.001896671262955 -20.588235294117645,-28.017026900316097 -20.98039215686275,-28.047057999572846 -21.372549019607845,-28.091534728180477 -21.764705882352942,-28.149782864270385 -22.15686274509804,-28.220919425474328 -22.549019607843135,-28.303866054037073 -22.94117647058824,-28.397365363620747 -23.333333333333336,-28.5 -23.725490196078432,-28.610214126707323 -24.117647058823533,-28.726337009927917 -24.50980392156863,-28.846608345121318 -24.901960784313726,-28.969204941443827 -25.294117647058822,-29.092268359463304 -25.686274509803923,-29.2139330832065 -26.07843137254902,-29.33235479947966 -26.470588235294116,-29.445738355776538 -26.862745098039213,-29.552364972960508 -27.254901960784316,-29.650618300204243 -27.647058823529413,-29.73900891722066 -28.03921568627451,-29.816196912356222 -28.431372549019606,-29.881012194285788 -28.823529411764707,-29.932472229404357 -29.215686274509807,-29.96979693603501 -29.607843137254903,-29.992420509671938 -30.0,-30.0 -30.392156862745097,-29.992420509671938 -30.784313725490197,-29.96979693603501 -31.176470588235293,-29.932472229404357 -31.56862745098039,-29.881012194285788 -31.96078431372549,-29.816196912356222 -32.35294117647059,-29.73900891722066 -32.745098039215684,-29.650618300204243 -33.13725490196078,-29.552364972960508 -33.529411764705884,-29.445738355776538 -33.92156862745098,-29.33235479947966 -34.31372549019608,-29.2139330832065 -34.705882352941174,-29.092268359463304 -35.09803921568627,-28.969204941443827 -35.490196078431374,-28.846608345121318 -35.88235294117647,-28.726337009927917 -36.27450980392157,-28.610214126707323 -36.66666666666667,-28.5 -37.05882352941177,-28.397365363620743 -37.450980392156865,-28.303866054037073 -37.84313725490196,-28.220919425474328 -38.23529411764706,-28.149782864270385 -38.627450980392155,-28.091534728180477 -39.01960784313725,-28.047057999572846 -39.411764705882355,-28.017026900316097 -39.80392156862745,-28.001896671262955 -40.19607843137255,-28.001896671262955 -40.588235294117645,-28.017026900316097 -40.98039215686274,-28.047057999572846 -41.37254901960784,-28.091534728180477 -41.76470588235294,-28.149782864270385 -42.15686274509804,-28.220919425474328 -42.549019607843135,-28.303866054037073 -42.94117647058823,-28.397365363620743 -43.33333333333333,-28.5 -43.72549019607844,-28.610214126707323 -44.117647058823536,-28.726337009927917 -44.50980392156863,-28.846608345121318 -44.90196078431373,-28.969204941443827 -45.294117647058826,-29.092268359463304 -45.68627450980392,-29.2139330832065 -46.07843137254902,-29.33235479947966 -46.47058823529412,-29.445738355776538 -46.86274509803922,-29.552364972960508 -47.254901960784316,-29.650618300204243 -47.64705882352941,-29.73900891722066 -48.03921568627451,-29.816196912356222 -48.431372549019606,-29.881012194285788 -48.82352941176471,-29.932472229404357 -49.21568627450981,-29.96979693603501 -49.6078431372549,-29.992420509671938 -50.0,-30.0"/>
<polygon class="l0d0" points="50.0,-30.0 57.11574191366425,-29.49107209404663 64.0866278420715,-27.974648680724865 70.77075065009433,-25.481599767725918 77.03204087277989,-22.062676641559058 82.74303669726424,-17.78747871771291 87.7874787177129,-12.743036697264255 92.06267664155905,-7.032040872779879 95.48159976772592,-0.7707506500943184 97.97464868072487,5.913372157928514 99.49107209404664,12.884258086335747 100.0,20.0 90.0,20.0 89.59285767523731,14.307406469068592 88.3797189445799,8.730697726342813 86.38527981418073,3.383399479924545 83.65014131324725,-1.6256326982239022 80.22998297417033,-6.194429357811404 76.1944293578114,-10.22998297417033 71.62563269822391,-13.650141313247243 66.61660052007547,-16.385279814180734 61.26930227365719,-18.379718944579896 55.692593530931404,-19.59285767523731 50.0,-20.0"/>
<polygon class="l0d0" points="50.0,-45.0 59.25046448776353,-44.33839372226062 68.31261619469294,-42.36704328494233 77.00197584512262,-39.12607969804369 85.14165313461385,-34.68147963402677 92.56594770644354,-29.12372233302679 99.12372233302679,-22.565947706443534 104.68147963402679,-15.141653134613842 109.1260796980437,-7.001975845122614 112.36704328494234,1.6873838053070678 114.33839372226063,10.74953551223647 115.0,20.0 105.0,20.0 104.44017930345129,12.172683894969317 102.77211354879736,4.504709373721367 100.02975974449852,-2.847825715103749 96.26894430571497,-9.735244960057866 91.56622658948422,-16.01734036699068 86.01734036699068,-21.56622658948421 79.73524496005787,-26.26894430571496 72.84782571510375,-30.029759744498506 65.49529062627863,-32.77211354879736 57.82731610503069,-34.440179303451295 50.0,-35.0"/>
<polygon class="l0d0" points="50.00000000000001,-60.0 61.38518706186281,-59.18571535047462 72.53860454731438,-56.75943788915979 83.23320104015093,-52.77055962836147 93.25126539644782,-47.300282626494486 102.38885871562282,-40.45996594834066 110.45996594834065,-32.38885871562281 117.30028262649449,-23.251265396447806 122.77055962836147,-13.23320104015091 126.7594378891598,-2.538604547314378 129.18571535047462,8.614812938137195 130.0,20.0 120.0,20.0 119.28750093166528,10.03796132087004 117.16450815301482,0.2787210210999236 113.67423967481629,-9.079050910132045 108.88774729818269,-17.84485722189183 102.90247020479808,-25.840251376169956 95.84025137616996,-32.90247020479808 87.84485722189183,-38.887747298182674 79.07905091013205,-43.674239674816285 69.72127897890007,-47.164508153014815 59.96203867912996,-49.287500931665285 50.0,-50.0"/>
<polygon class="l0d0" points="90.0,20.0 100.0,20.0 90.0,60.0 70.0,60.0"/>
<polygon class="l0d0" points="105.0,20.0 115.0,20.0 120.0,60.0 100.0,60.0"/>
<polygon class="l0d0" points="120.0,20.0 130.0,19.999999999999996 150.0,60.0 130.0,60.0"/>
</g>
</svg>