<?xml version="1.0" encoding="UTF-8"?>
<svg xmlns="http://www.w3.org/2000/svg" xmlns:xlink="http://www.w3.org/1999/xlink" width="153.8042658026826" height="154.0" viewBox="-17.0 -137.0 153.8042658026826 154.0">
<defs>
<style type="text/css">
.l0d0 {stroke: rgb(255, 0, 0); fill: rgb(255, 0, 0); fill-opacity: 0.5;}
</style>
</defs><rect x="-17.0" y="-137.0" width="153.8042658026826" height="154.0" fill="none" stroke="none"/>
<g id="polygonal-only_paths" transform="scale(1 -1)">
<polygon class="l0d0" points="-10.0,0.0 10.0,0.0 10.0,80.0 -10.0,80.0"/>
<polygon class="l0d0" points="-10.0,80.0 -9.240387650610398,88.68240888334651 -6.984631039295417,97.10100716628344 -3.3012701892219365,104.99999999999999 1.6977778440511049,112.13938048432696 7.860619515673033,118.30222215594888 14.999999999999991,123.30127018922191 22.898992833716566,126.98463103929541 31.31759111665349,129.2403876506104 40.0,130.0 40.0,110.0 34.79055466999209,109.54423259036624 29.739395700229938,108.19077862357724 25.000000000000007,105.98076211353316 20.716371709403816,102.98133329356932 17.018666706430665,99.28362829059617 14.019237886466843,95.0 11.809221376422752,90.26060429977007 10.455767409633761,85.2094453300079 10.0,79.99999999999999"/>
<polygon class="l0d0" points="40.0,130.0 40.0,110.0 60.0,110.0 60.0,130.0"/>
<polygon class="l0d0" points="60.0,130.0 70.4329586323322,129.218157835759 80.6328622087633,126.89009640502985 90.37186173822906,123.06782075316934 99.43240406445355,117.83671420211962 107.61209164396436,111.31363102808784 114.72820377276209,103.64428613011135 120.62177826491072,94.99999999999999 125.1611624050943,85.57387170564765 128.24495385272766,75.576465376942 129.8042658026826,65.23110655104969 129.8042658026826,54.768893448950294 128.24495385272766,44.423534623057996 125.1611624050943,34.42612829435234 120.62177826491069,24.999999999999982 114.72820377276209,16.355713869888653 107.61209164396435,8.68636897191215 99.43240406445354,2.163285797880352 90.37186173822906,-3.0678207531693413 80.63286220876329,-6.890096405029853 70.4329586323322,-9.218157835759007 60.0,-10.0 60.0,10.0 67.45211330880872,10.55845868874357 74.73775872054522,12.221359710692967 81.69418695587791,14.95155660487904 88.1660029031811,18.68806128420026 94.00863688854598,23.34740640850869 99.0915741234015,28.825509907063328 103.30127018922195,35.00000000000001 106.5436874322102,41.73294878168026 108.74639560909118,48.87395330218428 109.860189859059,56.2634953206788 109.860189859059,63.73650467932122 108.74639560909118,71.12604669781572 106.5436874322102,78.26705121831976 103.30127018922192,85.0 99.0915741234015,91.17449009293667 94.00863688854596,96.65259359149132 88.1660029031811,101.31193871579974 81.69418695587791,105.04844339512097 74.7377587205452,107.77864028930705 67.45211330880872,109.44154131125643 60.0,110.0"/>
</g>
</svg>