<?xml version="1.0" encoding="UTF-8"?>
<svg xmlns="http://www.w3.org/2000/svg" xmlns:xlink="http://www.w3.org/1999/xlink"
     width="427.81" height="705.94" viewBox="-154.19 -673.85 427.81 705.94">
<defs>
<style type="text/css">
.l0d0 {stroke: rgb(255, 0, 0); fill: rgb(255, 0, 0); fill-opacity: 0.5;}
</style>
</defs>
<rect x="-154.19" y="-673.85" width="427.81" height="705.94" fill="none" stroke="none"/>
<g id="polygonal-only_paths_1" transform="scale(1 -1)">
<polygon class="l0d0" points="-11.5,0.0 -10.82,21.65 -8.82,42.06 -5.58,61.32 -1.19,79.48 4.26,96.61 10.69,112.78 18.0,128.05 26.08,142.5 44.17,169.22 64.16,193.61 85.3,216.36 106.88,238.16 128.21,259.71 148.62,281.67 167.49,304.68 184.22,329.4 191.62,342.61 198.27,356.51 204.11,371.2 209.07,386.78 213.08,403.36 216.04,421.02 217.89,439.89 218.53,460.06 241.53,460.06 240.85,438.41 238.85,418.0 235.61,398.74 231.22,380.58 225.76,363.45 219.34,347.28 212.03,332.01 203.95,317.56 185.86,290.84 165.87,266.45 144.73,243.7 123.15,221.9 101.82,200.35 81.41,178.39 62.54,155.38 45.8,130.66 38.41,117.45 31.76,103.55 25.92,88.86 20.96,73.28 16.95,56.7 13.98,39.03 12.14,20.17 11.5,0.0"/>
<polygon class="l0d0" points="218.53,460.06 216.16,481.04 211.27,501.45 203.95,520.98 194.35,539.35 182.65,556.29 169.04,571.57 153.76,584.98 137.06,596.33 119.21,605.49 100.49,612.34 81.21,616.82 61.65,618.87 42.12,618.52 22.91,615.78 4.31,610.74 -13.41,603.51 -29.99,594.22 -45.2,583.04 -58.83,570.17 -70.69,555.82 -80.62,540.24 -88.51,523.68 -94.26,506.4 -97.82,488.67 -99.17,470.77 -98.31,452.97 -95.29,435.54 -90.2,418.74 -83.13,402.82 -74.23,387.99 -63.65,374.48 -51.59,362.47 -38.24,352.1 -23.84,343.53 -8.61,336.84 7.19,332.11 23.33,329.38 39.55,328.67 55.6,329.94 71.25,333.15 86.26,338.22 100.41,345.04 113.5,353.47 125.35,363.37 135.81,374.56 144.74,386.83 152.02,400.0 157.58,413.84 161.36,428.14 163.33,442.65 163.5,457.17 161.9,471.47 158.58,485.34 153.62,498.56 147.13,510.96 139.25,522.36 130.1,532.6 119.87,541.55 108.71,549.1 96.83,555.15 84.42,559.65 71.68,562.56 58.81,563.86 46.01,563.57 33.47,561.72 21.38,558.38 9.92,553.62 -0.76,547.55 -10.49,540.28 -19.16,531.96 -26.66,522.74 -32.89,512.77 -37.79,502.24 -41.3,491.3 -43.42,480.14 -44.13,468.94 -43.46,457.86 -41.45,447.08 -38.17,436.76 -33.69,427.05 -28.11,418.07 -21.55,409.96 -14.13,402.81 -5.98,396.71 2.74,391.74 11.89,387.93 21.31,385.32 30.86,383.92 40.37,383.71 49.71,384.67 58.73,386.75 67.29,389.89 75.28,394.01 82.59,399.02 89.13,404.81 94.8,411.26 99.56,418.27 103.35,425.69 123.08,413.86 117.69,404.11 111.07,395.0 103.28,386.67 94.42,379.29 84.6,372.98 73.97,367.88 62.66,364.09 50.84,361.7 38.68,360.77 26.37,361.35 14.1,363.48 2.06,367.13 -9.57,372.3 -20.57,378.93 -30.79,386.95 -40.02,396.25 -48.13,406.73 -54.94,418.24 -60.34,430.63 -64.21,443.71 -66.46,457.3 -67.02,471.19 -65.86,485.18 -62.96,499.05 -58.33,512.58 -52.02,525.55 -44.08,537.77 -34.61,549.01 -23.74,559.09 -11.6,567.83 1.64,575.08 15.79,580.69 30.65,584.55 46.01,586.57 61.62,586.69 77.27,584.87 92.7,581.12 107.68,575.44 121.96,567.9 135.31,558.59 147.52,547.63 158.37,535.14 167.68,521.3 175.28,506.31 181.02,490.38 184.79,473.73 186.5,456.61 186.08,439.28 183.53,422.0 178.83,405.04 172.03,388.66 163.21,373.13 152.47,358.69 139.95,345.59 125.81,334.04 110.24,324.25 93.47,316.38 75.74,310.59 57.3,307.0 38.42,305.69 19.4,306.72 0.52,310.1 -17.94,315.81 -35.67,323.8 -52.4,333.97 -67.85,346.2 -81.78,360.33 -93.96,376.17 -104.16,393.5 -112.21,412.06 -117.96,431.61 -121.28,451.84 -122.11,472.46 -120.38,493.15 -116.1,513.61 -109.3,533.51 -100.05,552.55 -88.47,570.42 -74.69,586.83 -58.91,601.52 -41.33,614.23 -22.22,624.76 -1.83,632.91 19.53,638.53 41.55,641.51 63.9,641.76 86.25,639.26 108.24,634.0 129.55,626.04 149.84,615.46 168.79,602.4 186.09,587.02 201.46,569.54 214.64,550.2 225.41,529.26 233.58,507.04 238.99,483.86 241.53,460.06"/>
<polygon class="l0d0" points="103.35,425.69 106.14,433.4 107.92,441.28 108.69,449.18 108.47,456.99 107.3,464.58 105.23,471.84 102.32,478.66 98.64,484.95 94.29,490.63 89.35,495.63 83.92,499.89 78.12,503.36 72.05,506.03 65.81,507.88 59.52,508.9 53.28,509.12 47.2,508.57 41.36,507.27 30.75,502.7 22.04,495.92 15.65,487.57 11.77,478.36 10.44,468.97 11.5,460.06 -11.5,460.06 -11.87,474.56 -8.51,489.2 -1.4,503.02 9.26,515.05 23.0,524.36 39.1,530.17 47.76,531.56 56.66,531.88 65.66,531.07 74.62,529.13 83.39,526.04 91.82,521.84 99.79,516.55 107.13,510.22 113.72,502.94 119.44,494.79 124.16,485.88 127.79,476.33 130.24,466.27 131.44,455.86 131.35,445.25 129.93,434.6 127.17,424.08 123.08,413.86"/>
</g>
</svg>