<?xml version="1.0" encoding="UTF-8"?>
<svg xmlns="http://www.w3.org/2000/svg" xmlns:xlink="http://www.w3.org/1999/xlink"
     width="400.0" height="293.05" viewBox="-18.18 -274.87 400.0 293.05">
<defs>
<style type="text/css">
.l2d3 {stroke: rgb(106, 106, 255); fill: rgb(106, 106, 255); fill-opacity: 0.5;}
.l0d7 {stroke: rgb(191, 112, 112); fill: rgb(191, 112, 112); fill-opacity: 0.5;}
.l1d3 {stroke: rgb(85, 255, 85); fill: rgb(85, 255, 85); fill-opacity: 0.5;}
.l0d0 {stroke: rgb(255, 0, 0); fill: rgb(255, 0, 0); fill-opacity: 0.5;}
</style>
<g id="DEVICE" >
<polygon class="l0d0" points="0.0,0.0 106.95,0.0 106.95,106.95 0.0,106.95 0.0,0.0 42.78,42.78 42.78,64.17 64.17,64.17 64.17,42.78 42.78,42.78"/>
<use transform="translate(74.87 21.39) scale(0.25)" xlink:href="#CONTACT"/>
<use transform="translate(21.39 74.87) rotate(90.0) scale(0.25)" xlink:href="#CONTACT"/>
</g>
<g id="CONTACT" >
<polygon class="l1d3" points="-64.17,-64.17 -64.17,64.17 64.17,64.17 64.17,-64.17"/>
<polygon class="l2d3" points="-106.95,-64.17 -106.95,64.17 -64.17,64.17 -64.17,-64.17"/>
<polygon class="l2d3" points="106.95,-64.17 106.95,64.17 64.17,64.17 64.17,-64.17"/>
<polygon class="l0d7" points="53.48,0.0 26.74,46.31 -26.74,46.31 -53.48,0.0 -26.74,-46.31 26.74,-46.31"/>
</g>
</defs>
<rect x="-18.18" y="-274.87" width="400.0" height="293.05" fill="none" stroke="none"/>
<g id="MAIN" transform="scale(1 -1)">
<use transform="translate(0.0 0.0) translate(0.0 0.0)" xlink:href="#DEVICE"/>
<use transform="translate(0.0 0.0) translate(0.0 149.73)" xlink:href="#DEVICE"/>
<use transform="translate(0.0 0.0) translate(128.34 0.0)" xlink:href="#DEVICE"/>
<use transform="translate(0.0 0.0) translate(128.34 149.73)" xlink:href="#DEVICE"/>
<use transform="translate(0.0 0.0) translate(256.68 0.0)" xlink:href="#DEVICE"/>
<use transform="translate(0.0 0.0) translate(256.68 149.73)" xlink:href="#DEVICE"/>
</g>
</svg>