<?xml version="1.0" encoding="UTF-8"?>
<svg xmlns="http://www.w3.org/2000/svg" xmlns:xlink="http://www.w3.org/1999/xlink"
     width="399.99999999999994" height="293.04812834224595" viewBox="-18.181818181818176 -274.86631016042776 399.99999999999994 293.04812834224595">
<defs>
<style type="text/css">
.l1d3 {stroke: rgb(85, 255, 85); fill: rgb(85, 255, 85); fill-opacity: 0.5;}
.l2d3 {stroke: rgb(106, 106, 255); fill: rgb(106, 106, 255); fill-opacity: 0.5;}
.l0d0 {stroke: rgb(255, 0, 0); fill: rgb(255, 0, 0); fill-opacity: 0.5;}
.l0d7 {stroke: rgb(191, 112, 112); fill: rgb(191, 112, 112); fill-opacity: 0.5;}
</style>
<g id="DEVICE" >
<polygon class="l0d0" points="0.0,0.0 106.951871657754,0.0 106.951871657754,106.951871657754 0.0,106.951871657754 0.0,0.0 42.7807486631016,42.7807486631016 42.7807486631016,64.17112299465239 64.17112299465239,64.17112299465239 64.17112299465239,42.7807486631016 42.7807486631016,42.7807486631016"/>
<use transform="translate(74.8663101604278 21.3903743315508) scale(0.25)" xlink:href="#CONTACT"/>
<use transform="translate(21.3903743315508 74.8663101604278) rotate(90) scale(0.25)" xlink:href="#CONTACT"/>
</g>
<g id="CONTACT" >
<polygon class="l1d3" points="-64.17112299465239,-64.17112299465239 -64.17112299465239,64.17112299465239 64.17112299465239,64.17112299465239 64.17112299465239,-64.17112299465239"/>
<polygon class="l2d3" points="-106.951871657754,-64.17112299465239 -106.951871657754,64.17112299465239 -64.17112299465239,64.17112299465239 -64.17112299465239,-64.17112299465239"/>
<polygon class="l2d3" points="106.951871657754,-64.17112299465239 106.951871657754,64.17112299465239 64.17112299465239,64.17112299465239 64.17112299465239,-64.17112299465239"/>
<polygon class="l0d7" points="53.475935828877,0.0 26.737967914438503,46.31151891895393 -26.73796791443849,46.31151891895394 -53.475935828877,6.548913364424348e-15 -26.73796791443852,-46.311518918953915 26.737967914438503,-46.31151891895393"/>
</g>
</defs><rect x="-18.181818181818176" y="-274.86631016042776" width="399.99999999999994" height="293.04812834224595" fill="none" stroke="none"/>
<g id="MAIN" transform="scale(1 -1)">
<use transform="translate(0.0 0.0) translate(0.0 0.0)" xlink:href="#DEVICE"/>
<use transform="translate(0.0 0.0) translate(0.0 149.7326203208556)" xlink:href="#DEVICE"/>
<use transform="translate(0.0 0.0) translate(128.34224598930479 0.0)" xlink:href="#DEVICE"/>
<use transform="translate(0.0 0.0) translate(128.34224598930479 149.7326203208556)" xlink:href="#DEVICE"/>
<use transform="translate(0.0 0.0) translate(256.68449197860957 0.0)" xlink:href="#DEVICE"/>
<use transform="translate(0.0 0.0) translate(256.68449197860957 149.7326203208556)" xlink:href="#DEVICE"/>
</g>
</svg>