<?xml version="1.0" encoding="UTF-8"?>
<svg xmlns="http://www.w3.org/2000/svg" xmlns:xlink="http://www.w3.org/1999/xlink" width="1156.122" height="475.082" viewBox="-83.571 -352.551 1156.122 475.082">
<defs>
<style type="text/css">
.l2d0 {stroke: rgb(42, 42, 255); fill: rgb(42, 42, 255); fill-opacity: 0.5;}
.l1d0 {stroke: rgb(21, 255, 21); fill: rgb(21, 255, 21); fill-opacity: 0.5;}
.l0d0 {stroke: rgb(255, 0, 0); fill: rgb(255, 0, 0); fill-opacity: 0.5;}
</style>
</defs><rect x="-83.571" y="-352.551" width="1156.122" height="475.082" fill="none" stroke="none"/>
<g id="robust_paths" transform="scale(1 -1)">
<polygon class="l0d0" points="256.86,45.16 234.22,42.34 207.38,38.6 185.9,35.339999999999996 168.72,32.559999999999995 134.36,26.58 100.0,20.0 18.88,19.96 18.52,30.419999999999998 18.36,38.76 18.44,55.339999999999996 19.06,71.64 19.6,79.62 20.139999999999997,85.94 21.54,98.28 23.4,110.19999999999999 24.5,115.98 25.48,120.52 27.66,129.32 30.18,137.73999999999998 31.58,141.8 34.620000000000005,149.60000000000002 38.06,156.96 39.54,159.78 42.699999999999996,165.18 46.14,170.24 49.86,175.0 53.92,179.4 61.08,185.72 67.5,190.06 73.12,193.06 77.92,195.12 81.96,196.54 85.34,197.51999999999998 88.14,198.2 93.96000000000001,199.3 99.97999999999999,199.98000000000002 103.62,205.64 107.6,211.06 114.64,219.28 120.67999999999999,225.5 125.58,230.26 129.48000000000002,233.98 132.52,236.9 138.32,242.64 143.6,248.32 149.18,255.18 153.01999999999998,260.53999999999996 155.8,264.62 157.89999999999998,267.71999999999997 159.56,270.02 160.9,271.74 163.66,274.76 166.56,277.16 170.27999999999997,279.14 173.38,279.9 175.88,279.96 177.88,279.68 179.46,279.22 180.72,278.74 183.14,277.38 185.48,275.56 188.22,272.78 190.32,270.15999999999997 191.98000000000002,267.88 195.39999999999998,262.88 199.12,257.5 201.70000000000002,254.02 203.94,251.22 208.9,245.56 214.44,239.86 222.0,232.57999999999998 229.84000000000003,224.98000000000002 235.98,218.6 241.76,211.86 245.98,206.22 249.8,200.32 255.10000000000002,190.38 256.86,186.48 256.86,207.94 252.5,214.28 246.54,221.76 240.2,228.72 233.73999999999998,235.18 227.44,241.20000000000002 224.44,244.08 219.94,248.5 215.84,252.77999999999997 213.96,254.86 211.76,257.44 209.22,260.64 197.94,276.66 194.68,280.52 191.62,283.48 188.14,286.06 186.22,287.16 183.70000000000002,288.32 180.38,289.36 176.02,289.98 170.54,289.56 167.24,288.68 164.12,287.34000000000003 160.38,285.04 157.06,282.3 155.56,280.79999999999995 153.82,278.86 151.8,276.34000000000003 149.48000000000002,273.14 146.76,269.1 143.32,264.1 138.6,257.88 135.04,253.73999999999998 131.04,249.5 128.9,247.32 126.06,244.54000000000002 122.32,240.96 117.42000000000002,236.28 111.1,230.06 103.34,221.62 98.74000000000001,215.94 94.48,209.98000000000002 87.32,209.68 80.46,208.82000000000002 77.1,208.2 72.98,207.26 67.96000000000001,205.79999999999998 61.900000000000006,203.6 54.64,200.2 46.14,195.06 41.14,191.38000000000002 36.379999999999995,187.34000000000003 30.8,181.86 25.6,175.92 20.779999999999998,169.56 16.299999999999997,162.82 14.2,159.32 10.24,152.08 6.58,144.52 4.88,140.62 2.84,135.68 -0.8999999999999999,125.46 -4.22,114.9 -5.739999999999999,109.5 -7.5,102.63999999999999 -10.620000000000001,88.62 -13.22,74.24000000000001 -14.34,66.96 -15.600000000000001,57.779999999999994 -17.6,39.22 -19.02,20.560000000000002 -19.52,11.259999999999998 -20.0,-0.34 -20.659999999999997,-20.0 100.0,-20.0 134.36,-26.58 168.72,-32.559999999999995 185.9,-35.339999999999996 207.38,-38.6 234.22,-42.34 256.86,-45.16"/>
<polygon class="l0d0" points="334.58,119.92000000000002 338.02,120.12 341.0,120.48 343.5,120.92 345.55999999999995,121.38 349.79999999999995,122.66 354.09999999999997,124.44000000000001 358.26,126.7 361.5,128.85999999999999 364.0,130.82 365.91999999999996,132.54 369.56000000000006,136.32 372.9,140.51999999999998 375.26000000000005,144.06 377.0,147.02 380.18,153.26 382.96,159.8 389.20000000000005,176.6 394.62,189.78000000000003 399.84000000000003,199.74 404.78000000000003,207.28000000000003 409.18,213.01999999999998 412.96,217.44 421.0,225.82 429.20000000000005,233.72 435.09999999999997,239.4 439.5,243.85999999999999 442.8,247.42000000000002 445.24,250.24 449.68000000000006,255.84 453.53999999999996,261.3 456.28,265.34 458.38,268.38 460.03999999999996,270.64 461.38,272.32 462.47999999999996,273.56 464.73999999999995,275.76 467.08,277.52 469.46,278.82 471.42,279.5 473.02,279.84000000000003 474.3,279.98 476.86,279.86 479.4,279.26 481.34000000000003,278.41999999999996 482.86,277.56 484.06,276.72 486.36,274.74 488.56,272.36 489.91999999999996,270.7 495.31999999999994,262.97999999999996 501.5,254.28 507.52000000000004,247.07999999999998 509.6,244.88 509.6,260.28 504.76,266.88 497.58000000000004,277.14 494.88,280.32 491.84,283.28 490.18,284.64 487.93999999999994,286.18 484.90000000000003,287.82 481.54,289.06 478.02,289.8 476.24,289.96 473.98,289.98 471.18,289.68 467.76000000000005,288.84000000000003 463.76,287.16 460.06,284.82 456.8,282.04 455.31999999999994,280.52 453.58,278.56 451.58000000000004,276.03999999999996 449.28,272.84 446.56,268.82 439.18,258.6 437.04,256.03999999999996 434.15999999999997,252.77999999999997 430.15999999999997,248.6 424.62,243.18 418.14,236.98000000000002 411.38,230.33999999999997 408.0,226.82 403.86,222.22000000000003 398.9,216.16 393.26,208.1 387.22,197.44 381.18,183.61999999999998 374.96000000000004,166.78 372.46000000000004,160.54 369.78000000000003,154.74 368.36,152.04000000000002 366.46000000000004,148.84 363.86,145.12 361.06,141.82 359.6,140.32 357.70000000000005,138.6 355.24,136.68 352.04,134.64000000000001 347.88,132.64 343.72,131.24 341.68,130.76 339.21999999999997,130.32 336.28,130.02 332.81999999999994,129.9 316.72,129.9 312.32,130.14 308.41999999999996,130.74 304.32,131.82 302.22,132.57999999999998 299.62,133.76 296.38,135.57999999999998 292.5,138.44 287.96,142.89999999999998 285.36,146.18 282.92,149.84 279.88,155.42 277.1,161.58 275.79999999999995,164.84000000000003 274.20000000000005,169.06 272.22,174.5 269.64,181.5 266.08,190.38 260.76,201.32000000000002 256.86,207.94 256.86,186.48 256.96000000000004,186.26000000000002 263.52,169.16 265.1,164.84000000000003 268.46,156.34 272.34000000000003,148.2 275.0,143.66 277.94,139.4 283.26,133.32 288.02,129.22 292.06,126.5 295.38,124.7 298.08,123.48 300.21999999999997,122.66 304.46000000000004,121.38 308.53999999999996,120.54 314.22,119.96000000000001 318.18,119.9 320.94,119.94 330.78000000000003,119.9"/>
<polygon class="l0d0" points="509.6,59.980000000000004 493.22,59.980000000000004 460.43999999999994,59.6 427.68,58.7 394.91999999999996,57.24 362.14,55.24 309.72,50.940000000000005 267.78,46.52 256.86,45.16 256.86,-45.16 267.78,-46.52 309.72,-50.940000000000005 362.14,-55.24 394.91999999999996,-57.24 427.68,-58.7 460.43999999999994,-59.6 493.22,-59.980000000000004 509.6,-59.980000000000004"/>
<polygon class="l0d0" points="635.86,119.97999999999999 638.12,120.13999999999999 640.0,120.34 643.98,121.02000000000001 648.18,122.12 651.52,123.32000000000001 654.22,124.5 656.3599999999999,125.60000000000001 660.54,128.18 664.5600000000001,131.3 666.94,133.5 668.76,135.39999999999998 672.16,139.5 675.22,144.0 678.6199999999999,150.04 681.58,156.44 685.74,167.10000000000002 688.8800000000001,175.74 691.52,182.57999999999998 693.78,187.92000000000002 695.74,192.12 697.4200000000001,195.42000000000002 701.1,201.8 705.22,207.89999999999998 707.9000000000001,211.42 713.6400000000001,218.18 719.76,224.57999999999998 732.2199999999999,236.6 741.3,245.76 747.5,253.0 751.72,258.65999999999997 754.7199999999999,263.06 756.9799999999999,266.38 758.72,268.88 760.12,270.76 761.26,272.16 763.18,274.26 763.18,286.84000000000003 760.86,285.38 757.3399999999999,282.54 754.26,279.36 752.88,277.7 751.24,275.56 749.3000000000001,272.88 747.02,269.5 744.16,265.3 740.34,260.08 734.8000000000001,253.48 730.78,249.24 726.34,244.84000000000003 720.3,239.04 713.9,232.86 707.4599999999999,226.22 701.22,219.08 698.26,215.3 693.6400000000001,208.70000000000002 689.5,201.8 687.62,198.26 685.4399999999999,193.76000000000002 682.96,188.1 680.1800000000001,181.0 676.9799999999999,172.3 673.08,162.0 670.4399999999999,156.08 667.5799999999999,150.68 665.0799999999999,146.78 662.36,143.28 660.9399999999999,141.68 659.08,139.84 656.0,137.24 652.76,135.06 651.1,134.12 649.02,133.12 646.4,132.08 642.28,130.88 638.34,130.2 636.46,130.02 634.22,129.92000000000002 631.5400000000001,129.9 614.5600000000001,129.96 609.72,130.48 603.18,132.22 599.84,133.66 596.52,135.5 594.9,136.57999999999998 591.76,139.06 588.78,141.98000000000002 587.36,143.6 585.6600000000001,145.76 583.1,149.54000000000002 580.74,153.72 579.62,155.96 578.28,158.84 576.68,162.62 572.86,172.71999999999997 568.9200000000001,183.4 566.74,188.82000000000002 563.64,195.72 560.1,202.5 558.18,205.82 555.6,209.86 552.14,214.78000000000003 547.5,220.64 540.88,228.0 534.0999999999999,234.82 530.74,238.04 526.68,241.92000000000002 521.9,246.54 516.5,252.07999999999998 510.74,258.72 509.6,260.28 509.6,244.88 513.04,241.23999999999998 517.86,236.52 521.88,232.68 530.1,224.72000000000003 538.08,216.26000000000002 542.5,210.94 545.78,206.5 548.24,202.86 550.08,199.86 553.4599999999999,193.72 556.48,187.32 566.48,161.22 568.14,157.08 569.5600000000001,153.84 572.7,147.56 576.28,141.7 578.26,138.96 579.94,136.88 583.54,133.04 587.42,129.68 589.46,128.18 593.66,125.60000000000001 597.9399999999999,123.53999999999999 602.22,122.0 606.4,120.94 612.6,120.07999999999998 616.96,119.9 619.98,119.92000000000002 630.34,119.92000000000002 633.26,119.9"/>
<polygon class="l0d0" points="542.36,-59.56 575.14,-58.58 591.52,-57.9 612.0,-56.86 644.76,-54.76 677.5400000000001,-52.12 693.92,-50.599999999999994 714.4,-48.5 740.0,-45.599999999999994 763.18,-42.62 763.18,42.62 740.0,45.599999999999994 714.4,48.5 693.92,50.599999999999994 677.5400000000001,52.12 644.76,54.76 612.0,56.86 591.52,57.9 575.14,58.58 542.36,59.56 509.6,59.980000000000004 509.6,-59.980000000000004"/>
<polygon class="l0d0" points="937.62,120.07999999999998 940.72,120.44 943.34,120.88 945.5,121.35999999999999 949.94,122.72 954.46,124.62 957.26,126.1 959.46,127.46000000000001 963.7,130.57999999999998 967.6999999999999,134.28 969.5600000000001,136.32 973.04,140.74 976.16,145.54 981.42,156.04 984.94,164.95999999999998 987.6,172.22000000000003 989.7199999999999,178.0 991.5,182.56 993.0,186.17999999999998 996.28,193.22 1000.02,200.01999999999998 1002.56,204.32 993.94,209.42000000000002 991.4,205.10000000000002 987.36,197.74 983.84,190.18 982.26,186.35999999999999 980.4000000000001,181.6 978.22,175.72 975.62,168.56 972.28,160.14 970.0400000000001,155.26 967.62,150.76 965.0,146.66 962.14,143.01999999999998 960.6399999999999,141.35999999999999 957.48,138.42000000000002 954.14,135.92000000000002 952.4200000000001,134.86 950.26,133.7 946.74,132.20000000000002 943.26,131.12 941.5600000000001,130.72 939.5,130.35999999999999 937.0,130.07999999999998 929.88,129.92000000000002 923.22,129.98 914.38,129.98 911.94,130.18 908.76,130.66 904.5799999999999,131.74 901.06,133.07999999999998 897.5799999999999,134.86 895.86,135.92000000000002 893.76,137.42000000000002 891.22,139.56 888.1999999999999,142.62 884.7199999999999,147.06 880.84,153.54 877.98,159.52 875.34,166.0 874.0600000000001,169.4 872.48,173.76000000000002 870.4399999999999,179.34 867.72,186.42 863.8599999999999,195.26 858.04,206.04 853.6,212.76 848.72,219.16 846.1400000000001,222.22000000000003 842.84,225.92 838.6199999999999,230.33999999999997 833.3199999999999,235.57999999999998 826.9,241.72 819.5799999999999,248.88000000000002 815.5200000000001,253.14 811.9,257.28000000000003 808.6,261.46000000000004 796.7,278.24 792.04,283.09999999999997 789.3399999999999,285.26 786.34,287.1 784.76,287.88 781.4,289.1 777.88,289.82 776.08,289.98 773.82,289.98 770.26,289.5 766.8000000000001,288.52 765.1600000000001,287.84 763.18,286.84000000000003 763.18,274.26 763.56,274.68 765.98,276.76 767.48,277.76 768.68,278.44 771.18,279.44 773.74,279.94 775.02,280.0 777.5799999999999,279.74 780.1,279.0 782.56,277.74 784.9200000000001,276.03999999999996 788.5,272.44 791.26,268.9 793.4399999999999,265.76 795.24,263.08 799.14,257.44 803.6199999999999,251.6 811.78,242.54000000000002 819.28,235.15999999999997 825.6600000000001,229.08 830.8,224.02 834.8399999999999,219.84000000000003 837.96,216.38000000000002 840.38,213.56 844.9200000000001,207.7 849.04,201.58 854.46,191.72 858.1399999999999,183.44 864.5799999999999,166.26000000000002 867.88,157.72 871.66,149.52 876.1400000000001,141.9 880.3199999999999,136.44 884.04,132.56 887.24,129.82 889.9,127.88 892.0999999999999,126.47999999999999 896.5600000000001,124.14 901.08,122.36000000000001 906.44,120.92 910.48,120.28 913.5,120.0 915.76,119.92000000000002 919.76,119.92000000000002 923.1600000000001,119.97999999999999 925.62,120.0 927.62,119.97999999999999 929.32,119.94 930.76,119.9 933.98,119.9"/>
<polygon class="l0d0" points="772.76,-41.4 805.54,-36.66 821.92,-34.1 842.4,-30.7 868.0,-26.14 900.0,-20.0 1020.0,-20.0 1020.0,20.0 900.0,20.0 868.0,26.14 842.4,30.7 821.92,34.1 805.54,36.66 772.76,41.4 763.18,42.62 763.18,-42.62"/>
<polygon class="l2d0" points="176.35999999999999,-17.44 178.42,-17.12 180.96,-16.56 184.14000000000001,-15.600000000000001 188.04,-13.979999999999999 192.89999999999998,-11.34 197.62,-8.18 199.94,-6.44 202.82,-4.16 202.82,9.0 200.18,6.7 196.82,3.8600000000000003 194.18,1.7399999999999998 192.10000000000002,0.18 188.04,-2.6 184.1,-4.779999999999999 181.11999999999998,-6.04 178.78,-6.800000000000001 176.94,-7.24 173.28,-7.66 169.60000000000002,-7.5600000000000005 167.24,-7.24 165.3,-6.86 161.34,-5.739999999999999 157.22,-4.24 146.4,0.4 137.22,4.0 129.64000000000001,6.12 123.46000000000001,7.06 118.52000000000001,7.32 114.58,7.22 111.47999999999999,6.959999999999999 99.5,5.0 5.1,5.0 5.460000000000001,16.240000000000002 5.88,25.259999999999998 7.119999999999999,43.2 8.94,60.88 10.08,69.58 11.120000000000001,76.44 12.02,81.86 14.059999999999999,92.5 16.4,102.82 18.04,109.08 19.419999999999998,113.97999999999999 22.46,123.46000000000001 25.86,132.48 27.68,136.8 29.2,140.14 32.42,146.57999999999998 35.86,152.62 37.66,155.5 41.46,160.94 45.480000000000004,165.94 49.720000000000006,170.5 54.18,174.57999999999998 61.82000000000001,180.15999999999997 68.38,183.76000000000002 73.97999999999999,186.06 78.68,187.54000000000002 82.6,188.48 85.84,189.08 88.52000000000001,189.46 94.06,189.92000000000002 99.9,190.0 105.64,189.88 108.6,194.89999999999998 112.14,201.28 115.28,207.83999999999997 119.62,218.46 122.68,226.8 125.06,233.24 127.0,238.18 128.62,241.94 129.98,244.8 131.12,247.0 133.52,251.11999999999998 136.14000000000001,254.86 138.8,258.03999999999996 141.64,260.84 146.5,264.48 150.56,266.70000000000005 153.84,268.02 156.44,268.8 158.46,269.28000000000003 162.38,269.86 166.02,270.08 182.18,270.1 186.5,269.96 190.24,269.52000000000004 193.4,268.84000000000003 195.98,268.08 198.07999999999998,267.28000000000003 199.76,266.54 202.82,264.88 202.82,276.12 201.9,276.54 199.20000000000002,277.54 195.9,278.53999999999996 191.9,279.38 187.24,279.94 183.0,280.1 179.36,280.06 177.74,280.04 175.82,280.0 173.48,280.02 170.36,280.08 165.78,280.08 162.3,279.9 158.48000000000002,279.44 156.46,279.08000000000004 153.88,278.48 150.56,277.46 146.35999999999999,275.76 141.18,272.94 135.02,268.32 131.46,264.84000000000003 128.2,260.94 125.07999999999998,256.5 122.30000000000001,251.72 121.02000000000001,249.24 119.52,246.06 117.75999999999999,242.0 115.72,236.8 113.28,230.21999999999997 110.25999999999999,221.98000000000002 106.16,211.94 99.97999999999999,199.98000000000002 93.46000000000001,199.89999999999998 87.08,199.36 84.0,198.92 80.22,198.2 75.64,197.07999999999998 70.11999999999999,195.3 63.56,192.54000000000002 55.839999999999996,188.22 46.980000000000004,181.6 41.86,176.78 37.08,171.5 32.599999999999994,165.76 28.42,159.60000000000002 26.46,156.38 22.72,149.64000000000001 19.28,142.52 17.68,138.84 15.74,134.14 12.2,124.36 9.06,114.16 7.640000000000001,108.9 5.9799999999999995,102.22 3.5999999999999996,91.28 1.56,80.03999999999999 0.66,74.34 -0.36,67.14 -1.46,58.040000000000006 -3.2,39.6 -4.34,21.0 -4.699999999999999,11.68 -5.0,0.08 -5.08,-5.0 100.5,-5.0 100.98,-4.9 112.08,-3.02 114.74000000000001,-2.7800000000000002 118.02,-2.68 122.08,-2.84 127.16,-3.58 133.62,-5.34 142.0,-8.6 153.12,-13.360000000000001 162.60000000000002,-16.48 165.06,-17.02 168.18,-17.48 172.26,-17.7"/>
<polygon class="l2d0" points="326.2,110.03999999999999 328.0,110.19999999999999 331.54,110.94 334.88,112.18 339.54,114.9 342.8,117.57999999999998 345.12,119.94 349.15999999999997,124.97999999999999 352.74,130.14 354.91999999999996,133.36 355.72,134.52 355.72,150.82 352.70000000000005,147.26000000000002 348.53999999999996,141.7 346.65999999999997,139.0 344.44000000000005,135.72 339.08000000000004,128.24 337.71999999999997,126.66 335.96,124.88 333.7,123.02 330.74,121.28 328.24,120.39999999999999 325.67999999999995,120.02000000000001 324.4,120.02000000000001 322.8,120.18 320.82,120.67999999999999 318.38,121.72 315.46,123.64000000000001 312.02000000000004,126.96 308.65999999999997,131.22 305.28,136.12 303.52,138.74 301.15999999999997,142.12 297.92,146.46 293.34,151.96 286.8,158.9 278.96000000000004,166.5 270.76,174.42000000000002 266.68,178.56 261.76,183.92 256.06,190.96 249.82,200.32 246.44,206.48 243.42,212.88 236.96,229.54000000000002 230.44,246.16 228.54,250.12 225.84,254.98000000000002 222.83999999999997,259.54 221.22,261.70000000000005 219.08,264.24 216.22,267.18 212.42000000000002,270.44 208.29999999999998,273.28 204.04,275.58 202.82,276.12 202.82,264.88 203.07999999999998,264.74 206.32000000000002,262.52 209.34,259.92 211.64000000000001,257.56 213.38,255.48 214.74,253.70000000000002 217.28000000000003,249.84000000000003 219.62,245.57999999999998 221.34,242.02 222.64,239.04 227.56,226.11999999999998 234.26,208.85999999999999 237.51999999999998,201.96 241.20000000000002,195.21999999999997 248.06,184.95999999999998 254.24,177.34000000000003 259.46000000000004,171.64000000000001 263.72,167.32 267.1,164.02 273.68,157.73999999999998 279.72,151.86 285.84,145.34 290.04,140.29999999999998 301.38,124.24 304.54,120.32 309.24,115.82000000000001 313.7,112.88 317.71999999999997,111.16 321.12,110.32 323.94,110.02000000000001"/>
<polygon class="l2d0" points="210.66,2.56 219.24,9.76 221.29999999999998,11.299999999999999 223.82000000000002,13.040000000000001 226.88,14.84 230.48,16.419999999999998 234.66000000000003,17.34 237.28000000000003,17.34 239.89999999999998,16.84 241.26000000000002,16.4 243.01999999999998,15.64 245.3,14.379999999999999 248.29999999999998,12.26 252.22000000000003,8.8 257.3,3.4200000000000004 263.86,-4.5 270.76,-13.16 277.84,-21.46 281.5,-25.2 286.24,-29.26 289.34000000000003,-31.36 292.58,-33.08 295.96,-34.300000000000004 299.48,-34.980000000000004 301.28,-35.08 304.14,-34.900000000000006 306.98,-34.300000000000004 308.38,-33.86 310.08,-33.16 312.16,-32.120000000000005 315.5,-29.94 318.72,-27.3 320.28,-25.8 322.2,-23.82 324.54,-21.12 327.44,-17.48 331.0,-12.56 335.38,-6.04 340.78000000000003,2.36 347.40000000000003,12.46 350.64,17.02 353.82,21.080000000000002 355.38,22.88 355.72,23.24 355.72,36.6 354.14,35.44 351.08,32.8 348.14,29.78 346.34000000000003,27.72 339.34,18.400000000000002 332.53999999999996,8.040000000000001 327.2,-0.28 323.0,-6.5600000000000005 319.68,-11.16 317.08,-14.459999999999999 315.04,-16.82 313.41999999999996,-18.52 312.18,-19.72 309.74,-21.76 307.46,-23.3 306.15999999999997,-23.96 303.78,-24.8 301.54,-25.08 299.28000000000003,-24.84 296.84000000000003,-24.04 294.74,-22.94 292.48,-21.44 288.64,-18.2 285.44,-14.96 282.82,-12.02 277.44,-5.540000000000001 271.96000000000004,1.3800000000000001 265.12,9.68 259.48,15.68 254.82,19.84 250.96,22.62 247.76,24.46 245.14,25.619999999999997 242.98,26.36 241.23999999999998,26.82 237.71999999999997,27.34 234.18,27.34 230.85999999999999,26.86 227.60000000000002,26.0 222.60000000000002,23.88 218.78,21.68 215.79999999999998,19.68 204.44,10.4 202.82,9.0 202.82,-4.16 206.34,-1.2"/>
<polygon class="l2d0" points="356.70000000000005,135.92000000000002 360.54,141.04 364.91999999999996,146.2 367.35999999999996,148.85999999999999 369.44000000000005,151.0 373.92,155.42 378.76,160.06 385.14000000000004,166.17999999999998 391.62,172.77999999999997 396.68,178.42 401.5,184.38 408.41999999999996,194.60000000000002 413.12,203.22 416.36,210.32 418.68,216.0 422.84,227.24 426.86,237.83999999999997 430.09999999999997,245.04000000000002 432.96,250.21999999999997 435.46,253.96 437.59999999999997,256.68 439.4,258.65999999999997 440.88,260.14 443.98,262.76 447.23999999999995,264.94 451.3,267.02000000000004 454.58,268.26 457.16,268.98 459.18,269.42 463.04,269.94 466.64,270.1 479.52,270.06 481.59999999999997,270.1 485.98,270.0 490.76,269.42 492.76000000000005,269.0 496.92,267.74 501.1,265.86 501.48,265.64 501.48,276.70000000000005 497.2,278.18 495.09999999999997,278.72 492.53999999999996,279.26 488.65999999999997,279.82 485.08000000000004,280.06 483.41999999999996,280.1 481.5,280.1 479.3,280.06 469.46,280.08 466.5,280.1 463.1,279.96 459.36,279.58 457.35999999999996,279.26 454.79999999999995,278.7 451.52,277.78 447.32,276.2 442.1,273.52 437.98,270.74 434.04,267.44 432.2,265.59999999999997 429.97999999999996,263.15999999999997 427.38,259.86 424.42,255.44 421.15999999999997,249.5 417.62,241.64000000000001 407.16,214.24 404.15999999999997,207.65999999999997 399.84000000000003,199.74 393.53999999999996,190.42000000000002 384.34,179.64 371.86,167.3 365.78000000000003,161.46 360.12,155.74 357.47999999999996,152.89999999999998 355.72,150.82 355.72,134.52"/>
<polygon class="l2d0" points="435.15999999999997,-43.84 437.64000000000004,-43.419999999999995 440.64,-42.42 444.18,-40.5 448.26,-37.24 453.04,-32.06 458.72,-24.08 465.6,-12.46 474.02,3.16 480.64,15.0 482.26,17.7 484.28,20.880000000000003 486.84,24.56 489.32000000000005,27.740000000000002 490.52,29.14 492.0,30.659999999999997 493.74,32.24 495.78000000000003,33.660000000000004 497.59999999999997,34.56 499.21999999999997,34.940000000000005 499.96000000000004,35.0 500.90000000000003,34.940000000000005 501.48,34.8 501.48,44.900000000000006 499.90000000000003,45.0 497.96,44.88 496.44,44.6 493.48,43.68000000000001 490.66,42.26 487.46000000000004,40.0 485.02000000000004,37.839999999999996 483.14,35.88 481.65999999999997,34.18 475.96,26.400000000000002 473.78,22.98 469.5,15.68 465.26000000000005,7.960000000000001 456.9,-7.52 453.62,-13.3 450.38,-18.580000000000002 447.81999999999994,-22.38 445.31999999999994,-25.7 441.5,-29.88 438.72,-32.120000000000005 436.76,-33.22 435.36,-33.7 434.32000000000005,-33.86 433.53999999999996,-33.9 431.88,-33.64 430.03999999999996,-32.92 428.05999999999995,-31.7 426.36,-30.339999999999996 424.91999999999996,-28.98 423.72,-27.740000000000002 421.28,-24.84 418.76,-21.46 416.76,-18.52 415.14000000000004,-16.02 408.53999999999996,-4.9399999999999995 400.14000000000004,9.82 393.28000000000003,20.9 387.59999999999997,28.56 382.86,33.620000000000005 378.82,36.84 375.38,38.78 372.47999999999996,39.88 370.06,40.4 368.1,40.58 366.54,40.56 363.41999999999996,40.099999999999994 360.42,39.16 357.76000000000005,37.86 355.72,36.6 355.72,23.24 357.8,25.4 360.12,27.42 361.22,28.24 362.53999999999996,29.08 364.08000000000004,29.84 365.94,30.419999999999998 367.65999999999997,30.58 368.52,30.52 369.62,30.299999999999997 371.1,29.759999999999998 373.14,28.62 375.96,26.38 379.78000000000003,22.34 382.28000000000003,19.14 384.84000000000003,15.52 388.1,10.46 391.38,4.98 399.73999999999995,-9.7 404.0,-16.98 408.29999999999995,-23.88 410.48,-27.080000000000002 416.24,-34.36 417.74,-35.94 419.64,-37.74 422.12,-39.74 425.4,-41.78 428.38,-43.019999999999996 431.52,-43.739999999999995 433.14,-43.879999999999995"/>
<polygon class="l2d0" points="626.94,110.07999999999998 630.68,110.7 634.24,111.89999999999999 638.08,113.9 638.8000000000001,114.42 638.8000000000001,127.89999999999999 636.02,124.94 634.6,123.68 632.74,122.36000000000001 630.36,121.12 627.7,120.28 625.02,120.0 623.6800000000001,120.06 622.0,120.34 619.94,121.0 617.42,122.26 614.42,124.54 610.88,128.32 606.58,134.2 600.78,142.64 597.42,147.10000000000002 593.66,151.6 591.62,153.85999999999999 584.6800000000001,161.0 577.0799999999999,168.32 569.22,175.94 561.66,184.04 558.12,188.29999999999998 553.9,193.96 550.08,199.86 548.32,202.92000000000002 546.28,206.8 543.9,211.78 541.22,218.18 530.72,245.54 527.54,252.0 522.9200000000001,259.46000000000004 519.6,263.65999999999997 515.9599999999999,267.44 512.04,270.74 507.9,273.52 505.78000000000003,274.72 501.48,276.70000000000005 501.48,265.64 502.76000000000005,264.94 506.02,262.76 509.12,260.14 512.0600000000001,257.1 514.8,253.61999999999998 518.76,247.24 521.58,241.46 523.6800000000001,236.48 525.3,232.28000000000003 531.92,214.48000000000002 534.78,207.68 537.34,202.3 539.5799999999999,198.06 541.5,194.74 545.68,188.26 550.28,182.07999999999998 554.12,177.48000000000002 557.28,173.96 563.76,167.28000000000003 570.1800000000001,161.08 573.26,158.12 575.6600000000001,155.84 580.1800000000001,151.38 584.26,147.10000000000002 588.76,141.92000000000002 592.6800000000001,136.8 598.32,128.56 603.12,122.0 607.74,117.08 612.1800000000001,113.74000000000001 616.24,111.7 619.74,110.60000000000001 622.66,110.12 625.04,110.0"/>
<polygon class="l2d0" points="567.88,-43.81999999999999 569.78,-43.52 572.1,-42.86 574.86,-41.64 578.12,-39.58 581.26,-36.92 584.24,-33.82 585.7,-32.1 587.5,-29.84 589.72,-26.8 592.44,-22.740000000000002 595.8,-17.32 608.9399999999999,5.5200000000000005 612.16,10.860000000000001 616.1,16.9 618.76,20.52 621.36,23.64 622.62,25.0 624.14,26.48 625.98,28.0 628.1,29.36 630.46,30.32 633.08,30.560000000000002 634.78,30.240000000000002 636.64,29.52 638.6999999999999,28.3 638.8000000000001,28.22 638.8000000000001,39.4 636.5999999999999,40.099999999999994 633.64,40.540000000000006 630.64,40.480000000000004 627.6800000000001,39.92 623.2,38.06 619.84,35.88 617.28,33.74 615.3,31.82 613.74,30.139999999999997 607.76,22.400000000000002 603.52,15.920000000000002 587.12,-12.36 583.9399999999999,-17.46 581.4200000000001,-21.200000000000003 579.44,-23.900000000000002 577.9,-25.86 576.68,-27.28 574.3,-29.740000000000002 572.0799999999999,-31.6 570.1,-32.839999999999996 568.6800000000001,-33.46 567.66,-33.76 565.72,-33.879999999999995 563.6999999999999,-33.4 562.28,-32.74 561.02,-31.96 559.96,-31.16 557.7,-29.119999999999997 555.3199999999999,-26.48 553.78,-24.540000000000003 552.52,-22.86 549.98,-19.119999999999997 547.38,-14.98 540.8,-3.3400000000000003 535.4399999999999,6.66 531.12,14.6 527.62,20.68 524.78,25.28 522.48,28.72 520.62,31.299999999999997 519.0999999999999,33.239999999999995 516.02,36.800000000000004 512.78,39.82 508.74,42.599999999999994 505.26000000000005,44.14 502.32,44.84 501.48,44.900000000000006 501.48,34.8 502.14,34.64 503.9,33.86 506.42,32.1 508.32,30.36 510.3,28.2 511.34000000000003,26.96 512.64,25.28 514.28,22.98 516.38,19.84 519.0400000000001,15.52 522.42,9.66 526.66,1.8599999999999999 532.04,-8.18 538.88,-20.240000000000002 542.36,-25.74 545.9000000000001,-30.72 547.72,-32.980000000000004 550.7,-36.24 553.8000000000001,-39.04 555.4200000000001,-40.24 557.54,-41.54 560.3,-42.800000000000004 563.28,-43.620000000000005 566.34,-43.9"/>
<polygon class="l2d0" points="640.84,115.88 642.88,117.66 646.48,121.5 649.5999999999999,125.58 658.52,138.44 662.62,143.56 667.3199999999999,148.8 671.5999999999999,153.14 676.26,157.66 684.3000000000001,165.38 690.9399999999999,172.06 696.16,177.8 700.1600000000001,182.64 703.1999999999999,186.66 705.5,190.0 709.74,196.86 713.5,203.98 715.5,208.29999999999998 719.0600000000001,217.0 722.24,225.57999999999998 725.2800000000001,233.84 728.46,241.56 731.22,247.2 734.28,252.28000000000003 736.94,255.88 739.8000000000001,259.08000000000004 744.76,263.32 748.96,265.9 752.4,267.48 755.14,268.44 757.3000000000001,269.02 761.46,269.76 765.34,270.06 773.72,270.0 780.24,270.08 785.78,270.02 790.6600000000001,269.44 794.8399999999999,268.44 798.26,267.2 801.0,265.91999999999996 802.12,265.28 802.12,276.44 797.74,278.02 792.44,279.28000000000003 786.3599999999999,280.0 783.0200000000001,280.1 780.06,280.08 773.82,280.0 770.6600000000001,280.06 767.02,280.1 764.98,280.06 761.22,279.8 757.12,279.20000000000005 754.98,278.74 752.2199999999999,278.0 748.72,276.78000000000003 744.32,274.76 738.94,271.46000000000004 732.6999999999999,266.12 729.1800000000001,262.2 725.98,257.84 722.4200000000001,251.94 719.3399999999999,245.64 706.34,212.36 704.5,208.34 701.06,201.82 697.1800000000001,195.54 695.0799999999999,192.51999999999998 692.3000000000001,188.82000000000002 688.6,184.34 683.7,178.96 677.3199999999999,172.54000000000002 669.3399999999999,164.89999999999998 660.0799999999999,155.68 655.9399999999999,151.16 652.2199999999999,146.66 650.5200000000001,144.42000000000002 646.64,138.96 643.1399999999999,133.8 641.48,131.4 638.8000000000001,127.89999999999999 638.8000000000001,114.42"/>
<polygon class="l2d0" points="699.54,-35.04 701.34,-34.88 703.54,-34.44 706.22,-33.58 709.42,-32.08 713.26,-29.64 717.8,-25.86 723.24,-20.28 728.52,-14.059999999999999 738.76,-1.26 743.72,4.5600000000000005 747.04,8.08 750.3,11.100000000000001 751.8600000000001,12.379999999999999 753.8,13.799999999999999 756.1199999999999,15.2 758.8800000000001,16.46 762.14,17.28 766.1400000000001,17.24 768.74,16.66 771.5,15.620000000000001 774.4,14.12 777.44,12.2 779.0,11.100000000000001 783.98,7.16 789.14,2.74 795.78,-2.98 802.12,-7.960000000000001 802.12,4.84 795.36,10.58 784.54,19.439999999999998 779.98,22.46 775.22,24.92 771.26,26.34 767.14,27.200000000000003 763.78,27.400000000000002 760.4200000000001,27.12 755.1,25.72 751.0,23.799999999999997 747.84,21.840000000000003 745.38,20.019999999999996 743.46,18.400000000000002 735.98,10.920000000000002 730.72,4.72 726.58,-0.43999999999999995 723.3199999999999,-4.5600000000000005 720.74,-7.78 718.7,-10.26 717.0600000000001,-12.16 713.8800000000001,-15.68 710.76,-18.740000000000002 707.14,-21.720000000000002 704.42,-23.42 702.4200000000001,-24.32 700.92,-24.78 699.76,-25.0 697.5400000000001,-25.019999999999996 695.26,-24.52 692.8199999999999,-23.46 690.72,-22.1 688.94,-20.72 687.4599999999999,-19.38 686.26,-18.2 681.26,-12.4 678.76,-9.040000000000001 676.72,-6.16 668.4399999999999,6.5 663.1600000000001,14.68 657.7800000000001,22.44 656.04,24.759999999999998 652.48,29.1 648.8,32.92 647.28,34.28 644.16,36.68 640.84,38.6 639.46,39.2 638.8000000000001,39.4 638.8000000000001,28.22 640.9399999999999,26.54 642.0999999999999,25.48 644.52,22.98 647.02,20.04 648.3,18.42 649.9,16.279999999999998 655.02,8.88 660.22,0.8 670.86,-15.2 673.6,-18.82 677.16,-23.1 680.84,-26.880000000000003 682.72,-28.54 685.14,-30.419999999999998 688.28,-32.36 692.4200000000001,-34.12 695.24,-34.8 698.12,-35.059999999999995"/>
<polygon class="l2d0" points="929.8399999999999,110.52 932.6800000000001,111.30000000000001 934.86,112.16 936.52,113.0 939.64,114.96000000000001 942.4599999999999,117.26 944.9200000000001,119.72 946.72,121.8 952.9200000000001,130.42 960.6399999999999,141.16 964.28,145.5 968.4000000000001,149.94 975.98,157.4 982.6800000000001,163.79999999999998 988.24,169.28 992.6800000000001,173.92 996.16,177.8 998.8599999999999,181.02 1003.98,187.76 1008.58,194.86 1009.3000000000001,197.34000000000003 1008.66,199.86 1006.88,201.72 1004.38,202.44 1001.88,201.82 1000.02,200.01999999999998 995.8,193.52 991.1,187.32 988.6,184.34 985.34,180.7 981.1199999999999,176.29999999999998 975.74,171.0 969.0600000000001,164.62 961.22,156.9 956.8000000000001,152.12 952.8199999999999,147.4 948.46,141.57999999999998 944.64,136.0 941.8000000000001,131.86 938.98,128.14 937.56,126.5 935.72,124.66 933.28,122.72 930.72,121.28 929.42,120.76 927.76,120.3 925.6600000000001,120.02000000000001 923.04,120.13999999999999 920.38,120.82000000000001 917.8,122.04 916.54,122.84 915.0,124.02 913.1399999999999,125.76 910.9000000000001,128.28 908.1600000000001,131.92000000000002 904.5799999999999,137.16 900.6600000000001,142.82 898.5,145.72 895.54,149.4 891.48,154.04 885.8199999999999,159.88 877.9200000000001,167.5 869.7,175.48 865.6600000000001,179.64 860.8,185.06 855.1800000000001,192.16000000000003 849.0600000000001,201.6 844.9200000000001,209.60000000000002 841.32,217.92000000000002 839.66,222.2 831.54,243.64000000000001 826.5999999999999,253.70000000000002 823.68,258.36 820.4399999999999,262.65999999999997 818.7,264.66 814.8000000000001,268.48 810.6,271.78000000000003 808.42,273.2 805.6399999999999,274.78000000000003 802.12,276.44 802.12,265.28 803.18,264.68 804.88,263.56 808.1999999999999,260.98 811.32,257.9 812.74,256.28 815.4399999999999,252.7 817.9200000000001,248.73999999999998 822.36,239.7 825.54,231.64000000000001 828.04,224.82 830.1,219.20000000000002 831.8600000000001,214.64 833.34,211.0 836.6200000000001,203.73999999999998 840.38,196.62 847.0999999999999,186.28 853.18,178.56 858.3799999999999,172.77999999999997 862.62,168.42 866.02,165.06 872.64,158.72 878.78,152.78 884.1200000000001,147.26000000000002 887.86,143.0 890.56,139.62 899.98,126.16 903.1399999999999,121.96 906.0,118.75999999999999 908.56,116.38 910.8199999999999,114.64 912.76,113.4 914.4,112.52000000000001 917.88,111.12 921.5600000000001,110.25999999999999 926.18,110.02000000000001"/>
<polygon class="l2d0" points="830.6999999999999,-17.58 833.1,-17.32 836.06,-16.8 839.7,-15.88 844.1200000000001,-14.42 852.6,-10.96 860.68,-7.46 864.5799999999999,-5.96 869.3399999999999,-4.44 874.0999999999999,-3.3400000000000003 878.82,-2.7800000000000002 881.18,-2.68 884.16,-2.72 887.9200000000001,-3.02 892.76,-3.7199999999999998 899.02,-4.9 899.5,-5.0 1000.0,-5.0 1002.5,-4.34 1004.3399999999999,-2.5 1005.0,0.0 1004.3399999999999,2.5 1002.5,4.34 1000.0,5.0 900.5,5.0 893.94,6.22 888.52,6.959999999999999 884.0999999999999,7.279999999999999 880.5200000000001,7.32 877.64,7.16 871.88,6.42 866.18,5.0600000000000005 860.72,3.2800000000000002 850.1999999999999,-1.08 840.3,-5.18 836.54,-6.38 833.6400000000001,-7.08 831.3599999999999,-7.46 829.5799999999999,-7.640000000000001 826.08,-7.640000000000001 822.5799999999999,-7.14 819.8199999999999,-6.38 817.5799999999999,-5.540000000000001 815.74,-4.699999999999999 811.9799999999999,-2.6 808.1,0.02 805.62,1.88 802.12,4.84 802.12,-7.960000000000001 802.62,-8.36 807.14,-11.36 811.76,-13.879999999999999 814.14,-14.94 817.14,-16.02 820.9399999999999,-17.0 824.8399999999999,-17.56 828.76,-17.68"/>
<polygon class="l1d0" points="316.74,-41.5 310.65999999999997,-41.0 268.92,-36.58 235.54,-32.42 208.82000000000002,-28.700000000000003 187.45999999999998,-25.459999999999997 170.36,-22.7 136.16,-16.74 101.96,-10.2 100.98,-10.0 -10.0,-10.0 -10.0,-0.18 -9.92,11.28 -9.719999999999999,20.48 -8.94,38.879999999999995 -7.58,57.18 -6.66,66.26 -5.8,73.44 -3.7199999999999998,87.62 -1.1400000000000001,101.44 0.34,108.22 1.6400000000000001,113.53999999999999 4.5200000000000005,123.97999999999999 7.800000000000001,134.06 9.6,138.96 11.14,142.79999999999998 14.399999999999999,150.28 17.98,157.46 19.88,160.92 23.96,167.62 28.4,173.96 33.199999999999996,179.92000000000002 38.4,185.44 42.839999999999996,189.54000000000002 47.56,193.32 55.64,198.66 62.599999999999994,202.24 68.46000000000001,204.66000000000003 73.34,206.28 77.36,207.36 80.66000000000001,208.1 87.44,209.22 94.28,209.92000000000002 101.5,221.9 107.32,231.29999999999998 112.0,238.58 115.78,244.24 118.82,248.61999999999998 121.25999999999999,252.02 126.19999999999999,258.52 131.18,264.58 137.42000000000002,271.28 142.54,276.06 146.74,279.46000000000004 150.2,281.90000000000003 153.01999999999998,283.65999999999997 155.32,284.92 160.04000000000002,287.08 164.89999999999998,288.68 171.02,289.8 175.98,289.98 179.94,289.68 183.07999999999998,289.16 185.56,288.53999999999996 190.42000000000002,286.90000000000003 195.12,284.7 199.56,282.06 203.01999999999998,279.64 205.72,277.52 211.02,272.82 216.16,267.54 219.32,263.98 221.82,260.98 226.78,254.66000000000003 231.68,247.92000000000002 237.71999999999997,238.98 243.72,229.62 253.24,214.08 260.76,201.48 266.76,191.5 271.52,183.72 275.32,177.68 278.32,173.0 280.74,169.36 285.5,162.42000000000002 290.21999999999997,156.0 295.64,149.3 299.86,144.60000000000002 303.18,141.28 305.76,138.94 307.78,137.28 309.36,136.08 312.44,134.01999999999998 315.36,132.42000000000002 316.74,131.86 316.74,143.12 315.53999999999996,143.94 313.94,145.16 311.82,146.92000000000002 309.0,149.56 305.24,153.52 300.28,159.38 295.84,165.18 291.3,171.6 288.98,175.01999999999998 286.06,179.44 282.38,185.21999999999997 277.7,192.76 271.8,202.51999999999998 264.3,215.04000000000002 254.78000000000003,230.78 242.57999999999998,249.72000000000003 236.29999999999998,258.62 229.84000000000003,266.98 226.52,270.94 221.08,276.92 215.38,282.4 212.44,284.96 208.61999999999998,287.94 203.61999999999998,291.34000000000003 194.82,295.9 192.5,296.82 189.52,297.8 185.7,298.82 180.82,299.64 174.60000000000002,300.0 166.88,299.32 161.92000000000002,298.21999999999997 157.16,296.68 154.84,295.74 152.0,294.46000000000004 148.58,292.64 144.48000000000002,290.1 139.58,286.58000000000004 133.78,281.64 126.89999999999999,274.78000000000003 121.52,268.64 116.32,262.1 113.75999999999999,258.68 110.60000000000001,254.3 106.7,248.66 101.88000000000001,241.35999999999999 95.96000000000001,231.98000000000002 88.68,220.01999999999998 81.18,219.04 73.86,217.74 70.25999999999999,216.88 65.86,215.64 60.480000000000004,213.78 54.0,211.04 46.260000000000005,206.98000000000002 37.22,200.98 31.939999999999998,196.76 26.96,192.22000000000003 21.12,186.11999999999998 15.74,179.60000000000002 10.780000000000001,172.71999999999997 6.22,165.5 4.08,161.78 0.06,154.12 -3.62,146.2 -5.34,142.16 -7.38,137.02 -11.100000000000001,126.47999999999999 -14.42,115.67999999999999 -15.920000000000002,110.16 -17.68,103.2 -20.76,89.0 -23.32,74.53999999999999 -24.42,67.22 -25.659999999999997,58.040000000000006 -27.62,39.519999999999996 -29.020000000000003,20.939999999999998 -29.52,11.68 -30.0,0.18 -31.02,-30.0 99.02,-30.0 133.46,-36.58 167.89999999999998,-42.56 185.12,-45.339999999999996 206.64000000000001,-48.6 233.54,-52.34 267.18,-56.52 309.24,-60.940000000000005 316.74,-61.559999999999995"/>
<polygon class="l1d0" points="327.78,130.2 330.98,130.94 333.62,131.94 335.84000000000003,133.04 337.70000000000005,134.1 339.21999999999997,135.07999999999998 342.35999999999996,137.38 345.62,140.16 348.24,142.64 350.36,144.84 352.08,146.7 359.12,155.18 361.36,158.12 365.88,164.4 370.46,171.14000000000001 379.68000000000006,185.68 398.46,216.88 402.26,223.12 409.90000000000003,235.33999999999997 417.62,246.92000000000002 422.40000000000003,253.56 426.26,258.6 429.36,262.44 431.88,265.36 436.98,270.86 442.22,275.78 446.42,279.22 449.85999999999996,281.68 452.65999999999997,283.44 454.96000000000004,284.74 459.68000000000006,286.92 464.54,288.58 468.41999999999996,289.44 471.58000000000004,289.84000000000003 474.12,289.98 476.14,289.98 480.20000000000005,289.64 484.20000000000005,288.9 487.28000000000003,288.03999999999996 489.7,287.18 494.44000000000005,285.06 499.0,282.42 501.24,280.94 505.6,277.64 509.84000000000003,273.94 518.06,265.42 524.46,257.68 529.5,250.96 533.5,245.3 536.66,240.6 549.2,220.74 567.58,190.14 570.5,185.38 576.28,176.17999999999998 582.0,167.45999999999998 584.28,164.16 588.8000000000001,157.89999999999998 593.26,152.16 595.02,150.02 598.52,146.04 601.92,142.48 605.26,139.38 608.5,136.72 613.4000000000001,133.44 617.04,131.66 619.78,130.72 621.86,130.26 623.48,130.06 626.7,130.07999999999998 629.98,130.66 632.04,131.32 633.76,132.0 635.1800000000001,132.68 638.12,134.36 641.22,136.5 642.0600000000001,137.16 642.0600000000001,150.62 639.0999999999999,147.76 637.7,146.5 636.0,145.12 633.5,143.28 631.28,141.94 630.28,141.42 629.16,140.92000000000002 627.9,140.45999999999998 625.78,140.04 623.9200000000001,140.06 622.9,140.26 621.38,140.7 619.06,141.74 615.4399999999999,144.01999999999998 612.84,146.06 610.0,148.58 607.0,151.6 603.84,155.07999999999998 602.22,157.0 598.06,162.22000000000003 593.78,168.04 591.5999999999999,171.16 586.0600000000001,179.46 580.4,188.35999999999999 577.56,193.0 559.28,223.4 551.4200000000001,236.17999999999998 543.4000000000001,248.52 539.3,254.46 534.0999999999999,261.56 527.42,269.9 518.64,279.36 514.0,283.62 509.18,287.52 506.65999999999997,289.34000000000003 501.44,292.62 495.90000000000003,295.42 493.02,296.62 489.3,297.88 484.4,299.08000000000004 479.36,299.8 476.82000000000005,299.96 473.64,299.98 469.66,299.7 464.76,298.92 459.88,297.62 455.18,295.9 452.92,294.88 450.14000000000004,293.5 446.78,291.58000000000004 442.76000000000005,288.92 437.93999999999994,285.26 432.08,280.06 426.5,274.34000000000003 423.8,271.32 420.48,267.38 416.42,262.24 411.44,255.5 403.29999999999995,243.54 395.34,230.98 391.42,224.56 386.56,216.5 380.54,206.44 373.14,194.12 364.06,179.62 359.62,172.92000000000002 355.24,166.68 353.1,163.76000000000002 349.73999999999995,159.4 346.46000000000004,155.44 344.85999999999996,153.62 342.9,151.5 340.54,149.12 337.68,146.5 335.02000000000004,144.36 333.8,143.48000000000002 332.34000000000003,142.54 330.7,141.62 328.92,140.82 326.64,140.16 324.84000000000003,140.0 323.94,140.06 322.70000000000005,140.29999999999998 320.82,140.92000000000002 318.94,141.82 316.74,143.12 316.74,131.86 318.7,131.06 321.24,130.38 323.17999999999995,130.07999999999998 324.72,130.0"/>
<polygon class="l1d0" points="542.48,-69.56 575.3199999999999,-68.58 591.76,-67.9 612.28,-66.86 642.0600000000001,-64.96000000000001 642.0600000000001,-44.900000000000006 611.4399999999999,-46.879999999999995 591.0600000000001,-47.92 574.76,-48.6 542.16,-49.56 509.56000000000006,-49.980000000000004 493.24,-49.980000000000004 460.64,-49.62 428.04,-48.7 395.43999999999994,-47.26 362.84,-45.279999999999994 316.74,-41.5 316.74,-61.559999999999995 361.8,-65.24 394.64,-67.24000000000001 427.5,-68.7 460.34,-69.6 493.2,-69.98 509.62,-69.98"/>
<polygon class="l1d0" points="927.28,130.14 928.58,130.34 931.28,131.04 934.16,132.18 936.04,133.12 937.5799999999999,134.01999999999998 940.8,136.2 944.16,138.88 945.9000000000001,140.42 949.42,143.85999999999999 953.04,147.78 956.72,152.14000000000001 960.46,156.92000000000002 966.52,165.32 971.44,172.62 975.38,178.78 983.36,191.70000000000002 991.42,205.12 982.8199999999999,210.24 970.1,189.20000000000002 966.9799999999999,184.22 963.12,178.2 958.3799999999999,171.11999999999998 952.5799999999999,163.06 949.0600000000001,158.56 945.6399999999999,154.5 942.36,150.94 939.26,147.89999999999998 937.7800000000001,146.57999999999998 934.98,144.34 932.48,142.64 931.3599999999999,141.96 930.06,141.3 927.86,140.45999999999998 926.1400000000001,140.07999999999998 925.38,140.0 924.46,140.02 922.86,140.26 920.86,140.9 919.66,141.44 917.98,142.34 915.6,143.9 912.88,146.02 909.9200000000001,148.68 908.36,150.2 906.34,152.3 903.76,155.2 900.4000000000001,159.24 896.08,164.88 891.54,171.26000000000002 886.88,178.18 884.54,181.82 881.58,186.5 877.84,192.54000000000002 873.12,200.32 867.16,210.27999999999997 847.56,242.22000000000003 842.5,249.84000000000003 836.06,258.94 827.76,269.5 822.0799999999999,275.86 816.16,281.70000000000005 813.08,284.42 809.0999999999999,287.58 803.8800000000001,291.15999999999997 796.92,294.96 792.3199999999999,296.88 787.52,298.38 782.56,299.40000000000003 777.5,299.94 774.94,300.0 769.86,299.72 764.8399999999999,298.94 762.38,298.34 759.3600000000001,297.46 754.46,295.58 749.78,293.29999999999995 747.52,292.02000000000004 744.78,290.3 741.46,288.0 737.4599999999999,284.86 732.6600000000001,280.59999999999997 726.92,274.8 720.06,266.86 711.8399999999999,256.06 701.92,241.4 689.86,222.0 674.52,196.42 670.76,190.26 666.1199999999999,182.83999999999997 660.4000000000001,174.1 653.4399999999999,164.22 650.06,159.82 646.78,155.8 645.1600000000001,153.96 642.0600000000001,150.62 642.0600000000001,137.16 643.22,138.07999999999998 644.8399999999999,139.48000000000002 648.18,142.6 651.5999999999999,146.18 655.98,151.22 660.4200000000001,156.86 667.6600000000001,166.98000000000002 673.52,175.85999999999999 678.26,183.38 687.8199999999999,199.1 697.4599999999999,215.21999999999997 709.3600000000001,234.5 719.04,248.92 726.9,259.42 733.34,267.0 738.6,272.44 742.9000000000001,276.38 746.44,279.24 749.32,281.32 751.66,282.84 756.48,285.5 761.48,287.62 763.92,288.4 765.9000000000001,288.92 769.9,289.66 773.96,289.98 775.98,289.98 780.0400000000001,289.66 784.0600000000001,288.94 791.82,286.3 797.76,283.2 802.3199999999999,280.15999999999997 805.8799999999999,277.4 808.68,275.0 814.1200000000001,269.72 819.46,263.82 827.4,253.84 833.6400000000001,245.07999999999998 838.6,237.65999999999997 842.52,231.54 858.08,205.98 864.08,195.94 868.8599999999999,188.06 872.6600000000001,181.9 875.68,177.07999999999998 878.1,173.34 882.9000000000001,166.16 887.6600000000001,159.46 892.24,153.44 895.84,149.06 898.7,145.84 900.9399999999999,143.48000000000002 902.72,141.72 906.18,138.58 909.54,135.96 912.6600000000001,133.88 915.06,132.56 916.9,131.72 918.3199999999999,131.18 921.04,130.42 923.66,130.04 925.6600000000001,130.02"/>
<polygon class="l1d0" points="645.14,-64.76 677.98,-62.12 694.42,-60.599999999999994 714.94,-58.5 740.6,-55.599999999999994 773.46,-51.4 806.3,-46.660000000000004 822.72,-44.1 843.26,-40.67999999999999 868.92,-36.14 900.98,-30.0 1000.0,-30.0 1000.0,-10.0 899.02,-10.0 898.04,-10.2 866.2,-16.299999999999997 840.72,-20.84 820.34,-24.220000000000002 804.02,-26.78 771.42,-31.5 738.8,-35.68 713.34,-38.56 692.96,-40.64 676.66,-42.160000000000004 644.04,-44.78 642.0600000000001,-44.900000000000006 642.0600000000001,-64.96000000000001"/>
<polygon class="l1d0" points="101.96,10.2 136.16,16.74 170.36,22.7 187.45999999999998,25.459999999999997 208.82000000000002,28.700000000000003 235.54,32.42 268.92,36.58 299.40000000000003,39.8 299.40000000000003,59.900000000000006 267.18,56.52 233.54,52.34 206.64000000000001,48.6 185.12,45.339999999999996 167.89999999999998,42.56 133.46,36.58 99.02,30.0 29.580000000000002,30.019999999999996 29.759999999999998,39.8 30.019999999999996,47.58 30.32,53.739999999999995 31.14,65.9 32.3,77.75999999999999 33.22,84.97999999999999 34.04,90.64 34.76,95.07999999999998 36.379999999999995,103.74000000000001 38.239999999999995,112.04 39.519999999999996,117.04 40.620000000000005,120.94 42.980000000000004,128.38 45.58,135.35999999999999 46.980000000000004,138.68 49.92,144.92000000000002 53.08,150.64 56.44,155.82 60.019999999999996,160.48 66.16,166.84 71.52,171.02 76.2,173.84 80.24,175.74 83.69999999999999,177.04000000000002 86.64,177.92000000000002 89.1,178.54 91.16,178.96 95.48,179.62 100.12,180.0 111.7,180.57999999999998 117.18,189.76 124.32000000000001,201.68 129.96,210.92 134.42000000000002,218.0 137.94,223.42 140.72,227.56 142.92,230.74 147.26000000000002,236.72 151.48,242.10000000000002 156.4,247.76 160.10000000000002,251.5 162.88,253.98 164.95999999999998,255.62 166.5,256.72 167.64,257.46 169.74,258.6 171.5,259.34000000000003 173.26,259.82 174.42000000000002,259.98 175.32,260.0 176.04,259.94 177.65999999999997,259.6 179.7,258.86 181.64000000000001,257.86 183.4,256.78000000000003 184.94,255.7 186.23999999999998,254.7 189.02,252.32 191.98000000000002,249.44 194.42000000000002,246.86 196.42,244.60000000000002 198.06,242.65999999999997 201.4,238.46 204.84000000000003,233.88000000000002 207.02,230.82 211.44,224.34 215.96,217.42000000000002 225.14,202.57999999999998 232.62,190.07999999999998 238.70000000000002,179.94 243.61999999999998,171.82 247.57999999999998,165.39999999999998 250.78,160.33999999999997 257.28000000000003,150.48 263.9,141.1 270.26,132.89999999999998 275.5,126.76 279.84000000000003,122.16 283.4,118.69999999999999 286.34000000000003,116.08000000000001 288.76,114.08 293.78,110.36 299.06,107.10000000000001 299.40000000000003,106.94000000000001 299.40000000000003,118.64000000000001 295.0,121.88000000000001 292.86,123.66 290.2,126.02000000000001 286.94,129.2 282.94,133.44 278.0,139.22 271.96000000000004,147.04000000000002 265.53999999999996,156.12 259.20000000000005,165.74 256.06,170.72 252.14,177.04000000000002 247.28000000000003,185.07999999999998 241.22,195.2 233.70000000000002,207.76 224.38,222.8 215.2,236.58 212.92000000000002,239.76 208.44,245.72 204.0,251.11999999999998 201.82,253.6 199.12,256.44 195.76,259.7 192.48000000000002,262.52 190.88,263.74 188.94,265.1 186.58,266.56 183.78,267.97999999999996 180.39999999999998,269.22 177.22000000000003,269.86 175.68,269.98 173.76000000000002,269.96 171.32000000000002,269.64 168.14,268.76 165.38,267.6 162.44,266.0 160.92,265.02 158.98,263.64 156.46,261.66 153.24,258.78 149.07999999999998,254.57999999999998 143.74,248.42 139.28,242.71999999999997 134.74,236.5 132.46,233.2 129.60000000000002,228.94 126.0,223.38 121.46000000000001,216.17999999999998 115.76,206.84 108.58000000000001,194.88 105.67999999999999,190.0 99.88,190.0 94.16,189.8 88.72,189.22 86.12,188.79999999999998 82.96,188.14 79.14,187.14 74.6,185.6 69.22,183.24 62.92,179.66000000000003 55.64,174.16 51.42,170.15999999999997 47.42,165.76 43.620000000000005,160.92 40.06,155.68 38.36,152.92 35.12,147.10000000000002 32.1,140.9 30.68,137.68 28.96,133.54 25.8,124.86000000000001 22.959999999999997,115.74 21.64,111.02000000000001 20.139999999999997,104.97999999999999 17.96,95.02000000000001 16.080000000000002,84.74000000000001 15.24,79.5 14.299999999999999,72.88 13.280000000000001,64.46 11.66,47.300000000000004 10.64,29.860000000000003 10.3,21.080000000000002 10.06,10.08 100.0,10.0 100.98,10.0"/>
<polygon class="l1d0" points="630.4200000000001,100.3 635.7,101.18 640.48,102.5 644.04,103.78 644.04,114.82 642.8,114.16 640.4200000000001,113.10000000000001 637.4,112.0 633.54,110.94 629.3,110.24 625.04,110.0 622.9,110.06 620.24,110.3 616.94,110.84 612.88,111.92 607.9399999999999,113.82 602.0,116.96 594.9,121.96 586.46,129.68 581.34,135.23999999999998 576.34,141.3 570.16,149.5 564.06,158.3 556.5400000000001,169.95999999999998 549.08,182.10000000000002 530.68,212.71999999999997 524.5799999999999,222.5 518.54,231.72 515.54,236.08 511.84,241.26000000000002 507.23999999999995,247.22000000000003 501.62,253.82000000000002 498.17999999999995,257.4 494.84000000000003,260.53999999999996 491.59999999999997,263.2 488.48,265.42 486.96,266.34000000000003 484.08000000000004,267.86 481.34000000000003,268.94 480.02000000000004,269.32 478.41999999999996,269.68 475.31999999999994,270.0 472.23999999999995,269.8 470.66,269.5 468.62,268.92 465.88,267.84 462.98,266.32 461.48,265.38 459.54,264.06 457.04,262.14 453.84000000000003,259.34000000000003 450.46,256.02 447.0,252.26 445.24,250.24 443.02,247.56 440.24,244.0 436.71999999999997,239.26 432.26,232.92000000000002 426.24,223.76000000000002 420.14000000000004,214.06 417.08,209.04 413.24,202.68 408.41999999999996,194.60000000000002 402.35999999999996,184.48000000000002 394.73999999999995,172.0 385.09999999999997,157.06 375.3,143.4 372.81999999999994,140.23999999999998 367.78,134.26 362.65999999999997,128.78 360.03999999999996,126.25999999999999 356.74,123.32000000000001 352.38,119.9 347.92,116.89999999999999 345.62,115.58 342.70000000000005,114.1 338.96000000000004,112.53999999999999 334.15999999999997,111.1 330.14000000000004,110.34 326.08,110.02000000000001 324.04,110.02000000000001 321.5,110.16 318.34,110.58 314.44,111.46000000000001 309.68,113.08 303.92,115.82000000000001 299.40000000000003,118.64000000000001 299.40000000000003,106.94000000000001 305.94,103.80000000000001 311.78000000000003,101.82000000000001 316.62,100.72 320.58,100.19999999999999 323.8,100.02000000000001 326.36,100.02000000000001 331.48,100.44 336.5,101.35999999999999 342.40000000000003,103.16000000000001 346.94000000000005,105.03999999999999 350.42,106.8 353.1,108.36 358.28000000000003,111.82000000000001 363.17999999999995,115.67999999999999 366.86,118.96000000000001 369.73999999999995,121.72 375.26000000000005,127.62 380.62,133.98 387.08,142.46 393.40000000000003,151.48 403.24,166.72 410.94,179.32 417.02,189.48000000000002 421.82000000000005,197.54000000000002 425.64,203.85999999999999 428.65999999999997,208.82000000000002 434.66,218.35999999999999 440.54,227.28000000000003 444.82,233.4 448.17999999999995,237.92000000000002 450.79999999999995,241.28 452.88,243.78 454.5,245.66 457.64000000000004,249.06 460.62,252.0 463.36,254.38 465.4,255.96 466.92,256.98 468.04,257.68 470.06,258.76 471.78,259.44 472.9,259.76 474.79999999999995,260.0 476.62,259.84000000000003 477.46000000000004,259.66 478.2,259.44 479.90000000000003,258.76 481.92,257.7 483.04,257.02000000000004 485.52,255.26 488.22,253.04 491.14,250.3 494.24,247.07999999999998 499.44000000000005,240.96 503.78,235.3 507.35999999999996,230.33999999999997 510.26000000000005,226.11999999999998 512.6,222.62 522.14,207.5 531.24,192.39999999999998 540.52,176.92000000000002 548.06,164.64 555.76,152.73999999999998 562.04,143.66 568.48,135.1 573.8000000000001,128.68 579.3,122.69999999999999 588.64,114.16 596.78,108.42 603.84,104.7 609.84,102.38 614.88,101.06 619.0,100.38 622.36,100.07999999999998 625.04,100.0"/>
<polygon class="l1d0" points="310.65999999999997,41.0 362.84,45.279999999999994 395.43999999999994,47.26 428.04,48.7 460.64,49.62 493.24,49.980000000000004 509.56000000000006,49.980000000000004 542.16,49.56 574.76,48.6 591.0600000000001,47.92 611.4399999999999,46.879999999999995 644.04,44.78 644.04,64.84 612.28,66.86 591.76,67.9 575.3199999999999,68.58 542.48,69.56 509.62,69.98 493.2,69.98 460.34,69.6 427.5,68.7 394.64,67.24000000000001 361.8,65.24 309.24,60.940000000000005 299.40000000000003,59.900000000000006 299.40000000000003,39.8"/>
<polygon class="l1d0" points="930.5200000000001,100.32 933.84,100.8 936.46,101.35999999999999 941.5600000000001,102.86 946.44,104.82 950.12,106.64 952.9399999999999,108.26 958.36,111.88000000000001 963.5,115.94 965.98,118.14 975.4000000000001,127.78 984.28,138.68 991.1199999999999,148.14 996.46,156.1 1006.94,172.71999999999997 1017.1800000000001,189.76 1008.58,194.88 992.24,168.0 988.1,161.58 982.9000000000001,153.82 976.3,144.72 967.9200000000001,134.4 959.24,125.52 957.02,123.56 952.4599999999999,119.94 947.7800000000001,116.82000000000001 945.36,115.44 942.3000000000001,113.91999999999999 938.28,112.30000000000001 934.14,111.08000000000001 932.04,110.64 929.4,110.25999999999999 926.06,110.02000000000001 921.88,110.12 917.64,110.7 913.46,111.74 911.42,112.4 908.9,113.4 905.8,114.84 902.02,116.94000000000001 897.44,120.02000000000001 892.9000000000001,123.62 888.48,127.68 886.3,129.84 883.6,132.7 880.2800000000001,136.48 876.18,141.48 871.1199999999999,148.18 864.7199999999999,157.32 858.4000000000001,167.0 855.26,172.0 851.34,178.35999999999999 846.48,186.42 840.4200000000001,196.54 832.72,209.36 825.1,221.68 821.32,227.56 816.6200000000001,234.54000000000002 810.8199999999999,242.62 803.7,251.48 800.06,255.48 796.5,259.02 794.76,260.59999999999997 792.62,262.4 790.02,264.36 786.9,266.38 783.22,268.21999999999997 778.98,269.58 774.04,269.98 770.92,269.56 767.62,268.56 764.6800000000001,267.24 761.5600000000001,265.44 759.9599999999999,264.34000000000003 757.88,262.8 755.22,260.58 751.78,257.36 747.38,252.7 741.74,245.92 734.52,236.16 725.3199999999999,222.34000000000003 713.66,203.35999999999999 694.24,171.20000000000002 689.32,163.46 683.12,154.16 675.26,143.34 670.2800000000001,137.14000000000001 665.1999999999999,131.42 660.0,126.22 654.66,121.62 651.94,119.56 647.44,116.62 644.04,114.82 644.04,103.78 644.1800000000001,103.84 647.0600000000001,105.1 652.56,108.02 657.76,111.44 660.86,113.78 666.82,118.91999999999999 672.48,124.56 677.9200000000001,130.7 683.18,137.24 691.34,148.48000000000002 697.72,158.01999999999998 722.24,198.22 728.04,207.8 733.76,216.96 738.26,223.92 742.6999999999999,230.42000000000002 749.5999999999999,239.74 754.86,246.06 758.82,250.26 761.82,253.07999999999998 764.0600000000001,254.94 765.72,256.18 766.9799999999999,257.04 769.26,258.36 771.18,259.22 773.04,259.78000000000003 774.5600000000001,259.98 776.9,259.8 779.3600000000001,259.0 781.88,257.74 784.26,256.2 786.3599999999999,254.60000000000002 788.1600000000001,253.1 789.66,251.72 792.8199999999999,248.58 796.1400000000001,244.92000000000002 799.44,240.98 802.8199999999999,236.6 808.3799999999999,228.85999999999999 812.9399999999999,222.06 816.66,216.32000000000002 819.64,211.54 831.8399999999999,191.42 837.9000000000001,181.28 842.8,173.16 846.76,166.72 849.9599999999999,161.64000000000001 856.44,151.74 863.04,142.28 868.34,135.29999999999998 872.6800000000001,130.0 876.22,125.96000000000001 879.14,122.88 881.5,120.5 886.4,116.02000000000001 891.54,111.94000000000001 896.82,108.4 901.28,105.92 905.0,104.17999999999999 908.06,102.98 910.58,102.16 915.76,100.88 921.08,100.16 926.34,100.02000000000001"/>
<polygon class="l1d0" points="1000.0,30.0 900.98,30.0 868.92,36.14 843.26,40.67999999999999 822.72,44.1 806.3,46.660000000000004 773.46,51.4 740.6,55.599999999999994 714.94,58.5 694.42,60.599999999999994 677.98,62.12 645.14,64.76 644.04,64.84 644.04,44.78 676.66,42.160000000000004 692.96,40.64 713.34,38.56 738.8,35.68 771.42,31.5 804.02,26.78 820.34,24.220000000000002 840.72,20.84 866.2,16.299999999999997 898.04,10.2 899.02,10.0 1000.0,10.0"/>
</g>
</svg>