<?xml version="1.0" encoding="UTF-8"?>
<svg xmlns="http://www.w3.org/2000/svg" xmlns:xlink="http://www.w3.org/1999/xlink"
     width="400.0" height="164.37" viewBox="-28.91 -121.98 400.0 164.37">
<defs>
<style type="text/css">
.l1d0 {stroke: rgb(21, 255, 21); fill: rgb(21, 255, 21); fill-opacity: 0.5;}
.l2d0 {stroke: rgb(42, 42, 255); fill: rgb(42, 42, 255); fill-opacity: 0.5;}
.l0d0 {stroke: rgb(255, 0, 0); fill: rgb(255, 0, 0); fill-opacity: 0.5;}
</style>
</defs>
<rect x="-28.91" y="-121.98" width="400.0" height="164.37" fill="none" stroke="none"/>
<g id="robust_paths" transform="scale(1 -1)">
<polygon class="l0d0" points="88.87,15.62 81.04,14.65 71.75,13.35 64.32,12.23 58.37,11.27 46.49,9.2 34.6,6.92 6.53,6.91 6.41,10.52 6.35,13.41 6.38,19.15 6.59,24.79 6.78,27.55 6.97,29.73 7.45,34.0 8.1,38.13 8.48,40.13 8.82,41.7 9.57,44.74 10.44,47.66 10.93,49.06 11.98,51.76 13.17,54.31 13.68,55.28 14.77,57.15 15.96,58.9 17.25,60.55 18.66,62.07 21.13,64.26 23.35,65.76 25.3,66.8 26.96,67.51 28.36,68.0 29.53,68.34 30.5,68.57 32.51,68.95 34.59,69.19 35.85,71.15 37.23,73.02 39.66,75.87 41.75,78.02 43.45,79.67 44.8,80.95 45.85,81.96 47.86,83.95 49.68,85.91 51.61,88.29 52.94,90.14 53.9,91.55 54.63,92.63 55.21,93.42 55.67,94.02 56.62,95.06 57.63,95.89 58.91,96.58 59.99,96.84 60.85,96.86 61.54,96.76 62.09,96.61 62.53,96.44 63.36,95.97 64.17,95.34 65.12,94.38 65.85,93.47 66.42,92.68 67.61,90.95 68.89,89.09 69.79,87.89 70.56,86.92 72.28,84.96 74.19,82.99 76.81,80.47 79.52,77.84 81.65,75.63 83.65,73.3 85.11,71.35 86.43,69.31 88.26,65.87 88.87,64.52 88.87,71.94 87.36,74.14 85.3,76.73 83.11,79.13 80.87,81.37 78.69,83.45 77.65,84.45 76.1,85.98 74.68,87.46 74.03,88.18 73.27,89.07 72.39,90.18 68.48,95.72 67.36,97.06 66.3,98.08 65.09,98.97 64.43,99.35 63.56,99.75 62.41,100.11 60.9,100.33 59.0,100.18 57.86,99.88 56.78,99.42 55.49,98.62 54.34,97.67 53.82,97.15 53.22,96.48 52.52,95.61 51.72,94.5 50.78,93.1 49.59,91.37 47.95,89.22 46.72,87.79 45.34,86.32 44.6,85.57 43.61,84.61 42.32,83.37 40.63,81.75 38.44,79.6 35.75,76.68 34.16,74.71 32.69,72.65 30.21,72.55 27.84,72.25 26.68,72.03 25.25,71.71 23.51,71.2 21.42,70.44 18.9,69.27 15.96,67.49 14.23,66.21 12.59,64.82 10.66,62.92 8.86,60.87 7.19,58.67 5.64,56.33 4.91,55.12 3.54,52.62 2.28,50.0 1.69,48.65 0.98,46.94 -0.31,43.41 -1.46,39.75 -1.99,37.89 -2.59,35.51 -3.67,30.66 -4.57,25.69 -4.96,23.17 -5.4,19.99 -6.09,13.57 -6.58,7.11 -6.75,3.9 -6.92,-0.12 -7.15,-6.92 34.6,-6.92 46.49,-9.2 58.37,-11.27 64.32,-12.23 71.75,-13.35 81.04,-14.65 88.87,-15.62"/>
<polygon class="l0d0" points="115.76,41.49 116.95,41.56 117.98,41.68 118.85,41.84 119.56,42.0 121.03,42.44 122.51,43.05 123.95,43.84 125.07,44.58 125.94,45.26 126.6,45.86 127.86,47.16 129.02,48.62 129.83,49.84 130.44,50.87 131.54,53.03 132.5,55.29 134.66,61.1 136.53,65.66 138.34,69.11 140.05,71.72 141.57,73.7 142.88,75.23 145.66,78.13 148.5,80.86 150.54,82.83 152.06,84.37 153.2,85.6 154.05,86.58 155.58,88.52 156.92,90.41 157.87,91.8 158.59,92.86 159.17,93.64 159.63,94.22 160.01,94.65 160.79,95.41 161.6,96.02 162.43,96.47 163.1,96.7 163.66,96.82 164.1,96.87 164.99,96.83 165.86,96.62 166.54,96.33 167.06,96.03 167.48,95.74 168.27,95.06 169.03,94.23 169.5,93.66 171.37,90.99 173.51,87.98 175.59,85.49 176.31,84.72 176.31,90.05 174.64,92.34 172.15,95.89 171.22,96.99 170.17,98.01 169.59,98.48 168.82,99.01 167.77,99.58 166.61,100.01 165.39,100.27 164.77,100.32 163.99,100.33 163.02,100.22 161.84,99.93 160.45,99.35 159.17,98.54 158.05,97.58 157.53,97.06 156.93,96.38 156.24,95.51 155.44,94.4 154.5,93.01 151.95,89.47 151.21,88.59 150.21,87.46 148.83,86.01 146.91,84.14 144.67,81.99 142.33,79.69 141.16,78.48 139.73,76.88 138.01,74.79 136.06,72.0 133.97,68.31 131.88,63.53 129.73,57.7 128.87,55.54 127.94,53.54 127.45,52.6 126.79,51.5 125.89,50.21 124.92,49.07 124.42,48.55 123.76,47.95 122.91,47.29 121.8,46.58 120.36,45.89 118.92,45.41 118.22,45.24 117.36,45.09 116.35,44.98 115.15,44.94 109.58,44.94 108.06,45.03 106.71,45.23 105.29,45.61 104.56,45.87 103.66,46.28 102.54,46.91 101.2,47.9 99.63,49.44 98.73,50.58 97.89,51.84 96.83,53.77 95.87,55.9 95.42,57.03 94.87,58.49 94.18,60.37 93.29,62.8 92.06,65.87 90.22,69.65 88.87,71.94 88.87,64.52 88.9,64.44 91.17,58.53 91.72,57.03 92.88,54.09 94.23,51.27 95.15,49.7 96.16,48.23 98.0,46.13 99.65,44.71 101.05,43.77 102.2,43.14 103.13,42.72 103.87,42.44 105.34,42.0 106.75,41.7 108.72,41.5 110.09,41.48 111.04,41.5 114.44,41.48"/>
<polygon class="l0d0" points="176.31,20.75 170.65,20.75 159.3,20.62 147.97,20.31 136.64,19.8 125.29,19.11 107.16,17.62 92.65,16.1 88.87,15.62 88.87,-15.62 92.65,-16.1 107.16,-17.62 125.29,-19.11 136.64,-19.8 147.97,-20.31 159.3,-20.62 170.65,-20.75 176.31,-20.75"/>
<polygon class="l0d0" points="220.0,41.51 220.78,41.57 221.43,41.64 222.81,41.87 224.26,42.25 225.42,42.67 226.35,43.08 227.09,43.46 228.54,44.35 229.93,45.43 230.75,46.19 231.38,46.85 232.56,48.26 233.62,49.82 234.79,51.91 235.82,54.13 237.26,57.81 238.34,60.8 239.26,63.17 240.04,65.02 240.72,66.47 241.3,67.61 242.57,69.82 244.0,71.93 244.92,73.15 246.91,75.49 249.03,77.7 253.34,81.86 256.48,85.03 258.62,87.53 260.08,89.49 261.12,91.01 261.9,92.16 262.51,93.03 262.99,93.68 263.38,94.16 264.05,94.89 264.05,99.24 263.25,98.74 262.03,97.75 260.96,96.65 260.48,96.08 259.92,95.34 259.25,94.41 258.46,93.24 257.47,91.79 256.15,89.98 254.23,87.7 252.84,86.23 251.3,84.71 249.21,82.7 247.0,80.57 244.77,78.27 242.61,75.8 241.59,74.49 239.99,72.21 238.56,69.82 237.91,68.59 237.15,67.04 236.29,65.08 235.33,62.62 234.22,59.61 232.88,56.05 231.96,54.0 230.97,52.13 230.11,50.78 229.17,49.57 228.67,49.02 228.03,48.38 226.97,47.48 225.84,46.73 225.27,46.4 224.55,46.06 223.64,45.7 222.22,45.28 220.86,45.05 220.21,44.98 219.43,44.95 218.5,44.94 212.63,44.96 210.95,45.14 208.69,45.75 207.54,46.24 206.39,46.88 205.83,47.25 204.74,48.11 203.71,49.12 203.22,49.68 202.63,50.43 201.74,51.74 200.93,53.18 200.54,53.96 200.08,54.96 199.52,56.26 198.2,59.76 196.84,63.45 196.08,65.33 195.01,67.72 193.79,70.06 193.12,71.21 192.23,72.61 191.03,74.31 189.43,76.34 187.14,78.88 184.79,81.24 183.63,82.36 182.22,83.7 180.57,85.3 178.7,87.22 176.71,89.51 176.31,90.05 176.31,84.72 177.5,83.47 179.17,81.83 180.56,80.5 183.41,77.75 186.17,74.82 187.7,72.98 188.83,71.45 189.68,70.19 190.32,69.15 191.49,67.02 192.53,64.81 195.99,55.78 196.57,54.35 197.06,53.23 198.15,51.05 199.38,49.03 200.07,48.08 200.65,47.36 201.9,46.03 203.24,44.87 203.94,44.35 205.4,43.46 206.88,42.74 208.36,42.21 209.8,41.84 211.95,41.55 213.46,41.48 214.5,41.49 218.09,41.49 219.1,41.48"/>
<polygon class="l0d0" points="187.65,-20.61 198.99,-20.27 204.66,-20.03 211.74,-19.67 223.08,-18.95 234.42,-18.03 240.09,-17.51 247.17,-16.78 256.03,-15.78 264.05,-14.75 264.05,14.75 256.03,15.78 247.17,16.78 240.09,17.51 234.42,18.03 223.08,18.95 211.74,19.67 204.66,20.03 198.99,20.27 187.65,20.61 176.31,20.75 176.31,-20.75"/>
<polygon class="l0d0" points="324.4,41.55 325.47,41.67 326.38,41.82 327.13,41.99 328.66,42.46 330.23,43.12 331.2,43.63 331.96,44.1 333.43,45.18 334.81,46.46 335.45,47.16 336.66,48.69 337.74,50.35 339.56,53.99 340.77,57.07 341.69,59.59 342.43,61.59 343.04,63.16 343.56,64.42 344.7,66.85 345.99,69.2 346.87,70.69 343.89,72.46 343.01,70.96 341.61,68.41 340.39,65.8 339.85,64.48 339.2,62.83 338.45,60.8 337.55,58.32 336.39,55.41 335.62,53.72 334.78,52.16 333.87,50.74 332.89,49.48 332.37,48.91 331.27,47.89 330.12,47.03 329.52,46.66 328.77,46.26 327.56,45.74 326.35,45.37 325.76,45.23 325.05,45.1 324.19,45.01 321.72,44.95 319.42,44.97 316.36,44.97 315.52,45.04 314.42,45.21 312.97,45.58 311.75,46.04 310.55,46.66 309.95,47.03 309.23,47.55 308.35,48.29 307.3,49.34 306.1,50.88 304.76,53.12 303.77,55.19 302.85,57.43 302.41,58.61 301.86,60.12 301.16,62.05 300.22,64.5 298.88,67.56 296.87,71.29 295.33,73.61 293.64,75.83 292.75,76.88 291.61,78.16 290.15,79.69 288.32,81.51 286.09,83.63 283.56,86.11 282.16,87.58 280.9,89.01 279.76,90.46 275.65,96.27 274.03,97.95 273.1,98.7 272.06,99.33 271.51,99.6 270.35,100.02 269.13,100.27 268.51,100.33 267.73,100.33 266.5,100.16 265.3,99.82 264.73,99.59 264.05,99.24 264.05,94.89 264.18,95.03 265.02,95.75 265.54,96.1 265.95,96.34 266.82,96.68 267.7,96.85 268.14,96.88 269.03,96.79 269.9,96.53 270.75,96.09 271.57,95.51 272.81,94.26 273.76,93.04 274.52,91.95 275.14,91.02 276.49,89.07 278.04,87.05 280.86,83.92 283.46,81.36 285.67,79.26 287.44,77.51 288.84,76.06 289.92,74.86 290.76,73.89 292.33,71.86 293.75,69.74 295.63,66.33 296.9,63.47 299.13,57.52 300.27,54.57 301.58,51.73 303.13,49.1 304.58,47.21 305.86,45.86 306.97,44.92 307.89,44.24 308.65,43.76 310.2,42.95 311.76,42.33 313.61,41.84 315.01,41.61 316.06,41.52 316.84,41.49 318.22,41.49 319.4,41.51 320.25,41.52 320.94,41.51 321.53,41.5 322.03,41.48 323.14,41.48"/>
<polygon class="l0d0" points="267.36,-14.32 278.7,-12.68 284.37,-11.8 291.46,-10.62 300.31,-9.04 311.39,-6.92 352.9,-6.92 352.9,6.92 311.39,6.92 300.31,9.04 291.46,10.62 284.37,11.8 278.7,12.68 267.36,14.32 264.05,14.75 264.05,-14.75"/>
<polygon class="l2d0" points="61.02,-6.03 61.73,-5.92 62.61,-5.73 63.71,-5.4 65.06,-4.84 66.74,-3.92 68.37,-2.83 69.18,-2.23 70.17,-1.44 70.17,3.11 69.26,2.32 68.1,1.34 67.18,0.6 66.46,0.06 65.06,-0.9 63.7,-1.65 62.66,-2.09 61.86,-2.35 61.22,-2.5 59.95,-2.65 58.68,-2.62 57.86,-2.5 57.19,-2.37 55.82,-1.99 54.4,-1.47 50.65,0.14 47.48,1.38 44.85,2.12 42.72,2.44 41.01,2.53 39.64,2.5 38.57,2.41 34.43,1.73 1.76,1.73 1.89,5.62 2.03,8.74 2.46,14.95 3.09,21.06 3.49,24.07 3.85,26.45 4.16,28.32 4.86,32.0 5.67,35.57 6.24,37.74 6.72,39.44 7.77,42.72 8.95,45.84 9.58,47.33 10.1,48.49 11.22,50.71 12.41,52.8 13.03,53.8 14.34,55.68 15.74,57.41 17.2,58.99 18.75,60.4 21.39,62.33 23.66,63.58 25.6,64.37 27.22,64.89 28.58,65.21 29.7,65.42 30.63,65.55 32.54,65.71 34.56,65.74 36.55,65.7 37.57,67.43 38.8,69.64 39.89,71.91 41.39,75.58 42.45,78.47 43.27,80.7 43.94,82.41 44.5,83.71 44.97,84.7 45.37,85.46 46.2,86.88 47.1,88.18 48.02,89.28 49.01,90.25 50.69,91.51 52.09,92.27 53.23,92.73 54.13,93.0 54.82,93.17 56.18,93.37 57.44,93.44 63.03,93.45 64.53,93.4 65.82,93.25 66.91,93.01 67.81,92.75 68.53,92.47 69.11,92.22 70.17,91.64 70.17,95.53 69.85,95.68 68.92,96.02 67.78,96.37 66.39,96.66 64.78,96.85 63.32,96.91 62.06,96.9 61.5,96.89 60.83,96.88 60.02,96.88 58.94,96.9 57.36,96.9 56.15,96.84 54.83,96.68 54.13,96.56 53.24,96.35 52.09,96.0 50.64,95.41 48.85,94.43 46.71,92.83 45.48,91.63 44.36,90.28 43.28,88.74 42.31,87.09 41.87,86.23 41.35,85.13 40.74,83.73 40.04,81.93 39.19,79.65 38.15,76.8 36.73,73.33 34.59,69.19 32.34,69.16 30.13,68.98 29.06,68.82 27.75,68.57 26.17,68.19 24.26,67.57 21.99,66.62 19.32,65.12 16.25,62.83 14.48,61.16 12.83,59.34 11.28,57.35 9.83,55.22 9.15,54.11 7.86,51.77 6.67,49.31 6.12,48.04 5.45,46.41 4.22,43.03 3.13,39.5 2.64,37.68 2.07,35.37 1.25,31.58 0.54,27.69 0.23,25.72 -0.12,23.23 -0.51,20.08 -1.11,13.7 -1.5,7.27 -1.63,4.04 -1.73,0.03 -1.76,-1.73 34.77,-1.73 34.94,-1.7 38.78,-1.04 39.7,-0.96 40.83,-0.93 42.24,-0.98 44.0,-1.24 46.23,-1.85 49.13,-2.98 52.98,-4.62 56.26,-5.7 57.11,-5.89 58.19,-6.05 59.6,-6.12"/>
<polygon class="l2d0" points="112.86,38.07 113.48,38.13 114.71,38.38 115.86,38.81 117.48,39.75 118.6,40.68 119.41,41.5 120.8,43.24 122.04,45.03 122.8,46.14 123.07,46.54 123.07,52.18 122.03,50.95 120.59,49.03 119.94,48.09 119.17,46.96 117.32,44.37 116.85,43.82 116.24,43.21 115.45,42.56 114.43,41.96 113.57,41.66 112.68,41.53 112.24,41.53 111.68,41.58 111.0,41.75 110.15,42.11 109.14,42.78 107.95,43.93 106.79,45.4 105.62,47.1 105.01,48.0 104.2,49.17 103.08,50.67 101.49,52.58 99.23,54.98 96.52,57.61 93.68,60.35 92.27,61.78 90.56,63.63 88.59,66.07 86.43,69.31 85.26,71.44 84.22,73.65 81.98,79.42 79.73,85.17 79.07,86.54 78.14,88.22 77.1,89.8 76.54,90.54 75.8,91.42 74.81,92.44 73.49,93.57 72.07,94.55 70.59,95.35 70.17,95.53 70.17,91.64 70.26,91.6 71.38,90.83 72.43,89.93 73.22,89.11 73.83,88.39 74.3,87.78 75.18,86.44 75.99,84.97 76.58,83.74 77.03,82.7 78.73,78.23 81.05,72.26 82.18,69.87 83.45,67.54 85.82,63.99 87.96,61.36 89.77,59.38 91.24,57.89 92.41,56.75 94.69,54.58 96.78,52.54 98.9,50.29 100.35,48.54 104.27,42.99 105.37,41.63 106.99,40.07 108.54,39.05 109.93,38.46 111.1,38.17 112.08,38.07"/>
<polygon class="l2d0" points="72.89,0.89 75.85,3.38 76.57,3.91 77.44,4.51 78.5,5.13 79.74,5.68 81.19,6.0 82.1,6.0 83.0,5.83 83.47,5.67 84.08,5.41 84.87,4.98 85.91,4.24 87.26,3.04 89.02,1.18 91.29,-1.56 93.68,-4.55 96.13,-7.42 97.39,-8.72 99.03,-10.12 100.11,-10.85 101.23,-11.45 102.4,-11.87 103.62,-12.1 104.24,-12.14 105.23,-12.07 106.21,-11.87 106.69,-11.72 107.28,-11.47 108.0,-11.11 109.16,-10.36 110.27,-9.45 110.81,-8.93 111.48,-8.24 112.29,-7.31 113.29,-6.05 114.52,-4.35 116.04,-2.09 117.9,0.82 120.19,4.31 121.32,5.89 122.42,7.29 122.96,7.92 123.07,8.04 123.07,12.66 122.53,12.26 121.47,11.35 120.45,10.3 119.83,9.59 117.41,6.37 115.05,2.78 113.21,-0.1 111.75,-2.27 110.6,-3.86 109.7,-5.0 109.0,-5.82 108.44,-6.41 108.01,-6.82 107.17,-7.53 106.38,-8.06 105.93,-8.29 105.1,-8.58 104.33,-8.68 103.55,-8.59 102.7,-8.32 101.98,-7.94 101.19,-7.42 99.86,-6.3 98.76,-5.18 97.85,-4.16 95.99,-1.92 94.09,0.48 91.73,3.35 89.78,5.43 88.16,6.86 86.83,7.83 85.72,8.46 84.81,8.86 84.07,9.12 83.47,9.28 82.25,9.46 81.02,9.46 79.87,9.29 78.75,9.0 77.02,8.26 75.69,7.5 74.66,6.81 70.73,3.6 70.17,3.11 70.17,-1.44 71.39,-0.42"/>
<polygon class="l2d0" points="123.41,47.03 124.74,48.8 126.26,50.58 127.1,51.5 127.82,52.24 129.37,53.77 131.04,55.38 133.25,57.5 135.49,59.78 137.25,61.73 138.91,63.79 141.31,67.33 142.93,70.31 144.05,72.77 144.86,74.73 146.3,78.62 147.69,82.29 148.81,84.78 149.8,86.57 150.66,87.87 151.4,88.81 152.03,89.49 152.54,90.0 153.61,90.91 154.74,91.67 156.14,92.38 157.28,92.81 158.17,93.06 158.87,93.22 160.2,93.39 161.45,93.45 165.91,93.44 166.63,93.45 168.14,93.42 169.8,93.22 170.49,93.07 171.93,92.63 173.37,91.98 173.5,91.91 173.5,95.73 172.02,96.25 171.3,96.43 170.41,96.62 169.07,96.81 167.83,96.9 167.26,96.91 166.59,96.91 165.83,96.9 162.43,96.9 161.4,96.91 160.23,96.86 158.93,96.73 158.24,96.62 157.35,96.43 156.22,96.11 154.77,95.56 152.96,94.63 151.53,93.67 150.17,92.53 149.53,91.89 148.77,91.05 147.87,89.91 146.84,88.38 145.71,86.32 144.49,83.6 140.87,74.12 139.83,71.85 138.34,69.11 136.16,65.88 132.98,62.15 128.66,57.88 126.55,55.86 124.6,53.88 123.68,52.9 123.07,52.18 123.07,46.54"/>
<polygon class="l2d0" points="150.56,-15.17 151.42,-15.02 152.45,-14.68 153.68,-14.01 155.09,-12.88 156.74,-11.09 158.71,-8.33 161.09,-4.31 164.0,1.09 166.29,5.19 166.85,6.12 167.55,7.22 168.44,8.5 169.3,9.6 169.71,10.08 170.22,10.61 170.83,11.15 171.53,11.65 172.16,11.96 172.72,12.09 172.98,12.11 173.3,12.09 173.5,12.04 173.5,15.53 172.96,15.57 172.29,15.53 171.76,15.43 170.74,15.11 169.76,14.62 168.65,13.84 167.81,13.09 167.16,12.41 166.65,11.83 164.67,9.13 163.92,7.95 162.44,5.43 160.97,2.75 158.08,-2.6 156.95,-4.6 155.82,-6.43 154.94,-7.74 154.07,-8.89 152.75,-10.34 151.79,-11.11 151.11,-11.49 150.63,-11.66 150.27,-11.72 150.0,-11.73 149.42,-11.64 148.79,-11.39 148.1,-10.97 147.51,-10.5 147.02,-10.03 146.6,-9.6 145.76,-8.59 144.88,-7.42 144.19,-6.41 143.63,-5.54 141.35,-1.71 138.44,3.4 136.07,7.23 134.1,9.88 132.46,11.63 131.07,12.75 129.88,13.42 128.87,13.8 128.03,13.98 127.36,14.04 126.82,14.03 125.74,13.87 124.7,13.55 123.78,13.1 123.07,12.66 123.07,8.04 123.79,8.79 124.6,9.49 124.98,9.77 125.43,10.06 125.97,10.32 126.61,10.52 127.2,10.58 127.5,10.56 127.88,10.48 128.39,10.3 129.1,9.9 130.08,9.13 131.4,7.73 132.26,6.62 133.15,5.37 134.28,3.62 135.41,1.72 138.3,-3.36 139.78,-5.87 141.27,-8.26 142.02,-9.37 144.01,-11.89 144.53,-12.43 145.19,-13.06 146.05,-13.75 147.18,-14.46 148.21,-14.88 149.3,-15.13 149.86,-15.18"/>
<polygon class="l2d0" points="216.91,38.09 218.21,38.3 219.44,38.72 220.77,39.41 221.01,39.59 221.01,44.25 220.05,43.23 219.56,42.79 218.92,42.33 218.09,41.91 217.17,41.61 216.25,41.52 215.78,41.54 215.2,41.64 214.49,41.86 213.62,42.3 212.58,43.09 211.35,44.4 209.87,46.43 207.86,49.35 206.7,50.89 205.4,52.45 204.69,53.23 202.29,55.7 199.66,58.24 196.94,60.87 194.33,63.67 193.1,65.15 191.64,67.11 190.32,69.15 189.71,70.21 189.0,71.55 188.18,73.27 187.25,75.49 183.62,84.95 182.52,87.19 180.92,89.77 179.77,91.22 178.51,92.53 177.16,93.67 175.73,94.63 174.99,95.05 173.5,95.73 173.5,91.91 173.95,91.67 175.07,90.91 176.15,90.0 177.16,88.95 178.11,87.75 179.48,85.54 180.46,83.54 181.19,81.82 181.75,80.37 184.04,74.21 185.03,71.85 185.91,69.99 186.69,68.53 187.35,67.38 188.8,65.13 190.39,63.0 191.72,61.41 192.81,60.19 195.05,57.88 197.27,55.73 198.34,54.71 199.17,53.92 200.73,52.38 202.14,50.89 203.7,49.1 205.06,47.33 207.01,44.48 208.67,42.21 210.27,40.51 211.8,39.35 213.21,38.65 214.42,38.27 215.43,38.1 216.25,38.06"/>
<polygon class="l2d0" points="196.48,-15.16 197.13,-15.06 197.94,-14.83 198.89,-14.41 200.02,-13.69 201.11,-12.77 202.14,-11.7 202.64,-11.11 203.27,-10.32 204.03,-9.27 204.97,-7.87 206.14,-5.99 210.68,1.91 211.8,3.76 213.16,5.85 214.08,7.1 214.98,8.18 215.42,8.65 215.94,9.16 216.58,9.69 217.31,10.16 218.13,10.49 219.04,10.57 219.62,10.46 220.27,10.21 220.98,9.79 221.01,9.76 221.01,13.63 220.25,13.87 219.23,14.03 218.19,14.01 217.17,13.81 215.62,13.17 214.45,12.41 213.57,11.67 212.88,11.01 212.34,10.43 210.28,7.75 208.81,5.51 203.13,-4.28 202.03,-6.04 201.16,-7.33 200.48,-8.27 199.94,-8.95 199.52,-9.44 198.7,-10.29 197.93,-10.93 197.25,-11.36 196.75,-11.58 196.4,-11.68 195.73,-11.72 195.03,-11.56 194.54,-11.33 194.1,-11.06 193.74,-10.78 192.96,-10.08 192.13,-9.16 191.6,-8.49 191.16,-7.91 190.28,-6.62 189.38,-5.18 187.11,-1.16 185.25,2.3 183.76,5.05 182.55,7.15 181.57,8.75 180.77,9.94 180.13,10.83 179.6,11.5 178.53,12.73 177.41,13.78 176.02,14.74 174.81,15.27 173.79,15.51 173.5,15.53 173.5,12.04 173.73,11.98 174.34,11.72 175.21,11.11 175.87,10.5 176.56,9.76 176.92,9.33 177.37,8.75 177.93,7.95 178.66,6.86 179.58,5.37 180.75,3.34 182.22,0.64 184.08,-2.83 186.44,-7.0 187.65,-8.91 188.87,-10.63 189.5,-11.41 190.53,-12.54 191.61,-13.51 192.17,-13.92 192.9,-14.37 193.85,-14.81 194.89,-15.09 195.94,-15.19"/>
<polygon class="l2d0" points="221.72,40.09 222.43,40.71 223.67,42.04 224.75,43.45 227.84,47.9 229.26,49.67 230.88,51.48 232.36,52.98 233.98,54.55 236.76,57.22 239.05,59.53 240.86,61.52 242.24,63.19 243.3,64.58 244.09,65.74 245.56,68.11 246.86,70.57 247.55,72.07 248.78,75.08 249.88,78.05 250.94,80.9 252.04,83.58 252.99,85.53 254.05,87.28 254.97,88.53 255.96,89.64 257.68,91.1 259.13,92.0 260.32,92.54 261.27,92.88 262.01,93.08 263.45,93.33 264.8,93.44 267.69,93.42 269.95,93.44 271.87,93.42 273.56,93.22 275.0,92.88 276.19,92.45 277.13,92.0 277.52,91.78 277.52,95.64 276.01,96.19 274.17,96.63 272.07,96.88 270.91,96.91 269.89,96.9 267.73,96.88 266.64,96.9 265.38,96.91 264.67,96.9 263.37,96.81 261.95,96.6 261.21,96.44 260.26,96.18 259.05,95.76 257.52,95.06 255.66,93.92 253.5,92.07 252.28,90.72 251.18,89.21 249.95,87.17 248.88,84.99 244.38,73.47 243.75,72.08 242.56,69.83 241.21,67.65 240.49,66.61 239.52,65.33 238.24,63.78 236.55,61.92 234.34,59.7 231.58,57.05 228.38,53.86 226.94,52.3 225.66,50.74 225.07,49.97 223.73,48.08 222.52,46.29 221.94,45.46 221.01,44.25 221.01,39.59"/>
<polygon class="l2d0" points="242.03,-12.12 242.65,-12.07 243.41,-11.92 244.34,-11.62 245.45,-11.1 246.78,-10.25 248.35,-8.95 250.23,-7.02 252.06,-4.86 255.6,-0.44 257.32,1.58 258.46,2.8 259.59,3.84 260.13,4.28 260.8,4.77 261.61,5.26 262.56,5.69 263.69,5.98 265.07,5.96 265.97,5.76 266.93,5.4 267.93,4.89 268.98,4.22 269.52,3.84 271.24,2.48 273.03,0.95 275.33,-1.03 277.52,-2.75 277.52,1.67 275.18,3.66 271.44,6.73 269.86,7.77 268.21,8.62 266.84,9.11 265.42,9.41 264.26,9.48 263.09,9.38 261.25,8.9 259.83,8.23 258.74,7.56 257.89,6.93 257.23,6.37 254.64,3.78 252.82,1.63 251.39,-0.15 250.26,-1.58 249.36,-2.69 248.66,-3.55 248.09,-4.21 246.99,-5.43 245.91,-6.48 244.66,-7.51 243.72,-8.1 243.03,-8.41 242.51,-8.57 242.11,-8.65 241.34,-8.66 240.55,-8.48 239.7,-8.12 238.98,-7.65 238.36,-7.17 237.85,-6.71 237.44,-6.3 235.71,-4.29 234.84,-3.13 234.13,-2.13 231.27,2.25 229.44,5.08 227.58,7.76 226.98,8.57 225.75,10.07 224.47,11.39 223.95,11.86 222.87,12.69 221.72,13.35 221.24,13.56 221.01,13.63 221.01,9.76 221.76,9.18 222.16,8.82 222.99,7.95 223.86,6.93 224.3,6.37 224.86,5.63 226.63,3.07 228.43,0.28 232.11,-5.26 233.05,-6.51 234.29,-7.99 235.56,-9.3 236.21,-9.87 237.05,-10.52 238.13,-11.2 239.57,-11.8 240.54,-12.04 241.54,-12.13"/>
<polygon class="l2d0" points="321.71,38.24 322.69,38.51 323.45,38.81 324.02,39.1 325.1,39.77 326.08,40.57 326.93,41.42 327.55,42.14 329.7,45.12 332.37,48.84 333.63,50.34 335.05,51.88 337.67,54.46 339.99,56.67 341.92,58.57 343.45,60.17 344.66,61.52 345.59,62.63 347.36,64.96 348.95,67.42 349.2,68.28 348.98,69.15 348.36,69.79 347.5,70.04 346.63,69.83 345.99,69.2 344.53,66.95 342.9,64.81 342.04,63.78 340.91,62.52 339.45,61.0 337.59,59.16 335.28,56.96 332.57,54.28 331.04,52.63 329.66,51.0 328.15,48.98 326.83,47.05 325.85,45.62 324.87,44.33 324.38,43.77 323.74,43.13 322.9,42.46 322.01,41.96 321.56,41.78 320.99,41.62 320.26,41.53 319.36,41.57 318.44,41.8 317.54,42.22 317.11,42.5 316.58,42.91 315.93,43.51 315.16,44.38 314.21,45.64 312.97,47.46 311.61,49.41 310.87,50.42 309.84,51.69 308.44,53.3 306.48,55.32 303.75,57.95 300.9,60.71 299.5,62.15 297.82,64.03 295.88,66.48 293.76,69.75 292.33,72.52 291.08,75.4 290.51,76.88 287.7,84.3 285.99,87.78 284.98,89.39 283.86,90.88 283.26,91.57 281.91,92.89 280.45,94.03 279.7,94.52 278.74,95.07 277.52,95.64 277.52,91.78 277.89,91.58 278.48,91.19 279.62,90.29 280.7,89.23 281.2,88.67 282.13,87.43 282.99,86.06 284.52,82.93 285.62,80.14 286.49,77.78 287.2,75.84 287.81,74.26 288.32,73.0 289.46,70.49 290.76,68.03 293.08,64.45 295.19,61.78 296.99,59.78 298.45,58.27 299.63,57.11 301.92,54.91 304.04,52.86 305.89,50.95 307.19,49.48 308.12,48.31 311.38,43.65 312.47,42.2 313.46,41.09 314.35,40.27 315.13,39.66 315.8,39.23 316.37,38.93 317.57,38.45 318.85,38.15 320.44,38.07"/>
<polygon class="l2d0" points="287.41,-6.08 288.24,-5.99 289.26,-5.81 290.52,-5.49 292.05,-4.99 294.99,-3.79 297.78,-2.58 299.13,-2.06 300.78,-1.54 302.42,-1.16 304.06,-0.96 304.87,-0.93 305.91,-0.94 307.21,-1.04 308.88,-1.29 311.05,-1.7 311.21,-1.73 345.98,-1.73 346.85,-1.5 347.49,-0.86 347.71,0.0 347.49,0.86 346.85,1.5 345.98,1.73 311.56,1.73 309.29,2.15 307.41,2.41 305.88,2.52 304.65,2.53 303.65,2.48 301.66,2.22 299.68,1.75 297.8,1.13 294.16,-0.37 290.73,-1.79 289.43,-2.21 288.43,-2.45 287.64,-2.58 287.02,-2.64 285.81,-2.64 284.6,-2.47 283.64,-2.21 282.87,-1.92 282.23,-1.63 280.93,-0.9 279.59,0.01 278.73,0.65 277.52,1.67 277.52,-2.75 277.69,-2.89 279.26,-3.93 280.86,-4.8 281.68,-5.17 282.72,-5.54 284.03,-5.88 285.38,-6.08 286.74,-6.12"/>
<polygon class="l1d0" points="109.59,-14.36 107.48,-14.19 93.04,-12.66 81.49,-11.22 72.25,-9.93 64.86,-8.81 58.94,-7.85 47.11,-5.79 35.28,-3.53 34.94,-3.46 -3.46,-3.46 -3.46,-0.06 -3.43,3.9 -3.36,7.09 -3.09,13.45 -2.62,19.78 -2.3,22.92 -2.01,25.41 -1.29,30.32 -0.39,35.1 0.12,37.44 0.57,39.28 1.56,42.9 2.7,46.38 3.32,48.08 3.85,49.41 4.98,51.99 6.22,54.48 6.88,55.68 8.29,57.99 9.83,60.19 11.49,62.25 13.29,64.16 14.82,65.58 16.46,66.89 19.25,68.73 21.66,69.97 23.69,70.81 25.37,71.37 26.77,71.74 27.91,72.0 30.25,72.39 32.62,72.63 35.12,76.77 37.13,80.03 38.75,82.54 40.06,84.5 41.11,86.02 41.95,87.19 43.66,89.44 45.39,91.54 47.55,93.86 49.32,95.51 50.77,96.69 51.97,97.53 52.94,98.14 53.74,98.58 55.37,99.33 57.05,99.88 59.17,100.27 60.89,100.33 62.26,100.22 63.34,100.04 64.2,99.83 65.88,99.26 67.51,98.5 69.04,97.59 70.24,96.75 71.18,96.02 73.01,94.39 74.79,92.56 75.88,91.33 76.75,90.29 78.46,88.11 80.16,85.78 82.25,82.68 84.32,79.44 87.62,74.07 90.22,69.71 92.29,66.26 93.94,63.56 95.26,61.47 96.29,59.86 97.13,58.6 98.78,56.19 100.41,53.97 102.29,51.66 103.75,50.03 104.9,48.88 105.79,48.07 106.49,47.5 107.03,47.08 108.1,46.37 109.11,45.82 109.59,45.62 109.59,49.52 109.17,49.8 108.62,50.22 107.88,50.83 106.91,51.75 105.61,53.12 103.89,55.14 102.36,57.15 100.79,59.37 99.98,60.55 98.97,62.08 97.7,64.08 96.08,66.69 94.04,70.07 91.44,74.4 88.15,79.85 83.93,86.4 81.76,89.48 79.52,92.37 78.37,93.74 76.49,95.81 74.52,97.71 73.5,98.59 72.18,99.62 70.45,100.8 67.4,102.38 66.6,102.7 65.57,103.03 64.25,103.39 62.56,103.67 60.41,103.8 57.74,103.56 56.02,103.18 54.37,102.65 53.57,102.32 52.59,101.88 51.41,101.25 49.99,100.37 48.29,99.15 46.29,97.44 43.91,95.07 42.04,92.95 40.24,90.68 39.36,89.5 38.27,87.98 36.92,86.03 35.25,83.51 33.2,80.26 30.68,76.12 28.09,75.78 25.55,75.33 24.31,75.04 22.79,74.61 20.93,73.96 18.68,73.02 16.01,71.61 12.88,69.54 11.05,68.08 9.33,66.51 7.31,64.39 5.45,62.14 3.73,59.76 2.15,57.26 1.41,55.97 0.02,53.32 -1.25,50.58 -1.85,49.19 -2.55,47.41 -3.84,43.76 -4.99,40.02 -5.51,38.11 -6.12,35.71 -7.18,30.79 -8.07,25.79 -8.45,23.26 -8.88,20.08 -9.56,13.67 -10.04,7.24 -10.21,4.04 -10.38,0.06 -10.73,-10.38 34.26,-10.38 46.18,-12.66 58.09,-14.73 64.05,-15.69 71.49,-16.81 80.8,-18.11 92.44,-19.56 106.99,-21.08 109.59,-21.3"/>
<polygon class="l1d0" points="113.41,45.05 114.51,45.3 115.43,45.65 116.2,46.03 116.84,46.4 117.36,46.74 118.45,47.53 119.58,48.49 120.49,49.35 121.22,50.11 121.81,50.76 124.25,53.69 125.02,54.71 126.59,56.88 128.17,59.21 131.36,64.24 137.86,75.04 139.18,77.2 141.82,81.42 144.49,85.43 146.14,87.73 147.48,89.47 148.55,90.8 149.42,91.81 151.19,93.71 153.0,95.42 154.45,96.61 155.64,97.46 156.61,98.07 157.41,98.52 159.04,99.27 160.72,99.84 162.07,100.14 163.16,100.28 164.04,100.33 164.74,100.33 166.14,100.21 167.53,99.95 168.59,99.66 169.43,99.36 171.07,98.63 172.65,97.71 173.42,97.2 174.93,96.06 176.4,94.78 179.24,91.83 181.45,89.15 183.2,86.83 184.58,84.87 185.68,83.24 190.01,76.37 196.37,65.79 197.38,64.14 199.38,60.96 201.36,57.94 202.15,56.8 203.72,54.63 205.26,52.64 205.87,51.9 207.08,50.53 208.25,49.3 209.41,48.22 210.53,47.3 212.23,46.17 213.49,45.55 214.43,45.23 215.15,45.07 215.71,45.0 216.83,45.01 217.96,45.21 218.68,45.43 219.27,45.67 219.76,45.91 220.78,46.49 221.85,47.23 222.14,47.46 222.14,52.11 221.12,51.12 220.63,50.69 220.05,50.21 219.18,49.57 218.41,49.11 218.07,48.93 217.68,48.76 217.24,48.6 216.51,48.45 215.87,48.46 215.51,48.53 214.99,48.68 214.19,49.04 212.93,49.83 212.03,50.53 211.05,51.41 210.01,52.45 208.92,53.66 208.36,54.32 206.92,56.13 205.44,58.14 204.68,59.22 202.77,62.09 200.81,65.17 199.83,66.77 193.5,77.29 190.78,81.71 188.01,85.98 186.59,88.04 184.79,90.5 182.48,93.38 179.44,96.65 177.84,98.13 176.17,99.48 175.3,100.11 173.49,101.24 171.57,102.21 170.58,102.63 169.29,103.06 167.59,103.48 165.85,103.73 164.97,103.78 163.87,103.79 162.49,103.69 160.8,103.42 159.11,102.97 157.49,102.38 156.7,102.02 155.74,101.55 154.58,100.88 153.19,99.96 151.52,98.7 149.49,96.9 147.56,94.92 146.63,93.87 145.48,92.51 144.07,90.73 142.35,88.4 139.54,84.26 136.78,79.92 135.43,77.69 133.74,74.91 131.66,71.42 129.1,67.16 125.96,62.15 124.42,59.83 122.91,57.67 122.17,56.66 121.0,55.15 119.87,53.78 119.32,53.15 118.64,52.42 117.82,51.59 116.83,50.69 115.91,49.95 115.49,49.64 114.98,49.32 114.42,49.0 113.8,48.72 113.01,48.49 112.39,48.44 112.08,48.46 111.65,48.54 111.0,48.76 110.35,49.07 109.59,49.52 109.59,45.62 110.27,45.34 111.14,45.11 111.82,45.01 112.35,44.98"/>
<polygon class="l1d0" points="187.69,-24.07 199.05,-23.73 204.74,-23.49 211.84,-23.13 222.14,-22.48 222.14,-15.53 211.55,-16.22 204.5,-16.58 198.86,-16.81 187.58,-17.15 176.3,-17.29 170.65,-17.29 159.37,-17.17 148.1,-16.85 136.82,-16.35 125.54,-15.67 109.59,-14.36 109.59,-21.3 125.18,-22.57 136.54,-23.26 147.91,-23.77 159.27,-24.08 170.64,-24.21 176.32,-24.21"/>
<polygon class="l1d0" points="320.82,45.03 321.27,45.1 322.21,45.34 323.2,45.73 323.86,46.06 324.39,46.37 325.5,47.12 326.66,48.05 327.27,48.58 328.48,49.77 329.74,51.13 331.01,52.64 332.3,54.29 334.4,57.2 336.1,59.72 337.47,61.86 340.23,66.33 343.02,70.97 340.04,72.74 335.64,65.46 334.56,63.74 333.22,61.65 331.58,59.2 329.58,56.42 328.36,54.86 327.18,53.45 326.04,52.22 324.97,51.17 324.46,50.71 323.49,49.94 322.62,49.35 322.24,49.12 321.79,48.89 321.02,48.6 320.43,48.47 320.17,48.44 319.85,48.44 319.3,48.53 318.6,48.75 318.19,48.94 317.61,49.25 316.78,49.79 315.84,50.52 314.82,51.44 314.28,51.97 313.58,52.69 312.69,53.7 311.52,55.09 310.03,57.05 308.46,59.25 306.85,61.65 306.04,62.91 305.01,64.53 303.72,66.62 302.09,69.31 300.02,72.75 293.24,83.8 291.49,86.44 289.26,89.59 286.39,93.24 284.43,95.44 282.38,97.46 281.31,98.4 279.94,99.5 278.13,100.74 275.72,102.05 274.13,102.72 272.47,103.23 270.75,103.59 269.0,103.77 268.12,103.8 266.36,103.7 264.62,103.43 263.77,103.22 262.73,102.92 261.03,102.27 259.41,101.48 258.63,101.03 257.68,100.44 256.53,99.64 255.15,98.56 253.49,97.08 251.5,95.08 249.13,92.33 246.29,88.59 242.85,83.52 238.68,76.81 233.37,67.96 232.07,65.83 230.47,63.26 228.49,60.24 226.08,56.82 224.91,55.3 223.78,53.9 223.22,53.27 222.14,52.11 222.14,47.46 222.54,47.77 223.1,48.26 224.26,49.34 225.44,50.58 226.96,52.32 228.49,54.27 231.0,57.77 233.03,60.84 234.67,63.45 237.97,68.89 241.31,74.46 245.43,81.13 248.78,86.12 251.5,89.76 253.72,92.38 255.54,94.26 257.03,95.62 258.26,96.61 259.25,97.33 260.06,97.86 261.73,98.78 263.46,99.51 264.3,99.78 264.99,99.96 266.37,100.22 267.78,100.33 268.48,100.33 269.88,100.22 271.27,99.97 273.96,99.06 276.01,97.98 277.59,96.93 278.82,95.98 279.79,95.15 281.67,93.32 283.52,91.28 286.27,87.82 288.43,84.79 290.14,82.23 291.5,80.11 296.88,71.27 298.96,67.79 300.61,65.07 301.93,62.93 302.97,61.27 303.81,59.97 305.47,57.49 307.12,55.17 308.7,53.09 309.95,51.57 310.94,50.46 311.71,49.64 312.33,49.03 313.52,47.95 314.69,47.04 315.77,46.32 316.6,45.86 317.23,45.57 317.72,45.39 318.67,45.12 319.57,44.99 320.26,44.98"/>
<polygon class="l1d0" points="223.21,-22.41 234.57,-21.49 240.26,-20.97 247.36,-20.24 256.24,-19.24 267.6,-17.78 278.97,-16.14 284.65,-15.26 291.75,-14.07 300.63,-12.5 311.72,-10.38 345.98,-10.38 345.98,-3.46 311.05,-3.46 310.71,-3.53 299.69,-5.64 290.88,-7.21 283.82,-8.38 278.18,-9.27 266.9,-10.9 255.61,-12.34 246.8,-13.34 239.75,-14.06 234.11,-14.59 222.83,-15.49 222.14,-15.53 222.14,-22.48"/>
<polygon class="l1d0" points="35.28,3.53 47.11,5.79 58.94,7.85 64.86,8.81 72.25,9.93 81.49,11.22 93.04,12.66 103.59,13.77 103.59,20.72 92.44,19.56 80.8,18.11 71.49,16.81 64.05,15.69 58.09,14.73 46.18,12.66 34.26,10.38 10.23,10.39 10.3,13.77 10.39,16.46 10.49,18.59 10.77,22.8 11.18,26.9 11.49,29.4 11.78,31.36 12.03,32.9 12.59,35.89 13.23,38.76 13.67,40.49 14.05,41.84 14.87,44.42 15.77,46.83 16.25,47.98 17.27,50.14 18.36,52.12 19.53,53.91 20.77,55.52 22.89,57.72 24.74,59.17 26.36,60.15 27.76,60.8 28.96,61.25 29.98,61.56 30.83,61.77 31.54,61.92 33.03,62.15 34.64,62.28 38.65,62.48 40.54,65.65 43.01,69.78 44.96,72.97 46.51,75.42 47.73,77.3 48.69,78.73 49.45,79.83 50.95,81.9 52.41,83.76 54.11,85.72 55.39,87.02 56.35,87.87 57.07,88.44 57.61,88.82 58.0,89.08 58.73,89.47 59.34,89.73 59.95,89.89 60.35,89.95 60.66,89.96 60.91,89.94 61.47,89.82 62.17,89.56 62.84,89.22 63.45,88.84 63.99,88.47 64.44,88.12 65.4,87.3 66.42,86.3 67.27,85.41 67.96,84.63 68.53,83.96 69.68,82.5 70.87,80.92 71.63,79.86 73.15,77.62 74.72,75.22 77.89,70.09 80.48,65.76 82.59,62.26 84.29,59.45 85.66,57.23 86.77,55.48 89.01,52.06 91.31,48.82 93.51,45.98 95.32,43.86 96.82,42.27 98.05,41.07 99.07,40.16 99.91,39.47 101.64,38.18 103.47,37.05 103.59,37.0 103.59,41.05 102.07,42.17 101.32,42.78 100.4,43.6 99.28,44.7 97.89,46.17 96.18,48.17 94.09,50.87 91.87,54.02 89.68,57.34 88.59,59.07 87.24,61.25 85.55,64.03 83.46,67.54 80.86,71.88 77.63,77.09 74.46,81.85 73.67,82.95 72.12,85.02 70.58,86.88 69.83,87.74 68.89,88.72 67.73,89.85 66.6,90.83 66.04,91.25 65.37,91.72 64.55,92.23 63.58,92.72 62.42,93.15 61.32,93.37 60.78,93.41 60.12,93.4 59.27,93.29 58.17,92.99 57.22,92.59 56.2,92.03 55.68,91.69 55.0,91.22 54.13,90.53 53.02,89.53 51.58,88.08 49.73,85.95 48.19,83.98 46.62,81.83 45.83,80.68 44.84,79.21 43.59,77.29 42.02,74.79 40.05,71.56 37.57,67.43 36.56,65.74 34.56,65.74 32.58,65.67 30.7,65.47 29.8,65.32 28.7,65.09 27.38,64.75 25.81,64.21 23.95,63.4 21.77,62.16 19.25,60.26 17.79,58.87 16.41,57.35 15.09,55.68 13.86,53.86 13.27,52.91 12.15,50.89 11.11,48.75 10.61,47.64 10.02,46.2 8.93,43.2 7.94,40.04 7.49,38.41 6.97,36.32 6.21,32.88 5.56,29.32 5.27,27.51 4.95,25.22 4.59,22.3 4.03,16.37 3.68,10.33 3.56,7.29 3.48,3.49 34.6,3.46 34.94,3.46"/>
<polygon class="l1d0" points="218.12,34.7 219.94,35.01 221.6,35.46 222.83,35.91 222.83,39.73 222.4,39.5 221.58,39.13 220.53,38.75 219.19,38.38 217.73,38.14 216.25,38.06 215.51,38.08 214.59,38.16 213.45,38.35 212.05,38.72 210.34,39.38 208.28,40.47 205.83,42.2 202.91,44.87 201.13,46.79 199.4,48.89 197.27,51.72 195.16,54.77 192.55,58.8 189.97,63.0 183.61,73.6 181.5,76.98 179.41,80.17 178.37,81.68 177.09,83.47 175.5,85.53 173.55,87.82 172.36,89.06 171.21,90.14 170.09,91.06 169.01,91.83 168.48,92.15 167.48,92.68 166.54,93.05 166.08,93.18 165.53,93.31 164.45,93.42 163.39,93.35 162.84,93.24 162.14,93.04 161.19,92.67 160.18,92.14 159.66,91.82 158.99,91.36 158.13,90.7 157.02,89.73 155.85,88.58 154.65,87.28 154.05,86.58 153.28,85.65 152.32,84.42 151.1,82.78 149.56,80.59 147.47,77.42 145.36,74.06 144.3,72.32 142.97,70.12 141.31,67.33 139.21,63.83 136.57,59.51 133.24,54.34 129.85,49.61 128.99,48.52 127.25,46.45 125.47,44.56 124.57,43.68 123.43,42.67 121.92,41.48 120.37,40.45 119.58,39.99 118.57,39.48 117.27,38.94 115.61,38.44 114.22,38.18 112.82,38.07 112.11,38.07 111.23,38.11 110.14,38.26 108.79,38.56 107.14,39.12 105.15,40.07 103.59,41.05 103.59,37.0 105.85,35.91 107.87,35.23 109.55,34.85 110.92,34.67 112.03,34.61 112.92,34.61 114.69,34.75 116.42,35.07 118.47,35.69 120.04,36.34 121.24,36.95 122.17,37.49 123.96,38.69 125.65,40.02 126.93,41.16 127.92,42.11 129.83,44.15 131.69,46.35 133.92,49.29 136.11,52.41 139.51,57.68 142.18,62.04 144.28,65.56 145.94,68.35 147.26,70.53 148.31,72.25 150.39,75.55 152.42,78.64 153.9,80.75 155.06,82.32 155.97,83.48 156.69,84.34 157.25,84.99 158.34,86.17 159.37,87.19 160.32,88.01 161.02,88.56 161.55,88.91 161.93,89.15 162.63,89.53 163.23,89.76 163.62,89.87 164.27,89.96 164.9,89.9 165.19,89.84 165.45,89.76 166.04,89.53 166.74,89.16 167.12,88.92 167.98,88.32 168.92,87.55 169.93,86.6 171.0,85.49 172.8,83.37 174.3,81.41 175.54,79.69 176.54,78.23 177.35,77.02 180.65,71.79 183.8,66.57 187.01,61.21 189.62,56.96 192.28,52.85 194.46,49.7 196.69,46.74 198.53,44.52 200.43,42.45 203.66,39.5 206.48,37.51 208.92,36.22 211.0,35.42 212.74,34.97 214.16,34.73 215.33,34.63 216.25,34.6"/>
<polygon class="l1d0" points="107.48,14.19 125.54,15.67 136.82,16.35 148.1,16.85 159.37,17.17 170.65,17.29 176.3,17.29 187.58,17.15 198.86,16.81 204.5,16.58 211.55,16.22 222.83,15.49 222.83,22.43 211.84,23.13 204.74,23.49 199.05,23.73 187.69,24.07 176.32,24.21 170.64,24.21 159.27,24.08 147.91,23.77 136.54,23.26 125.18,22.57 106.99,21.08 103.59,20.72 103.59,13.77"/>
<polygon class="l1d0" points="321.95,34.71 323.09,34.88 324.0,35.07 325.76,35.59 327.45,36.27 328.73,36.9 329.7,37.46 331.58,38.71 333.36,40.11 334.21,40.87 337.47,44.21 340.55,47.98 342.91,51.25 344.76,54.01 348.39,59.76 351.93,65.65 348.95,67.43 343.3,58.13 341.87,55.9 340.07,53.22 337.78,50.07 334.89,46.5 331.88,43.43 331.11,42.75 329.54,41.5 327.92,40.42 327.08,39.94 326.02,39.41 324.63,38.85 323.2,38.43 322.47,38.28 321.56,38.15 320.4,38.07 318.96,38.1 317.49,38.3 316.04,38.66 315.34,38.89 314.47,39.23 313.39,39.73 312.08,40.46 310.5,41.53 308.93,42.77 307.4,44.18 306.65,44.92 305.71,45.91 304.56,47.22 303.14,48.95 301.39,51.27 299.18,54.43 296.99,57.78 295.91,59.51 294.55,61.71 292.87,64.5 290.77,68.0 288.11,72.44 285.47,76.7 284.16,78.73 282.54,81.15 280.53,83.94 278.07,87.01 276.81,88.39 275.58,89.62 274.97,90.16 274.23,90.79 273.33,91.46 272.26,92.16 270.98,92.8 269.51,93.27 267.81,93.41 266.73,93.26 265.58,92.92 264.57,92.46 263.49,91.84 262.93,91.46 262.21,90.92 261.29,90.16 260.1,89.04 258.58,87.43 256.63,85.08 254.13,81.71 250.95,76.93 246.92,70.36 240.2,59.23 238.49,56.55 236.35,53.34 233.63,49.59 231.91,47.45 230.15,45.47 228.35,43.67 226.5,42.08 225.56,41.37 224.0,40.35 222.83,39.73 222.83,35.91 222.88,35.93 223.87,36.36 225.78,37.37 227.57,38.56 228.65,39.37 230.71,41.14 232.67,43.1 234.55,45.22 236.37,47.48 239.19,51.37 241.4,54.67 249.88,68.58 251.89,71.9 253.87,75.06 255.43,77.47 256.96,79.72 259.35,82.95 261.17,85.13 262.54,86.59 263.58,87.56 264.35,88.21 264.93,88.63 265.36,88.93 266.15,89.39 266.82,89.69 267.46,89.88 267.99,89.95 268.8,89.89 269.65,89.61 270.52,89.17 271.34,88.64 272.07,88.09 272.69,87.57 273.21,87.09 274.3,86.0 275.45,84.74 276.59,83.38 277.76,81.86 279.69,79.18 281.26,76.83 282.55,74.84 283.58,73.19 287.8,66.23 289.9,62.72 291.6,59.91 292.97,57.68 294.07,55.92 296.31,52.5 298.6,49.23 300.43,46.81 301.93,44.98 303.16,43.58 304.17,42.51 304.99,41.69 306.68,40.14 308.46,38.73 310.29,37.5 311.83,36.65 313.12,36.04 314.17,35.63 315.05,35.35 316.84,34.9 318.68,34.65 320.5,34.61"/>
<polygon class="l1d0" points="345.98,10.38 311.72,10.38 300.63,12.5 291.75,14.07 284.65,15.26 278.97,16.14 267.6,17.78 256.24,19.24 247.36,20.24 240.26,20.97 234.57,21.49 223.21,22.41 222.83,22.43 222.83,15.49 234.11,14.59 239.75,14.06 246.8,13.34 255.61,12.34 266.9,10.9 278.18,9.27 283.82,8.38 290.88,7.21 299.69,5.64 310.71,3.53 311.05,3.46 345.98,3.46"/>
</g>
</svg>