<?xml version="1.0" encoding="UTF-8"?>
<svg xmlns="http://www.w3.org/2000/svg" xmlns:xlink="http://www.w3.org/1999/xlink"
     width="400.0" height="217.88" viewBox="-200.0 -108.94 400.0 217.88">
<defs>
<style type="text/css">
.l0d0 {stroke: rgb(255, 0, 0); fill: rgb(255, 0, 0); fill-opacity: 0.5;}
</style>
</defs>
<rect x="-200.0" y="-108.94" width="400.0" height="217.88" fill="none" stroke="none"/>
<g id="SLICES" transform="scale(1 -1)">
<polygon class="l0d0" points="-75.12,-89.53 -64.83,-87.09 -54.91,-83.47 -45.45,-78.73 -45.45,-39.98 -49.32,-44.08 -54.71,-48.61 -60.61,-52.48 -66.91,-55.65 -73.53,-58.06 -80.38,-59.68 -87.38,-60.5 -94.44,-60.5 -101.44,-59.68 -108.29,-58.06 -114.91,-55.65 -121.21,-52.48 -127.11,-48.61 -132.5,-44.08 -137.33,-38.95 -141.55,-33.3 -145.08,-27.2 -147.86,-20.73 -149.88,-13.97 -151.11,-7.03 -151.52,0.0 -151.11,7.03 -149.88,13.97 -147.86,20.73 -145.08,27.2 -141.55,33.3 -137.33,38.95 -132.5,44.08 -127.11,48.61 -121.21,52.48 -114.91,55.65 -108.29,58.06 -101.44,59.68 -94.44,60.5 -87.38,60.5 -80.38,59.68 -73.53,58.06 -66.91,55.65 -60.61,52.48 -54.71,48.61 -49.32,44.08 -45.45,39.98 -45.45,78.73 -54.91,83.47 -64.83,87.09 -75.12,89.53 -85.62,90.76 -96.2,90.76 -106.7,89.53 -116.98,87.09 -126.91,83.47 -136.36,78.73 -145.2,72.92 -153.29,66.12 -160.55,58.44 -166.86,49.95 -172.15,40.8 -176.33,31.09 -179.36,20.97 -181.2,10.56 -181.82,0.0 -181.2,-10.56 -179.36,-20.97 -176.33,-31.09 -172.15,-40.8 -166.86,-49.95 -160.55,-58.44 -153.29,-66.12 -145.2,-72.92 -136.36,-78.73 -126.91,-83.47 -116.98,-87.09 -106.7,-89.53 -96.2,-90.76 -85.62,-90.76"/>
<polygon class="l0d0" points="45.45,78.73 36.0,83.47 26.08,87.09 15.79,89.53 5.29,90.76 -5.29,90.76 -15.79,89.53 -26.08,87.09 -36.0,83.47 -45.45,78.73 -45.45,39.98 -41.59,44.08 -36.2,48.61 -30.3,52.48 -24.0,55.65 -17.38,58.06 -10.53,59.68 -3.53,60.5 3.53,60.5 10.53,59.68 17.38,58.06 24.0,55.65 30.3,52.48 36.2,48.61 41.59,44.08 45.45,39.98"/>
<polygon class="l0d0" points="15.79,-89.53 26.08,-87.09 36.0,-83.47 45.45,-78.73 45.45,-39.98 41.59,-44.08 36.2,-48.61 30.3,-52.48 24.0,-55.65 17.38,-58.06 10.53,-59.68 3.53,-60.5 -3.53,-60.5 -10.53,-59.68 -17.38,-58.06 -24.0,-55.65 -30.3,-52.48 -36.2,-48.61 -41.59,-44.08 -45.45,-39.98 -45.45,-78.73 -36.0,-83.47 -26.08,-87.09 -15.79,-89.53 -5.29,-90.76 5.29,-90.76"/>
<polygon class="l0d0" points="149.88,-13.97 147.86,-20.73 145.08,-27.2 141.55,-33.3 137.33,-38.95 132.5,-44.08 127.11,-48.61 121.21,-52.48 114.91,-55.65 108.29,-58.06 101.44,-59.68 94.44,-60.5 87.38,-60.5 80.38,-59.68 73.53,-58.06 66.91,-55.65 60.61,-52.48 54.71,-48.61 49.32,-44.08 45.45,-39.98 45.45,-78.73 54.91,-83.47 64.83,-87.09 75.12,-89.53 85.62,-90.76 96.2,-90.76 106.7,-89.53 116.98,-87.09 126.91,-83.47 136.36,-78.73 145.2,-72.92 153.29,-66.12 160.55,-58.44 166.86,-49.95 172.15,-40.8 176.33,-31.09 179.36,-20.97 181.2,-10.56 181.82,0.0 181.2,10.56 179.36,20.97 176.33,31.09 172.15,40.8 166.86,49.95 160.55,58.44 153.29,66.12 145.2,72.92 136.36,78.73 126.91,83.47 116.98,87.09 106.7,89.53 96.2,90.76 85.62,90.76 75.12,89.53 64.83,87.09 54.91,83.47 45.45,78.73 45.45,39.98 49.32,44.08 54.71,48.61 60.61,52.48 66.91,55.65 73.53,58.06 80.38,59.68 87.38,60.5 94.44,60.5 101.44,59.68 108.29,58.06 114.91,55.65 121.21,52.48 127.11,48.61 132.5,44.08 137.33,38.95 141.55,33.3 145.08,27.2 147.86,20.73 149.88,13.97 151.11,7.03 151.52,0.0 151.11,-7.03"/>
</g>
</svg>