<?xml version="1.0" encoding="UTF-8"?>
<svg xmlns="http://www.w3.org/2000/svg" xmlns:xlink="http://www.w3.org/1999/xlink"
     width="400.0" height="217.87878787878788" viewBox="-200.0 -108.93939393939394 400.0 217.87878787878788">
<defs>
<style type="text/css">
.l0d0 {stroke: rgb(255, 0, 0); fill: rgb(255, 0, 0); fill-opacity: 0.5;}
</style>
</defs><rect x="-200.0" y="-108.93939393939394" width="400.0" height="217.87878787878788" fill="none" stroke="none"/>
<g id="SLICES" transform="scale(1 -1)">
<polygon class="l0d0" points="-75.12121212121212,-89.53030303030302 -64.83333333333333,-87.0909090909091 -54.90909090909091,-83.46969696969697 -45.45454545454545,-78.72727272727272 -45.45454545454545,-39.98484848484848 -49.31818181818181,-44.07575757575757 -54.71212121212121,-48.60606060606061 -60.6060606060606,-52.48484848484848 -66.9090909090909,-55.65151515151515 -73.53030303030302,-58.060606060606055 -80.37878787878788,-59.68181818181818 -87.37878787878788,-60.49999999999999 -94.43939393939392,-60.49999999999999 -101.43939393939394,-59.68181818181818 -108.28787878787878,-58.060606060606055 -114.90909090909089,-55.65151515151515 -121.2121212121212,-52.48484848484848 -127.10606060606058,-48.60606060606061 -132.49999999999997,-44.07575757575757 -137.33333333333331,-38.95454545454545 -141.54545454545453,-33.3030303030303 -145.07575757575756,-27.196969696969695 -147.86363636363635,-20.727272727272727 -149.87878787878785,-13.969696969696969 -151.1060606060606,-7.03030303030303 -151.5151515151515,0.0 -151.1060606060606,7.03030303030303 -149.87878787878785,13.969696969696969 -147.86363636363635,20.727272727272727 -145.07575757575756,27.196969696969695 -141.54545454545453,33.3030303030303 -137.33333333333331,38.95454545454545 -132.49999999999997,44.07575757575757 -127.10606060606058,48.60606060606061 -121.2121212121212,52.48484848484848 -114.90909090909089,55.65151515151515 -108.28787878787878,58.060606060606055 -101.43939393939394,59.68181818181818 -94.43939393939392,60.49999999999999 -87.37878787878788,60.49999999999999 -80.37878787878788,59.68181818181818 -73.53030303030302,58.060606060606055 -66.9090909090909,55.65151515151515 -60.6060606060606,52.48484848484848 -54.71212121212121,48.60606060606061 -49.31818181818181,44.07575757575757 -45.45454545454545,39.98484848484848 -45.45454545454545,78.72727272727272 -54.90909090909091,83.46969696969697 -64.83333333333333,87.0909090909091 -75.12121212121212,89.53030303030302 -85.62121212121211,90.75757575757575 -96.19696969696969,90.75757575757575 -106.69696969696969,89.53030303030302 -116.98484848484848,87.0909090909091 -126.90909090909089,83.46969696969697 -136.36363636363635,78.72727272727272 -145.1969696969697,72.92424242424242 -153.28787878787878,66.12121212121211 -160.54545454545453,58.43939393939394 -166.86363636363635,49.95454545454545 -172.15151515151513,40.803030303030305 -176.33333333333331,31.09090909090909 -179.36363636363635,20.969696969696965 -181.1969696969697,10.560606060606059 -181.8181818181818,0.0 -181.1969696969697,-10.560606060606059 -179.36363636363635,-20.969696969696965 -176.33333333333331,-31.09090909090909 -172.15151515151513,-40.803030303030305 -166.86363636363635,-49.95454545454545 -160.54545454545453,-58.43939393939394 -153.28787878787878,-66.12121212121211 -145.1969696969697,-72.92424242424242 -136.36363636363635,-78.72727272727272 -126.90909090909089,-83.46969696969697 -116.98484848484848,-87.0909090909091 -106.69696969696969,-89.53030303030302 -96.19696969696969,-90.75757575757575 -85.62121212121211,-90.75757575757575"/>
<polygon class="l0d0" points="45.45454545454545,78.72727272727272 35.99999999999999,83.46969696969697 26.075757575757574,87.0909090909091 15.787878787878787,89.53030303030302 5.287878787878787,90.75757575757575 -5.287878787878787,90.75757575757575 -15.787878787878787,89.53030303030302 -26.075757575757574,87.0909090909091 -35.99999999999999,83.46969696969697 -45.45454545454545,78.72727272727272 -45.45454545454545,39.98484848484848 -41.590909090909086,44.07575757575757 -36.19696969696969,48.60606060606061 -30.3030303030303,52.48484848484848 -24.0,55.65151515151515 -17.37878787878788,58.060606060606055 -10.53030303030303,59.68181818181818 -3.5303030303030303,60.49999999999999 3.5303030303030303,60.49999999999999 10.53030303030303,59.68181818181818 17.37878787878788,58.060606060606055 24.0,55.65151515151515 30.3030303030303,52.48484848484848 36.19696969696969,48.60606060606061 41.590909090909086,44.07575757575757 45.45454545454545,39.98484848484848"/>
<polygon class="l0d0" points="15.787878787878787,-89.53030303030302 26.075757575757574,-87.0909090909091 35.99999999999999,-83.46969696969697 45.45454545454545,-78.72727272727272 45.45454545454545,-39.98484848484848 41.590909090909086,-44.07575757575757 36.19696969696969,-48.60606060606061 30.3030303030303,-52.48484848484848 24.0,-55.65151515151515 17.37878787878788,-58.060606060606055 10.53030303030303,-59.68181818181818 3.5303030303030303,-60.49999999999999 -3.5303030303030303,-60.49999999999999 -10.53030303030303,-59.68181818181818 -17.37878787878788,-58.060606060606055 -24.0,-55.65151515151515 -30.3030303030303,-52.48484848484848 -36.19696969696969,-48.60606060606061 -41.590909090909086,-44.07575757575757 -45.45454545454545,-39.98484848484848 -45.45454545454545,-78.72727272727272 -35.99999999999999,-83.46969696969697 -26.075757575757574,-87.0909090909091 -15.787878787878787,-89.53030303030302 -5.287878787878787,-90.75757575757575 5.287878787878787,-90.75757575757575"/>
<polygon class="l0d0" points="149.87878787878785,-13.969696969696969 147.86363636363635,-20.727272727272727 145.07575757575756,-27.196969696969695 141.54545454545453,-33.3030303030303 137.33333333333331,-38.95454545454545 132.49999999999997,-44.07575757575757 127.10606060606058,-48.60606060606061 121.2121212121212,-52.48484848484848 114.90909090909089,-55.65151515151515 108.28787878787878,-58.060606060606055 101.43939393939394,-59.68181818181818 94.43939393939392,-60.49999999999999 87.37878787878788,-60.49999999999999 80.37878787878788,-59.68181818181818 73.53030303030302,-58.060606060606055 66.9090909090909,-55.65151515151515 60.6060606060606,-52.48484848484848 54.71212121212121,-48.60606060606061 49.31818181818181,-44.07575757575757 45.45454545454545,-39.98484848484848 45.45454545454545,-78.72727272727272 54.90909090909091,-83.46969696969697 64.83333333333333,-87.0909090909091 75.12121212121212,-89.53030303030302 85.62121212121211,-90.75757575757575 96.19696969696969,-90.75757575757575 106.69696969696969,-89.53030303030302 116.98484848484848,-87.0909090909091 126.90909090909089,-83.46969696969697 136.36363636363635,-78.72727272727272 145.1969696969697,-72.92424242424242 153.28787878787878,-66.12121212121211 160.54545454545453,-58.43939393939394 166.86363636363635,-49.95454545454545 172.15151515151513,-40.803030303030305 176.33333333333331,-31.09090909090909 179.36363636363635,-20.969696969696965 181.1969696969697,-10.560606060606059 181.8181818181818,0.0 181.1969696969697,10.560606060606059 179.36363636363635,20.969696969696965 176.33333333333331,31.09090909090909 172.15151515151513,40.803030303030305 166.86363636363635,49.95454545454545 160.54545454545453,58.43939393939394 153.28787878787878,66.12121212121211 145.1969696969697,72.92424242424242 136.36363636363635,78.72727272727272 126.90909090909089,83.46969696969697 116.98484848484848,87.0909090909091 106.69696969696969,89.53030303030302 96.19696969696969,90.75757575757575 85.62121212121211,90.75757575757575 75.12121212121212,89.53030303030302 64.83333333333333,87.0909090909091 54.90909090909091,83.46969696969697 45.45454545454545,78.72727272727272 45.45454545454545,39.98484848484848 49.31818181818181,44.07575757575757 54.71212121212121,48.60606060606061 60.6060606060606,52.48484848484848 66.9090909090909,55.65151515151515 73.53030303030302,58.060606060606055 80.37878787878788,59.68181818181818 87.37878787878788,60.49999999999999 94.43939393939392,60.49999999999999 101.43939393939394,59.68181818181818 108.28787878787878,58.060606060606055 114.90909090909089,55.65151515151515 121.2121212121212,52.48484848484848 127.10606060606058,48.60606060606061 132.49999999999997,44.07575757575757 137.33333333333331,38.95454545454545 141.54545454545453,33.3030303030303 145.07575757575756,27.196969696969695 147.86363636363635,20.727272727272727 149.87878787878785,13.969696969696969 151.1060606060606,7.03030303030303 151.5151515151515,0.0 151.1060606060606,-7.03030303030303"/>
</g>
</svg>