<?xml version="1.0" encoding="UTF-8"?>
<svg xmlns="http://www.w3.org/2000/svg" xmlns:xlink="http://www.w3.org/1999/xlink" width="528.0" height="287.6" viewBox="-264.0 -143.8 528.0 287.6">
<defs>
<style type="text/css">
.l0d0 {stroke: rgb(255, 0, 0); fill: rgb(255, 0, 0); fill-opacity: 0.5;}
</style>
</defs><rect x="-264.0" y="-143.8" width="528.0" height="287.6" fill="none" stroke="none"/>
<g id="SLICES" transform="scale(1 -1)">
<polygon class="l0d0" points="-99.16,-118.17999999999999 -85.58,-114.96000000000001 -72.48,-110.18 -60.0,-103.91999999999999 -60.0,-52.779999999999994 -65.1,-58.17999999999999 -72.22,-64.16 -80.0,-69.28 -88.32000000000001,-73.46000000000001 -97.06,-76.64 -106.1,-78.78 -115.34,-79.86 -124.66,-79.86 -133.9,-78.78 -142.94,-76.64 -151.68,-73.46000000000001 -160.0,-69.28 -167.77999999999997,-64.16 -174.89999999999998,-58.17999999999999 -181.28,-51.42 -186.84,-43.96 -191.5,-35.9 -195.18,-27.360000000000003 -197.83999999999997,-18.44 -199.46,-9.280000000000001 -200.0,0.0 -199.46,9.280000000000001 -197.83999999999997,18.44 -195.18,27.360000000000003 -191.5,35.9 -186.84,43.96 -181.28,51.42 -174.89999999999998,58.17999999999999 -167.77999999999997,64.16 -160.0,69.28 -151.68,73.46000000000001 -142.94,76.64 -133.9,78.78 -124.66,79.86 -115.34,79.86 -106.1,78.78 -97.06,76.64 -88.32000000000001,73.46000000000001 -80.0,69.28 -72.22,64.16 -65.1,58.17999999999999 -60.0,52.779999999999994 -60.0,103.91999999999999 -72.48,110.18 -85.58,114.96000000000001 -99.16,118.17999999999999 -113.02,119.80000000000001 -126.98,119.80000000000001 -140.84,118.17999999999999 -154.42000000000002,114.96000000000001 -167.51999999999998,110.18 -180.0,103.91999999999999 -191.66,96.25999999999999 -202.34000000000003,87.28 -211.92000000000002,77.14 -220.26,65.94 -227.24,53.86 -232.76,41.04 -236.76,27.68 -239.18,13.94 -240.0,0.0 -239.18,-13.94 -236.76,-27.68 -232.76,-41.04 -227.24,-53.86 -220.26,-65.94 -211.92000000000002,-77.14 -202.34000000000003,-87.28 -191.66,-96.25999999999999 -180.0,-103.91999999999999 -167.51999999999998,-110.18 -154.42000000000002,-114.96000000000001 -140.84,-118.17999999999999 -126.98,-119.80000000000001 -113.02,-119.80000000000001"/>
<polygon class="l0d0" points="60.0,103.91999999999999 47.519999999999996,110.18 34.42,114.96000000000001 20.84,118.17999999999999 6.9799999999999995,119.80000000000001 -6.9799999999999995,119.80000000000001 -20.84,118.17999999999999 -34.42,114.96000000000001 -47.519999999999996,110.18 -60.0,103.91999999999999 -60.0,52.779999999999994 -54.900000000000006,58.17999999999999 -47.779999999999994,64.16 -40.0,69.28 -31.68,73.46000000000001 -22.94,76.64 -13.899999999999999,78.78 -4.66,79.86 4.66,79.86 13.899999999999999,78.78 22.94,76.64 31.68,73.46000000000001 40.0,69.28 47.779999999999994,64.16 54.900000000000006,58.17999999999999 60.0,52.779999999999994"/>
<polygon class="l0d0" points="20.84,-118.17999999999999 34.42,-114.96000000000001 47.519999999999996,-110.18 60.0,-103.91999999999999 60.0,-52.779999999999994 54.900000000000006,-58.17999999999999 47.779999999999994,-64.16 40.0,-69.28 31.68,-73.46000000000001 22.94,-76.64 13.899999999999999,-78.78 4.66,-79.86 -4.66,-79.86 -13.899999999999999,-78.78 -22.94,-76.64 -31.68,-73.46000000000001 -40.0,-69.28 -47.779999999999994,-64.16 -54.900000000000006,-58.17999999999999 -60.0,-52.779999999999994 -60.0,-103.91999999999999 -47.519999999999996,-110.18 -34.42,-114.96000000000001 -20.84,-118.17999999999999 -6.9799999999999995,-119.80000000000001 6.9799999999999995,-119.80000000000001"/>
<polygon class="l0d0" points="197.83999999999997,-18.44 195.18,-27.360000000000003 191.5,-35.9 186.84,-43.96 181.28,-51.42 174.89999999999998,-58.17999999999999 167.77999999999997,-64.16 160.0,-69.28 151.68,-73.46000000000001 142.94,-76.64 133.9,-78.78 124.66,-79.86 115.34,-79.86 106.1,-78.78 97.06,-76.64 88.32000000000001,-73.46000000000001 80.0,-69.28 72.22,-64.16 65.1,-58.17999999999999 60.0,-52.779999999999994 60.0,-103.91999999999999 72.48,-110.18 85.58,-114.96000000000001 99.16,-118.17999999999999 113.02,-119.80000000000001 126.98,-119.80000000000001 140.84,-118.17999999999999 154.42000000000002,-114.96000000000001 167.51999999999998,-110.18 180.0,-103.91999999999999 191.66,-96.25999999999999 202.34000000000003,-87.28 211.92000000000002,-77.14 220.26,-65.94 227.24,-53.86 232.76,-41.04 236.76,-27.68 239.18,-13.94 240.0,0.0 239.18,13.94 236.76,27.68 232.76,41.04 227.24,53.86 220.26,65.94 211.92000000000002,77.14 202.34000000000003,87.28 191.66,96.25999999999999 180.0,103.91999999999999 167.51999999999998,110.18 154.42000000000002,114.96000000000001 140.84,118.17999999999999 126.98,119.80000000000001 113.02,119.80000000000001 99.16,118.17999999999999 85.58,114.96000000000001 72.48,110.18 60.0,103.91999999999999 60.0,52.779999999999994 65.1,58.17999999999999 72.22,64.16 80.0,69.28 88.32000000000001,73.46000000000001 97.06,76.64 106.1,78.78 115.34,79.86 124.66,79.86 133.9,78.78 142.94,76.64 151.68,73.46000000000001 160.0,69.28 167.77999999999997,64.16 174.89999999999998,58.17999999999999 181.28,51.42 186.84,43.96 191.5,35.9 195.18,27.360000000000003 197.83999999999997,18.44 199.46,9.280000000000001 200.0,0.0 199.46,-9.280000000000001"/>
</g>
</svg>