<?xml version="1.0" encoding="UTF-8"?>
<svg xmlns="http://www.w3.org/2000/svg" xmlns:xlink="http://www.w3.org/1999/xlink"
     width="400.0" height="301.07" viewBox="-18.18 -282.89 400.0 301.07">
<defs>
<style type="text/css">
.l10d0 {stroke: rgb(42, 139, 255); fill: rgb(42, 139, 255); fill-opacity: 0.5;}
.l0d0 {stroke: rgb(255, 0, 0); fill: rgb(255, 0, 0); fill-opacity: 0.5;}
.l0t0 {stroke: none; fill: rgb(255, 0, 0);}
</style>
</defs>
<rect x="-18.18" y="-282.89" width="400.0" height="301.07" fill="none" stroke="none"/>
<g id="text" transform="scale(1 -1)">
<polygon class="l0d0" points="16.04,208.56 24.06,208.56 32.09,208.56 40.11,208.56 40.11,216.58 32.09,216.58 32.09,224.6 32.09,232.62 32.09,240.64 32.09,248.66 32.09,256.68 32.09,264.71 24.06,264.71 24.06,256.68 16.04,256.68 16.04,248.66 24.06,248.66 24.06,240.64 24.06,232.62 24.06,224.6 24.06,216.58 16.04,216.58"/>
<polygon class="l0d0" points="72.19,208.56 80.21,208.56 88.24,208.56 96.26,208.56 104.28,208.56 112.3,208.56 112.3,216.58 104.28,216.58 96.26,216.58 88.24,216.58 80.21,216.58 80.21,224.6 72.19,224.6 72.19,216.58"/>
<polygon class="l0d0" points="72.19,248.66 80.21,248.66 80.21,256.68 72.19,256.68"/>
<polygon class="l0d0" points="80.21,224.6 88.24,224.6 96.26,224.6 96.26,232.62 88.24,232.62 80.21,232.62"/>
<polygon class="l0d0" points="80.21,256.68 88.24,256.68 96.26,256.68 104.28,256.68 104.28,264.71 96.26,264.71 88.24,264.71 80.21,264.71"/>
<polygon class="l0d0" points="96.26,232.62 104.28,232.62 104.28,240.64 96.26,240.64"/>
<polygon class="l0d0" points="104.28,240.64 112.3,240.64 112.3,248.66 112.3,256.68 104.28,256.68 104.28,248.66"/>
<polygon class="l0d0" points="136.36,208.56 144.39,208.56 152.41,208.56 160.43,208.56 168.45,208.56 168.45,216.58 160.43,216.58 152.41,216.58 144.39,216.58 136.36,216.58"/>
<polygon class="l0d0" points="136.36,256.68 144.39,256.68 152.41,256.68 160.43,256.68 168.45,256.68 168.45,264.71 160.43,264.71 152.41,264.71 144.39,264.71 136.36,264.71"/>
<polygon class="l0d0" points="144.39,232.62 152.41,232.62 160.43,232.62 168.45,232.62 168.45,240.64 160.43,240.64 152.41,240.64 144.39,240.64"/>
<polygon class="l0d0" points="168.45,216.58 176.47,216.58 176.47,224.6 176.47,232.62 168.45,232.62 168.45,224.6"/>
<polygon class="l0d0" points="168.45,240.64 176.47,240.64 176.47,248.66 176.47,256.68 168.45,256.68 168.45,248.66"/>
<polygon class="l0d0" points="200.53,224.6 208.56,224.6 216.58,224.6 224.6,224.6 224.6,216.58 224.6,208.56 232.62,208.56 232.62,216.58 232.62,224.6 240.64,224.6 240.64,232.62 232.62,232.62 232.62,240.64 232.62,248.66 232.62,256.68 232.62,264.71 224.6,264.71 216.58,264.71 216.58,256.68 224.6,256.68 224.6,248.66 224.6,240.64 224.6,232.62 216.58,232.62 208.56,232.62 208.56,240.64 200.53,240.64 200.53,232.62"/>
<polygon class="l0d0" points="208.56,240.64 216.58,240.64 216.58,248.66 216.58,256.68 208.56,256.68 208.56,248.66"/>
<polygon class="l0d0" points="264.71,208.56 272.73,208.56 280.75,208.56 288.77,208.56 296.79,208.56 296.79,216.58 288.77,216.58 280.75,216.58 272.73,216.58 264.71,216.58"/>
<polygon class="l0d0" points="264.71,232.62 272.73,232.62 280.75,232.62 288.77,232.62 296.79,232.62 296.79,240.64 288.77,240.64 280.75,240.64 272.73,240.64 272.73,248.66 272.73,256.68 280.75,256.68 288.77,256.68 296.79,256.68 304.81,256.68 304.81,264.71 296.79,264.71 288.77,264.71 280.75,264.71 272.73,264.71 264.71,264.71 264.71,256.68 264.71,248.66 264.71,240.64"/>
<polygon class="l0d0" points="296.79,216.58 304.81,216.58 304.81,224.6 304.81,232.62 296.79,232.62 296.79,224.6"/>
<polygon class="l0d0" points="336.9,139.04 342.25,139.04 342.25,144.39 342.25,149.73 347.59,149.73 352.94,149.73 358.29,149.73 358.29,144.39 358.29,139.04 363.64,139.04 363.64,144.39 363.64,149.73 363.64,155.08 363.64,160.43 363.64,165.78 363.64,171.12 358.29,171.12 358.29,165.78 358.29,160.43 358.29,155.08 352.94,155.08 347.59,155.08 342.25,155.08 342.25,160.43 342.25,165.78 342.25,171.12 336.9,171.12 336.9,165.78 336.9,160.43 336.9,155.08 336.9,149.73 336.9,144.39"/>
<polygon class="l0d0" points="342.25,171.12 347.59,171.12 352.94,171.12 358.29,171.12 358.29,176.47 352.94,176.47 347.59,176.47 342.25,176.47"/>
<polygon class="l0d0" points="336.9,80.21 342.25,80.21 347.59,80.21 352.94,80.21 358.29,80.21 358.29,85.56 352.94,85.56 347.59,85.56 342.25,85.56 342.25,90.91 342.25,96.26 347.59,96.26 352.94,96.26 358.29,96.26 358.29,101.6 352.94,101.6 347.59,101.6 342.25,101.6 342.25,106.95 342.25,112.3 347.59,112.3 352.94,112.3 358.29,112.3 358.29,117.65 352.94,117.65 347.59,117.65 342.25,117.65 336.9,117.65 336.9,112.3 336.9,106.95 336.9,101.6 336.9,96.26 336.9,90.91 336.9,85.56"/>
<polygon class="l0d0" points="358.29,85.56 363.64,85.56 363.64,90.91 363.64,96.26 358.29,96.26 358.29,90.91"/>
<polygon class="l0d0" points="358.29,101.6 363.64,101.6 363.64,106.95 363.64,112.3 358.29,112.3 358.29,106.95"/>
<polygon class="l0d0" points="336.9,26.74 342.25,26.74 342.25,32.09 342.25,37.43 342.25,42.78 342.25,48.13 342.25,53.48 336.9,53.48 336.9,48.13 336.9,42.78 336.9,37.43 336.9,32.09"/>
<polygon class="l0d0" points="342.25,21.39 347.59,21.39 352.94,21.39 358.29,21.39 363.64,21.39 363.64,26.74 358.29,26.74 352.94,26.74 347.59,26.74 342.25,26.74"/>
<polygon class="l0d0" points="342.25,53.48 347.59,53.48 352.94,53.48 358.29,53.48 363.64,53.48 363.64,58.82 358.29,58.82 352.94,58.82 347.59,58.82 342.25,58.82"/>
<polygon class="l10d0" points="0.0,0.0 0.0,192.51 320.86,192.51 320.86,0.0"/>
<text class="l0t0" text-anchor="start" dominant-baseline="text-before-edge" transform="scale(1 -1) translate(32.09 -96.26)">Sample label</text>
</g>
</svg>