<?xml version="1.0" encoding="UTF-8"?>
<svg xmlns="http://www.w3.org/2000/svg" xmlns:xlink="http://www.w3.org/1999/xlink"
     width="399.99999999999994" height="301.0695187165775" viewBox="-18.181818181818176 -282.8877005347593 399.99999999999994 301.0695187165775">
<defs>
<style type="text/css">
.l10d0 {stroke: rgb(42, 139, 255); fill: rgb(42, 139, 255); fill-opacity: 0.5;}
.l0d0 {stroke: rgb(255, 0, 0); fill: rgb(255, 0, 0); fill-opacity: 0.5;}
.l0t0 {stroke: none; fill: rgb(255, 0, 0);}
</style>
</defs><rect x="-18.181818181818176" y="-282.8877005347593" width="399.99999999999994" height="301.0695187165775" fill="none" stroke="none"/>
<g id="text" transform="scale(1 -1)">
<polygon class="l0d0" points="16.042780748663098,208.55614973262027 24.064171122994647,208.55614973262027 32.085561497326196,208.55614973262027 40.10695187165774,208.55614973262027 40.10695187165774,216.57754010695183 32.085561497326196,216.57754010695183 32.085561497326196,224.5989304812834 32.085561497326196,232.62032085561492 32.085561497326196,240.64171122994648 32.085561497326196,248.663101604278 32.085561497326196,256.68449197860957 32.085561497326196,264.7058823529411 24.064171122994647,264.7058823529411 24.064171122994647,256.68449197860957 16.042780748663098,256.68449197860957 16.042780748663098,248.663101604278 24.064171122994647,248.663101604278 24.064171122994647,240.64171122994648 24.064171122994647,232.62032085561492 24.064171122994647,224.5989304812834 24.064171122994647,216.57754010695183 16.042780748663098,216.57754010695183"/>
<polygon class="l0d0" points="72.19251336898394,208.55614973262027 80.21390374331548,208.55614973262027 88.23529411764704,208.55614973262027 96.25668449197859,208.55614973262027 104.27807486631013,208.55614973262027 112.2994652406417,208.55614973262027 112.2994652406417,216.57754010695183 104.27807486631013,216.57754010695183 96.25668449197859,216.57754010695183 88.23529411764704,216.57754010695183 80.21390374331548,216.57754010695183 80.21390374331548,224.5989304812834 72.19251336898394,224.5989304812834 72.19251336898394,216.57754010695183"/>
<polygon class="l0d0" points="72.19251336898394,248.663101604278 80.21390374331548,248.663101604278 80.21390374331548,256.68449197860957 72.19251336898394,256.68449197860957"/>
<polygon class="l0d0" points="80.21390374331548,224.5989304812834 88.23529411764704,224.5989304812834 96.25668449197859,224.5989304812834 96.25668449197859,232.62032085561492 88.23529411764704,232.62032085561492 80.21390374331548,232.62032085561492"/>
<polygon class="l0d0" points="80.21390374331548,256.68449197860957 88.23529411764704,256.68449197860957 96.25668449197859,256.68449197860957 104.27807486631013,256.68449197860957 104.27807486631013,264.7058823529411 96.25668449197859,264.7058823529411 88.23529411764704,264.7058823529411 80.21390374331548,264.7058823529411"/>
<polygon class="l0d0" points="96.25668449197859,232.62032085561492 104.27807486631013,232.62032085561492 104.27807486631013,240.64171122994648 96.25668449197859,240.64171122994648"/>
<polygon class="l0d0" points="104.27807486631013,240.64171122994648 112.2994652406417,240.64171122994648 112.2994652406417,248.663101604278 112.2994652406417,256.68449197860957 104.27807486631013,256.68449197860957 104.27807486631013,248.663101604278"/>
<polygon class="l0d0" points="136.36363636363635,208.55614973262027 144.38502673796788,208.55614973262027 152.40641711229944,208.55614973262027 160.42780748663097,208.55614973262027 168.44919786096253,208.55614973262027 168.44919786096253,216.57754010695183 160.42780748663097,216.57754010695183 152.40641711229944,216.57754010695183 144.38502673796788,216.57754010695183 136.36363636363635,216.57754010695183"/>
<polygon class="l0d0" points="136.36363636363635,256.68449197860957 144.38502673796788,256.68449197860957 152.40641711229944,256.68449197860957 160.42780748663097,256.68449197860957 168.44919786096253,256.68449197860957 168.44919786096253,264.7058823529411 160.42780748663097,264.7058823529411 152.40641711229944,264.7058823529411 144.38502673796788,264.7058823529411 136.36363636363635,264.7058823529411"/>
<polygon class="l0d0" points="144.38502673796788,232.62032085561492 152.40641711229944,232.62032085561492 160.42780748663097,232.62032085561492 168.44919786096253,232.62032085561492 168.44919786096253,240.64171122994648 160.42780748663097,240.64171122994648 152.40641711229944,240.64171122994648 144.38502673796788,240.64171122994648"/>
<polygon class="l0d0" points="168.44919786096253,216.57754010695183 176.4705882352941,216.57754010695183 176.4705882352941,224.5989304812834 176.4705882352941,232.62032085561492 168.44919786096253,232.62032085561492 168.44919786096253,224.5989304812834"/>
<polygon class="l0d0" points="168.44919786096253,240.64171122994648 176.4705882352941,240.64171122994648 176.4705882352941,248.663101604278 176.4705882352941,256.68449197860957 168.44919786096253,256.68449197860957 168.44919786096253,248.663101604278"/>
<polygon class="l0d0" points="200.53475935828874,224.5989304812834 208.55614973262027,224.5989304812834 216.57754010695183,224.5989304812834 224.5989304812834,224.5989304812834 224.5989304812834,216.57754010695183 224.5989304812834,208.55614973262027 232.62032085561492,208.55614973262027 232.62032085561492,216.57754010695183 232.62032085561492,224.5989304812834 240.64171122994648,224.5989304812834 240.64171122994648,232.62032085561492 232.62032085561492,232.62032085561492 232.62032085561492,240.64171122994648 232.62032085561492,248.663101604278 232.62032085561492,256.68449197860957 232.62032085561492,264.7058823529411 224.5989304812834,264.7058823529411 216.57754010695183,264.7058823529411 216.57754010695183,256.68449197860957 224.5989304812834,256.68449197860957 224.5989304812834,248.663101604278 224.5989304812834,240.64171122994648 224.5989304812834,232.62032085561492 216.57754010695183,232.62032085561492 208.55614973262027,232.62032085561492 208.55614973262027,240.64171122994648 200.53475935828874,240.64171122994648 200.53475935828874,232.62032085561492"/>
<polygon class="l0d0" points="208.55614973262027,240.64171122994648 216.57754010695183,240.64171122994648 216.57754010695183,248.663101604278 216.57754010695183,256.68449197860957 208.55614973262027,256.68449197860957 208.55614973262027,248.663101604278"/>
<polygon class="l0d0" points="264.7058823529411,208.55614973262027 272.7272727272727,208.55614973262027 280.7486631016042,208.55614973262027 288.77005347593575,208.55614973262027 296.79144385026734,208.55614973262027 296.79144385026734,216.57754010695183 288.77005347593575,216.57754010695183 280.7486631016042,216.57754010695183 272.7272727272727,216.57754010695183 264.7058823529411,216.57754010695183"/>
<polygon class="l0d0" points="264.7058823529411,232.62032085561492 272.7272727272727,232.62032085561492 280.7486631016042,232.62032085561492 288.77005347593575,232.62032085561492 296.79144385026734,232.62032085561492 296.79144385026734,240.64171122994648 288.77005347593575,240.64171122994648 280.7486631016042,240.64171122994648 272.7272727272727,240.64171122994648 272.7272727272727,248.663101604278 272.7272727272727,256.68449197860957 280.7486631016042,256.68449197860957 288.77005347593575,256.68449197860957 296.79144385026734,256.68449197860957 304.8128342245989,256.68449197860957 304.8128342245989,264.7058823529411 296.79144385026734,264.7058823529411 288.77005347593575,264.7058823529411 280.7486631016042,264.7058823529411 272.7272727272727,264.7058823529411 264.7058823529411,264.7058823529411 264.7058823529411,256.68449197860957 264.7058823529411,248.663101604278 264.7058823529411,240.64171122994648"/>
<polygon class="l0d0" points="296.79144385026734,216.57754010695183 304.8128342245989,216.57754010695183 304.8128342245989,224.5989304812834 304.8128342245989,232.62032085561492 296.79144385026734,232.62032085561492 296.79144385026734,224.5989304812834"/>
<polygon class="l0d0" points="336.89839572192506,139.03743315508018 342.2459893048127,139.03743315508018 342.2459893048127,144.38502673796788 342.2459893048127,149.7326203208556 347.5935828877005,149.7326203208556 352.9411764705882,149.7326203208556 358.28877005347584,149.7326203208556 358.28877005347584,144.38502673796788 358.28877005347584,139.03743315508018 363.63636363636357,139.03743315508018 363.63636363636357,144.38502673796788 363.63636363636357,149.7326203208556 363.63636363636357,155.08021390374327 363.63636363636357,160.42780748663097 363.63636363636357,165.77540106951867 363.63636363636357,171.12299465240636 358.28877005347584,171.12299465240636 358.28877005347584,165.77540106951867 358.28877005347584,160.42780748663097 358.28877005347584,155.08021390374327 352.9411764705882,155.08021390374327 347.5935828877005,155.08021390374327 342.2459893048127,155.08021390374327 342.2459893048127,160.42780748663097 342.2459893048127,165.77540106951867 342.2459893048127,171.12299465240636 336.89839572192506,171.12299465240636 336.89839572192506,165.77540106951867 336.89839572192506,160.42780748663097 336.89839572192506,155.08021390374327 336.89839572192506,149.7326203208556 336.89839572192506,144.38502673796788"/>
<polygon class="l0d0" points="342.2459893048127,171.12299465240636 347.5935828877005,171.12299465240636 352.9411764705882,171.12299465240636 358.28877005347584,171.12299465240636 358.28877005347584,176.4705882352941 352.9411764705882,176.4705882352941 347.5935828877005,176.4705882352941 342.2459893048127,176.4705882352941"/>
<polygon class="l0d0" points="336.89839572192506,80.21390374331548 342.2459893048127,80.21390374331548 347.5935828877005,80.21390374331548 352.9411764705882,80.21390374331548 358.28877005347584,80.21390374331548 358.28877005347584,85.5614973262032 352.9411764705882,85.5614973262032 347.5935828877005,85.5614973262032 342.2459893048127,85.5614973262032 342.2459893048127,90.90909090909089 342.2459893048127,96.25668449197859 347.5935828877005,96.25668449197859 352.9411764705882,96.25668449197859 358.28877005347584,96.25668449197859 358.28877005347584,101.6042780748663 352.9411764705882,101.6042780748663 347.5935828877005,101.6042780748663 342.2459893048127,101.6042780748663 342.2459893048127,106.951871657754 342.2459893048127,112.2994652406417 347.5935828877005,112.2994652406417 352.9411764705882,112.2994652406417 358.28877005347584,112.2994652406417 358.28877005347584,117.64705882352938 352.9411764705882,117.64705882352938 347.5935828877005,117.64705882352938 342.2459893048127,117.64705882352938 336.89839572192506,117.64705882352938 336.89839572192506,112.2994652406417 336.89839572192506,106.951871657754 336.89839572192506,101.6042780748663 336.89839572192506,96.25668449197859 336.89839572192506,90.90909090909089 336.89839572192506,85.5614973262032"/>
<polygon class="l0d0" points="358.28877005347584,85.5614973262032 363.63636363636357,85.5614973262032 363.63636363636357,90.90909090909089 363.63636363636357,96.25668449197859 358.28877005347584,96.25668449197859 358.28877005347584,90.90909090909089"/>
<polygon class="l0d0" points="358.28877005347584,101.6042780748663 363.63636363636357,101.6042780748663 363.63636363636357,106.951871657754 363.63636363636357,112.2994652406417 358.28877005347584,112.2994652406417 358.28877005347584,106.951871657754"/>
<polygon class="l0d0" points="336.89839572192506,26.737967914438503 342.2459893048127,26.737967914438503 342.2459893048127,32.085561497326196 342.2459893048127,37.43315508021391 342.2459893048127,42.7807486631016 342.2459893048127,48.128342245989295 342.2459893048127,53.475935828877006 336.89839572192506,53.475935828877006 336.89839572192506,48.128342245989295 336.89839572192506,42.7807486631016 336.89839572192506,37.43315508021391 336.89839572192506,32.085561497326196"/>
<polygon class="l0d0" points="342.2459893048127,21.390374331550806 347.5935828877005,21.390374331550806 352.9411764705882,21.390374331550806 358.28877005347584,21.390374331550806 363.63636363636357,21.390374331550806 363.63636363636357,26.737967914438503 358.28877005347584,26.737967914438503 352.9411764705882,26.737967914438503 347.5935828877005,26.737967914438503 342.2459893048127,26.737967914438503"/>
<polygon class="l0d0" points="342.2459893048127,53.475935828877006 347.5935828877005,53.475935828877006 352.9411764705882,53.475935828877006 358.28877005347584,53.475935828877006 363.63636363636357,53.475935828877006 363.63636363636357,58.823529411764696 358.28877005347584,58.823529411764696 352.9411764705882,58.823529411764696 347.5935828877005,58.823529411764696 342.2459893048127,58.823529411764696"/>
<polygon class="l10d0" points="0.0,0.0 0.0,192.51336898395718 320.85561497326194,192.51336898395718 320.85561497326194,0.0"/>
<text class="l0t0" text-anchor="start" dominant-baseline="text-before-edge" transform="scale(1 -1) translate(32.085561497326196 -96.25668449197859)">Sample label</text>
</g>
</svg>