<?xml version="1.0" encoding="UTF-8"?>
<svg xmlns="http://www.w3.org/2000/svg" xmlns:xlink="http://www.w3.org/1999/xlink" width="249.33333333333337" height="187.66666666666669" viewBox="-11.333333333333336 -176.33333333333334 249.33333333333337 187.66666666666669">
<defs>
<style type="text/css">
.l10d0 {stroke: rgb(42, 139, 255); fill: rgb(42, 139, 255); fill-opacity: 0.5;}
.l0d0 {stroke: rgb(255, 0, 0); fill: rgb(255, 0, 0); fill-opacity: 0.5;}
.l0t0 {stroke: none; fill: rgb(255, 0, 0);}
</style>
</defs><rect x="-11.333333333333336" y="-176.33333333333334" width="249.33333333333337" height="187.66666666666669" fill="none" stroke="none"/>
<g id="text" transform="scale(1 -1)">
<polygon class="l0d0" points="10.0,130.0 15.0,130.0 20.0,130.0 25.0,130.0 25.0,135.0 20.0,135.0 20.0,140.0 20.0,145.0 20.0,150.0 20.0,155.0 20.0,160.0 20.0,165.0 15.0,165.0 15.0,160.0 10.0,160.0 10.0,155.0 15.0,155.0 15.0,150.0 15.0,145.0 15.0,140.0 15.0,135.0 10.0,135.0"/>
<polygon class="l0d0" points="45.0,130.0 50.0,130.0 55.0,130.0 60.0,130.0 65.0,130.0 70.0,130.0 70.0,135.0 65.0,135.0 60.0,135.0 55.0,135.0 50.0,135.0 50.0,140.0 45.0,140.0 45.0,135.0"/>
<polygon class="l0d0" points="45.0,155.0 50.0,155.0 50.0,160.0 45.0,160.0"/>
<polygon class="l0d0" points="50.0,140.0 55.0,140.0 60.0,140.0 60.0,145.0 55.0,145.0 50.0,145.0"/>
<polygon class="l0d0" points="50.0,160.0 55.0,160.0 60.0,160.0 65.0,160.0 65.0,165.0 60.0,165.0 55.0,165.0 50.0,165.0"/>
<polygon class="l0d0" points="60.0,145.0 65.0,145.0 65.0,150.0 60.0,150.0"/>
<polygon class="l0d0" points="65.0,150.0 70.0,150.0 70.0,155.0 70.0,160.0 65.0,160.0 65.0,155.0"/>
<polygon class="l0d0" points="85.0,130.0 90.0,130.0 95.0,130.0 100.0,130.0 105.0,130.0 105.0,135.0 100.0,135.0 95.0,135.0 90.0,135.0 85.0,135.0"/>
<polygon class="l0d0" points="85.0,160.0 90.0,160.0 95.0,160.0 100.0,160.0 105.0,160.0 105.0,165.0 100.0,165.0 95.0,165.0 90.0,165.0 85.0,165.0"/>
<polygon class="l0d0" points="90.0,145.0 95.0,145.0 100.0,145.0 105.0,145.0 105.0,150.0 100.0,150.0 95.0,150.0 90.0,150.0"/>
<polygon class="l0d0" points="105.0,135.0 110.0,135.0 110.0,140.0 110.0,145.0 105.0,145.0 105.0,140.0"/>
<polygon class="l0d0" points="105.0,150.0 110.0,150.0 110.0,155.0 110.0,160.0 105.0,160.0 105.0,155.0"/>
<polygon class="l0d0" points="125.0,140.0 130.0,140.0 135.0,140.0 140.0,140.0 140.0,135.0 140.0,130.0 145.0,130.0 145.0,135.0 145.0,140.0 150.0,140.0 150.0,145.0 145.0,145.0 145.0,150.0 145.0,155.0 145.0,160.0 145.0,165.0 140.0,165.0 135.0,165.0 135.0,160.0 140.0,160.0 140.0,155.0 140.0,150.0 140.0,145.0 135.0,145.0 130.0,145.0 130.0,150.0 125.0,150.0 125.0,145.0"/>
<polygon class="l0d0" points="130.0,150.0 135.0,150.0 135.0,155.0 135.0,160.0 130.0,160.0 130.0,155.0"/>
<polygon class="l0d0" points="165.0,130.0 170.0,130.0 175.0,130.0 180.0,130.0 185.0,130.0 185.0,135.0 180.0,135.0 175.0,135.0 170.0,135.0 165.0,135.0"/>
<polygon class="l0d0" points="165.0,145.0 170.0,145.0 175.0,145.0 180.0,145.0 185.0,145.0 185.0,150.0 180.0,150.0 175.0,150.0 170.0,150.0 170.0,155.0 170.0,160.0 175.0,160.0 180.0,160.0 185.0,160.0 190.0,160.0 190.0,165.0 185.0,165.0 180.0,165.0 175.0,165.0 170.0,165.0 165.0,165.0 165.0,160.0 165.0,155.0 165.0,150.0"/>
<polygon class="l0d0" points="185.0,135.0 190.0,135.0 190.0,140.0 190.0,145.0 185.0,145.0 185.0,140.0"/>
<polygon class="l0d0" points="210.0,86.66666666666666 213.33333333333331,86.66666666666666 213.33333333333331,90.0 213.33333333333331,93.33333333333334 216.66666666666669,93.33333333333334 220.0,93.33333333333334 223.33333333333331,93.33333333333334 223.33333333333331,90.0 223.33333333333331,86.66666666666666 226.66666666666669,86.66666666666666 226.66666666666669,90.0 226.66666666666669,93.33333333333334 226.66666666666669,96.66666666666666 226.66666666666669,100.0 226.66666666666669,103.33333333333331 226.66666666666669,106.66666666666666 223.33333333333331,106.66666666666666 223.33333333333331,103.33333333333331 223.33333333333331,100.0 223.33333333333331,96.66666666666666 220.0,96.66666666666666 216.66666666666669,96.66666666666666 213.33333333333331,96.66666666666666 213.33333333333331,100.0 213.33333333333331,103.33333333333331 213.33333333333331,106.66666666666666 210.0,106.66666666666666 210.0,103.33333333333331 210.0,100.0 210.0,96.66666666666666 210.0,93.33333333333334 210.0,90.0"/>
<polygon class="l0d0" points="213.33333333333331,106.66666666666666 216.66666666666669,106.66666666666666 220.0,106.66666666666666 223.33333333333331,106.66666666666666 223.33333333333331,110.0 220.0,110.0 216.66666666666669,110.0 213.33333333333331,110.0"/>
<polygon class="l0d0" points="210.0,50.0 213.33333333333331,50.0 216.66666666666669,50.0 220.0,50.0 223.33333333333331,50.0 223.33333333333331,53.33333333333334 220.0,53.33333333333334 216.66666666666669,53.33333333333334 213.33333333333331,53.33333333333334 213.33333333333331,56.66666666666667 213.33333333333331,60.0 216.66666666666669,60.0 220.0,60.0 223.33333333333331,60.0 223.33333333333331,63.33333333333334 220.0,63.33333333333334 216.66666666666669,63.33333333333334 213.33333333333331,63.33333333333334 213.33333333333331,66.66666666666667 213.33333333333331,70.0 216.66666666666669,70.0 220.0,70.0 223.33333333333331,70.0 223.33333333333331,73.33333333333333 220.0,73.33333333333333 216.66666666666669,73.33333333333333 213.33333333333331,73.33333333333333 210.0,73.33333333333333 210.0,70.0 210.0,66.66666666666667 210.0,63.33333333333334 210.0,60.0 210.0,56.66666666666667 210.0,53.33333333333334"/>
<polygon class="l0d0" points="223.33333333333331,53.33333333333334 226.66666666666669,53.33333333333334 226.66666666666669,56.66666666666667 226.66666666666669,60.0 223.33333333333331,60.0 223.33333333333331,56.66666666666667"/>
<polygon class="l0d0" points="223.33333333333331,63.33333333333334 226.66666666666669,63.33333333333334 226.66666666666669,66.66666666666667 226.66666666666669,70.0 223.33333333333331,70.0 223.33333333333331,66.66666666666667"/>
<polygon class="l0d0" points="210.0,16.66666666666667 213.33333333333331,16.66666666666667 213.33333333333331,20.0 213.33333333333331,23.33333333333334 213.33333333333331,26.66666666666667 213.33333333333331,30.0 213.33333333333331,33.33333333333334 210.0,33.33333333333334 210.0,30.0 210.0,26.66666666666667 210.0,23.33333333333334 210.0,20.0"/>
<polygon class="l0d0" points="213.33333333333331,13.33333333333334 216.66666666666669,13.33333333333334 220.0,13.33333333333334 223.33333333333331,13.33333333333334 226.66666666666669,13.33333333333334 226.66666666666669,16.66666666666667 223.33333333333331,16.66666666666667 220.0,16.66666666666667 216.66666666666669,16.66666666666667 213.33333333333331,16.66666666666667"/>
<polygon class="l0d0" points="213.33333333333331,33.33333333333334 216.66666666666669,33.33333333333334 220.0,33.33333333333334 223.33333333333331,33.33333333333334 226.66666666666669,33.33333333333334 226.66666666666669,36.66666666666667 223.33333333333331,36.66666666666667 220.0,36.66666666666667 216.66666666666669,36.66666666666667 213.33333333333331,36.66666666666667"/>
<polygon class="l10d0" points="0,0 0,120 200,120 200,0"/>
<text class="l0t0" text-anchor="start" dominant-baseline="text-before-edge" transform="scale(1 -1) translate(20 -60)">Sample label</text>
</g>
</svg>